<svg xmlns="http://www.w3.org/2000/svg" width="424.449" height="484.861" viewBox="0 0 424.449 484.861">
  <g id="Grupo_53492" data-name="Grupo 53492" transform="translate(-804.551 -150.531)">
    <g id="Grupo_53473" data-name="Grupo 53473" transform="translate(0 21.152)">
      <path id="Trazado_98930" data-name="Trazado 98930" d="M222.234,109.8C344.97,109.8,444.467,80,444.467,206.162s-99.5,228.429-222.234,228.429S0,332.32,0,206.162,99.5,109.8,222.234,109.8Z" transform="matrix(0.105, 0.995, -0.995, 0.105, 1236.761, 118.222)" fill="#43349b"/>
      <circle id="Elipse_11" data-name="Elipse 11" cx="189" cy="189" r="189" transform="translate(851 218)" fill="#5242b1"/>
      <g id="Grupo_53285" data-name="Grupo 53285" transform="translate(787.532 107.5)">
        <g id="Grupo_53271" data-name="Grupo 53271" transform="translate(187.324 60.5)">
          <g id="Grupo_53265" data-name="Grupo 53265">
            <g id="Grupo_53262" data-name="Grupo 53262" transform="translate(0 110.017)">
              <path id="Trazado_98570" data-name="Trazado 98570" d="M193.182,236.573c4.492,5.812,9.762,11.069,16.263,14.619,10.628,5.8,21.885,7.27,33.769,5.734,16.761-2.165,42.28-10.417,47.8-28.493-27.941-9.329-29.024-6.114-23.969-37.464l-46.127-22.113s4.72,45.183-11.079,50.1c-5.091,1.583-13.8,3.494-23.417,6.579C188.6,229.247,190.53,233.143,193.182,236.573Z" transform="translate(-186.423 -168.855)" fill="#ffa099"/>
              <path id="Trazado_98571" data-name="Trazado 98571" d="M264.407,213.409c-.688-4.524.319-11.284,2.118-22.441L220.4,168.855a156.163,156.163,0,0,1,.478,21.507C230.822,210.07,263.807,213.5,264.407,213.409Z" transform="translate(-185.902 -168.855)" fill="#b75353" opacity="0.5"/>
            </g>
            <g id="Grupo_53263" data-name="Grupo 53263" transform="translate(17.975 24.637)">
              <path id="Trazado_98572" data-name="Trazado 98572" d="M217.008,145.537s-.212,36.411,19.232,47.179,50.095,11.079,56.349-1.118c2.114-4.123,8.726-86.675-5.175-102.037S225.771,99.7,220.268,110.69,217.008,145.537,217.008,145.537Z" transform="translate(-203.936 -84.765)" fill="#ffa099"/>
              <path id="Trazado_98573" data-name="Trazado 98573" d="M220.387,151.653s-2.54-13.835-11.347-15.339-6.258,32.728,11.608,33.04S220.387,151.653,220.387,151.653Z" transform="translate(-204.127 -83.975)" fill="#ffa099"/>
            </g>
            <g id="Grupo_53264" data-name="Grupo 53264" transform="translate(15.137)">
              <path id="Trazado_98574" data-name="Trazado 98574" d="M223.824,79.5a11.008,11.008,0,0,0-.891-2.234c-4.576-.418-12.866.045-16.967,7.891-10.51,20.108.147,53.062.147,53.062,12.572-4.576,11.9,19.649,11.9,19.649l6.167-1.02-2.667-26.135,7.086-10.842,1.162-15.3a71.271,71.271,0,0,1-6.235-23.832A1.873,1.873,0,0,1,223.824,79.5Z" transform="translate(-201.332 -60.245)" fill="#171a43"/>
              <path id="Trazado_98575" data-name="Trazado 98575" d="M218.022,147.934s-5.283,42.024,20.471,51.485,68.24,14.151,56.6-33.648c0,0,.116,17.714-4.089,18.238s4.8-18.731-9.392-18.731-34.163-8.935-35.214,1.577-4.2,19.447-11.038,14.716-11.019-29.352-12.6-56.682S218.022,147.934,218.022,147.934Z" transform="translate(-201.083 -59.637)" fill="#171a43"/>
              <path id="Trazado_98576" data-name="Trazado 98576" d="M218.015,99.918s21.549,14.19,54.661,7.883l-8.409-4.729s37.316,3.153,40.994-21.024l-5.781,4.2s9.461-14.716,1.577-25.753c0,0-11.037,15.241-27.33,7.884s-53.083-14.191-53.083,15.767S218.015,99.918,218.015,99.918Z" transform="translate(-201.076 -60.5)" fill="#171a43"/>
            </g>
          </g>
          <g id="Grupo_53270" data-name="Grupo 53270" transform="translate(21.064 53.25)">
            <g id="Grupo_53266" data-name="Grupo 53266" transform="translate(28.513)">
              <path id="Trazado_98577" data-name="Trazado 98577" d="M269.379,121.068s11.1-14.62,22.921.547" transform="translate(-234.728 -112.918)" fill="none" stroke="#171a43" stroke-miterlimit="10" stroke-width="6.226"/>
              <path id="Trazado_98578" data-name="Trazado 98578" d="M235.251,119.182s12.081-14.528,25.233.764" transform="translate(-235.251 -112.946)" fill="none" stroke="#171a43" stroke-miterlimit="10" stroke-width="6.535"/>
            </g>
            <path id="Trazado_98579" data-name="Trazado 98579" d="M216.159,162.289s-6.212-4.739-1.269-5.72c0,0-.074-13.363-4.532-14.293s-2.938,5.426-2.938,5.426" transform="translate(-207.169 -112.497)" fill="none" stroke="#b75353" stroke-miterlimit="10" stroke-width="2.487"/>
            <path id="Trazado_98580" data-name="Trazado 98580" d="M251.662,169.2s17.344,3.679,32.06,2.1C283.722,171.306,272.16,186.548,251.662,169.2Z" transform="translate(-206.487 -112.083)" fill="#fff"/>
            <g id="Grupo_53268" data-name="Grupo 53268" transform="translate(3.333 8.228)">
              <path id="Trazado_98581" data-name="Trazado 98581" d="M229.814,121.049v15.409a11.72,11.72,0,0,0,11.719,11.719h8.116a11.719,11.719,0,0,0,11.719-11.719V121.049Z" transform="translate(-210.155 -121.049)" fill="#cce8ff" stroke="#0b0c1e" stroke-miterlimit="10" stroke-width="1.035"/>
              <path id="Trazado_98582" data-name="Trazado 98582" d="M270.078,121.669v15.408c0,6.472,4.723,11.719,10.551,11.719h7.306c5.827,0,10.551-5.247,10.551-11.719V121.669Z" transform="translate(-209.538 -121.039)" fill="#cce8ff" stroke="#0b0c1e" stroke-miterlimit="10" stroke-width="0.982"/>
              <path id="Trazado_98583" data-name="Trazado 98583" d="M261.885,129.761s4.2-4.337,7.49.526" transform="translate(-209.663 -120.943)" fill="none" stroke="#0b0c1e" stroke-miterlimit="10" stroke-width="2.071"/>
              <g id="Grupo_53267" data-name="Grupo 53267" transform="translate(0 2.942)">
                <path id="Trazado_98584" data-name="Trazado 98584" d="M212.492,138.333l17.093-10.5-.243-3.882-18.89,13.171A5.119,5.119,0,0,1,212.492,138.333Z" transform="translate(-210.452 -123.947)" fill="#0b0c1e"/>
              </g>
            </g>
            <g id="Grupo_53269" data-name="Grupo 53269" transform="translate(37.989 15.979)">
              <path id="Trazado_98585" data-name="Trazado 98585" d="M279.906,135.549c.11,3.249-.683,5.912-1.77,5.949s-2.056-2.568-2.166-5.817.683-5.912,1.77-5.949S279.8,132.3,279.906,135.549Z" transform="translate(-244.103 -128.668)" fill="#0b0c1e"/>
              <path id="Trazado_98586" data-name="Trazado 98586" d="M248.53,134.5c.109,3.249-.683,5.912-1.77,5.949s-2.056-2.568-2.166-5.817.683-5.912,1.77-5.949S248.42,131.252,248.53,134.5Z" transform="translate(-244.584 -128.684)" fill="#0b0c1e"/>
              <path id="Trazado_98587" data-name="Trazado 98587" d="M268.185,130.476l7.475,31.1-13.294-.138" transform="translate(-244.312 -128.656)" fill="#ffa099" stroke="#b75353" stroke-miterlimit="10" stroke-width="2.82"/>
            </g>
          </g>
        </g>
        <g id="Grupo_53284" data-name="Grupo 53284" transform="translate(127.692 209.246)">
          <g id="Grupo_53277" data-name="Grupo 53277" transform="translate(42.73)">
            <g id="Grupo_53274" data-name="Grupo 53274">
              <g id="Grupo_53272" data-name="Grupo 53272" transform="translate(0 10.153)">
                <path id="Trazado_98588" data-name="Trazado 98588" d="M207.852,217s-23.86,6.092-38.075,14.722l64.135,269.233,89.857,2.031L307.862,230.2l-28.429-10.153L250.5,240.353Z" transform="translate(-169.777 -217)" fill="#b7d1e2"/>
                <path id="Trazado_98589" data-name="Trazado 98589" d="M261.838,317.91c-15.6-5.542-31.077-11.435-46.514-17.421-8.048-3.12-16.121-6.974-24.381-9.467-2.579-.779-5.078-1.677-7.582-2.5L233.7,499.859l89.857,2.031-9.793-167.946C296.282,329.15,278.908,323.97,261.838,317.91Z" transform="translate(-169.569 -215.903)" fill="#0b0c1e" opacity="0.1"/>
              </g>
              <g id="Grupo_53273" data-name="Grupo 53273" transform="translate(30.121)">
                <path id="Trazado_98590" data-name="Trazado 98590" d="M235.777,240.528l14.9,12,3.379,165.345,18.276,16.245,12.184-17.6L259.362,251.8l12.967-16.015-8.123-8.123-28.429,6.092Z" transform="translate(-198.886 -206.683)" fill="#171a43"/>
                <path id="Trazado_98591" data-name="Trazado 98591" d="M208.108,207l39.056,23.691L234.3,253.028l-34.86-36.552Z" transform="translate(-199.443 -207)" fill="#cce8ff"/>
                <path id="Trazado_98592" data-name="Trazado 98592" d="M258.443,227.907l12.184,25.722,12.929-33.506L274.012,212Z" transform="translate(-198.539 -206.923)" fill="#cce8ff"/>
              </g>
            </g>
            <g id="Grupo_53276" data-name="Grupo 53276" transform="translate(51.604 241.5)">
              <path id="Trazado_98593" data-name="Trazado 98593" d="M262.643,445.1c-13.929.379-28.161,1.448-42.041-.24l3.224,55.987H328.743l-8.927-55.78C300.762,445.037,281.681,444.58,262.643,445.1Z" transform="translate(-220.602 -444.852)" fill="#171a43"/>
              <g id="Grupo_53275" data-name="Grupo 53275" transform="translate(2.708 5.415)">
                <path id="Trazado_98594" data-name="Trazado 98594" d="M256.3,450.317c-11.016.1-22.13.186-33.028-.13l3.223,13.348H258.9C258.144,459.1,257.317,454.691,256.3,450.317Z" transform="translate(-223.269 -450.186)" fill="#0b0c1e"/>
                <path id="Trazado_98595" data-name="Trazado 98595" d="M262.435,463.535h68.413l-8.928-13.3c-19.055-.007-38.135-.116-57.172.007q-2.419.017-4.849.038C260.89,454.669,261.689,459.1,262.435,463.535Z" transform="translate(-222.707 -450.186)" fill="#0b0c1e"/>
              </g>
            </g>
          </g>
          <g id="Grupo_53280" data-name="Grupo 53280" transform="translate(35.284 11.507)">
            <g id="Grupo_53278" data-name="Grupo 53278">
              <path id="Trazado_98596" data-name="Trazado 98596" d="M201.026,218.333l56.859,285.986h-69.72L162.443,229.84Z" transform="translate(-162.443 -218.333)" fill="#fff"/>
              <path id="Trazado_98597" data-name="Trazado 98597" d="M213.346,326.472c-14-.218-28.042-.68-42.006-1.87L188.029,502.69h69.719L222.738,326.6C219.608,326.553,216.477,326.521,213.346,326.472Z" transform="translate(-162.307 -216.704)" fill="#171a43" opacity="0.1"/>
              <path id="Trazado_98598" data-name="Trazado 98598" d="M200.873,218.333,187.829,220.9l-15.38,54.928,23.289,6.591L185.193,300.88l39.117,39.97" transform="translate(-162.29 -218.333)" fill="#fff" stroke="#e5e5e5" stroke-miterlimit="10" stroke-width="2"/>
            </g>
            <g id="Grupo_53279" data-name="Grupo 53279" transform="translate(121.84 2.707)">
              <path id="Trazado_98599" data-name="Trazado 98599" d="M282.443,221,298.35,504.278h51.444L325.087,233.184Z" transform="translate(-282.443 -221)" fill="#fff"/>
              <path id="Trazado_98600" data-name="Trazado 98600" d="M306.359,327.594q-8.969-.091-17.941-.2l9.841,175.249H349.7l-15.934-174.83Q320.063,327.729,306.359,327.594Z" transform="translate(-282.352 -219.368)" fill="#171a43" opacity="0.1"/>
              <path id="Trazado_98601" data-name="Trazado 98601" d="M285.32,338.271l20.307-45.182L289.635,283.7l21.83-8.884-19.8-51.274L282.443,221" transform="translate(-282.443 -221)" fill="#fff" stroke="#e5e5e5" stroke-miterlimit="10" stroke-width="2"/>
            </g>
          </g>
          <g id="Grupo_53283" data-name="Grupo 53283" transform="translate(0 23.015)">
            <g id="Grupo_53281" data-name="Grupo 53281" transform="translate(61.683 3.384)">
              <path id="Trazado_98602" data-name="Trazado 98602" d="M188.443,385.3s171.253,25.045,178.7,0,0-135.378-40.613-152.3l4.061,111.01-109.656,6.769Z" transform="translate(-188.443 -233)" fill="#fff"/>
              <path id="Trazado_98603" data-name="Trazado 98603" d="M299.5,344.224l-78.565,4.849-32.491,34.521s32.7,4.782,70.147,8.078C273.638,377.029,288.568,362.23,299.5,344.224Z" transform="translate(-188.443 -231.294)" fill="#171a43" opacity="0.1"/>
            </g>
            <g id="Grupo_53282" data-name="Grupo 53282">
              <path id="Trazado_98604" data-name="Trazado 98604" d="M263.842,360.224c24.726-7.845,43.993-16.286,43.993-16.286s-4.784-8.122-18.718-11.881c-4.81-1.3-18.7-.27-34.839,1.632A173.97,173.97,0,0,0,263.842,360.224Z" transform="translate(-125.751 -228.106)" fill="#ffa099"/>
              <path id="Trazado_98605" data-name="Trazado 98605" d="M283.5,352.21c-2.639-7.278-5.556-14.86-9.816-21.337-5.635.4-12.277,1.1-19.35,1.973a182.763,182.763,0,0,0,9.513,27.388c7.346-2.42,14.162-4.7,20.125-6.71C283.81,353.084,283.654,352.645,283.5,352.21Z" transform="translate(-125.75 -228.115)" fill="#cce8ff"/>
              <path id="Trazado_98606" data-name="Trazado 98606" d="M266.371,332.046c-33.985,5.207-89.857,20.137-89.857,20.137L162.976,229.667s-17.6,4.061-26.4,18.952-15.643,152.153,2.708,158.392c16.923,5.754,80.889-13.537,143.206-48.971C278.261,349.133,271.978,339.889,266.371,332.046Z" transform="translate(-127.692 -229.667)" fill="#fff"/>
            </g>
          </g>
        </g>
      </g>
      <g id="obediente" transform="translate(823.922 248.708)">
        <g id="Grupo_53286" data-name="Grupo 53286" transform="translate(40.107 1.854)">
          <path id="Trazado_98607" data-name="Trazado 98607" d="M196.283,7.5H117.551a1.236,1.236,0,0,0-1.236,1.236V43.01h8.108a6.058,6.058,0,0,1,.423,12.1v7.516h0a2.471,2.471,0,0,1,2.1,2.441V80.415a2.471,2.471,0,0,1-2.1,2.441h0v7.516a6.058,6.058,0,0,1-.423,12.1h-8.108V112.62h17.062a2.472,2.472,0,0,1,2.472,2.472v4.919s0,0,0,.006h1.884a2.472,2.472,0,0,1,2.472,2.472v7.885h57.315V8.736A1.237,1.237,0,0,0,196.283,7.5Z" transform="translate(-116.315 -7.5)" fill="#fff3de"/>
        </g>
        <g id="Grupo_53287" data-name="Grupo 53287" transform="translate(40.107 1.854)">
          <path id="Trazado_98608" data-name="Trazado 98608" d="M124.423,43.01c.074,0,.147,0,.221.006V8.736A1.236,1.236,0,0,1,125.879,7.5h-8.328a1.236,1.236,0,0,0-1.236,1.236V43.01Z" transform="translate(-116.315 -7.5)" fill="#ffe5c2"/>
          <path id="Trazado_98609" data-name="Trazado 98609" d="M124.423,391.632h-8.108v10.146h8.328V391.627C124.57,391.629,124.5,391.632,124.423,391.632Z" transform="translate(-116.315 -296.658)" fill="#ffe5c2"/>
        </g>
        <g id="Grupo_53305" data-name="Grupo 53305" transform="translate(16.932 37.364)">
          <g id="Grupo_53288" data-name="Grupo 53288" transform="translate(33.801 25.505)">
            <path id="Trazado_98610" data-name="Trazado 98610" d="M159.3,254.29H170.74v8.455H159.3Z" transform="translate(-159.296 -254.29)" fill="#fff"/>
            <path id="Trazado_98611" data-name="Trazado 98611" d="M237.5,254.29h16.346v8.455H237.5Z" transform="translate(-218.167 -254.29)" fill="#fff"/>
          </g>
          <g id="Grupo_53289" data-name="Grupo 53289" transform="translate(33.801 29.884)">
            <path id="Trazado_98612" data-name="Trazado 98612" d="M159.3,272H170.74v4.076H159.3Z" transform="translate(-159.296 -272)" fill="#d5d5d5"/>
            <path id="Trazado_98613" data-name="Trazado 98613" d="M237.5,272h16.346v4.076H237.5Z" transform="translate(-218.167 -272)" fill="#d5d5d5"/>
          </g>
          <g id="Grupo_53290" data-name="Grupo 53290" transform="translate(69.482 23.532)">
            <path id="Trazado_98614" data-name="Trazado 98614" d="M349.553,252.51a6.2,6.2,0,0,1-6.2,6.2H305.025a1.409,1.409,0,0,1-1.409-1.409v-9.582a1.409,1.409,0,0,1,1.409-1.409h38.328A6.2,6.2,0,0,1,349.553,252.51Z" transform="translate(-303.616 -246.31)" fill="#fff"/>
          </g>
          <g id="Grupo_53291" data-name="Grupo 53291" transform="translate(69.482 23.532)">
            <path id="Trazado_98615" data-name="Trazado 98615" d="M312.042,253.4a1.409,1.409,0,0,1-1.409-1.409V246.31h-5.608a1.409,1.409,0,0,0-1.409,1.409V257.3a1.409,1.409,0,0,0,1.409,1.409h38.328a6.2,6.2,0,0,0,6.135-5.307Z" transform="translate(-303.616 -246.31)" fill="#d5d5d5"/>
          </g>
          <g id="Grupo_53292" data-name="Grupo 53292" transform="translate(45.245 23.532)">
            <path id="Trazado_98616" data-name="Trazado 98616" d="M213.476,247.547v9.928a1.236,1.236,0,0,1-1.236,1.236h-5.419a1.236,1.236,0,0,1-1.236-1.236v-9.928a1.236,1.236,0,0,1,1.236-1.236h5.419a1.236,1.236,0,0,1,1.236,1.236Z" transform="translate(-205.585 -246.311)" fill="#fff"/>
          </g>
          <g id="Grupo_53293" data-name="Grupo 53293" transform="translate(45.245 23.532)">
            <path id="Trazado_98617" data-name="Trazado 98617" d="M209.169,257.475v-9.928a1.236,1.236,0,0,1,1.236-1.236h-3.584a1.236,1.236,0,0,0-1.236,1.236v9.928a1.236,1.236,0,0,0,1.236,1.236h3.584A1.236,1.236,0,0,1,209.169,257.475Z" transform="translate(-205.585 -246.311)" fill="#d5d5d5"/>
          </g>
          <g id="Grupo_53294" data-name="Grupo 53294" transform="translate(15.359 12.102)">
            <path id="Trazado_98618" data-name="Trazado 98618" d="M100.673,312.329H85.079a2.483,2.483,0,0,1-.376-.032v7.516c.14-.01.28-.016.423-.016h15.5c.142,0,.283.007.423.016V312.3A2.452,2.452,0,0,1,100.673,312.329Z" transform="translate(-84.703 -284.553)" fill="#fff"/>
            <path id="Trazado_98619" data-name="Trazado 98619" d="M85.079,312.329a2.483,2.483,0,0,1-.376-.032v7.516c.14-.01.28-.016.423-.016h5.8v-7.468h-5.85Z" transform="translate(-84.703 -284.553)" fill="#d5d5d5"/>
            <path id="Trazado_98620" data-name="Trazado 98620" d="M85.079,207.563h15.593a2.485,2.485,0,0,1,.376.032v-7.516c-.14.01-.281.016-.423.016h-15.5c-.142,0-.283-.007-.423-.016V207.6A2.485,2.485,0,0,1,85.079,207.563Z" transform="translate(-84.703 -200.079)" fill="#fff"/>
            <path id="Trazado_98621" data-name="Trazado 98621" d="M85.079,207.563h5.85v-7.468h-5.8c-.142,0-.283-.007-.423-.016v7.516A2.517,2.517,0,0,1,85.079,207.563Z" transform="translate(-84.703 -200.078)" fill="#d5d5d5"/>
          </g>
          <g id="Grupo_53295" data-name="Grupo 53295" transform="translate(13.263 19.587)">
            <path id="Trazado_98622" data-name="Trazado 98622" d="M96.763,232.824v15.346a2.472,2.472,0,0,1-2.472,2.472H78.7a2.472,2.472,0,0,1-2.472-2.472V232.824a2.472,2.472,0,0,1,2.472-2.472H94.291a2.472,2.472,0,0,1,2.472,2.472Z" transform="translate(-76.225 -230.352)" fill="#fff"/>
          </g>
          <g id="Grupo_53296" data-name="Grupo 53296" transform="translate(13.263 19.587)">
            <path id="Trazado_98623" data-name="Trazado 98623" d="M84.575,248.171V232.824a2.472,2.472,0,0,1,2.472-2.472H78.7a2.472,2.472,0,0,0-2.472,2.472v15.346a2.472,2.472,0,0,0,2.472,2.472h8.35A2.472,2.472,0,0,1,84.575,248.171Z" transform="translate(-76.225 -230.352)" fill="#d5d5d5"/>
          </g>
          <g id="Grupo_53299" data-name="Grupo 53299" transform="translate(0 69.61)">
            <path id="Trazado_98624" data-name="Trazado 98624" d="M78.535,440.33a2.528,2.528,0,0,0,.013-.254v-4.919a2.472,2.472,0,0,0-2.472-2.472H42.667a2.472,2.472,0,0,0-2.472,2.472v4.919a2.53,2.53,0,0,0,.013.254Z" transform="translate(-35.839 -432.685)" fill="#fff"/>
            <path id="Trazado_98625" data-name="Trazado 98625" d="M48.566,440.33a2.53,2.53,0,0,1-.013-.254v-4.919a2.472,2.472,0,0,1,2.472-2.472H42.667a2.472,2.472,0,0,0-2.472,2.472v4.919a2.53,2.53,0,0,0,.013.254Z" transform="translate(-35.839 -432.685)" fill="#d5d5d5"/>
            <g id="Grupo_53297" data-name="Grupo 53297" transform="translate(0 7.398)">
              <path id="Trazado_98626" data-name="Trazado 98626" d="M69.643,472.965H23.814a1.236,1.236,0,0,1-1.236-1.236V465.08a2.472,2.472,0,0,1,2.472-2.472H67.17a2.472,2.472,0,0,1,2.472,2.472Z" transform="translate(-22.578 -462.608)" fill="#b7b7b7"/>
            </g>
            <g id="Grupo_53298" data-name="Grupo 53298" transform="translate(0 7.398)">
              <path id="Trazado_98627" data-name="Trazado 98627" d="M30.841,471.729V465.08a2.472,2.472,0,0,1,2.472-2.472H25.05a2.472,2.472,0,0,0-2.472,2.472v6.649a1.236,1.236,0,0,0,1.236,1.236h8.263A1.236,1.236,0,0,1,30.841,471.729Z" transform="translate(-22.578 -462.608)" fill="#d5d5d5"/>
            </g>
          </g>
          <g id="Grupo_53304" data-name="Grupo 53304" transform="translate(9.723)">
            <g id="Grupo_53300" data-name="Grupo 53300" transform="translate(0 47.346)">
              <path id="Trazado_98628" data-name="Trazado 98628" d="M89.524,348.692a6.059,6.059,0,0,1-6.059,6.059h-15.5a6.059,6.059,0,1,1,0-12.118h15.5A6.059,6.059,0,0,1,89.524,348.692Z" transform="translate(-61.905 -342.633)" fill="#fff"/>
            </g>
            <g id="Grupo_53301" data-name="Grupo 53301" transform="translate(0 47.346)">
              <path id="Trazado_98629" data-name="Trazado 98629" d="M70.159,348.692a6.059,6.059,0,0,1,6.059-6.059H67.964a6.059,6.059,0,1,0,0,12.118h8.254A6.059,6.059,0,0,1,70.159,348.692Z" transform="translate(-61.905 -342.633)" fill="#d5d5d5"/>
            </g>
            <g id="Grupo_53302" data-name="Grupo 53302" transform="translate(0)">
              <path id="Trazado_98630" data-name="Trazado 98630" d="M89.524,157.187a6.059,6.059,0,0,1-6.059,6.059h-15.5a6.059,6.059,0,0,1,0-12.118h15.5A6.059,6.059,0,0,1,89.524,157.187Z" transform="translate(-61.905 -151.128)" fill="#fff"/>
            </g>
            <g id="Grupo_53303" data-name="Grupo 53303">
              <path id="Trazado_98631" data-name="Trazado 98631" d="M70.159,157.187a6.059,6.059,0,0,1,6.059-6.059H67.964a6.059,6.059,0,0,0,0,12.118h8.254A6.059,6.059,0,0,1,70.159,157.187Z" transform="translate(-61.905 -151.128)" fill="#d5d5d5"/>
            </g>
          </g>
        </g>
        <g id="Grupo_53308" data-name="Grupo 53308" transform="translate(63.361 13.377)">
          <g id="Grupo_53306" data-name="Grupo 53306">
            <circle id="Elipse_9" data-name="Elipse 9" cx="17.348" cy="17.348" r="17.348" fill="#bd81d8"/>
          </g>
          <g id="Grupo_53307" data-name="Grupo 53307" transform="translate(0)">
            <path id="Trazado_98632" data-name="Trazado 98632" d="M218.686,71.455a17.353,17.353,0,0,1,13.191-16.843,17.348,17.348,0,1,0,0,33.686A17.353,17.353,0,0,1,218.686,71.455Z" transform="translate(-210.372 -54.107)" fill="#f3d9ff"/>
          </g>
        </g>
        <g id="Grupo_53309" data-name="Grupo 53309" transform="translate(15.078 0)">
          <path id="Trazado_98633" data-name="Trazado 98633" d="M126.151,59.042h-2.986V26.948a1.854,1.854,0,0,0-1.911-1.854,1.906,1.906,0,0,0-1.8,1.931V59.042H107.029a1.854,1.854,0,0,0,0,3.708h19.122a4.346,4.346,0,1,1,0,8.692H88.269V62.75H98.376a1.854,1.854,0,0,0,0-3.708H87.823a3.267,3.267,0,0,0-3,1.973H71.71a3.093,3.093,0,0,0-2.878-1.973H63.414a3.093,3.093,0,0,0-2.878,1.973H52.588V59.423a4.324,4.324,0,0,0-2.1-3.7V51a7.913,7.913,0,0,0-2.277-15.492H41.961V3.709h77.5V18.3a1.854,1.854,0,0,0,1.911,1.854,1.906,1.906,0,0,0,1.8-1.931V3.09A3.09,3.09,0,0,0,120.075,0H41.343a3.09,3.09,0,0,0-3.09,3.09V35.51H32.714A7.913,7.913,0,0,0,30.437,51v4.721a4.324,4.324,0,0,0-2.1,3.7V74.769a4.324,4.324,0,0,0,2.1,3.7v4.721a7.913,7.913,0,0,0,2.277,15.492h5.538v6.437H23.76a4.332,4.332,0,0,0-4.327,4.327v3.071H19.4a4.332,4.332,0,0,0-4.327,4.327v6.649a3.094,3.094,0,0,0,3.09,3.09H120.075a3.09,3.09,0,0,0,3.09-3.09V75.151h2.986a8.054,8.054,0,0,0,0-16.109ZM71.923,64.723H84.56v4.746H71.923ZM64.032,62.75h4.182v8.692H64.032ZM52.588,64.723h7.736v4.746H52.588Zm-24.078-21.3a4.21,4.21,0,0,1,4.2-4.2h15.5a4.2,4.2,0,0,1,0,8.41h-15.5A4.209,4.209,0,0,1,28.509,43.423Zm4.158,31.965a.619.619,0,0,1-.618-.618V59.423a.619.619,0,0,1,.618-.618H48.261a.619.619,0,0,1,.618.618V74.769a.619.619,0,0,1-.618.618ZM46.783,79.1v3.76H34.146V79.1Zm-12.637-24v-3.76H46.783V55.1ZM32.714,94.974a4.2,4.2,0,1,1,0-8.41h15.5a4.2,4.2,0,1,1,0,8.41Zm29.428,27.9H18.786v-6.031a.619.619,0,0,1,.618-.618H30.882a1.854,1.854,0,1,0,0-3.708h-7.74v-3.071a.619.619,0,0,1,.618-.618H57.169a.619.619,0,0,1,.618.618v3.071H39.535a1.854,1.854,0,0,0,0,3.708h21.99a.619.619,0,0,1,.618.618Zm57.315,0H65.851v-6.031a4.332,4.332,0,0,0-4.327-4.327H61.5v-3.071a4.332,4.332,0,0,0-4.327-4.327H41.961V98.683h6.254a7.913,7.913,0,0,0,2.277-15.492V78.47a4.324,4.324,0,0,0,2.1-3.7V73.178h7.948a3.093,3.093,0,0,0,2.878,1.973h5.419a3.093,3.093,0,0,0,2.878-1.973H84.827a3.267,3.267,0,0,0,3,1.973h31.634v47.725Z" transform="translate(-15.078 0)" fill="#171a43"/>
          <path id="Trazado_98634" data-name="Trazado 98634" d="M202.872,65.809a19.2,19.2,0,1,0,19.2-19.2A19.224,19.224,0,0,0,202.872,65.809Zm34.7,0a15.494,15.494,0,1,1-15.494-15.494A15.511,15.511,0,0,1,237.568,65.809Z" transform="translate(-156.443 -35.084)" fill="#171a43"/>
          <path id="Trazado_98635" data-name="Trazado 98635" d="M249.509,104.84a1.854,1.854,0,1,0-2.622,2.622l5.7,5.7a1.854,1.854,0,0,0,2.623,0l8.841-8.841a1.854,1.854,0,0,0-2.622-2.622l-7.529,7.529Z" transform="translate(-189.167 -76.149)" fill="#171a43"/>
          <path id="Trazado_98636" data-name="Trazado 98636" d="M243.681,328.923a1.854,1.854,0,0,0,1.854,1.854h34.1a1.854,1.854,0,0,0,0-3.708h-34.1A1.854,1.854,0,0,0,243.681,328.923Z" transform="translate(-187.163 -246.207)" fill="#171a43"/>
          <path id="Trazado_98637" data-name="Trazado 98637" d="M329.935,363.546H312.354a1.854,1.854,0,0,0,0,3.708h17.581a1.854,1.854,0,0,0,0-3.708Z" transform="translate(-237.462 -273.665)" fill="#171a43"/>
          <path id="Trazado_98638" data-name="Trazado 98638" d="M245.535,367.254h10.092a1.854,1.854,0,0,0,0-3.708H245.535a1.854,1.854,0,0,0,0,3.708Z" transform="translate(-187.163 -273.665)" fill="#171a43"/>
          <path id="Trazado_98639" data-name="Trazado 98639" d="M279.635,400.023h-34.1a1.854,1.854,0,0,0,0,3.708h34.1a1.854,1.854,0,0,0,0-3.708Z" transform="translate(-187.162 -301.124)" fill="#171a43"/>
          <path id="Trazado_98640" data-name="Trazado 98640" d="M356.282,436.5h-8.928a1.854,1.854,0,0,0,0,3.708h8.928a1.854,1.854,0,0,0,0-3.708Z" transform="translate(-263.809 -328.583)" fill="#171a43"/>
          <path id="Trazado_98641" data-name="Trazado 98641" d="M265.022,436.5H245.535a1.854,1.854,0,1,0,0,3.708h19.487a1.854,1.854,0,0,0,0-3.708Z" transform="translate(-187.163 -328.583)" fill="#171a43"/>
        </g>
      </g>
    </g>
    <g id="obediente_1_" data-name="obediente (1)" transform="translate(1073.722 448.063)">
      <g id="Grupo_53311" data-name="Grupo 53311" transform="translate(51.782 1.771)">
        <path id="Trazado_98642" data-name="Trazado 98642" d="M192.97,7.5H126.861a.708.708,0,0,0-.708.708V15.6l.3.236h58.418a.473.473,0,0,1,.472.472V62.822l.236.188,8.1,5.019V8.208a.708.708,0,0,0-.708-.708Z" transform="translate(-109.947 -7.5)" fill="#f3d9ff"/>
        <path id="Trazado_98643" data-name="Trazado 98643" d="M134.144,15.839V8.208a.708.708,0,0,1,.708-.708h-7.991a.708.708,0,0,0-.708.708v7.631Z" transform="translate(-109.947 -7.5)" fill="#e1b2f5"/>
        <path id="Trazado_98644" data-name="Trazado 98644" d="M151.254,50.632V85.255l.133-.082a1.35,1.35,0,0,1,1.422,0l6.548,4.056v-46.7a.708.708,0,0,0-.708-.708H92.54a.708.708,0,0,0-.708.708v7.395h58.714a.708.708,0,0,1,.708.708Z" transform="translate(-83.729 -33.718)" fill="#fff3de"/>
        <path id="Trazado_98645" data-name="Trazado 98645" d="M99.663,49.924V42.529a.708.708,0,0,1,.708-.708H92.54a.708.708,0,0,0-.708.708v7.395Z" transform="translate(-83.729 -33.718)" fill="#ffe5c2"/>
        <path id="Trazado_98646" data-name="Trazado 98646" d="M107.456,161.995a19.727,19.727,0,0,1-6.932-15.015V127.407a1.35,1.35,0,0,1,.639-1.148l23.872-14.786V76.85a.708.708,0,0,0-.708-.708H58.219a.708.708,0,0,0-.708.708v90.417a.708.708,0,0,0,.708.708h56.255Z" transform="translate(-57.511 -59.936)" fill="#fff3de"/>
        <g id="Grupo_53310" data-name="Grupo 53310" transform="translate(0 16.206)">
          <path id="Trazado_98647" data-name="Trazado 98647" d="M65.418,167.267V76.85a.708.708,0,0,1,.708-.708H58.219a.708.708,0,0,0-.708.708v90.417a.708.708,0,0,0,.708.708h7.907A.708.708,0,0,1,65.418,167.267Z" transform="translate(-57.511 -76.142)" fill="#ffe5c2"/>
        </g>
      </g>
      <g id="Grupo_53315" data-name="Grupo 53315" transform="translate(94.796 53.023)">
        <g id="Grupo_53312" data-name="Grupo 53312">
          <path id="Trazado_98648" data-name="Trazado 98648" d="M239.7,240.8v19.573a19.728,19.728,0,0,0,6.932,15.015l17.548,14.954a1.35,1.35,0,0,0,1.752,0l17.548-14.954a19.728,19.728,0,0,0,6.932-15.015V240.8a1.351,1.351,0,0,0-.639-1.148l-24.005-14.868a1.35,1.35,0,0,0-1.422,0l-24.005,14.868A1.35,1.35,0,0,0,239.7,240.8Z" transform="translate(-239.698 -224.584)" fill="#fff"/>
        </g>
        <g id="Grupo_53314" data-name="Grupo 53314" transform="translate(0 11.028)">
          <g id="Grupo_53313" data-name="Grupo 53313">
            <path id="Trazado_98649" data-name="Trazado 98649" d="M253.8,307.872a19.727,19.727,0,0,1-6.932-15.015V271.293l-6.527,4.043a1.35,1.35,0,0,0-.639,1.148v19.572a19.729,19.729,0,0,0,6.932,15.015l17.548,14.954a1.35,1.35,0,0,0,1.752,0l4.584-3.907Z" transform="translate(-239.698 -271.293)" fill="#d5d5d5"/>
          </g>
        </g>
      </g>
      <g id="Grupo_53316" data-name="Grupo 53316" transform="translate(105.702 68.357)">
        <circle id="Elipse_10" data-name="Elipse 10" cx="14.449" cy="14.449" r="14.449" fill="#bd81d8"/>
      </g>
      <g id="Grupo_53317" data-name="Grupo 53317" transform="translate(105.702 68.357)">
        <path id="Trazado_98650" data-name="Trazado 98650" d="M293.851,303.98a14.452,14.452,0,0,1,10.47-13.89,14.449,14.449,0,1,0,0,27.779A14.453,14.453,0,0,1,293.851,303.98Z" transform="translate(-285.893 -289.531)" fill="#f3d9ff"/>
      </g>
      <g id="Grupo_53318" data-name="Grupo 53318" transform="translate(50.012 0)">
        <path id="Trazado_98651" data-name="Trazado 98651" d="M168.666,121.041a1.771,1.771,0,0,0,0-3.541H145.3a1.771,1.771,0,0,0,0,3.541Z" transform="translate(-121.45 -89.759)" fill="#171a43"/>
        <path id="Trazado_98652" data-name="Trazado 98652" d="M109.529,170.271a1.771,1.771,0,0,0,1.771,1.771h39.421a1.771,1.771,0,0,0,0-3.541H111.3A1.771,1.771,0,0,0,109.529,170.271Z" transform="translate(-95.477 -128.718)" fill="#171a43"/>
        <path id="Trazado_98653" data-name="Trazado 98653" d="M111.3,207.041h39.421a1.771,1.771,0,1,0,0-3.541H111.3a1.771,1.771,0,1,0,0,3.541Z" transform="translate(-95.477 -155.455)" fill="#171a43"/>
        <path id="Trazado_98654" data-name="Trazado 98654" d="M111.3,277.041H124.75a1.771,1.771,0,1,0,0-3.541H111.3a1.771,1.771,0,1,0,0,3.541Z" transform="translate(-95.477 -208.928)" fill="#171a43"/>
        <path id="Trazado_98655" data-name="Trazado 98655" d="M145.507,78.97a1.771,1.771,0,0,0,1.771-1.771V69.242a3.1,3.1,0,0,0-1.478-2.653l-8.516-5.275V2.479A2.482,2.482,0,0,0,134.8,0H68.7a2.482,2.482,0,0,0-2.479,2.479V8.1H60.594a2.482,2.482,0,0,0-2.479,2.479v5.624H52.491a2.482,2.482,0,0,0-2.479,2.479V109.1a2.482,2.482,0,0,0,2.479,2.479h13.1a1.771,1.771,0,1,0,0-3.541H53.553V19.747h63.983V52.322l-10.764,6.667a1.768,1.768,0,0,0-1.518-2.68H65.834a1.771,1.771,0,0,0,0,3.541h39.421c.047,0,.092,0,.137-.007l-7.635,4.729H84.951a1.771,1.771,0,1,0,0,3.541h8.285a3.127,3.127,0,0,0-.211,1.128v3.594H65.834a1.771,1.771,0,0,0,0,3.541H93.025V81.1H65.834a1.771,1.771,0,1,0,0,3.541H93.025v4.174c0,.183,0,.365.008.548h-27.2a1.771,1.771,0,0,0,0,3.541H93.416a21.462,21.462,0,0,0,7.163,12.273l3.359,2.863H73.855a1.771,1.771,0,0,0,0,3.541h34.239l10.033,8.55a3.108,3.108,0,0,0,4.049,0l17.548-14.954a21.467,21.467,0,0,0,7.554-16.363V85.462a1.771,1.771,0,0,0-3.541,0v3.352a17.93,17.93,0,0,1-6.31,13.667L120.151,117.2l-17.275-14.722a17.93,17.93,0,0,1-6.31-13.667V69.475l23.585-14.608,23.585,14.608V77.2a1.771,1.771,0,0,0,1.771,1.771ZM121.078,51.393V18.685a2.482,2.482,0,0,0-2.479-2.479H61.656V11.644H125.64V24.082a1.771,1.771,0,1,0,3.541,0v-13.5A2.482,2.482,0,0,0,126.7,8.1H69.759V3.541h63.983V59.12l-4.561-2.825V32.345a1.771,1.771,0,1,0-3.541,0V54.1l-3.845-2.381A3.148,3.148,0,0,0,121.078,51.393Z" transform="translate(-50.012 0)" fill="#171a43"/>
        <path id="Trazado_98656" data-name="Trazado 98656" d="M278.394,298.25a16.22,16.22,0,1,0,16.22-16.22A16.238,16.238,0,0,0,278.394,298.25Zm28.9,0a12.678,12.678,0,1,1-12.678-12.678A12.693,12.693,0,0,1,307.292,298.25Z" transform="translate(-224.474 -215.444)"/>
        <path id="Trazado_98657" data-name="Trazado 98657" d="M321.91,334.047a1.771,1.771,0,0,0-2.5,2.5l4.273,4.273a1.771,1.771,0,0,0,2.5,0l6.623-6.623a1.771,1.771,0,0,0-2.5-2.5l-5.37,5.371Z" transform="translate(-255.407 -252.989)"/>
      </g>
    </g>
  </g>
</svg>
