<svg xmlns="http://www.w3.org/2000/svg" width="86" height="86" viewBox="0 0 86 86">
  <g id="Grupo_53472" data-name="Grupo 53472" transform="translate(-145 -769)">
    <g id="Trazado_98862" data-name="Trazado 98862" transform="translate(145 769)" fill="#d2e1f1">
      <path d="M 43 85 C 37.3296012878418 85 31.82934188842773 83.88967132568359 26.65201187133789 81.69984436035156 C 21.65080070495605 79.58450317382813 17.1590461730957 76.55601501464844 13.30151748657227 72.69847869873047 C 9.443987846374512 68.84095001220703 6.415493965148926 64.34919738769531 4.300152778625488 59.34798812866211 C 2.110329389572144 54.17065811157227 1 48.6703987121582 1 43 C 1 37.3296012878418 2.110329389572144 31.82934188842773 4.300152778625488 26.65201187133789 C 6.415493965148926 21.65080070495605 9.443987846374512 17.1590461730957 13.30151748657227 13.30151748657227 C 17.1590461730957 9.443987846374512 21.65080070495605 6.415493965148926 26.65201187133789 4.300152778625488 C 31.82934188842773 2.110329389572144 37.3296012878418 1 43 1 C 48.6703987121582 1 54.17065811157227 2.110329389572144 59.34798812866211 4.300152778625488 C 64.34919738769531 6.415493965148926 68.84095001220703 9.443987846374512 72.69847869873047 13.30151748657227 C 76.55601501464844 17.1590461730957 79.58450317382813 21.65080070495605 81.69984436035156 26.65201187133789 C 83.88967132568359 31.82934188842773 85 37.3296012878418 85 43 C 85 48.6703987121582 83.88967132568359 54.17065811157227 81.69984436035156 59.34798812866211 C 79.58450317382813 64.34919738769531 76.55601501464844 68.84095001220703 72.69847869873047 72.69847869873047 C 68.84095001220703 76.55601501464844 64.34919738769531 79.58450317382813 59.34798812866211 81.69984436035156 C 54.17065811157227 83.88967132568359 48.6703987121582 85 43 85 Z" stroke="none"/>
      <path d="M 43 2 C 37.46414947509766 2 32.09496307373047 3.083747863769531 27.04156112670898 5.221160888671875 C 22.15954971313477 7.28607177734375 17.77463531494141 10.24259948730469 14.00862121582031 14.00862121582031 C 10.24259948730469 17.77463531494141 7.28607177734375 22.15954971313477 5.221160888671875 27.04156112670898 C 3.083747863769531 32.09496307373047 2 37.46414947509766 2 43 C 2 48.53585052490234 3.083747863769531 53.90503692626953 5.221160888671875 58.95843505859375 C 7.28607177734375 63.84045028686523 10.24259948730469 68.22536468505859 14.00862121582031 71.99137878417969 C 17.77463531494141 75.75740051269531 22.15954971313477 78.71392822265625 27.04156112670898 80.77883911132813 C 32.09496307373047 82.91625213623047 37.46414947509766 84 43 84 C 48.53585052490234 84 53.90503692626953 82.91625213623047 58.95843505859375 80.77883911132813 C 63.84045028686523 78.71392822265625 68.22536468505859 75.75740051269531 71.99137878417969 71.99137878417969 C 75.75740051269531 68.22536468505859 78.71392822265625 63.84045028686523 80.77883911132813 58.95843505859375 C 82.91625213623047 53.90503692626953 84 48.53585052490234 84 43 C 84 37.46414947509766 82.91625213623047 32.09496307373047 80.77883911132813 27.04156112670898 C 78.71392822265625 22.15954971313477 75.75740051269531 17.77463531494141 71.99137878417969 14.00862121582031 C 68.22536468505859 10.24259948730469 63.84045028686523 7.28607177734375 58.95843505859375 5.221160888671875 C 53.90503692626953 3.083747863769531 48.53585052490234 2 43 2 M 43 0 C 66.74824523925781 0 86 19.25174713134766 86 43 C 86 66.74824523925781 66.74824523925781 86 43 86 C 19.25174713134766 86 0 66.74824523925781 0 43 C 0 19.25174713134766 19.25174713134766 0 43 0 Z" stroke="none" fill="#9a4cbc"/>
    </g>
    <g id="obediente_2_" data-name="obediente (2)" transform="translate(143.076 784.686)">
      <path id="Trazado_98658" data-name="Trazado 98658" d="M225.974,7.5H195.259a.32.32,0,0,0-.32.32v3.414h27.407a.214.214,0,0,1,.213.213v35.47h3.414a.32.32,0,0,0,.32-.32V7.82a.32.32,0,0,0-.32-.32Z" transform="translate(-160.123 -6.7)" fill="#fff3de"/>
      <path id="Trazado_98659" data-name="Trazado 98659" d="M198.36,11.128V7.82a.32.32,0,0,1,.32-.32h-3.421a.32.32,0,0,0-.32.32v3.307Z" transform="translate(-160.123 -6.7)" fill="#ffe5c2"/>
      <path id="Trazado_98660" data-name="Trazado 98660" d="M191.975,41.5H161.26a.32.32,0,0,0-.32.32v10.5l11.82,5.908a1.067,1.067,0,0,1,.59.954v6.158c0,7.375-3.209,11.8-8.325,15.573h26.949a.32.32,0,0,0,.32-.32V41.819a.32.32,0,0,0-.32-.32Z" transform="translate(-129.752 -37.071)" fill="#dff6fd"/>
      <path id="Trazado_98661" data-name="Trazado 98661" d="M164.48,54.093V41.819a.32.32,0,0,1,.32-.32h-3.541a.32.32,0,0,0-.32.32v10.5Z" transform="translate(-129.751 -37.071)" fill="#c8effe"/>
      <path id="Trazado_98662" data-name="Trazado 98662" d="M65.725,148.073l-12.007-6-12.007,6a1.067,1.067,0,0,0-.59.954v6.158a19.612,19.612,0,0,0,.874,6.035,6.617,6.617,0,0,1,3.972-1.319,6.716,6.716,0,0,1,1.232.116l.221.041-.108-.2a7.291,7.291,0,1,1,10.5,2.552l-.047.032v8.481c5.248-3.815,8.554-8.257,8.554-15.741v-6.158A1.067,1.067,0,0,0,65.725,148.073Z" transform="translate(-22.716 -126.914)" fill="#d3a7e6"/>
      <g id="Grupo_53320" data-name="Grupo 53320" transform="translate(18.404 19.648)">
        <path id="Trazado_98663" data-name="Trazado 98663" d="M45.229,197.421a20.712,20.712,0,0,1-.495-4.65v-8.624l-3.025,1.512a1.067,1.067,0,0,0-.59.954v6.158a19.694,19.694,0,0,0,.839,5.925A6.722,6.722,0,0,1,45.229,197.421Z" transform="translate(-41.12 -184.147)" fill="#a397e3"/>
      </g>
      <path id="Trazado_98664" data-name="Trazado 98664" d="M124.438,334.819a7.418,7.418,0,0,1-1.68-.194,6.759,6.759,0,0,1-2.47,8.691v5.592a.406.406,0,0,0,.679.3l3.2-2.894a.406.406,0,0,1,.545,0l3.2,2.894a.406.406,0,0,0,.679-.3V333.545A7.363,7.363,0,0,1,124.438,334.819Z" transform="translate(-93.437 -297.957)" fill="#ffea99"/>
      <g id="Grupo_53321" data-name="Grupo 53321" transform="translate(26.851 41.976)">
        <path id="Trazado_98665" data-name="Trazado 98665" d="M120.288,396.8v5.592a.406.406,0,0,0,.679.3l2.064-1.867v-7.409A6.779,6.779,0,0,1,120.288,396.8Z" transform="translate(-120.288 -393.415)" fill="#42e0e6"/>
      </g>
      <g id="Grupo_53322" data-name="Grupo 53322" transform="translate(23.604 22.067)">
        <path id="Trazado_98666" data-name="Trazado 98666" d="M97.253,206.819a7.4,7.4,0,0,0-6.5,10.931,6.767,6.767,0,0,1,4.82,3.669,7.4,7.4,0,1,0,1.68-14.6Z" transform="translate(-89.856 -206.819)" fill="#f3f9ff"/>
        <path id="Trazado_98667" data-name="Trazado 98667" d="M93.428,214.216a7.4,7.4,0,0,1,5.611-7.179,7.4,7.4,0,0,0-8.286,10.713,6.767,6.767,0,0,1,4.82,3.669,7.394,7.394,0,0,0,3.466-.024A7.4,7.4,0,0,1,93.428,214.216Z" transform="translate(-89.856 -206.819)" fill="#d2e1f1"/>
      </g>
      <g id="Grupo_53332" data-name="Grupo 53332" transform="translate(38.545 46.773)">
        <g id="Grupo_53323" data-name="Grupo 53323" transform="translate(0)">
          <path id="Trazado_98668" data-name="Trazado 98668" d="M233.946,438.6l.825,1.671a.406.406,0,0,0,.306.222l1.844.268a.406.406,0,0,1,.225.693l-1.335,1.3a.406.406,0,0,0-.117.36l.315,1.837a.406.406,0,0,1-.59.428l-1.65-.867a.407.407,0,0,0-.378,0l-1.65.867a.406.406,0,0,1-.59-.428l.315-1.837a.406.406,0,0,0-.117-.36l-1.335-1.3a.406.406,0,0,1,.225-.693l1.844-.268a.406.406,0,0,0,.306-.222l.825-1.671a.406.406,0,0,1,.729,0Z" transform="translate(-229.894 -438.375)" fill="#42e0e6"/>
        </g>
        <g id="Grupo_53326" data-name="Grupo 53326" transform="translate(9.902)">
          <path id="Trazado_98670" data-name="Trazado 98670" d="M326.752,438.6l.825,1.671a.406.406,0,0,0,.306.222l1.844.268a.406.406,0,0,1,.225.693l-1.335,1.3a.406.406,0,0,0-.117.36l.315,1.837a.406.406,0,0,1-.59.428l-1.65-.867a.407.407,0,0,0-.378,0l-1.65.867a.406.406,0,0,1-.59-.428l.315-1.837a.406.406,0,0,0-.117-.36l-1.335-1.3a.406.406,0,0,1,.225-.693l1.844-.268a.406.406,0,0,0,.306-.222l.825-1.671A.406.406,0,0,1,326.752,438.6Z" transform="translate(-322.7 -438.375)" fill="#42e0e6"/>
        </g>
        <g id="Grupo_53329" data-name="Grupo 53329" transform="translate(19.804)">
          <path id="Trazado_98672" data-name="Trazado 98672" d="M419.559,438.6l.825,1.671a.406.406,0,0,0,.306.222l1.844.268a.406.406,0,0,1,.225.693l-1.335,1.3a.406.406,0,0,0-.117.36l.315,1.837a.406.406,0,0,1-.59.428l-1.65-.867a.407.407,0,0,0-.378,0l-1.65.867a.406.406,0,0,1-.59-.428l.315-1.837a.406.406,0,0,0-.117-.36l-1.335-1.3a.406.406,0,0,1,.225-.693l1.844-.268a.406.406,0,0,0,.306-.222l.825-1.671A.406.406,0,0,1,419.559,438.6Z" transform="translate(-415.507 -438.375)" fill="#42e0e6"/>
        </g>
      </g>
      <g id="Grupo_53339" data-name="Grupo 53339" transform="translate(15.691 0)">
        <g id="Grupo_53333" data-name="Grupo 53333" transform="translate(0.8 32.881)">
          <circle id="Elipse_12" data-name="Elipse 12" cx="6.759" cy="6.759" r="6.759" fill="#d2e1f1"/>
        </g>
        <g id="Grupo_53334" data-name="Grupo 53334" transform="translate(0.8 32.881)">
          <path id="Trazado_98674" data-name="Trazado 98674" d="M26.477,314.932a6.761,6.761,0,0,1,5.115-6.557,6.759,6.759,0,1,0,0,13.114A6.761,6.761,0,0,1,26.477,314.932Z" transform="translate(-23.19 -308.173)" fill="#f3f9ff"/>
        </g>
        <g id="Grupo_53335" data-name="Grupo 53335" transform="translate(4.243 36.468)">
          <path id="Trazado_98675" data-name="Trazado 98675" d="M59.106,342l.742,1.5a.365.365,0,0,0,.275.2l1.658.241a.365.365,0,0,1,.2.623l-1.2,1.17a.366.366,0,0,0-.105.323l.283,1.652a.365.365,0,0,1-.53.385l-1.483-.78a.366.366,0,0,0-.34,0l-1.483.78a.365.365,0,0,1-.53-.385l.283-1.652a.365.365,0,0,0-.105-.323l-1.2-1.17a.365.365,0,0,1,.2-.623l1.658-.241a.365.365,0,0,0,.275-.2l.742-1.5A.365.365,0,0,1,59.106,342Z" transform="translate(-55.462 -341.798)" fill="#42e0e6"/>
        </g>
        <g id="Grupo_53338" data-name="Grupo 53338" transform="translate(0 0)">
          <path id="Trazado_98677" data-name="Trazado 98677" d="M65.85,0H35.136a1.122,1.122,0,0,0-1.12,1.12V3.628H31.509a1.122,1.122,0,0,0-1.12,1.12V14.57L18.636,20.444a1.857,1.857,0,0,0-1.032,1.67v6.158a20.922,20.922,0,0,0,.718,5.644,7.555,7.555,0,0,0,7.729,12.743v4.292a1.207,1.207,0,0,0,2.016.895L31,49.191l2.935,2.655a1.207,1.207,0,0,0,2.016-.895V44.645h6.019a.8.8,0,1,0,0-1.6H37.556a20.787,20.787,0,0,0,4.208-4.766H55.79a.8.8,0,0,0,0-1.6H42.645a16.566,16.566,0,0,0,.823-2.057h2.664a.8.8,0,0,0,0-1.6H43.906a19.682,19.682,0,0,0,.343-2.057H55.79a.8.8,0,1,0,0-1.6H44.373c.015-.358.026-.72.026-1.092v-.965H55.79a.8.8,0,1,0,0-1.6H44.4V23.65h4.081a.8.8,0,1,0,0-1.6H44.4a1.855,1.855,0,0,0-1.03-1.606l-.9-.451H55.79a.8.8,0,1,0,0-1.6H39.261l-7.273-3.635V5.228H61.743V11.2a.8.8,0,0,0,1.6,0V4.748a1.122,1.122,0,0,0-1.12-1.12H35.616V1.6H65.37V39.417H63.343V14.937a.8.8,0,0,0-1.6,0V43.045H45.705a.8.8,0,0,0,0,1.6H62.223a1.122,1.122,0,0,0,1.12-1.12V41.018H65.85a1.122,1.122,0,0,0,1.12-1.12V1.12A1.122,1.122,0,0,0,65.85,0ZM17.291,39.64A5.959,5.959,0,1,1,23.25,45.6,5.966,5.966,0,0,1,17.291,39.64Zm14.519,8.126a1.2,1.2,0,0,0-1.619,0l-2.541,2.3V45.78a7.544,7.544,0,0,0,2.89-8.133c.153.009.306.015.46.015a8.146,8.146,0,0,0,3.35-.719V50.064ZM42.8,22.114v6.158a16.333,16.333,0,0,1-3.306,10.481,21.092,21.092,0,0,1-3.54,3.558V35.992a8.189,8.189,0,0,0,2.317-10.32.8.8,0,0,0-1.418.741,6.521,6.521,0,0,1,.748,3.05,6.6,6.6,0,0,1-7.749,6.5,7.586,7.586,0,0,0-4.8-3.662,6.595,6.595,0,0,1,9.564-8.355.8.8,0,0,0,.877-1.339,8.2,8.2,0,0,0-12.253,9.477,7.509,7.509,0,0,0-3.508.874,19.754,19.754,0,0,1-.522-4.683V22.114a.265.265,0,0,1,.147-.239L31,16.053l11.65,5.822a.265.265,0,0,1,.148.238Z" transform="translate(-15.691 0)" fill="#23147b"/>
          <path id="Trazado_98678" data-name="Trazado 98678" d="M216.737,138.9a.8.8,0,0,0,.8.8h17.848a.8.8,0,0,0,0-1.6H217.537a.8.8,0,0,0-.8.8Z" transform="translate(-195.286 -123.367)" fill="#23147b"/>
          <path id="Trazado_98679" data-name="Trazado 98679" d="M348.623,206.657H344.3a.8.8,0,1,0,0,1.6h4.323a.8.8,0,1,0,0-1.6Z" transform="translate(-308.524 -184.608)" fill="#23147b"/>
          <path id="Trazado_98680" data-name="Trazado 98680" d="M328.077,309.49H321.3a.8.8,0,1,0,0,1.6h6.777a.8.8,0,1,0,0-1.6Z" transform="translate(-287.978 -276.469)" fill="#23147b"/>
          <path id="Trazado_98681" data-name="Trazado 98681" d="M260.73,90.189a.8.8,0,1,0,0-1.6H249.758a.8.8,0,0,0,0,1.6Z" transform="translate(-224.069 -79.137)" fill="#23147b"/>
          <path id="Trazado_98682" data-name="Trazado 98682" d="M131.394,256.752l-2.852,2.852-1.866-1.866a.8.8,0,1,0-1.132,1.132l2.432,2.432a.8.8,0,0,0,1.132,0l3.418-3.418a.8.8,0,0,0-1.132-1.132Z" transform="translate(-113.613 -229.148)" fill="#23147b"/>
          <path id="Trazado_98683" data-name="Trazado 98683" d="M230.331,433.27l-1.64-.238-.733-1.486h0a1.207,1.207,0,0,0-2.164,0l-.733,1.486-1.64.238a1.207,1.207,0,0,0-.669,2.058l1.186,1.156-.28,1.633a1.205,1.205,0,0,0,1.751,1.272l1.466-.771,1.466.771a1.207,1.207,0,0,0,1.751-1.272l-.28-1.633L231,435.328a1.207,1.207,0,0,0-.669-2.058Zm-1.783,2.213a1.206,1.206,0,0,0-.347,1.068l.18,1.05-.943-.5a1.206,1.206,0,0,0-1.123,0l-.943.5.18-1.05a1.206,1.206,0,0,0-.347-1.068l-.763-.744,1.055-.153a1.207,1.207,0,0,0,.909-.66l.472-.956.472.956a1.206,1.206,0,0,0,.909.66l1.055.153Z" transform="translate(-200.333 -384.902)" fill="#23147b"/>
          <path id="Trazado_98684" data-name="Trazado 98684" d="M323.137,433.27l-1.639-.238-.733-1.486h0a1.207,1.207,0,0,0-2.164,0l-.733,1.486-1.64.238a1.207,1.207,0,0,0-.669,2.058l1.186,1.156-.28,1.633a1.207,1.207,0,0,0,1.751,1.272l1.466-.771,1.466.771a1.207,1.207,0,0,0,1.751-1.272l-.28-1.633,1.186-1.156a1.207,1.207,0,0,0-.669-2.058Zm-1.783,2.213a1.206,1.206,0,0,0-.347,1.068l.18,1.05-.943-.5a1.206,1.206,0,0,0-1.123,0l-.943.5.18-1.05a1.207,1.207,0,0,0-.347-1.068l-.763-.744,1.055-.153a1.207,1.207,0,0,0,.909-.66l.472-.956.472.956a1.206,1.206,0,0,0,.909.66l1.055.153Z" transform="translate(-283.239 -384.902)" fill="#23147b"/>
          <path id="Trazado_98685" data-name="Trazado 98685" d="M415.944,433.27l-1.64-.238-.733-1.486h0a1.207,1.207,0,0,0-2.164,0l-.733,1.486-1.64.238a1.207,1.207,0,0,0-.669,2.058l1.186,1.156-.28,1.633a1.205,1.205,0,0,0,1.751,1.272l1.466-.771,1.466.771a1.207,1.207,0,0,0,1.751-1.272l-.28-1.633,1.187-1.157a1.207,1.207,0,0,0-.669-2.058Zm-1.783,2.213a1.206,1.206,0,0,0-.347,1.068l.18,1.05-.943-.5a1.207,1.207,0,0,0-1.123,0l-.943.5.18-1.05a1.207,1.207,0,0,0-.347-1.068l-.763-.744,1.055-.153a1.207,1.207,0,0,0,.909-.66l.472-.956.472.956a1.206,1.206,0,0,0,.909.66l1.055.153Z" transform="translate(-366.143 -384.902)" fill="#23147b"/>
          <path id="Trazado_98686" data-name="Trazado 98686" d="M55.194,336.453l-1.432-.208-.64-1.3a1.166,1.166,0,0,0-2.09,0l-.64,1.3-1.432.208a1.166,1.166,0,0,0-.646,1.988l1.036,1.01-.245,1.426a1.164,1.164,0,0,0,1.691,1.229l1.281-.673,1.281.673a1.166,1.166,0,0,0,1.691-1.229l-.245-1.426,1.036-1.01a1.165,1.165,0,0,0-.646-1.988Zm-1.671,2.012a1.165,1.165,0,0,0-.335,1.032l.134.783-.7-.37a1.166,1.166,0,0,0-1.085,0l-.7.37.134-.783a1.165,1.165,0,0,0-.335-1.031l-.569-.555.786-.114a1.165,1.165,0,0,0,.878-.638l.352-.712.352.712a1.165,1.165,0,0,0,.878.638l.786.114Z" transform="translate(-44.517 -298.629)" fill="#23147b"/>
        </g>
      </g>
    </g>
  </g>
</svg>
