<svg xmlns="http://www.w3.org/2000/svg" width="1086" height="393" viewBox="0 0 1086 393">
  <g id="Grupo_53490" data-name="Grupo 53490" transform="translate(-3672 -1931)">
    <rect id="Rectángulo_5103" data-name="Rectángulo 5103" width="212" height="136" transform="translate(3672 1931)" fill="#f5deff"/>
    <text id="El_Sistema_Único_de_Habilitación." data-name="El Sistema Único de 
Habilitación." transform="translate(3700 1989)" fill="#12263f" font-size="16" font-family="Roboto-Medium, Roboto" font-weight="500"><tspan x="0" y="0">El Sistema Único de </tspan><tspan x="0" y="24">Habilitación.</tspan></text>
    <rect id="Rectángulo_5104" data-name="Rectángulo 5104" width="212" height="136" transform="translate(3963 1931)" fill="#e4e0ff"/>
    <text id="La_Auditoría_para_el_Mejoramiento_de_la_Calidad_de_la_Atención_de_Salud." data-name="La Auditoría para 
el Mejoramiento de la 
Calidad de la Atención 
de Salud." transform="translate(3982 1967)" fill="#12263f" font-size="16" font-family="Roboto-Medium, Roboto" font-weight="500"><tspan x="0" y="0">La Auditoría para </tspan><tspan x="0" y="24">el Mejoramiento de la </tspan><tspan x="0" y="48">Calidad de la Atención </tspan><tspan x="0" y="72">de Salud.</tspan></text>
    <rect id="Rectángulo_5105" data-name="Rectángulo 5105" width="212" height="136" transform="translate(4255 1931)" fill="#f5deff"/>
    <text id="El_Sistema_Único_de_Acreditación._" data-name="El Sistema Único 
de Acreditación.
" transform="translate(4278 1952)" fill="#12263f" font-size="16" font-family="Roboto-Medium, Roboto" font-weight="500"><tspan x="0" y="17">El Sistema Único </tspan><tspan x="0" y="41">de Acreditación.</tspan></text>
    <rect id="Rectángulo_5106" data-name="Rectángulo 5106" width="212" height="136" transform="translate(4546 1931)" fill="#e4e0ff"/>
    <text id="El_Sistema_de_Información_para_la_Calidad." data-name="El Sistema de 
Información para 
la Calidad." transform="translate(4577 1967)" fill="#12263f" font-size="16" font-family="Roboto-Medium, Roboto" font-weight="500"><tspan x="0" y="0">El Sistema de </tspan><tspan x="0" y="24">Información para </tspan><tspan x="0" y="48">la Calidad.</tspan></text>
    <rect id="Rectángulo_5107" data-name="Rectángulo 5107" width="212" height="205" transform="translate(3672 2119)" fill="#e4e0ff"/>
    <text id="Requisitos_obligatorios_para_el_cumplimiento_de_condiciones_básicas_a_través_de_estándares_mínimos." data-name="Requisitos obligatorios 
para el cumplimiento de condiciones básicas a través de estándares mínimos." transform="translate(3695 2140)" fill="#12263f" font-size="16" font-family="Roboto-Medium, Roboto" font-weight="500"><tspan x="0" y="17">Requisitos obligatorios </tspan><tspan x="0" y="41">para el cumplimiento </tspan><tspan x="0" y="65">de condiciones </tspan><tspan x="0" y="89">básicas a través de </tspan><tspan x="0" y="113">estándares mínimos.</tspan></text>
    <rect id="Rectángulo_5108" data-name="Rectángulo 5108" width="212" height="205" transform="translate(3963 2119)" fill="#f5deff"/>
    <text id="Cumplimiento_de_estándares_superiores_para_la_atención_en_salud_a_través_de_evaluación_seguimiento_y_mejoramiento._" data-name="Cumplimiento de estándares superiores para la atención en salud a través de evaluación, seguimiento y mejoramiento.
" transform="translate(3985 2140)" fill="#12263f" font-size="16" font-family="Roboto-Medium, Roboto" font-weight="500"><tspan x="0" y="17">Cumplimiento de </tspan><tspan x="0" y="41">estándares superiores </tspan><tspan x="0" y="65">para la atención en </tspan><tspan x="0" y="89">salud a través de </tspan><tspan x="0" y="113">evaluación, </tspan><tspan x="0" y="137">seguimiento y </tspan><tspan x="0" y="161">mejoramiento.</tspan></text>
    <rect id="Rectángulo_5109" data-name="Rectángulo 5109" width="212" height="205" transform="translate(4255 2119)" fill="#e4e0ff"/>
    <text id="Comprobar_el_cumplimiento_de_niveles_superiores_de_calidad_por_evaluación_externa." data-name="Comprobar el cumplimiento de niveles superiores de calidad por evaluación externa." transform="translate(4278 2140)" fill="#12263f" font-size="16" font-family="Roboto-Medium, Roboto" font-weight="500"><tspan x="0" y="17">Comprobar el </tspan><tspan x="0" y="41">cumplimiento de </tspan><tspan x="0" y="65">niveles superiores de </tspan><tspan x="0" y="89">calidad por evaluación </tspan><tspan x="0" y="113">externa.</tspan></text>
    <rect id="Rectángulo_5110" data-name="Rectángulo 5110" width="212" height="205" transform="translate(4546 2119)" fill="#f5deff"/>
    <text id="Estimula_competitividad_orienta_a_los_usuarios_permite_toma_de_decisiones._" data-name="Estimula competitividad, orienta a los usuarios,
permite toma de decisiones. 
" transform="translate(4569 2140)" fill="#12263f" font-size="16" font-family="Roboto-Medium, Roboto" font-weight="500"><tspan x="0" y="17">Estimula </tspan><tspan x="0" y="41">competitividad, orienta </tspan><tspan x="0" y="65">a los usuarios,</tspan><tspan x="0" y="89">permite toma de </tspan><tspan x="0" y="113">decisiones. </tspan><tspan x="0" y="137"></tspan></text>
    <g id="flecha-correcta_1_" data-name="flecha-correcta (1)" transform="translate(3903 1900.38)">
      <g id="Grupo_53403" data-name="Grupo 53403" transform="translate(0.57 92.221)">
        <path id="Trazado_98796" data-name="Trazado 98796" d="M31.117,122.98a3.291,3.291,0,0,1-3.291-3.291v-.907H10.93a3.43,3.43,0,0,1-3.43-3.43v-8.573a3.43,3.43,0,0,1,3.43-3.43h16.9v-.908a3.289,3.289,0,0,1,5.336-2.575l10.849,8.625a3.289,3.289,0,0,1,0,5.149l-10.849,8.625a3.3,3.3,0,0,1-2.045.715Z" transform="translate(-7.5 -99.151)" fill="#f5f5f5"/>
      </g>
      <g id="Grupo_53404" data-name="Grupo 53404" transform="translate(3.482 95.133)">
        <path id="Trazado_98797" data-name="Trazado 98797" d="M77.626,146.2l-10.849-8.625a.377.377,0,0,0-.612.3v3.443a.377.377,0,0,1-.377.377h-18.9a1.047,1.047,0,0,0-1.047,1.047v7.515a1.047,1.047,0,0,0,1.047,1.047h18.9a.377.377,0,0,1,.377.377v3.443a.377.377,0,0,0,.612.3l10.849-8.625A.377.377,0,0,0,77.626,146.2Z" transform="translate(-45.839 -137.488)" fill="#a397e3"/>
      </g>
      <g id="Grupo_53405" data-name="Grupo 53405" transform="translate(23.044 92.221)">
        <path id="Trazado_98798" data-name="Trazado 98798" d="M317.389,108.491l-10.849-8.625a3.284,3.284,0,0,0-3.188-.51,3.3,3.3,0,0,1,.909.51l10.848,8.625a3.289,3.289,0,0,1,0,5.149l-10.849,8.625a3.3,3.3,0,0,1-.91.511,3.284,3.284,0,0,0,1.144.2h0a3.3,3.3,0,0,0,2.045-.715l10.849-8.625a3.289,3.289,0,0,0,0-5.15Z" transform="translate(-303.352 -99.151)" fill="#ebe5ed"/>
      </g>
      <g id="Grupo_53406" data-name="Grupo 53406" transform="translate(23.808 95.133)">
        <path id="Trazado_98799" data-name="Trazado 98799" d="M324.881,146.2l-10.849-8.625a.377.377,0,0,0-.612.3v1.03l9.181,7.3a.377.377,0,0,1,0,.59l-9.181,7.3v1.03a.377.377,0,0,0,.612.3l10.849-8.625A.377.377,0,0,0,324.881,146.2Z" transform="translate(-313.421 -137.488)" fill="#e4e0ff"/>
      </g>
      <g id="Grupo_53407" data-name="Grupo 53407" transform="translate(0 91.651)">
        <path id="Trazado_98800" data-name="Trazado 98800" d="M24.187,116.62a3.865,3.865,0,0,1-3.861-3.861v-.337H15.8a.57.57,0,1,1,0-1.139H20.9a.57.57,0,0,1,.57.57v.907a2.719,2.719,0,0,0,4.412,2.13l10.849-8.625a2.72,2.72,0,0,0,0-4.258L25.878,93.382a2.719,2.719,0,0,0-4.412,2.129v.908a.57.57,0,0,1-.57.57H4a2.864,2.864,0,0,0-2.86,2.86v8.573A2.864,2.864,0,0,0,4,111.282h9.525a.57.57,0,1,1,0,1.139H4a4,4,0,0,1-4-4V99.849a4,4,0,0,1,4-4H20.326v-.338a3.858,3.858,0,0,1,6.261-3.021l10.848,8.625a3.859,3.859,0,0,1,0,6.041l-10.849,8.625a3.872,3.872,0,0,1-2.4.839Z" transform="translate(0 -91.651)" fill="#23147b"/>
      </g>
      <g id="Grupo_53408" data-name="Grupo 53408" transform="translate(2.912 94.563)">
        <path id="Trazado_98801" data-name="Trazado 98801" d="M59.613,149.127a.95.95,0,0,1-.413-.1.94.94,0,0,1-.535-.853v-3.251H39.955a1.619,1.619,0,0,1-1.617-1.617V135.8a1.619,1.619,0,0,1,1.617-1.617H43.88a.57.57,0,0,1,0,1.139H39.955a.478.478,0,0,0-.477.477v7.515a.478.478,0,0,0,.477.477h18.9a.948.948,0,0,1,.947.947v3.044l10.346-8.225L59.8,131.329v3.044a.948.948,0,0,1-.947.947h-12.7a.57.57,0,0,1,0-1.139H58.664V130.93a.947.947,0,0,1,1.536-.741l10.849,8.625a.947.947,0,0,1,0,1.482L60.2,148.92A.942.942,0,0,1,59.613,149.127Z" transform="translate(-38.338 -129.982)" fill="#23147b"/>
      </g>
    </g>
    <g id="flecha-correcta_1_2" data-name="flecha-correcta (1)" transform="translate(4196.554 1900.38)">
      <g id="Grupo_53403-2" data-name="Grupo 53403" transform="translate(0.57 92.221)">
        <path id="Trazado_98796-2" data-name="Trazado 98796" d="M31.117,122.98a3.291,3.291,0,0,1-3.291-3.291v-.907H10.93a3.43,3.43,0,0,1-3.43-3.43v-8.573a3.43,3.43,0,0,1,3.43-3.43h16.9v-.908a3.289,3.289,0,0,1,5.336-2.575l10.849,8.625a3.289,3.289,0,0,1,0,5.149l-10.849,8.625a3.3,3.3,0,0,1-2.045.715Z" transform="translate(-7.5 -99.151)" fill="#f5f5f5"/>
      </g>
      <g id="Grupo_53404-2" data-name="Grupo 53404" transform="translate(3.482 95.133)">
        <path id="Trazado_98797-2" data-name="Trazado 98797" d="M77.626,146.2l-10.849-8.625a.377.377,0,0,0-.612.3v3.443a.377.377,0,0,1-.377.377h-18.9a1.047,1.047,0,0,0-1.047,1.047v7.515a1.047,1.047,0,0,0,1.047,1.047h18.9a.377.377,0,0,1,.377.377v3.443a.377.377,0,0,0,.612.3l10.849-8.625A.377.377,0,0,0,77.626,146.2Z" transform="translate(-45.839 -137.488)" fill="#a397e3"/>
      </g>
      <g id="Grupo_53405-2" data-name="Grupo 53405" transform="translate(23.044 92.221)">
        <path id="Trazado_98798-2" data-name="Trazado 98798" d="M317.389,108.491l-10.849-8.625a3.284,3.284,0,0,0-3.188-.51,3.3,3.3,0,0,1,.909.51l10.848,8.625a3.289,3.289,0,0,1,0,5.149l-10.849,8.625a3.3,3.3,0,0,1-.91.511,3.284,3.284,0,0,0,1.144.2h0a3.3,3.3,0,0,0,2.045-.715l10.849-8.625a3.289,3.289,0,0,0,0-5.15Z" transform="translate(-303.352 -99.151)" fill="#ebe5ed"/>
      </g>
      <g id="Grupo_53406-2" data-name="Grupo 53406" transform="translate(23.808 95.133)">
        <path id="Trazado_98799-2" data-name="Trazado 98799" d="M324.881,146.2l-10.849-8.625a.377.377,0,0,0-.612.3v1.03l9.181,7.3a.377.377,0,0,1,0,.59l-9.181,7.3v1.03a.377.377,0,0,0,.612.3l10.849-8.625A.377.377,0,0,0,324.881,146.2Z" transform="translate(-313.421 -137.488)" fill="#e4e0ff"/>
      </g>
      <g id="Grupo_53407-2" data-name="Grupo 53407" transform="translate(0 91.651)">
        <path id="Trazado_98800-2" data-name="Trazado 98800" d="M24.187,116.62a3.865,3.865,0,0,1-3.861-3.861v-.337H15.8a.57.57,0,1,1,0-1.139H20.9a.57.57,0,0,1,.57.57v.907a2.719,2.719,0,0,0,4.412,2.13l10.849-8.625a2.72,2.72,0,0,0,0-4.258L25.878,93.382a2.719,2.719,0,0,0-4.412,2.129v.908a.57.57,0,0,1-.57.57H4a2.864,2.864,0,0,0-2.86,2.86v8.573A2.864,2.864,0,0,0,4,111.282h9.525a.57.57,0,1,1,0,1.139H4a4,4,0,0,1-4-4V99.849a4,4,0,0,1,4-4H20.326v-.338a3.858,3.858,0,0,1,6.261-3.021l10.848,8.625a3.859,3.859,0,0,1,0,6.041l-10.849,8.625a3.872,3.872,0,0,1-2.4.839Z" transform="translate(0 -91.651)" fill="#23147b"/>
      </g>
      <g id="Grupo_53408-2" data-name="Grupo 53408" transform="translate(2.912 94.563)">
        <path id="Trazado_98801-2" data-name="Trazado 98801" d="M59.613,149.127a.95.95,0,0,1-.413-.1.94.94,0,0,1-.535-.853v-3.251H39.955a1.619,1.619,0,0,1-1.617-1.617V135.8a1.619,1.619,0,0,1,1.617-1.617H43.88a.57.57,0,0,1,0,1.139H39.955a.478.478,0,0,0-.477.477v7.515a.478.478,0,0,0,.477.477h18.9a.948.948,0,0,1,.947.947v3.044l10.346-8.225L59.8,131.329v3.044a.948.948,0,0,1-.947.947h-12.7a.57.57,0,0,1,0-1.139H58.664V130.93a.947.947,0,0,1,1.536-.741l10.849,8.625a.947.947,0,0,1,0,1.482L60.2,148.92A.942.942,0,0,1,59.613,149.127Z" transform="translate(-38.338 -129.982)" fill="#23147b"/>
      </g>
    </g>
    <g id="flecha-correcta_1_3" data-name="flecha-correcta (1)" transform="translate(4522.554 1900.38)">
      <g id="Grupo_53403-3" data-name="Grupo 53403" transform="translate(0.57 92.221)">
        <path id="Trazado_98796-3" data-name="Trazado 98796" d="M31.117,122.98a3.291,3.291,0,0,1-3.291-3.291v-.907H10.93a3.43,3.43,0,0,1-3.43-3.43v-8.573a3.43,3.43,0,0,1,3.43-3.43h16.9v-.908a3.289,3.289,0,0,1,5.336-2.575l10.849,8.625a3.289,3.289,0,0,1,0,5.149l-10.849,8.625a3.3,3.3,0,0,1-2.045.715Z" transform="translate(-7.5 -99.151)" fill="#f5f5f5"/>
      </g>
      <g id="Grupo_53404-3" data-name="Grupo 53404" transform="translate(3.482 95.133)">
        <path id="Trazado_98797-3" data-name="Trazado 98797" d="M77.626,146.2l-10.849-8.625a.377.377,0,0,0-.612.3v3.443a.377.377,0,0,1-.377.377h-18.9a1.047,1.047,0,0,0-1.047,1.047v7.515a1.047,1.047,0,0,0,1.047,1.047h18.9a.377.377,0,0,1,.377.377v3.443a.377.377,0,0,0,.612.3l10.849-8.625A.377.377,0,0,0,77.626,146.2Z" transform="translate(-45.839 -137.488)" fill="#a397e3"/>
      </g>
      <g id="Grupo_53405-3" data-name="Grupo 53405" transform="translate(23.044 92.221)">
        <path id="Trazado_98798-3" data-name="Trazado 98798" d="M317.389,108.491l-10.849-8.625a3.284,3.284,0,0,0-3.188-.51,3.3,3.3,0,0,1,.909.51l10.848,8.625a3.289,3.289,0,0,1,0,5.149l-10.849,8.625a3.3,3.3,0,0,1-.91.511,3.284,3.284,0,0,0,1.144.2h0a3.3,3.3,0,0,0,2.045-.715l10.849-8.625a3.289,3.289,0,0,0,0-5.15Z" transform="translate(-303.352 -99.151)" fill="#ebe5ed"/>
      </g>
      <g id="Grupo_53406-3" data-name="Grupo 53406" transform="translate(23.808 95.133)">
        <path id="Trazado_98799-3" data-name="Trazado 98799" d="M324.881,146.2l-10.849-8.625a.377.377,0,0,0-.612.3v1.03l9.181,7.3a.377.377,0,0,1,0,.59l-9.181,7.3v1.03a.377.377,0,0,0,.612.3l10.849-8.625A.377.377,0,0,0,324.881,146.2Z" transform="translate(-313.421 -137.488)" fill="#e4e0ff"/>
      </g>
      <g id="Grupo_53407-3" data-name="Grupo 53407" transform="translate(0 91.651)">
        <path id="Trazado_98800-3" data-name="Trazado 98800" d="M24.187,116.62a3.865,3.865,0,0,1-3.861-3.861v-.337H15.8a.57.57,0,1,1,0-1.139H20.9a.57.57,0,0,1,.57.57v.907a2.719,2.719,0,0,0,4.412,2.13l10.849-8.625a2.72,2.72,0,0,0,0-4.258L25.878,93.382a2.719,2.719,0,0,0-4.412,2.129v.908a.57.57,0,0,1-.57.57H4a2.864,2.864,0,0,0-2.86,2.86v8.573A2.864,2.864,0,0,0,4,111.282h9.525a.57.57,0,1,1,0,1.139H4a4,4,0,0,1-4-4V99.849a4,4,0,0,1,4-4H20.326v-.338a3.858,3.858,0,0,1,6.261-3.021l10.848,8.625a3.859,3.859,0,0,1,0,6.041l-10.849,8.625a3.872,3.872,0,0,1-2.4.839Z" transform="translate(0 -91.651)" fill="#23147b"/>
      </g>
      <g id="Grupo_53408-3" data-name="Grupo 53408" transform="translate(2.912 94.563)">
        <path id="Trazado_98801-3" data-name="Trazado 98801" d="M59.613,149.127a.95.95,0,0,1-.413-.1.94.94,0,0,1-.535-.853v-3.251H39.955a1.619,1.619,0,0,1-1.617-1.617V135.8a1.619,1.619,0,0,1,1.617-1.617H43.88a.57.57,0,0,1,0,1.139H39.955a.478.478,0,0,0-.477.477v7.515a.478.478,0,0,0,.477.477h18.9a.948.948,0,0,1,.947.947v3.044l10.346-8.225L59.8,131.329v3.044a.948.948,0,0,1-.947.947h-12.7a.57.57,0,0,1,0-1.139H58.664V130.93a.947.947,0,0,1,1.536-.741l10.849,8.625a.947.947,0,0,1,0,1.482L60.2,148.92A.942.942,0,0,1,59.613,149.127Z" transform="translate(-38.338 -129.982)" fill="#23147b"/>
      </g>
    </g>
    <g id="flecha-correcta_1_4" data-name="flecha-correcta (1)" transform="translate(4493 2108.651) rotate(180)">
      <g id="Grupo_53403-4" data-name="Grupo 53403" transform="translate(0.57 92.221)">
        <path id="Trazado_98796-4" data-name="Trazado 98796" d="M31.117,122.98a3.291,3.291,0,0,1-3.291-3.291v-.907H10.93a3.43,3.43,0,0,1-3.43-3.43v-8.573a3.43,3.43,0,0,1,3.43-3.43h16.9v-.908a3.289,3.289,0,0,1,5.336-2.575l10.849,8.625a3.289,3.289,0,0,1,0,5.149l-10.849,8.625a3.3,3.3,0,0,1-2.045.715Z" transform="translate(-7.5 -99.151)" fill="#f5f5f5"/>
      </g>
      <g id="Grupo_53404-4" data-name="Grupo 53404" transform="translate(3.482 95.133)">
        <path id="Trazado_98797-4" data-name="Trazado 98797" d="M77.626,146.2l-10.849-8.625a.377.377,0,0,0-.612.3v3.443a.377.377,0,0,1-.377.377h-18.9a1.047,1.047,0,0,0-1.047,1.047v7.515a1.047,1.047,0,0,0,1.047,1.047h18.9a.377.377,0,0,1,.377.377v3.443a.377.377,0,0,0,.612.3l10.849-8.625A.377.377,0,0,0,77.626,146.2Z" transform="translate(-45.839 -137.488)" fill="#a397e3"/>
      </g>
      <g id="Grupo_53405-4" data-name="Grupo 53405" transform="translate(23.044 92.221)">
        <path id="Trazado_98798-4" data-name="Trazado 98798" d="M317.389,108.491l-10.849-8.625a3.284,3.284,0,0,0-3.188-.51,3.3,3.3,0,0,1,.909.51l10.848,8.625a3.289,3.289,0,0,1,0,5.149l-10.849,8.625a3.3,3.3,0,0,1-.91.511,3.284,3.284,0,0,0,1.144.2h0a3.3,3.3,0,0,0,2.045-.715l10.849-8.625a3.289,3.289,0,0,0,0-5.15Z" transform="translate(-303.352 -99.151)" fill="#ebe5ed"/>
      </g>
      <g id="Grupo_53406-4" data-name="Grupo 53406" transform="translate(23.808 95.133)">
        <path id="Trazado_98799-4" data-name="Trazado 98799" d="M324.881,146.2l-10.849-8.625a.377.377,0,0,0-.612.3v1.03l9.181,7.3a.377.377,0,0,1,0,.59l-9.181,7.3v1.03a.377.377,0,0,0,.612.3l10.849-8.625A.377.377,0,0,0,324.881,146.2Z" transform="translate(-313.421 -137.488)" fill="#e4e0ff"/>
      </g>
      <g id="Grupo_53407-4" data-name="Grupo 53407" transform="translate(0 91.651)">
        <path id="Trazado_98800-4" data-name="Trazado 98800" d="M24.187,116.62a3.865,3.865,0,0,1-3.861-3.861v-.337H15.8a.57.57,0,1,1,0-1.139H20.9a.57.57,0,0,1,.57.57v.907a2.719,2.719,0,0,0,4.412,2.13l10.849-8.625a2.72,2.72,0,0,0,0-4.258L25.878,93.382a2.719,2.719,0,0,0-4.412,2.129v.908a.57.57,0,0,1-.57.57H4a2.864,2.864,0,0,0-2.86,2.86v8.573A2.864,2.864,0,0,0,4,111.282h9.525a.57.57,0,1,1,0,1.139H4a4,4,0,0,1-4-4V99.849a4,4,0,0,1,4-4H20.326v-.338a3.858,3.858,0,0,1,6.261-3.021l10.848,8.625a3.859,3.859,0,0,1,0,6.041l-10.849,8.625a3.872,3.872,0,0,1-2.4.839Z" transform="translate(0 -91.651)" fill="#23147b"/>
      </g>
      <g id="Grupo_53408-4" data-name="Grupo 53408" transform="translate(2.912 94.563)">
        <path id="Trazado_98801-4" data-name="Trazado 98801" d="M59.613,149.127a.95.95,0,0,1-.413-.1.94.94,0,0,1-.535-.853v-3.251H39.955a1.619,1.619,0,0,1-1.617-1.617V135.8a1.619,1.619,0,0,1,1.617-1.617H43.88a.57.57,0,0,1,0,1.139H39.955a.478.478,0,0,0-.477.477v7.515a.478.478,0,0,0,.477.477h18.9a.948.948,0,0,1,.947.947v3.044l10.346-8.225L59.8,131.329v3.044a.948.948,0,0,1-.947.947h-12.7a.57.57,0,0,1,0-1.139H58.664V130.93a.947.947,0,0,1,1.536-.741l10.849,8.625a.947.947,0,0,1,0,1.482L60.2,148.92A.942.942,0,0,1,59.613,149.127Z" transform="translate(-38.338 -129.982)" fill="#23147b"/>
      </g>
    </g>
    <g id="flecha-correcta_1_5" data-name="flecha-correcta (1)" transform="translate(3882.62 2073.069) rotate(90)">
      <g id="Grupo_53403-5" data-name="Grupo 53403" transform="translate(0.57 92.221)">
        <path id="Trazado_98796-5" data-name="Trazado 98796" d="M31.117,122.98a3.291,3.291,0,0,1-3.291-3.291v-.907H10.93a3.43,3.43,0,0,1-3.43-3.43v-8.573a3.43,3.43,0,0,1,3.43-3.43h16.9v-.908a3.289,3.289,0,0,1,5.336-2.575l10.849,8.625a3.289,3.289,0,0,1,0,5.149l-10.849,8.625a3.3,3.3,0,0,1-2.045.715Z" transform="translate(-7.5 -99.151)" fill="#f5f5f5"/>
      </g>
      <g id="Grupo_53404-5" data-name="Grupo 53404" transform="translate(3.482 95.133)">
        <path id="Trazado_98797-5" data-name="Trazado 98797" d="M77.626,146.2l-10.849-8.625a.377.377,0,0,0-.612.3v3.443a.377.377,0,0,1-.377.377h-18.9a1.047,1.047,0,0,0-1.047,1.047v7.515a1.047,1.047,0,0,0,1.047,1.047h18.9a.377.377,0,0,1,.377.377v3.443a.377.377,0,0,0,.612.3l10.849-8.625A.377.377,0,0,0,77.626,146.2Z" transform="translate(-45.839 -137.488)" fill="#a397e3"/>
      </g>
      <g id="Grupo_53405-5" data-name="Grupo 53405" transform="translate(23.044 92.221)">
        <path id="Trazado_98798-5" data-name="Trazado 98798" d="M317.389,108.491l-10.849-8.625a3.284,3.284,0,0,0-3.188-.51,3.3,3.3,0,0,1,.909.51l10.848,8.625a3.289,3.289,0,0,1,0,5.149l-10.849,8.625a3.3,3.3,0,0,1-.91.511,3.284,3.284,0,0,0,1.144.2h0a3.3,3.3,0,0,0,2.045-.715l10.849-8.625a3.289,3.289,0,0,0,0-5.15Z" transform="translate(-303.352 -99.151)" fill="#ebe5ed"/>
      </g>
      <g id="Grupo_53406-5" data-name="Grupo 53406" transform="translate(23.808 95.133)">
        <path id="Trazado_98799-5" data-name="Trazado 98799" d="M324.881,146.2l-10.849-8.625a.377.377,0,0,0-.612.3v1.03l9.181,7.3a.377.377,0,0,1,0,.59l-9.181,7.3v1.03a.377.377,0,0,0,.612.3l10.849-8.625A.377.377,0,0,0,324.881,146.2Z" transform="translate(-313.421 -137.488)" fill="#e4e0ff"/>
      </g>
      <g id="Grupo_53407-5" data-name="Grupo 53407" transform="translate(0 91.651)">
        <path id="Trazado_98800-5" data-name="Trazado 98800" d="M24.187,116.62a3.865,3.865,0,0,1-3.861-3.861v-.337H15.8a.57.57,0,1,1,0-1.139H20.9a.57.57,0,0,1,.57.57v.907a2.719,2.719,0,0,0,4.412,2.13l10.849-8.625a2.72,2.72,0,0,0,0-4.258L25.878,93.382a2.719,2.719,0,0,0-4.412,2.129v.908a.57.57,0,0,1-.57.57H4a2.864,2.864,0,0,0-2.86,2.86v8.573A2.864,2.864,0,0,0,4,111.282h9.525a.57.57,0,1,1,0,1.139H4a4,4,0,0,1-4-4V99.849a4,4,0,0,1,4-4H20.326v-.338a3.858,3.858,0,0,1,6.261-3.021l10.848,8.625a3.859,3.859,0,0,1,0,6.041l-10.849,8.625a3.872,3.872,0,0,1-2.4.839Z" transform="translate(0 -91.651)" fill="#23147b"/>
      </g>
      <g id="Grupo_53408-5" data-name="Grupo 53408" transform="translate(2.912 94.563)">
        <path id="Trazado_98801-5" data-name="Trazado 98801" d="M59.613,149.127a.95.95,0,0,1-.413-.1.94.94,0,0,1-.535-.853v-3.251H39.955a1.619,1.619,0,0,1-1.617-1.617V135.8a1.619,1.619,0,0,1,1.617-1.617H43.88a.57.57,0,0,1,0,1.139H39.955a.478.478,0,0,0-.477.477v7.515a.478.478,0,0,0,.477.477h18.9a.948.948,0,0,1,.947.947v3.044l10.346-8.225L59.8,131.329v3.044a.948.948,0,0,1-.947.947h-12.7a.57.57,0,0,1,0-1.139H58.664V130.93a.947.947,0,0,1,1.536-.741l10.849,8.625a.947.947,0,0,1,0,1.482L60.2,148.92A.942.942,0,0,1,59.613,149.127Z" transform="translate(-38.338 -129.982)" fill="#23147b"/>
      </g>
    </g>
    <g id="flecha-correcta_1_6" data-name="flecha-correcta (1)" transform="translate(4173.62 2073.069) rotate(90)">
      <g id="Grupo_53403-6" data-name="Grupo 53403" transform="translate(0.57 92.221)">
        <path id="Trazado_98796-6" data-name="Trazado 98796" d="M31.117,122.98a3.291,3.291,0,0,1-3.291-3.291v-.907H10.93a3.43,3.43,0,0,1-3.43-3.43v-8.573a3.43,3.43,0,0,1,3.43-3.43h16.9v-.908a3.289,3.289,0,0,1,5.336-2.575l10.849,8.625a3.289,3.289,0,0,1,0,5.149l-10.849,8.625a3.3,3.3,0,0,1-2.045.715Z" transform="translate(-7.5 -99.151)" fill="#f5f5f5"/>
      </g>
      <g id="Grupo_53404-6" data-name="Grupo 53404" transform="translate(3.482 95.133)">
        <path id="Trazado_98797-6" data-name="Trazado 98797" d="M77.626,146.2l-10.849-8.625a.377.377,0,0,0-.612.3v3.443a.377.377,0,0,1-.377.377h-18.9a1.047,1.047,0,0,0-1.047,1.047v7.515a1.047,1.047,0,0,0,1.047,1.047h18.9a.377.377,0,0,1,.377.377v3.443a.377.377,0,0,0,.612.3l10.849-8.625A.377.377,0,0,0,77.626,146.2Z" transform="translate(-45.839 -137.488)" fill="#a397e3"/>
      </g>
      <g id="Grupo_53405-6" data-name="Grupo 53405" transform="translate(23.044 92.221)">
        <path id="Trazado_98798-6" data-name="Trazado 98798" d="M317.389,108.491l-10.849-8.625a3.284,3.284,0,0,0-3.188-.51,3.3,3.3,0,0,1,.909.51l10.848,8.625a3.289,3.289,0,0,1,0,5.149l-10.849,8.625a3.3,3.3,0,0,1-.91.511,3.284,3.284,0,0,0,1.144.2h0a3.3,3.3,0,0,0,2.045-.715l10.849-8.625a3.289,3.289,0,0,0,0-5.15Z" transform="translate(-303.352 -99.151)" fill="#ebe5ed"/>
      </g>
      <g id="Grupo_53406-6" data-name="Grupo 53406" transform="translate(23.808 95.133)">
        <path id="Trazado_98799-6" data-name="Trazado 98799" d="M324.881,146.2l-10.849-8.625a.377.377,0,0,0-.612.3v1.03l9.181,7.3a.377.377,0,0,1,0,.59l-9.181,7.3v1.03a.377.377,0,0,0,.612.3l10.849-8.625A.377.377,0,0,0,324.881,146.2Z" transform="translate(-313.421 -137.488)" fill="#e4e0ff"/>
      </g>
      <g id="Grupo_53407-6" data-name="Grupo 53407" transform="translate(0 91.651)">
        <path id="Trazado_98800-6" data-name="Trazado 98800" d="M24.187,116.62a3.865,3.865,0,0,1-3.861-3.861v-.337H15.8a.57.57,0,1,1,0-1.139H20.9a.57.57,0,0,1,.57.57v.907a2.719,2.719,0,0,0,4.412,2.13l10.849-8.625a2.72,2.72,0,0,0,0-4.258L25.878,93.382a2.719,2.719,0,0,0-4.412,2.129v.908a.57.57,0,0,1-.57.57H4a2.864,2.864,0,0,0-2.86,2.86v8.573A2.864,2.864,0,0,0,4,111.282h9.525a.57.57,0,1,1,0,1.139H4a4,4,0,0,1-4-4V99.849a4,4,0,0,1,4-4H20.326v-.338a3.858,3.858,0,0,1,6.261-3.021l10.848,8.625a3.859,3.859,0,0,1,0,6.041l-10.849,8.625a3.872,3.872,0,0,1-2.4.839Z" transform="translate(0 -91.651)" fill="#23147b"/>
      </g>
      <g id="Grupo_53408-6" data-name="Grupo 53408" transform="translate(2.912 94.563)">
        <path id="Trazado_98801-6" data-name="Trazado 98801" d="M59.613,149.127a.95.95,0,0,1-.413-.1.94.94,0,0,1-.535-.853v-3.251H39.955a1.619,1.619,0,0,1-1.617-1.617V135.8a1.619,1.619,0,0,1,1.617-1.617H43.88a.57.57,0,0,1,0,1.139H39.955a.478.478,0,0,0-.477.477v7.515a.478.478,0,0,0,.477.477h18.9a.948.948,0,0,1,.947.947v3.044l10.346-8.225L59.8,131.329v3.044a.948.948,0,0,1-.947.947h-12.7a.57.57,0,0,1,0-1.139H58.664V130.93a.947.947,0,0,1,1.536-.741l10.849,8.625a.947.947,0,0,1,0,1.482L60.2,148.92A.942.942,0,0,1,59.613,149.127Z" transform="translate(-38.338 -129.982)" fill="#23147b"/>
      </g>
    </g>
    <g id="flecha-correcta_1_7" data-name="flecha-correcta (1)" transform="translate(4465.62 2073.069) rotate(90)">
      <g id="Grupo_53403-7" data-name="Grupo 53403" transform="translate(0.57 92.221)">
        <path id="Trazado_98796-7" data-name="Trazado 98796" d="M31.117,122.98a3.291,3.291,0,0,1-3.291-3.291v-.907H10.93a3.43,3.43,0,0,1-3.43-3.43v-8.573a3.43,3.43,0,0,1,3.43-3.43h16.9v-.908a3.289,3.289,0,0,1,5.336-2.575l10.849,8.625a3.289,3.289,0,0,1,0,5.149l-10.849,8.625a3.3,3.3,0,0,1-2.045.715Z" transform="translate(-7.5 -99.151)" fill="#f5f5f5"/>
      </g>
      <g id="Grupo_53404-7" data-name="Grupo 53404" transform="translate(3.482 95.133)">
        <path id="Trazado_98797-7" data-name="Trazado 98797" d="M77.626,146.2l-10.849-8.625a.377.377,0,0,0-.612.3v3.443a.377.377,0,0,1-.377.377h-18.9a1.047,1.047,0,0,0-1.047,1.047v7.515a1.047,1.047,0,0,0,1.047,1.047h18.9a.377.377,0,0,1,.377.377v3.443a.377.377,0,0,0,.612.3l10.849-8.625A.377.377,0,0,0,77.626,146.2Z" transform="translate(-45.839 -137.488)" fill="#a397e3"/>
      </g>
      <g id="Grupo_53405-7" data-name="Grupo 53405" transform="translate(23.044 92.221)">
        <path id="Trazado_98798-7" data-name="Trazado 98798" d="M317.389,108.491l-10.849-8.625a3.284,3.284,0,0,0-3.188-.51,3.3,3.3,0,0,1,.909.51l10.848,8.625a3.289,3.289,0,0,1,0,5.149l-10.849,8.625a3.3,3.3,0,0,1-.91.511,3.284,3.284,0,0,0,1.144.2h0a3.3,3.3,0,0,0,2.045-.715l10.849-8.625a3.289,3.289,0,0,0,0-5.15Z" transform="translate(-303.352 -99.151)" fill="#ebe5ed"/>
      </g>
      <g id="Grupo_53406-7" data-name="Grupo 53406" transform="translate(23.808 95.133)">
        <path id="Trazado_98799-7" data-name="Trazado 98799" d="M324.881,146.2l-10.849-8.625a.377.377,0,0,0-.612.3v1.03l9.181,7.3a.377.377,0,0,1,0,.59l-9.181,7.3v1.03a.377.377,0,0,0,.612.3l10.849-8.625A.377.377,0,0,0,324.881,146.2Z" transform="translate(-313.421 -137.488)" fill="#e4e0ff"/>
      </g>
      <g id="Grupo_53407-7" data-name="Grupo 53407" transform="translate(0 91.651)">
        <path id="Trazado_98800-7" data-name="Trazado 98800" d="M24.187,116.62a3.865,3.865,0,0,1-3.861-3.861v-.337H15.8a.57.57,0,1,1,0-1.139H20.9a.57.57,0,0,1,.57.57v.907a2.719,2.719,0,0,0,4.412,2.13l10.849-8.625a2.72,2.72,0,0,0,0-4.258L25.878,93.382a2.719,2.719,0,0,0-4.412,2.129v.908a.57.57,0,0,1-.57.57H4a2.864,2.864,0,0,0-2.86,2.86v8.573A2.864,2.864,0,0,0,4,111.282h9.525a.57.57,0,1,1,0,1.139H4a4,4,0,0,1-4-4V99.849a4,4,0,0,1,4-4H20.326v-.338a3.858,3.858,0,0,1,6.261-3.021l10.848,8.625a3.859,3.859,0,0,1,0,6.041l-10.849,8.625a3.872,3.872,0,0,1-2.4.839Z" transform="translate(0 -91.651)" fill="#23147b"/>
      </g>
      <g id="Grupo_53408-7" data-name="Grupo 53408" transform="translate(2.912 94.563)">
        <path id="Trazado_98801-7" data-name="Trazado 98801" d="M59.613,149.127a.95.95,0,0,1-.413-.1.94.94,0,0,1-.535-.853v-3.251H39.955a1.619,1.619,0,0,1-1.617-1.617V135.8a1.619,1.619,0,0,1,1.617-1.617H43.88a.57.57,0,0,1,0,1.139H39.955a.478.478,0,0,0-.477.477v7.515a.478.478,0,0,0,.477.477h18.9a.948.948,0,0,1,.947.947v3.044l10.346-8.225L59.8,131.329v3.044a.948.948,0,0,1-.947.947h-12.7a.57.57,0,0,1,0-1.139H58.664V130.93a.947.947,0,0,1,1.536-.741l10.849,8.625a.947.947,0,0,1,0,1.482L60.2,148.92A.942.942,0,0,1,59.613,149.127Z" transform="translate(-38.338 -129.982)" fill="#23147b"/>
      </g>
    </g>
  </g>
</svg>
