<svg xmlns="http://www.w3.org/2000/svg" width="24.969" height="38.893" viewBox="0 0 24.969 38.893">
  <g id="flecha-correcta_1_" data-name="flecha-correcta (1)" transform="translate(0 38.893) rotate(-90)">
    <g id="Grupo_53403" data-name="Grupo 53403" transform="translate(0.57 0.57)">
      <path id="Trazado_98796" data-name="Trazado 98796" d="M23.617,0a3.291,3.291,0,0,0-3.291,3.291V4.2H3.43A3.43,3.43,0,0,0,0,7.628V16.2a3.43,3.43,0,0,0,3.43,3.43h16.9v.908a3.289,3.289,0,0,0,5.336,2.575L36.511,14.49a3.289,3.289,0,0,0,0-5.15L25.663.715A3.3,3.3,0,0,0,23.618,0Z" fill="#f5f5f5"/>
    </g>
    <g id="Grupo_53404" data-name="Grupo 53404" transform="translate(3.482 3.482)">
      <path id="Trazado_98797" data-name="Trazado 98797" d="M31.787,9.3,20.938,17.923a.377.377,0,0,1-.612-.3V14.184a.377.377,0,0,0-.377-.377H1.047A1.047,1.047,0,0,1,0,12.76V5.245A1.047,1.047,0,0,1,1.047,4.2h18.9a.377.377,0,0,0,.377-.377V.378a.377.377,0,0,1,.612-.3L31.787,8.707A.377.377,0,0,1,31.787,9.3Z" fill="#a397e3"/>
    </g>
    <g id="Grupo_53405" data-name="Grupo 53405" transform="translate(23.044 0.57)">
      <path id="Trazado_98798" data-name="Trazado 98798" d="M14.037,14.49,3.189,23.115A3.284,3.284,0,0,1,0,23.625a3.3,3.3,0,0,0,.909-.51L11.759,14.49a3.289,3.289,0,0,0,0-5.15L.91.715A3.3,3.3,0,0,0,0,.2,3.284,3.284,0,0,1,1.144,0h0A3.3,3.3,0,0,1,3.189.715L14.038,9.34a3.289,3.289,0,0,1,0,5.15Z" fill="#ebe5ed"/>
    </g>
    <g id="Grupo_53406" data-name="Grupo 53406" transform="translate(23.808 3.482)">
      <path id="Trazado_98799" data-name="Trazado 98799" d="M11.46,9.3.612,17.923a.377.377,0,0,1-.612-.3V16.6L9.181,9.3a.377.377,0,0,0,0-.59L0,1.408V.378a.377.377,0,0,1,.612-.3L11.46,8.707A.377.377,0,0,1,11.46,9.3Z" fill="#e4e0ff"/>
    </g>
    <g id="Grupo_53407" data-name="Grupo 53407" transform="translate(0 0)">
      <path id="Trazado_98800" data-name="Trazado 98800" d="M24.187,0a3.865,3.865,0,0,0-3.861,3.861V4.2H15.8a.57.57,0,0,0,0,1.139H20.9a.57.57,0,0,0,.57-.57V3.861a2.719,2.719,0,0,1,4.412-2.13l10.849,8.625a2.72,2.72,0,0,1,0,4.258L25.878,23.238a2.719,2.719,0,0,1-4.412-2.129V20.2a.57.57,0,0,0-.57-.57H4a2.864,2.864,0,0,1-2.86-2.861V8.2A2.864,2.864,0,0,1,4,5.338h9.525a.57.57,0,0,0,0-1.139H4a4,4,0,0,0-4,4v8.573a4,4,0,0,0,4,4H20.326v.338a3.858,3.858,0,0,0,6.261,3.021l10.848-8.625a3.859,3.859,0,0,0,0-6.041L26.587.839A3.872,3.872,0,0,0,24.187,0Z" fill="#23147b"/>
    </g>
    <g id="Grupo_53408" data-name="Grupo 53408" transform="translate(2.912 2.912)">
      <path id="Trazado_98801" data-name="Trazado 98801" d="M21.275,0a.95.95,0,0,0-.413.1.94.94,0,0,0-.535.853V4.2H1.617A1.619,1.619,0,0,0,0,5.815V13.33a1.619,1.619,0,0,0,1.617,1.617H5.542a.57.57,0,0,0,0-1.139H1.617a.478.478,0,0,1-.477-.477V5.815a.478.478,0,0,1,.477-.477h18.9a.948.948,0,0,0,.947-.947V1.347L31.812,9.573,21.466,17.8V14.754a.948.948,0,0,0-.947-.947H7.821a.57.57,0,0,0,0,1.139H20.326V18.2a.947.947,0,0,0,1.536.741l10.848-8.625a.947.947,0,0,0,0-1.482L21.862.207A.942.942,0,0,0,21.275,0Z" fill="#23147b"/>
    </g>
  </g>
</svg>
