<svg xmlns="http://www.w3.org/2000/svg" width="86" height="86" viewBox="0 0 86 86">
  <g id="Grupo_53386" data-name="Grupo 53386" transform="translate(-691 -770)">
    <g id="Elipse_16" data-name="Elipse 16" transform="translate(691 770)" fill="#d2e1f1" stroke="#9a4cbc" stroke-width="2">
      <circle cx="43" cy="43" r="43" stroke="none"/>
      <circle cx="43" cy="43" r="42" fill="none"/>
    </g>
    <g id="auditoria" transform="translate(706 734.759)">
      <g id="Grupo_53375" data-name="Grupo 53375" transform="translate(33.323 71.782)">
        <path id="Trazado_98735" data-name="Trazado 98735" d="M325.589,214.373H309.579a9.741,9.741,0,0,1-5.384,8.557v16.952l.11.33h21.285a.548.548,0,0,0,.548-.548V214.921A.548.548,0,0,0,325.589,214.373Z" transform="translate(-304.195 -214.373)" fill="#dff6fd"/>
        <path id="Trazado_98736" data-name="Trazado 98736" d="M304.2,266.142v16.952l.11.33H307.9V262.9a9.785,9.785,0,0,1-3.7,3.241Z" transform="translate(-304.195 -257.585)" fill="#c8effe"/>
      </g>
      <g id="Grupo_53376" data-name="Grupo 53376" transform="translate(33.323 60.59)">
        <path id="Trazado_98737" data-name="Trazado 98737" d="M322.273,112.2H304.2v2.319a9.741,9.741,0,0,1,5.386,8.715c0,.053,0,.105,0,.158h13.242V112.746A.548.548,0,0,0,322.273,112.2Z" transform="translate(-304.195 -112.198)" fill="#ffea99"/>
        <path id="Trazado_98738" data-name="Trazado 98738" d="M308.333,118.46V112.2H304.2v2.319A9.783,9.783,0,0,1,308.333,118.46Z" transform="translate(-304.195 -112.198)" fill="#ffea99"/>
      </g>
      <path id="Trazado_98739" data-name="Trazado 98739" d="M35.645,88.044a9.742,9.742,0,1,1,4.466-18.4V62.289a.548.548,0,0,0-.548-.548H8.048a.548.548,0,0,0-.548.548v41.464a.548.548,0,0,0,.548.548H40.111V86.963a9.7,9.7,0,0,1-4.466,1.082Z" transform="translate(-6.678 -6.678)" fill="#f3f9ff"/>
      <g id="Grupo_53377" data-name="Grupo 53377" transform="translate(0.822 55.063)">
        <path id="Trazado_98740" data-name="Trazado 98740" d="M11.2,103.753V62.289a.548.548,0,0,1,.548-.548h-3.7a.548.548,0,0,0-.548.548v41.464a.548.548,0,0,0,.548.548h3.7A.548.548,0,0,1,11.2,103.753Z" transform="translate(-7.5 -61.741)" fill="#d2e1f1"/>
      </g>
      <g id="Grupo_53378" data-name="Grupo 53378" transform="translate(34.696 77.353)">
        <path id="Trazado_98741" data-name="Trazado 98741" d="M321.565,268.055l-2.827-2.827a9.713,9.713,0,0,1-2.009,2.009l2.827,2.827Z" transform="translate(-316.729 -265.228)" fill="#f5deff"/>
      </g>
      <g id="Grupo_53379" data-name="Grupo 53379" transform="translate(37.143 79.801)">
        <path id="Trazado_98742" data-name="Trazado 98742" d="M348.539,297.038a2.169,2.169,0,0,1-3.067,0l-6.24-6.24a.548.548,0,0,1,0-.775l2.293-2.293a.548.548,0,0,1,.775,0l6.24,6.24A2.169,2.169,0,0,1,348.539,297.038Z" transform="translate(-339.071 -287.57)" fill="#d3a7e6"/>
      </g>
      <g id="Grupo_53380" data-name="Grupo 53380" transform="translate(37.143 79.801)">
        <path id="Trazado_98743" data-name="Trazado 98743" d="M348.287,297.039l-6.24-6.24a.548.548,0,0,1,0-.775l1.272-1.272-1.02-1.02a.548.548,0,0,0-.775,0l-2.293,2.293a.548.548,0,0,0,0,.775l6.24,6.24a2.167,2.167,0,0,0,2.941.114C348.37,297.116,348.328,297.079,348.287,297.039Z" transform="translate(-339.071 -287.571)" fill="#e4e0ff"/>
      </g>
      <g id="Grupo_53381" data-name="Grupo 53381" transform="translate(19.225 61.883)">
        <circle id="Elipse_17" data-name="Elipse 17" cx="9.742" cy="9.742" r="9.742" fill="#d3a7e6"/>
      </g>
      <g id="Grupo_53384" data-name="Grupo 53384" transform="translate(21.963 64.621)">
        <g id="Grupo_53382" data-name="Grupo 53382" transform="translate(0 0)">
          <circle id="Elipse_18" data-name="Elipse 18" cx="7.003" cy="7.003" r="7.003" fill="#e4e0ff"/>
        </g>
        <g id="Grupo_53383" data-name="Grupo 53383">
          <path id="Trazado_98744" data-name="Trazado 98744" d="M204.185,156a7.014,7.014,0,0,1,5.161-6.755,7,7,0,1,0,0,13.511A7.014,7.014,0,0,1,204.185,156Z" transform="translate(-200.5 -149)" fill="#f3f9ff"/>
        </g>
      </g>
      <g id="Grupo_53385" data-name="Grupo 53385" transform="translate(0 54.241)">
        <path id="Trazado_98745" data-name="Trazado 98745" d="M54.717,70.961H52.77V61.138A1.371,1.371,0,0,0,51.4,59.768H34.254V55.61a1.371,1.371,0,0,0-1.369-1.369h-21.6a.822.822,0,1,0,0,1.643H32.61v5.825a10.552,10.552,0,0,0-11.082,2.422H6.808a.822.822,0,1,0,0,1.643H20.176a10.539,10.539,0,0,0-1.117,2.186H13.693a.822.822,0,1,0,0,1.643H18.6a10.576,10.576,0,0,0-.195,2.021c0,.055,0,.11,0,.165H6.808a.822.822,0,1,0,0,1.643H18.559a10.476,10.476,0,0,0,.63,2.186H6.808a.822.822,0,1,0,0,1.643H20.037a10.644,10.644,0,0,0,1.839,2.186H16.431a.822.822,0,1,0,0,1.643h7.853a10.545,10.545,0,0,0,8.217.486V96.8H1.643V55.884H7.449a.822.822,0,1,0,0-1.643H1.369A1.371,1.371,0,0,0,0,55.61V97.074a1.371,1.371,0,0,0,1.369,1.369H46.994a.822.822,0,1,0,0-1.643H34.254V80.765c.143-.083.285-.168.424-.258l1.712,1.712a1.37,1.37,0,0,0,.333,1.391l6.24,6.24a2.989,2.989,0,0,0,5.064-2.6h6.417V89.2H50.719a.822.822,0,1,0,0,1.643h3.724v1.95H43.708a.822.822,0,1,0,0,1.643H54.443V96.8H50.828a.822.822,0,1,0,0,1.643h3.889a1.371,1.371,0,0,0,1.369-1.369V72.33a1.371,1.371,0,0,0-1.369-1.369Zm-3.59-9.549v1.95H41.955a.822.822,0,1,0,0,1.643h9.172v1.95H41.955a.822.822,0,1,0,0,1.643h9.172v2.364H39.508a10.575,10.575,0,0,0-5.255-8.479V61.411H51.127ZM28.967,80.544a8.92,8.92,0,1,1,8.92-8.92A8.93,8.93,0,0,1,28.967,80.544ZM36,79.5a10.669,10.669,0,0,0,.848-.848L38.293,80.1l-.848.848ZM46.03,88.688a1.349,1.349,0,0,1-1.905,0l-6.046-6.046,1.905-1.905,6.046,6.046A1.349,1.349,0,0,1,46.03,88.688Zm1.149-3.08L40.952,79.38a1.37,1.37,0,0,0-1.391-.333l-1.712-1.712A10.5,10.5,0,0,0,39.483,72.6h14.96V74.83H46.337a.822.822,0,0,0,0,1.643h8.106v1.95H44.584a.822.822,0,1,0,0,1.643h9.859v1.95H48.966a.822.822,0,1,0,0,1.643h5.477v1.95H47.179Z" transform="translate(0 -54.241)" fill="#23147b"/>
        <path id="Trazado_98746" data-name="Trazado 98746" d="M108.18,103.143a.822.822,0,0,0,0-1.643H97.248a.822.822,0,0,0,0,1.643Z" transform="translate(-85.863 -96.323)" fill="#23147b"/>
        <path id="Trazado_98747" data-name="Trazado 98747" d="M55.472,181.124h4.256a.822.822,0,0,0,0-1.643H55.472a.822.822,0,0,0,0,1.643Z" transform="translate(-48.663 -165.762)" fill="#23147b"/>
        <path id="Trazado_98748" data-name="Trazado 98748" d="M62.356,284.352H55.472a.822.822,0,1,0,0,1.643h6.885a.822.822,0,0,0,0-1.643Z" transform="translate(-48.663 -259.145)" fill="#23147b"/>
        <path id="Trazado_98749" data-name="Trazado 98749" d="M75.556,319.309H55.472a.822.822,0,1,0,0,1.643H75.556a.822.822,0,1,0,0-1.643Z" transform="translate(-48.663 -290.273)" fill="#23147b"/>
        <path id="Trazado_98750" data-name="Trazado 98750" d="M192.963,354.266h-5.641a.822.822,0,1,0,0,1.643h5.641a.822.822,0,0,0,0-1.643Z" transform="translate(-166.07 -321.4)" fill="#23147b"/>
        <path id="Trazado_98751" data-name="Trazado 98751" d="M55.472,355.909H67.286a.822.822,0,1,0,0-1.643H55.472a.822.822,0,1,0,0,1.643Z" transform="translate(-48.663 -321.4)" fill="#23147b"/>
        <path id="Trazado_98752" data-name="Trazado 98752" d="M55.472,390.866H75.556a.822.822,0,0,0,0-1.643H55.472a.822.822,0,0,0,0,1.643Z" transform="translate(-48.663 -352.528)" fill="#23147b"/>
        <path id="Trazado_98753" data-name="Trazado 98753" d="M207.791,150.4a.822.822,0,0,0-1.011.572,6.182,6.182,0,1,1-.024-3.383.822.822,0,1,0,1.577-.462,7.825,7.825,0,1,0,.03,4.284A.822.822,0,0,0,207.791,150.4Z" transform="translate(-171.857 -131.941)" fill="#23147b"/>
        <path id="Trazado_98754" data-name="Trazado 98754" d="M242.108,181.99a.822.822,0,0,0,0-1.643H237.72a.822.822,0,0,0,0,1.643Z" transform="translate(-210.947 -166.533)" fill="#23147b"/>
        <path id="Trazado_98755" data-name="Trazado 98755" d="M234.17,206.252a.822.822,0,0,0-.822-.822H226.5a.822.822,0,1,0,0,1.643h6.846A.822.822,0,0,0,234.17,206.252Z" transform="translate(-200.958 -188.868)" fill="#23147b"/>
        <path id="Trazado_98756" data-name="Trazado 98756" d="M244.131,230.514a.822.822,0,1,0,0,1.643h2.984a.822.822,0,1,0,0-1.643Z" transform="translate(-216.656 -211.204)" fill="#23147b"/>
      </g>
    </g>
  </g>
</svg>
