<svg xmlns="http://www.w3.org/2000/svg" width="24.969" height="38.893" viewBox="0 0 24.969 38.893">
  <g id="flecha-correcta_1_" data-name="flecha-correcta (1)" transform="translate(116.62) rotate(90)">
    <g id="Grupo_53403" data-name="Grupo 53403" transform="translate(0.57 92.221)">
      <path id="Trazado_98796" data-name="Trazado 98796" d="M31.117,122.98a3.291,3.291,0,0,1-3.291-3.291v-.907H10.93a3.43,3.43,0,0,1-3.43-3.43v-8.573a3.43,3.43,0,0,1,3.43-3.43h16.9v-.908a3.289,3.289,0,0,1,5.336-2.575l10.849,8.625a3.289,3.289,0,0,1,0,5.149l-10.849,8.625a3.3,3.3,0,0,1-2.045.715Z" transform="translate(-7.5 -99.151)" fill="#f5f5f5"/>
    </g>
    <g id="Grupo_53404" data-name="Grupo 53404" transform="translate(3.482 95.133)">
      <path id="Trazado_98797" data-name="Trazado 98797" d="M77.626,146.2l-10.849-8.625a.377.377,0,0,0-.612.3v3.443a.377.377,0,0,1-.377.377h-18.9a1.047,1.047,0,0,0-1.047,1.047v7.515a1.047,1.047,0,0,0,1.047,1.047h18.9a.377.377,0,0,1,.377.377v3.443a.377.377,0,0,0,.612.3l10.849-8.625A.377.377,0,0,0,77.626,146.2Z" transform="translate(-45.839 -137.488)" fill="#a397e3"/>
    </g>
    <g id="Grupo_53405" data-name="Grupo 53405" transform="translate(23.044 92.221)">
      <path id="Trazado_98798" data-name="Trazado 98798" d="M317.389,108.491l-10.849-8.625a3.284,3.284,0,0,0-3.188-.51,3.3,3.3,0,0,1,.909.51l10.848,8.625a3.289,3.289,0,0,1,0,5.149l-10.849,8.625a3.3,3.3,0,0,1-.91.511,3.284,3.284,0,0,0,1.144.2h0a3.3,3.3,0,0,0,2.045-.715l10.849-8.625a3.289,3.289,0,0,0,0-5.15Z" transform="translate(-303.352 -99.151)" fill="#ebe5ed"/>
    </g>
    <g id="Grupo_53406" data-name="Grupo 53406" transform="translate(23.808 95.133)">
      <path id="Trazado_98799" data-name="Trazado 98799" d="M324.881,146.2l-10.849-8.625a.377.377,0,0,0-.612.3v1.03l9.181,7.3a.377.377,0,0,1,0,.59l-9.181,7.3v1.03a.377.377,0,0,0,.612.3l10.849-8.625A.377.377,0,0,0,324.881,146.2Z" transform="translate(-313.421 -137.488)" fill="#e4e0ff"/>
    </g>
    <g id="Grupo_53407" data-name="Grupo 53407" transform="translate(0 91.651)">
      <path id="Trazado_98800" data-name="Trazado 98800" d="M24.187,116.62a3.865,3.865,0,0,1-3.861-3.861v-.337H15.8a.57.57,0,1,1,0-1.139H20.9a.57.57,0,0,1,.57.57v.907a2.719,2.719,0,0,0,4.412,2.13l10.849-8.625a2.72,2.72,0,0,0,0-4.258L25.878,93.382a2.719,2.719,0,0,0-4.412,2.129v.908a.57.57,0,0,1-.57.57H4a2.864,2.864,0,0,0-2.86,2.86v8.573A2.864,2.864,0,0,0,4,111.282h9.525a.57.57,0,1,1,0,1.139H4a4,4,0,0,1-4-4V99.849a4,4,0,0,1,4-4H20.326v-.338a3.858,3.858,0,0,1,6.261-3.021l10.848,8.625a3.859,3.859,0,0,1,0,6.041l-10.849,8.625a3.872,3.872,0,0,1-2.4.839Z" transform="translate(0 -91.651)" fill="#23147b"/>
    </g>
    <g id="Grupo_53408" data-name="Grupo 53408" transform="translate(2.912 94.563)">
      <path id="Trazado_98801" data-name="Trazado 98801" d="M59.613,149.127a.95.95,0,0,1-.413-.1.94.94,0,0,1-.535-.853v-3.251H39.955a1.619,1.619,0,0,1-1.617-1.617V135.8a1.619,1.619,0,0,1,1.617-1.617H43.88a.57.57,0,0,1,0,1.139H39.955a.478.478,0,0,0-.477.477v7.515a.478.478,0,0,0,.477.477h18.9a.948.948,0,0,1,.947.947v3.044l10.346-8.225L59.8,131.329v3.044a.948.948,0,0,1-.947.947h-12.7a.57.57,0,0,1,0-1.139H58.664V130.93a.947.947,0,0,1,1.536-.741l10.849,8.625a.947.947,0,0,1,0,1.482L60.2,148.92A.942.942,0,0,1,59.613,149.127Z" transform="translate(-38.338 -129.982)" fill="#23147b"/>
    </g>
  </g>
</svg>
