<svg xmlns="http://www.w3.org/2000/svg" width="86" height="86" viewBox="0 0 86 86">
  <g id="Grupo_53440" data-name="Grupo 53440" transform="translate(-158 -3552)">
    <g id="Elipse_25" data-name="Elipse 25" transform="translate(158 3552)" fill="#f3f9ff" stroke="#9a4cbc" stroke-width="2">
      <circle cx="43" cy="43" r="43" stroke="none"/>
      <circle cx="43" cy="43" r="42" fill="none"/>
    </g>
    <g id="auditor" transform="translate(180.932 3567.636)">
      <g id="Grupo_53410" data-name="Grupo 53410" transform="translate(0.779 0.779)">
        <path id="Trazado_98803" data-name="Trazado 98803" d="M279.774,245.15h4.584v10.621h-4.584Z" transform="translate(-258.956 -220.467)" fill="#407093"/>
        <path id="Trazado_98804" data-name="Trazado 98804" d="M279.774,245.15h2.292v10.621h-2.292Z" transform="translate(-258.956 -220.467)" fill="#365e7d"/>
        <g id="Grupo_53409" data-name="Grupo 53409" transform="translate(0 17.686)">
          <path id="Trazado_98805" data-name="Trazado 98805" d="M82.726,317.079a3.389,3.389,0,0,0,3.389-3.389l2.047-6.779-2.047-6.717a3.389,3.389,0,1,0-6.778,0v13.5A3.389,3.389,0,0,0,82.726,317.079Z" transform="translate(-79.337 -284.443)" fill="#d3a7e6"/>
          <path id="Trazado_98806" data-name="Trazado 98806" d="M86.114,394.106l4.452,2.59-4.452,4.189a3.389,3.389,0,1,1-6.778,0v-6.779a3.389,3.389,0,1,0,6.778,0Z" transform="translate(-79.336 -371.638)" fill="#e4e0ff"/>
          <path id="Trazado_98807" data-name="Trazado 98807" d="M165.853,190.076h-9.58a1.915,1.915,0,0,1-1.915-1.915v-6.516a3.838,3.838,0,0,0-3.732-3.859,3.8,3.8,0,0,0-3.862,3.8v4.438a4.874,4.874,0,0,0-2.165,4.055v15.133a6.509,6.509,0,0,0,6.509,6.509h11.136a2.425,2.425,0,0,0,2.442-2.326,2.393,2.393,0,0,0-2.392-2.46h1.294a2.854,2.854,0,0,0,2.864-2.864,2.81,2.81,0,0,0-2.809-2.755h1.05a2.854,2.854,0,0,0,2.864-2.864,2.809,2.809,0,0,0-2.809-2.755h1.105a2.809,2.809,0,1,0,0-5.619Z" transform="translate(-137.821 -177.786)" fill="#e4e0ff"/>
          <path id="Trazado_98808" data-name="Trazado 98808" d="M154.5,211.723H151.11a6.508,6.508,0,0,1-6.508-6.509V190.081a4.874,4.874,0,0,1,2.165-4.056v-4.437a3.8,3.8,0,0,1,3.862-3.8,3.7,3.7,0,0,1,1.62.4,3.8,3.8,0,0,0-2.1,3.4v4.437a4.875,4.875,0,0,0-2.166,4.056v15.134A6.509,6.509,0,0,0,154.5,211.723Z" transform="translate(-137.823 -177.79)" fill="#d3a7e6"/>
        </g>
        <circle id="Elipse_24" data-name="Elipse 24" cx="13.587" cy="13.587" r="13.587" transform="translate(9.523 0)" fill="#ffea99"/>
        <path id="Trazado_98809" data-name="Trazado 98809" d="M185.758,34.627q-.567.048-1.146.048a13.587,13.587,0,0,1,0-27.175q.579,0,1.146.048a13.588,13.588,0,0,0,0,27.078Z" transform="translate(-161.501 -7.5)" fill="#ffd064"/>
        <path id="Trazado_98813" data-name="Trazado 98813" d="M9.605,0A9.605,9.605,0,1,1,0,9.605,9.605,9.605,0,0,1,9.605,0Z" transform="translate(13.505 3.982)" fill="#f3f9ff"/>
        <path id="Trazado_98810" data-name="Trazado 98810" d="M220.881,64.856a9.605,9.605,0,1,1,0-18.829,9.607,9.607,0,0,0,0,18.829Z" transform="translate(-195.856 -41.854)" fill="#d2e1f1"/>
      </g>
      <g id="Grupo_53411" data-name="Grupo 53411" transform="translate(0 0)">
        <path id="Trazado_98811" data-name="Trazado 98811" d="M110.094,14.366a14.377,14.377,0,0,0-1.752-6.88.779.779,0,1,0-1.367.747,12.834,12.834,0,1,1-1.681-2.383.779.779,0,1,0,1.164-1.036,14.366,14.366,0,0,0-24.324,14.2,4.54,4.54,0,0,0-1.351,3.247V26.3a5.653,5.653,0,0,0-2.166,4.452v.214a4.166,4.166,0,0,0-6.778,3.247V44.1a.779.779,0,1,0,1.558,0V34.216a2.61,2.61,0,1,1,5.22,0V47.711a2.61,2.61,0,0,1-5.22,0v-.506a.779.779,0,1,0-1.558,0v.506a4.167,4.167,0,0,0,7.842,1.966,7.291,7.291,0,0,0,6.224,3.5H97.041a3.219,3.219,0,0,0,3.22-3.084,3.143,3.143,0,0,0-.592-1.938A3.69,3.69,0,0,0,101,47.29a3.532,3.532,0,0,0,1.026-2.557,3.572,3.572,0,0,0-.933-2.334,3.682,3.682,0,0,0,1.012-.728,3.532,3.532,0,0,0,1.026-2.557,3.571,3.571,0,0,0-.92-2.319,3.588,3.588,0,0,0-1.563-6.819H98.8V28.4a14.39,14.39,0,0,0,11.294-14.034ZM91.071,29.976a1.137,1.137,0,0,1-1.136-1.135v-1.33a14.25,14.25,0,0,0,2.722.889v1.575H91.071Zm11.015,2.152a2.031,2.031,0,0,1-1.435,3.467H99.546a.779.779,0,0,0,0,1.558,2.041,2.041,0,0,1,2.03,1.991A1.986,1.986,0,0,1,101,40.579a2.122,2.122,0,0,1-1.5.635h-1.05a.779.779,0,1,0,0,1.558,2.041,2.041,0,0,1,2.03,1.991A1.986,1.986,0,0,1,99.89,46.2a2.122,2.122,0,0,1-1.5.635H97.091a.779.779,0,1,0,0,1.558,1.613,1.613,0,0,1,1.613,1.66,1.651,1.651,0,0,1-1.663,1.569H85.906a5.737,5.737,0,0,1-5.73-5.73V30.755A4.1,4.1,0,0,1,82,27.347a.779.779,0,0,0,.345-.647V22.263a3,3,0,0,1,.467-1.617A14.465,14.465,0,0,0,88.377,26.7v2.136a2.7,2.7,0,0,0,2.694,2.693h9.58a2.019,2.019,0,0,1,1.435.594Zm-4.845-2.152H94.214V28.653a14.408,14.408,0,0,0,3.027,0v1.324Z" transform="translate(-71.839 0)" fill="#23147b"/>
        <path id="Trazado_98812" data-name="Trazado 98812" d="M212.246,38.34a10.384,10.384,0,1,0,10.384,10.384A10.4,10.4,0,0,0,212.246,38.34Zm0,19.211a8.826,8.826,0,1,1,8.826-8.826A8.836,8.836,0,0,1,212.246,57.551Z" transform="translate(-188.358 -34.358)" fill="#23147b"/>
      </g>
    </g>
  </g>
</svg>
