<svg xmlns="http://www.w3.org/2000/svg" width="86" height="86" viewBox="0 0 86 86">
  <g id="Grupo_53439" data-name="Grupo 53439" transform="translate(-359 -3552)">
    <g id="Elipse_26" data-name="Elipse 26" transform="translate(359 3552)" fill="#f3f9ff" stroke="#9a4cbc" stroke-width="2">
      <circle cx="43" cy="43" r="43" stroke="none"/>
      <circle cx="43" cy="43" r="42" fill="none"/>
    </g>
    <g id="expediente" transform="translate(379.276 3568.99)">
      <g id="Grupo_53416" data-name="Grupo 53416" transform="translate(1.034 1.034)">
        <g id="Grupo_53412" data-name="Grupo 53412" transform="translate(7.044 18.741)">
          <path id="Trazado_98814" data-name="Trazado 98814" d="M133.82,192.172a9.821,9.821,0,0,1-2.9-.434v23.357a2.729,2.729,0,0,1-2.729,2.729H105.476v2.833a2.729,2.729,0,0,0,2.729,2.729h27.034a2.729,2.729,0,0,0,2.729-2.729v-29.4A9.788,9.788,0,0,1,133.82,192.172Z" transform="translate(-105.476 -191.256)" fill="#e4e0ff"/>
        </g>
        <g id="Grupo_53413" data-name="Grupo 53413" transform="translate(0 2.238)">
          <path id="Trazado_98815" data-name="Trazado 98815" d="M66.29,31.646H40.081a2.729,2.729,0,0,0-2.729,2.729V71.987a2.729,2.729,0,0,0,2.729,2.729H67.115a2.729,2.729,0,0,0,2.729-2.729V48.838" transform="translate(-37.352 -31.646)" fill="#faf7f5"/>
        </g>
        <g id="Grupo_53414" data-name="Grupo 53414" transform="translate(25.562)">
          <path id="Trazado_98824" data-name="Trazado 98824" d="M9.826,0A9.828,9.828,0,1,1,0,9.828,9.827,9.827,0,0,1,9.826,0Z" fill="#ffea99"/>
        </g>
        <g id="Grupo_53415" data-name="Grupo 53415" transform="translate(6.93 10.404)">
          <path id="Trazado_98816" data-name="Trazado 98816" d="M104.377,110.62h18.632v4.367H104.377Z" transform="translate(-104.377 -110.62)" fill="#d3a7e6"/>
        </g>
      </g>
      <g id="Grupo_53434" data-name="Grupo 53434">
        <g id="Grupo_53418" data-name="Grupo 53418" transform="translate(35.393 8.474)">
          <g id="Grupo_53417" data-name="Grupo 53417">
            <path id="Trazado_98817" data-name="Trazado 98817" d="M370.689,91.094a1.034,1.034,0,0,1-1.034-1.034V82.99a1.034,1.034,0,0,1,2.068,0v7.07A1.034,1.034,0,0,1,370.689,91.094Z" transform="translate(-369.655 -81.956)" fill="#23147b"/>
          </g>
        </g>
        <g id="Grupo_53420" data-name="Grupo 53420" transform="translate(35.388 5.147)">
          <g id="Grupo_53419" data-name="Grupo 53419">
            <circle id="Elipse_28" data-name="Elipse 28" cx="1.034" cy="1.034" r="1.034" fill="#23147b"/>
          </g>
        </g>
        <g id="Grupo_53423" data-name="Grupo 53423">
          <path id="Trazado_98818" data-name="Trazado 98818" d="M74.634,10.862A10.855,10.855,0,0,0,57.178,2.238H31.115A3.767,3.767,0,0,0,27.352,6V43.613a3.767,3.767,0,0,0,3.763,3.763H34.4v1.8a3.767,3.767,0,0,0,3.763,3.763H65.193a3.767,3.767,0,0,0,3.763-3.763V34.834a1.034,1.034,0,1,0-2.068,0V49.176a1.7,1.7,0,0,1-1.695,1.7H38.159a1.7,1.7,0,0,1-1.695-1.7v-1.8H58.149a3.767,3.767,0,0,0,3.763-3.763V21.565a10.9,10.9,0,0,0,4.976-.295v4.216a1.034,1.034,0,1,0,2.068,0V20.407a10.872,10.872,0,0,0,5.679-9.545ZM59.844,43.614a1.7,1.7,0,0,1-1.7,1.7H31.115a1.7,1.7,0,0,1-1.695-1.7V6a1.7,1.7,0,0,1,1.695-1.695H55.12a10.806,10.806,0,0,0-2.2,6.1H35.316a1.034,1.034,0,0,0-1.034,1.034V15.8a1.034,1.034,0,0,0,1.034,1.034H53.948a1.029,1.029,0,0,0,.625-.211,10.924,10.924,0,0,0,5.271,4.361Zm-6.93-31.142v2.3H36.35v-2.3Zm10.86,7.185a8.795,8.795,0,1,1,8.792-8.795A8.8,8.8,0,0,1,63.774,19.657Z" transform="translate(-27.352)" fill="#23147b"/>
          <g id="Grupo_53422" data-name="Grupo 53422" transform="translate(39.537 29.11)">
            <g id="Grupo_53421" data-name="Grupo 53421">
              <path id="Trazado_98819" data-name="Trazado 98819" d="M410.774,283.607a1.034,1.034,0,1,1,1.007-.8A1.044,1.044,0,0,1,410.774,283.607Z" transform="translate(-409.742 -281.541)"/>
            </g>
          </g>
        </g>
        <g id="Grupo_53433" data-name="Grupo 53433" transform="translate(6.93 20.434)">
          <g id="Grupo_53432" data-name="Grupo 53432">
            <g id="Grupo_53425" data-name="Grupo 53425">
              <g id="Grupo_53424" data-name="Grupo 53424">
                <path id="Trazado_98820" data-name="Trazado 98820" d="M114.043,199.7H95.411a1.034,1.034,0,0,1,0-2.068h18.632a1.034,1.034,0,1,1,0,2.068Z" transform="translate(-94.377 -197.633)" fill="#23147b"/>
              </g>
            </g>
            <g id="Grupo_53427" data-name="Grupo 53427" transform="translate(0 4.904)">
              <g id="Grupo_53426" data-name="Grupo 53426">
                <path id="Trazado_98821" data-name="Trazado 98821" d="M114.043,247.131H95.411a1.034,1.034,0,0,1,0-2.068h18.632a1.034,1.034,0,1,1,0,2.068Z" transform="translate(-94.377 -245.063)" fill="#23147b"/>
              </g>
            </g>
            <g id="Grupo_53429" data-name="Grupo 53429" transform="translate(0 9.808)">
              <g id="Grupo_53428" data-name="Grupo 53428">
                <path id="Trazado_98822" data-name="Trazado 98822" d="M114.043,294.561H95.411a1.034,1.034,0,1,1,0-2.068h18.632a1.034,1.034,0,1,1,0,2.068Z" transform="translate(-94.377 -292.493)" fill="#23147b"/>
              </g>
            </g>
            <g id="Grupo_53431" data-name="Grupo 53431" transform="translate(0 14.712)">
              <g id="Grupo_53430" data-name="Grupo 53430">
                <path id="Trazado_98823" data-name="Trazado 98823" d="M114.043,341.991H95.411a1.034,1.034,0,0,1,0-2.068h18.632a1.034,1.034,0,1,1,0,2.068Z" transform="translate(-94.377 -339.923)" fill="#23147b"/>
              </g>
            </g>
          </g>
        </g>
      </g>
    </g>
  </g>
</svg>
