<svg xmlns="http://www.w3.org/2000/svg" width="86" height="86" viewBox="0 0 86 86">
  <g id="Grupo_53453" data-name="Grupo 53453" transform="translate(-691 -983)">
    <g id="Grupo_53402" data-name="Grupo 53402" transform="translate(0 213)">
      <g id="Elipse_16" data-name="Elipse 16" transform="translate(691 770)" fill="#d2e1f1" stroke="#9a4cbc" stroke-width="2">
        <circle cx="43" cy="43" r="43" stroke="none"/>
        <circle cx="43" cy="43" r="42" fill="none"/>
      </g>
    </g>
    <g id="metrica" transform="translate(710.294 1002)">
      <path id="Trazado_98778" data-name="Trazado 98778" d="M34.522,48.488a1.463,1.463,0,0,1-.888-2.626l12.788-9.753a1.463,1.463,0,0,1,1.5-.167l11.947,5.467L71.944,31.275a1.463,1.463,0,1,1,1.881,2.242L61.037,44.245a1.463,1.463,0,0,1-1.549.209L47.5,38.968l-12.09,9.221A1.456,1.456,0,0,1,34.522,48.488Zm0,0" transform="translate(-29.997 -28.069)" fill="#f3f9ff"/>
      <path id="Trazado_98779" data-name="Trazado 98779" d="M13.725,304.766H8.934A1.434,1.434,0,0,0,7.5,306.2v12.443a1.434,1.434,0,0,0,1.434,1.434h4.791a1.434,1.434,0,0,0,1.435-1.434V306.2A1.435,1.435,0,0,0,13.725,304.766Zm0,0" transform="translate(-6.805 -276.544)" fill="#a397e3"/>
      <path id="Trazado_98780" data-name="Trazado 98780" d="M151.823,199.445h-4.791a1.434,1.434,0,0,0-1.434,1.435v22.2a1.434,1.434,0,0,0,1.434,1.434h4.791a1.434,1.434,0,0,0,1.434-1.434v-22.2A1.434,1.434,0,0,0,151.823,199.445Zm0,0" transform="translate(-132.115 -180.977)" fill="#d3a7e6"/>
      <path id="Trazado_98781" data-name="Trazado 98781" d="M289.916,262.641h-4.791a1.434,1.434,0,0,0-1.434,1.434v16.344a1.434,1.434,0,0,0,1.434,1.434h4.791a1.434,1.434,0,0,0,1.435-1.434V264.075A1.434,1.434,0,0,0,289.916,262.641Zm0,0" transform="translate(-257.421 -238.32)" fill="#ffea99"/>
      <path id="Trazado_98782" data-name="Trazado 98782" d="M428.01,146.785H423.22a1.435,1.435,0,0,0-1.435,1.435v27.072a1.434,1.434,0,0,0,1.435,1.434h4.791a1.434,1.434,0,0,0,1.434-1.434V148.219A1.434,1.434,0,0,0,428.01,146.785Zm0,0" transform="translate(-382.727 -133.193)" fill="#a397e3"/>
      <path id="Trazado_98783" data-name="Trazado 98783" d="M16.891,169.113a3.633,3.633,0,1,1-3.633-3.633A3.633,3.633,0,0,1,16.891,169.113Zm0,0" transform="translate(-8.734 -150.157)" fill="#f5deff"/>
      <path id="Trazado_98784" data-name="Trazado 98784" d="M15.11,173.939a3.633,3.633,0,0,1-3.322-5.1,3.633,3.633,0,1,0,4.792,4.792A3.624,3.624,0,0,1,15.11,173.939Zm0,0" transform="translate(-8.734 -153.202)" fill="#d3a7e6"/>
      <path id="Trazado_98785" data-name="Trazado 98785" d="M154.988,63.793a3.633,3.633,0,1,1-3.633-3.633A3.633,3.633,0,0,1,154.988,63.793Zm0,0" transform="translate(-134.043 -54.589)" fill="#f5deff"/>
      <path id="Trazado_98786" data-name="Trazado 98786" d="M153.207,68.618a3.633,3.633,0,0,1-3.322-5.1,3.633,3.633,0,1,0,4.792,4.792A3.618,3.618,0,0,1,153.207,68.618Zm0,0" transform="translate(-134.043 -57.634)" fill="#d3a7e6"/>
      <path id="Trazado_98787" data-name="Trazado 98787" d="M293.082,126.985a3.633,3.633,0,1,1-3.633-3.633A3.633,3.633,0,0,1,293.082,126.985Zm0,0" transform="translate(-259.35 -111.929)" fill="#f5deff"/>
      <path id="Trazado_98788" data-name="Trazado 98788" d="M291.3,131.814a3.633,3.633,0,0,1-3.322-5.1,3.633,3.633,0,1,0,4.792,4.792A3.625,3.625,0,0,1,291.3,131.814Zm0,0" transform="translate(-259.35 -114.977)" fill="#d3a7e6"/>
      <path id="Trazado_98789" data-name="Trazado 98789" d="M431.176,11.133A3.633,3.633,0,1,1,427.543,7.5,3.633,3.633,0,0,1,431.176,11.133Zm0,0" transform="translate(-384.656 -6.805)" fill="#e4e0ff"/>
      <path id="Trazado_98790" data-name="Trazado 98790" d="M429.4,15.959a3.632,3.632,0,0,1-3.322-5.1,3.633,3.633,0,1,0,4.792,4.792A3.618,3.618,0,0,1,429.4,15.959Zm0,0" transform="translate(-384.656 -9.85)" fill="#d3a7e6"/>
      <path id="Trazado_98791" data-name="Trazado 98791" d="M6.919,297.266H2.129A2.131,2.131,0,0,0,0,299.395v12.443a2.131,2.131,0,0,0,2.129,2.129H6.919a2.131,2.131,0,0,0,2.129-2.129V299.395A2.131,2.131,0,0,0,6.919,297.266Zm.74,14.572a.741.741,0,0,1-.74.74H2.129a.741.741,0,0,1-.74-.74V299.395a.741.741,0,0,1,.74-.74H6.919a.741.741,0,0,1,.74.74Zm0,0" transform="translate(0 -269.739)" fill="#23147b"/>
      <path id="Trazado_98792" data-name="Trazado 98792" d="M145.017,191.945h-4.791a2.131,2.131,0,0,0-2.129,2.129v3.949a.695.695,0,1,0,1.389,0v-3.949a.741.741,0,0,1,.74-.74h4.791a.741.741,0,0,1,.74.74v22.2a.741.741,0,0,1-.74.74h-4.791a.741.741,0,0,1-.74-.74V200.8a.695.695,0,1,0-1.389,0V216.27a2.131,2.131,0,0,0,2.129,2.129h4.791a2.131,2.131,0,0,0,2.129-2.129v-22.2A2.131,2.131,0,0,0,145.017,191.945Zm0,0" transform="translate(-125.31 -174.171)" fill="#23147b"/>
      <path id="Trazado_98793" data-name="Trazado 98793" d="M283.111,255.141H278.32a2.131,2.131,0,0,0-2.129,2.129v16.344a2.131,2.131,0,0,0,2.129,2.129h4.791a2.131,2.131,0,0,0,2.129-2.129V257.269A2.131,2.131,0,0,0,283.111,255.141Zm.74,18.473a.741.741,0,0,1-.74.74H278.32a.741.741,0,0,1-.74-.74V257.269a.74.74,0,0,1,.74-.74h4.791a.741.741,0,0,1,.74.74Zm0,0" transform="translate(-250.616 -231.514)" fill="#23147b"/>
      <path id="Trazado_98794" data-name="Trazado 98794" d="M421.2,139.285h-4.791a2.131,2.131,0,0,0-2.129,2.129v19.845a.694.694,0,1,0,1.389,0V141.414a.741.741,0,0,1,.74-.74H421.2a.741.741,0,0,1,.74.74v27.073a.741.741,0,0,1-.74.74h-4.791a.741.741,0,0,1-.74-.74v-4.45a.694.694,0,1,0-1.389,0v4.45a2.131,2.131,0,0,0,2.129,2.129H421.2a2.131,2.131,0,0,0,2.129-2.129V141.414A2.131,2.131,0,0,0,421.2,139.285Zm0,0" transform="translate(-375.922 -126.387)"/>
      <path id="Trazado_98795" data-name="Trazado 98795" d="M6.452,14.629a4.336,4.336,0,1,0,4.29,3.769l6.823-5.2a4.316,4.316,0,0,0,4.185-.468l5.969,2.731A4.327,4.327,0,1,0,36.288,14.3l7.04-5.907a4.327,4.327,0,1,0-2.84-4.064,4.353,4.353,0,0,0,.068.757l-7.041,5.907a4.317,4.317,0,0,0-4,.543L23.548,8.8a4.327,4.327,0,1,0-8.6.96l-6.824,5.2A4.3,4.3,0,0,0,6.452,14.629ZM44.816,1.389a2.938,2.938,0,0,1,0,5.877,2.974,2.974,0,0,1-2.939-2.939A2.942,2.942,0,0,1,44.816,1.389ZM41.06,6.475c.012.02.024.04.036.06a4.351,4.351,0,0,0,.952,1.118l-6.264,5.255c-.012-.02-.2-.322-.294-.446a4.366,4.366,0,0,0-.693-.731ZM29.09,15.012a2.938,2.938,0,0,1,5.876.043,2.938,2.938,0,1,1-5.877,0C29.09,15.041,29.09,15.027,29.09,15.012Zm-6.281-3.364a4.362,4.362,0,0,0,.624-1.371l5.044,2.308a4.362,4.362,0,0,0-.589,1.212q-.028.092-.052.184l-5.044-2.308ZM19.24,6.265A2.942,2.942,0,0,1,22.179,9.2a2.938,2.938,0,1,1-5.877,0A2.942,2.942,0,0,1,19.24,6.265Zm-3.852,4.91.026.048a4.353,4.353,0,0,0,.906,1.174L10.3,16.985a4.4,4.4,0,0,0-.933-1.222ZM8.2,16.622a2.913,2.913,0,1,1-1.751-.6A2.893,2.893,0,0,1,8.2,16.622Zm0,0" transform="translate(-1.928)" fill="#23147b"/>
    </g>
  </g>
</svg>
