<svg xmlns="http://www.w3.org/2000/svg" width="86" height="86" viewBox="0 0 86 86">
  <g id="Grupo_53438" data-name="Grupo 53438" transform="translate(-666 -3552)">
    <g id="Elipse_29" data-name="Elipse 29" transform="translate(666 3552)" fill="#f3f9ff" stroke="#9a4cbc" stroke-width="2">
      <circle cx="43" cy="43" r="43" stroke="none"/>
      <circle cx="43" cy="43" r="42" fill="none"/>
    </g>
    <g id="medalla" transform="translate(692.835 3574.628)">
      <g id="Grupo_53435" data-name="Grupo 53435" transform="translate(0 0.763)">
        <path id="Trazado_98825" data-name="Trazado 98825" d="M140.374,29.531l2.9-6.467L137.043,7.893a.607.607,0,0,0-.562-.377h-5.523a.607.607,0,0,0-.562.837l8.669,21.178h1.31Z" transform="translate(-126.94 -7.516)" fill="#e4e0ff"/>
        <path id="Trazado_98826" data-name="Trazado 98826" d="M133.24,8.352a.607.607,0,0,1,.562-.837h-2.844a.607.607,0,0,0-.562.837l8.669,21.178h1.31l.8-1.79Z" transform="translate(-126.94 -7.515)" fill="#d3a7e6"/>
        <path id="Trazado_98827" data-name="Trazado 98827" d="M238.908,7.516h-5.523a.607.607,0,0,0-.562.377l-9.376,22.9h6.835L239.47,8.353a.607.607,0,0,0-.562-.837Z" transform="translate(-210.581 -7.516)" fill="#f5deff"/>
        <path id="Trazado_98828" data-name="Trazado 98828" d="M236.229,7.516h-2.844a.607.607,0,0,0-.562.377l-9.376,22.9h2.844l9.376-22.9a.607.607,0,0,1,.562-.377Z" transform="translate(-210.581 -7.516)" fill="#d3a7e6"/>
        <circle id="Elipse_30" data-name="Elipse 30" cx="11.432" cy="11.432" r="11.432" transform="translate(0 39.048) rotate(-45)" fill="#ffea99"/>
        <path id="Trazado_98829" data-name="Trazado 98829" d="M147.572,290.837a11.436,11.436,0,0,1,9.369-11.246,11.432,11.432,0,1,0,0,22.492A11.435,11.435,0,0,1,147.572,290.837Z" transform="translate(-138.705 -251.788)" fill="#f3f9ff"/>
        <circle id="Elipse_31" data-name="Elipse 31" cx="8.192" cy="8.192" r="8.192" transform="translate(4.581 39.048) rotate(-45)" fill="#ffea99"/>
        <path id="Trazado_98830" data-name="Trazado 98830" d="M179.47,319.5a8.2,8.2,0,0,1,6.129-7.93,8.192,8.192,0,1,0,0,15.86,8.2,8.2,0,0,1-6.129-7.93Z" transform="translate(-167.363 -280.448)" fill="#ffea99"/>
        <path id="Trazado_98831" data-name="Trazado 98831" d="M223.4,351.664a.728.728,0,0,0-.4-1.242l-1.591-.231a.728.728,0,0,1-.548-.4l-.711-1.441a.728.728,0,0,0-1.305,0l-.711,1.441a.728.728,0,0,1-.548.4l-1.591.231a.728.728,0,0,0-.4,1.242l1.151,1.122a.728.728,0,0,1,.209.644l-.272,1.584a.728.728,0,0,0,1.056.767l1.423-.748a.727.727,0,0,1,.677,0l1.423.748a.728.728,0,0,0,1.056-.767l-.272-1.584a.728.728,0,0,1,.209-.644Z" transform="translate(-203.325 -313.368)" fill="#ffe181"/>
      </g>
      <g id="Grupo_53436" data-name="Grupo 53436" transform="translate(2.648)">
        <path id="Trazado_98832" data-name="Trazado 98832" d="M211.419,341.261l-.7,1.425-1.573.229a1.49,1.49,0,0,0-.826,2.541l1.138,1.109-.269,1.567a1.49,1.49,0,0,0,2.161,1.57l1.407-.74,1.407.74a1.49,1.49,0,0,0,2.161-1.57l-.269-1.567,1.138-1.109a1.49,1.49,0,0,0-.826-2.541l-1.573-.229-.7-1.425A1.49,1.49,0,0,0,211.419,341.261Zm.655,2.116.681-1.38.681,1.38a1.489,1.489,0,0,0,1.122.815l1.522.221-1.1,1.074a1.49,1.49,0,0,0-.428,1.318l.26,1.516-1.362-.716a1.489,1.489,0,0,0-1.386,0l-1.362.716.26-1.516a1.49,1.49,0,0,0-.428-1.319l-1.1-1.074,1.522-.221A1.49,1.49,0,0,0,212.074,343.377Z" transform="translate(-199.23 -305.852)" fill="#23147b"/>
        <path id="Trazado_98833" data-name="Trazado 98833" d="M177.833,306.31a.762.762,0,0,0,.579.908,7.43,7.43,0,1,1-3.226,0,.762.762,0,1,0-.329-1.488,8.954,8.954,0,1,0,3.884,0A.762.762,0,0,0,177.833,306.31Z" transform="translate(-163.274 -274.661)" fill="#23147b"/>
        <path id="Trazado_98834" data-name="Trazado 98834" d="M144.629,12.489a.762.762,0,0,0,.994-.416l4.169-10.185A1.369,1.369,0,0,0,148.525,0H143a1.364,1.364,0,0,0-1.267.85L136.37,13.956,131.006.85h0A1.364,1.364,0,0,0,129.739,0h-5.523a1.37,1.37,0,0,0-1.267,1.887l8.8,21.506a2.278,2.278,0,0,0-1.574,2.164V29.31a12.194,12.194,0,1,0,12.386,0V25.557a2.278,2.278,0,0,0-1.574-2.164l3.279-8.01a.762.762,0,0,0-1.41-.577l-3.47,8.476H134.2l8.906-21.759h5.189L144.212,11.5a.762.762,0,0,0,.416.994Zm2.412,27.322A10.671,10.671,0,1,1,136.37,29.14h0A10.682,10.682,0,0,1,147.041,39.811Zm-6.752-15.005a.752.752,0,0,1,.751.751v2.987a12.23,12.23,0,0,0-4.669-.927h0a12.234,12.234,0,0,0-4.666.927V25.557a.752.752,0,0,1,.751-.751h7.837Zm-7.336-2.5L124.446,1.524h5.189l5.912,14.443Z" transform="translate(-122.845)" fill="#23147b"/>
      </g>
    </g>
  </g>
</svg>
