<svg xmlns="http://www.w3.org/2000/svg" width="86" height="86" viewBox="0 0 86 86">
  <defs>
    <style>
      .cls-1, .cls-5 {
        fill: #d2e1f1;
      }

      .cls-1 {
        stroke: #9a4cbc;
        stroke-width: 2px;
      }

      .cls-2 {
        fill: #d3a7e6;
      }

      .cls-3 {
        fill: #f5deff;
      }

      .cls-4 {
        fill: #f3f9ff;
      }

      .cls-6 {
        fill: #ffea99;
      }

      .cls-7 {
        fill: #f5de86;
      }

      .cls-8 {
        fill: #23147b;
      }

      .cls-9 {
        stroke: none;
      }

      .cls-10 {
        fill: none;
      }
    </style>
  </defs>
  <g id="Grupo_53374" data-name="Grupo 53374" transform="translate(-145 -561)">
    <g id="Elipse_14" data-name="Elipse 14" class="cls-1" transform="translate(145 561)">
      <circle class="cls-9" cx="43" cy="43" r="43"/>
      <circle class="cls-10" cx="43" cy="43" r="42"/>
    </g>
    <g id="cumplimiento" transform="translate(138.019 578.02)">
      <path id="Trazado_98722" data-name="Trazado 98722" class="cls-2" d="M40.946,12.167a.2.2,0,0,1,.2-.2H71.312V7.8a.3.3,0,0,0-.3-.3H36.786a.3.3,0,0,0-.3.3V53.271a.3.3,0,0,0,.3.3h4.16Z" transform="translate(-6.74 -6.739)"/>
      <path id="Trazado_98723" data-name="Trazado 98723" class="cls-3" d="M40.946,12.167a.2.2,0,0,1,.2-.2h.46V7.8a.3.3,0,0,1,.3-.3H36.786a.3.3,0,0,0-.3.3V53.271a.3.3,0,0,0,.3.3h4.16Z" transform="translate(-6.74 -6.739)"/>
      <path id="Trazado_98724" data-name="Trazado 98724" class="cls-4" d="M106.373,91.239a.406.406,0,0,1-.406-.406V80.641a.406.406,0,0,1,.406-.406H114.3V76.959h-7.928a.406.406,0,0,1-.406-.406V66.361a.406.406,0,0,1,.406-.406H114.3V50.793a.3.3,0,0,0-.3-.3H79.775a.3.3,0,0,0-.3.3V96.26a.3.3,0,0,0,.3.3H114a.3.3,0,0,0,.3-.3V91.239Z" transform="translate(-45.366 -45.365)"/>
      <g id="Grupo_53366" data-name="Grupo 53366" transform="translate(34.105 5.124)">
        <path id="Trazado_98725" data-name="Trazado 98725" class="cls-5" d="M83.766,96.26V50.793a.3.3,0,0,1,.3-.3h-4.3a.3.3,0,0,0-.3.3V96.26a.3.3,0,0,0,.3.3h4.3A.3.3,0,0,1,83.766,96.26Z" transform="translate(-79.471 -50.489)"/>
      </g>
      <g id="Grupo_53369" data-name="Grupo 53369" transform="translate(60.5 34.768)">
        <g id="Grupo_53367" data-name="Grupo 53367" transform="translate(0)">
          <path id="Trazado_98726" data-name="Trazado 98726" class="cls-6" d="M350.258,353.8H340.065a.507.507,0,0,1-.507-.507V343.1a.507.507,0,0,1,.507-.507h10.192a.507.507,0,0,1,.507.507V353.3A.508.508,0,0,1,350.258,353.8Z" transform="translate(-339.558 -342.596)"/>
        </g>
        <g id="Grupo_53368" data-name="Grupo 53368">
          <path id="Trazado_98727" data-name="Trazado 98727" class="cls-7" d="M342.952,353.3V343.1a.507.507,0,0,1,.507-.507h-3.394a.507.507,0,0,0-.507.507V353.3a.508.508,0,0,0,.507.507h3.394A.507.507,0,0,1,342.952,353.3Z" transform="translate(-339.558 -342.596)"/>
        </g>
      </g>
      <g id="Grupo_53373" data-name="Grupo 53373" transform="translate(28.981 0)">
        <g id="Grupo_53370" data-name="Grupo 53370" transform="translate(31.519 20.488)">
          <path id="Trazado_98728" data-name="Trazado 98728" class="cls-2" d="M350.258,213.093H340.065a.507.507,0,0,1-.507-.507V202.393a.507.507,0,0,1,.507-.507h10.192a.507.507,0,0,1,.507.507v10.192A.508.508,0,0,1,350.258,213.093Z" transform="translate(-339.558 -201.886)"/>
        </g>
        <g id="Grupo_53371" data-name="Grupo 53371" transform="translate(31.519 20.488)">
          <path id="Trazado_98729" data-name="Trazado 98729" class="cls-3" d="M342.952,212.586V202.393a.507.507,0,0,1,.507-.507h-3.394a.507.507,0,0,0-.507.507v10.192a.507.507,0,0,0,.507.507h3.394A.507.507,0,0,1,342.952,212.586Z" transform="translate(-339.558 -201.886)"/>
        </g>
        <g id="Grupo_53372" data-name="Grupo 53372" transform="translate(0 0)">
          <path id="Trazado_98730" data-name="Trazado 98730" class="cls-8" d="M146.655,166.816h19.826a.761.761,0,1,0,0-1.522H146.655a.761.761,0,1,0,0,1.522Z" transform="translate(-134.029 -148.519)"/>
          <path id="Trazado_98731" data-name="Trazado 98731" class="cls-8" d="M146.656,210.941h7.064a.761.761,0,1,0,0-1.522h-7.064a.761.761,0,0,0,0,1.522Z" transform="translate(-134.03 -188.166)"/>
          <path id="Trazado_98732" data-name="Trazado 98732" class="cls-8" d="M146.655,343.318h11.326a.761.761,0,1,0,0-1.522H146.655a.761.761,0,1,0,0,1.522Z" transform="translate(-134.029 -307.109)"/>
          <path id="Trazado_98733" data-name="Trazado 98733" class="cls-8" d="M184.286,109.819h12.188a.761.761,0,0,0,0-1.522H184.286a.761.761,0,0,0,0,1.522Z" transform="translate(-167.841 -97.306)"/>
          <path id="Trazado_98734" data-name="Trazado 98734" class="cls-8" d="M73.76,34.17l-1.292,1.292v-.186A1.27,1.27,0,0,0,71.2,34.007H69.7V32.457h1.5a1.27,1.27,0,0,0,1.269-1.269v-1.25a.761.761,0,1,0-1.522,0v1H61.261V21.249h9.685V22.7l-4.18,4.18-2.737-2.737a.761.761,0,0,0-1.076,1.076L66.228,28.5a.761.761,0,0,0,1.077,0l3.641-3.641v1.529a.761.761,0,1,0,1.522,0V23.334l2.368-2.368A.761.761,0,0,0,73.76,19.89l-1.292,1.292V21A1.27,1.27,0,0,0,71.2,19.727H69.7V5.428a1.067,1.067,0,0,0-1.066-1.066h-3.3v-3.3A1.067,1.067,0,0,0,64.268,0H30.047a1.067,1.067,0,0,0-1.066,1.066V46.532A1.067,1.067,0,0,0,30.047,47.6h3.3v3.3a1.067,1.067,0,0,0,1.066,1.066H68.631A1.067,1.067,0,0,0,69.7,50.895V46.737h1.5a1.27,1.27,0,0,0,1.269-1.269V37.614l2.368-2.368A.761.761,0,0,0,73.76,34.17Zm-2.814,2.814-4.18,4.18-2.737-2.737A.761.761,0,1,0,62.952,39.5l3.276,3.276a.761.761,0,0,0,1.077,0l3.641-3.641v6.078H67.852a.761.761,0,1,0,0,1.522h.323v3.7H34.866V5.885h7.005a.761.761,0,0,0,0-1.522H34.409a1.067,1.067,0,0,0-1.066,1.066V46.075H30.5V1.522H63.811v2.84H45.423a.761.761,0,0,0,0,1.522H68.174V19.727H61.007A1.27,1.27,0,0,0,59.739,21v.257H51.513a.761.761,0,1,0,0,1.522h8.226v2.956H41.607a.761.761,0,1,0,0,1.522H59.739v2.956H41.607a.761.761,0,1,0,0,1.522H59.863a1.269,1.269,0,0,0,1.145.725h7.167v1.551H61.007a1.269,1.269,0,0,0-1.123.68h-4.11a.761.761,0,1,0,0,1.522h3.964v2.956H41.607a.761.761,0,0,0,0,1.522H59.739v2.956H41.607a.761.761,0,1,0,0,1.522H59.739v.3a1.27,1.27,0,0,0,1.269,1.269H64.3a.761.761,0,1,0,0-1.522H61.261V35.529h9.685v1.454Z" transform="translate(-28.981 0)"/>
        </g>
      </g>
    </g>
  </g>
</svg>
