<svg xmlns="http://www.w3.org/2000/svg" width="966" height="914" viewBox="0 0 966 914">
  <g id="Grupo_53491" data-name="Grupo 53491" transform="translate(-9271 -2004)">
    <rect id="Rectángulo_5091" data-name="Rectángulo 5091" width="966" height="338" rx="16" transform="translate(9271 2004)" fill="#9a4cbc"/>
    <text id="La_autoevaluación_de_los_estándares_de_acreditación_que_correspondan_" data-name="La autoevaluación de los estándares de acreditación que correspondan " transform="translate(9646 2075)" fill="#fff" font-size="16" font-family="Roboto-Regular, Roboto"><tspan x="0" y="17">La autoevaluación de los </tspan><tspan x="0" y="41">estándares de acreditación </tspan><tspan x="0" y="65">que correspondan </tspan></text>
    <text id="La_gestión_de_mejoramiento_continuo_para_alcanzar_el_cumplimiento_gradual_de_los_estándares." data-name="La gestión de mejoramiento continuo para alcanzar el cumplimiento gradual de los estándares." transform="translate(9946 2075)" fill="#fff" font-size="16" font-family="Roboto-Regular, Roboto"><tspan x="0" y="17">La gestión de mejoramiento </tspan><tspan x="0" y="41">continuo para alcanzar el </tspan><tspan x="0" y="65">cumplimiento gradual de los </tspan></text>
    <rect id="Rectángulo_5092" data-name="Rectángulo 5092" width="859" height="52" rx="6" transform="translate(9312 2256)" fill="#7c319d"/>
    <g id="Rectángulo_5093" data-name="Rectángulo 5093" transform="translate(9312 2051)" fill="none" stroke="#d3a7e6" stroke-width="2" stroke-dasharray="6">
      <rect width="248" height="160" rx="11" stroke="none"/>
      <rect x="1" y="1" width="246" height="158" rx="10" fill="none"/>
    </g>
    <g id="Rectángulo_5094" data-name="Rectángulo 5094" transform="translate(9618 2051)" fill="none" stroke="#d3a7e6" stroke-width="2" stroke-dasharray="6">
      <rect width="248" height="160" rx="11" stroke="none"/>
      <rect x="1" y="1" width="246" height="158" rx="10" fill="none"/>
    </g>
    <g id="Rectángulo_5095" data-name="Rectángulo 5095" transform="translate(9923 2051)" fill="none" stroke="#d3a7e6" stroke-width="2" stroke-dasharray="6">
      <rect width="248" height="160" rx="11" stroke="none"/>
      <rect x="1" y="1" width="246" height="158" rx="10" fill="none"/>
    </g>
    <g id="flecha-correcta_1_" data-name="flecha-correcta (1)" transform="translate(9569.606 2035.865)">
      <g id="Grupo_53403" data-name="Grupo 53403" transform="translate(0.57 92.221)">
        <path id="Trazado_98796" data-name="Trazado 98796" d="M31.117,122.98a3.291,3.291,0,0,1-3.291-3.291v-.907H10.93a3.43,3.43,0,0,1-3.43-3.43v-8.573a3.43,3.43,0,0,1,3.43-3.43h16.9v-.908a3.289,3.289,0,0,1,5.336-2.575l10.849,8.625a3.289,3.289,0,0,1,0,5.149l-10.849,8.625a3.3,3.3,0,0,1-2.045.715Z" transform="translate(-7.5 -99.151)" fill="#f5f5f5"/>
      </g>
      <g id="Grupo_53404" data-name="Grupo 53404" transform="translate(3.482 95.133)">
        <path id="Trazado_98797" data-name="Trazado 98797" d="M77.626,146.2l-10.849-8.625a.377.377,0,0,0-.612.3v3.443a.377.377,0,0,1-.377.377h-18.9a1.047,1.047,0,0,0-1.047,1.047v7.515a1.047,1.047,0,0,0,1.047,1.047h18.9a.377.377,0,0,1,.377.377v3.443a.377.377,0,0,0,.612.3l10.849-8.625A.377.377,0,0,0,77.626,146.2Z" transform="translate(-45.839 -137.488)" fill="#d3a7e6"/>
      </g>
      <g id="Grupo_53405" data-name="Grupo 53405" transform="translate(23.044 92.221)">
        <path id="Trazado_98798" data-name="Trazado 98798" d="M317.389,108.491l-10.849-8.625a3.284,3.284,0,0,0-3.188-.51,3.3,3.3,0,0,1,.909.51l10.848,8.625a3.289,3.289,0,0,1,0,5.149l-10.849,8.625a3.3,3.3,0,0,1-.91.511,3.284,3.284,0,0,0,1.144.2h0a3.3,3.3,0,0,0,2.045-.715l10.849-8.625a3.289,3.289,0,0,0,0-5.15Z" transform="translate(-303.352 -99.151)" fill="#ebe5ed"/>
      </g>
      <g id="Grupo_53406" data-name="Grupo 53406" transform="translate(23.808 95.133)">
        <path id="Trazado_98799" data-name="Trazado 98799" d="M324.881,146.2l-10.849-8.625a.377.377,0,0,0-.612.3v1.03l9.181,7.3a.377.377,0,0,1,0,.59l-9.181,7.3v1.03a.377.377,0,0,0,.612.3l10.849-8.625A.377.377,0,0,0,324.881,146.2Z" transform="translate(-313.421 -137.488)" fill="#e4e0ff"/>
      </g>
      <g id="Grupo_53407" data-name="Grupo 53407" transform="translate(0 91.651)">
        <path id="Trazado_98800" data-name="Trazado 98800" d="M24.187,116.62a3.865,3.865,0,0,1-3.861-3.861v-.337H15.8a.57.57,0,1,1,0-1.139H20.9a.57.57,0,0,1,.57.57v.907a2.719,2.719,0,0,0,4.412,2.13l10.849-8.625a2.72,2.72,0,0,0,0-4.258L25.878,93.382a2.719,2.719,0,0,0-4.412,2.129v.908a.57.57,0,0,1-.57.57H4a2.864,2.864,0,0,0-2.86,2.86v8.573A2.864,2.864,0,0,0,4,111.282h9.525a.57.57,0,1,1,0,1.139H4a4,4,0,0,1-4-4V99.849a4,4,0,0,1,4-4H20.326v-.338a3.858,3.858,0,0,1,6.261-3.021l10.848,8.625a3.859,3.859,0,0,1,0,6.041l-10.849,8.625a3.872,3.872,0,0,1-2.4.839Z" transform="translate(0 -91.651)" fill="#23147b"/>
      </g>
      <g id="Grupo_53408" data-name="Grupo 53408" transform="translate(2.912 94.563)">
        <path id="Trazado_98801" data-name="Trazado 98801" d="M59.613,149.127a.95.95,0,0,1-.413-.1.94.94,0,0,1-.535-.853v-3.251H39.955a1.619,1.619,0,0,1-1.617-1.617V135.8a1.619,1.619,0,0,1,1.617-1.617H43.88a.57.57,0,0,1,0,1.139H39.955a.478.478,0,0,0-.477.477v7.515a.478.478,0,0,0,.477.477h18.9a.948.948,0,0,1,.947.947v3.044l10.346-8.225L59.8,131.329v3.044a.948.948,0,0,1-.947.947h-12.7a.57.57,0,0,1,0-1.139H58.664V130.93a.947.947,0,0,1,1.536-.741l10.849,8.625a.947.947,0,0,1,0,1.482L60.2,148.92A.942.942,0,0,1,59.613,149.127Z" transform="translate(-38.338 -129.982)" fill="#23147b"/>
      </g>
    </g>
    <g id="flecha-correcta_1_2" data-name="flecha-correcta (1)" transform="translate(9875.606 2035.865)">
      <g id="Grupo_53403-2" data-name="Grupo 53403" transform="translate(0.57 92.221)">
        <path id="Trazado_98796-2" data-name="Trazado 98796" d="M31.117,122.98a3.291,3.291,0,0,1-3.291-3.291v-.907H10.93a3.43,3.43,0,0,1-3.43-3.43v-8.573a3.43,3.43,0,0,1,3.43-3.43h16.9v-.908a3.289,3.289,0,0,1,5.336-2.575l10.849,8.625a3.289,3.289,0,0,1,0,5.149l-10.849,8.625a3.3,3.3,0,0,1-2.045.715Z" transform="translate(-7.5 -99.151)" fill="#f5f5f5"/>
      </g>
      <g id="Grupo_53404-2" data-name="Grupo 53404" transform="translate(3.482 95.133)">
        <path id="Trazado_98797-2" data-name="Trazado 98797" d="M77.626,146.2l-10.849-8.625a.377.377,0,0,0-.612.3v3.443a.377.377,0,0,1-.377.377h-18.9a1.047,1.047,0,0,0-1.047,1.047v7.515a1.047,1.047,0,0,0,1.047,1.047h18.9a.377.377,0,0,1,.377.377v3.443a.377.377,0,0,0,.612.3l10.849-8.625A.377.377,0,0,0,77.626,146.2Z" transform="translate(-45.839 -137.488)" fill="#d3a7e6"/>
      </g>
      <g id="Grupo_53405-2" data-name="Grupo 53405" transform="translate(23.044 92.221)">
        <path id="Trazado_98798-2" data-name="Trazado 98798" d="M317.389,108.491l-10.849-8.625a3.284,3.284,0,0,0-3.188-.51,3.3,3.3,0,0,1,.909.51l10.848,8.625a3.289,3.289,0,0,1,0,5.149l-10.849,8.625a3.3,3.3,0,0,1-.91.511,3.284,3.284,0,0,0,1.144.2h0a3.3,3.3,0,0,0,2.045-.715l10.849-8.625a3.289,3.289,0,0,0,0-5.15Z" transform="translate(-303.352 -99.151)" fill="#ebe5ed"/>
      </g>
      <g id="Grupo_53406-2" data-name="Grupo 53406" transform="translate(23.808 95.133)">
        <path id="Trazado_98799-2" data-name="Trazado 98799" d="M324.881,146.2l-10.849-8.625a.377.377,0,0,0-.612.3v1.03l9.181,7.3a.377.377,0,0,1,0,.59l-9.181,7.3v1.03a.377.377,0,0,0,.612.3l10.849-8.625A.377.377,0,0,0,324.881,146.2Z" transform="translate(-313.421 -137.488)" fill="#e4e0ff"/>
      </g>
      <g id="Grupo_53407-2" data-name="Grupo 53407" transform="translate(0 91.651)">
        <path id="Trazado_98800-2" data-name="Trazado 98800" d="M24.187,116.62a3.865,3.865,0,0,1-3.861-3.861v-.337H15.8a.57.57,0,1,1,0-1.139H20.9a.57.57,0,0,1,.57.57v.907a2.719,2.719,0,0,0,4.412,2.13l10.849-8.625a2.72,2.72,0,0,0,0-4.258L25.878,93.382a2.719,2.719,0,0,0-4.412,2.129v.908a.57.57,0,0,1-.57.57H4a2.864,2.864,0,0,0-2.86,2.86v8.573A2.864,2.864,0,0,0,4,111.282h9.525a.57.57,0,1,1,0,1.139H4a4,4,0,0,1-4-4V99.849a4,4,0,0,1,4-4H20.326v-.338a3.858,3.858,0,0,1,6.261-3.021l10.848,8.625a3.859,3.859,0,0,1,0,6.041l-10.849,8.625a3.872,3.872,0,0,1-2.4.839Z" transform="translate(0 -91.651)" fill="#23147b"/>
      </g>
      <g id="Grupo_53408-2" data-name="Grupo 53408" transform="translate(2.912 94.563)">
        <path id="Trazado_98801-2" data-name="Trazado 98801" d="M59.613,149.127a.95.95,0,0,1-.413-.1.94.94,0,0,1-.535-.853v-3.251H39.955a1.619,1.619,0,0,1-1.617-1.617V135.8a1.619,1.619,0,0,1,1.617-1.617H43.88a.57.57,0,0,1,0,1.139H39.955a.478.478,0,0,0-.477.477v7.515a.478.478,0,0,0,.477.477h18.9a.948.948,0,0,1,.947.947v3.044l10.346-8.225L59.8,131.329v3.044a.948.948,0,0,1-.947.947h-12.7a.57.57,0,0,1,0-1.139H58.664V130.93a.947.947,0,0,1,1.536-.741l10.849,8.625a.947.947,0,0,1,0,1.482L60.2,148.92A.942.942,0,0,1,59.613,149.127Z" transform="translate(-38.338 -129.982)" fill="#23147b"/>
      </g>
    </g>
    <text id="Entidad_interesada_en_acreditarse" data-name="Entidad interesada en acreditarse" transform="translate(9613 2287)" fill="#fff" font-size="18" font-family="Roboto-Bold, Roboto" font-weight="700"><tspan x="0" y="0">Entidad interesada en acreditarse</tspan></text>
    <text id="La_selección_de_la_entidad_acreditadora_inscrita_en_el_registro_especial_de_acreditadores_en_salud_" data-name="La selección de la entidad acreditadora inscrita en el registro  especial de acreditadores en salud  " transform="translate(9329 2075)" fill="#fff" font-size="16" font-family="Roboto-Regular, Roboto"><tspan x="0" y="17">La selección de la entidad </tspan><tspan x="0" y="41">acreditadora inscrita en el </tspan><tspan x="0" y="65" xml:space="preserve">registro  especial de </tspan></text>
    <g id="obediente_4_" data-name="obediente (4)" transform="translate(9703.993 2113.036)">
      <path id="Trazado_98757" data-name="Trazado 98757" d="M79.951,107h-3.36v43.736h-65V107H8.236a.736.736,0,0,0-.736.736v46.828a.736.736,0,0,0,.736.736H79.951a.736.736,0,0,0,.736-.736V107.736A.736.736,0,0,0,79.951,107Z" transform="translate(-6.396 -31.978)" fill="#f3f9ff"/>
      <path id="Trazado_98758" data-name="Trazado 98758" d="M13.464,154.564v-3.829H11.6V107H8.236a.736.736,0,0,0-.736.736v46.828a.736.736,0,0,0,.736.736H14.2A.736.736,0,0,1,13.464,154.564Z" transform="translate(-6.396 -31.978)" fill="#f3f9ff"/>
      <g id="Grupo_53400" data-name="Grupo 53400" transform="translate(0 69.5)">
        <g id="Grupo_53398" data-name="Grupo 53398" transform="translate(5.053 1.104)">
          <g id="Grupo_53387" data-name="Grupo 53387">
            <path id="Trazado_98759" data-name="Trazado 98759" d="M34.316,77H66.961v48.3H34.316Z" transform="translate(-34.316 -77)" fill="#dff6fd"/>
          </g>
          <g id="Grupo_53388" data-name="Grupo 53388" transform="translate(0)">
            <path id="Trazado_98760" data-name="Trazado 98760" d="M34.316,77H38.1v48.3H34.316Z" transform="translate(-34.316 -77)" fill="#c8effe"/>
          </g>
          <g id="Grupo_53389" data-name="Grupo 53389" transform="translate(32.645)">
            <path id="Trazado_98761" data-name="Trazado 98761" d="M256,77h32.645v48.3H256Z" transform="translate(-256 -77)" fill="#fff3de"/>
          </g>
          <g id="Grupo_53390" data-name="Grupo 53390" transform="translate(32.645)">
            <path id="Trazado_98762" data-name="Trazado 98762" d="M256,77h5.053v48.3H256Z" transform="translate(-256 -77)" fill="#ffe5c2"/>
          </g>
          <g id="Grupo_53393" data-name="Grupo 53393" transform="translate(6.439 6.332)">
            <g id="Grupo_53391" data-name="Grupo 53391" transform="translate(0)">
              <circle id="Elipse_22" data-name="Elipse 22" cx="9.139" cy="9.139" r="9.139" fill="#f5deff"/>
            </g>
            <g id="Grupo_53392" data-name="Grupo 53392">
              <path id="Trazado_98763" data-name="Trazado 98763" d="M83.043,129.139a9.141,9.141,0,0,1,6.639-8.79,9.139,9.139,0,1,0,0,17.58A9.141,9.141,0,0,1,83.043,129.139Z" transform="translate(-78.042 -120)" fill="#d3a7e6"/>
            </g>
          </g>
          <g id="Grupo_53397" data-name="Grupo 53397" transform="translate(40.572 5.743)">
            <g id="Grupo_53395" data-name="Grupo 53395">
              <g id="Grupo_53394" data-name="Grupo 53394">
                <circle id="Elipse_23" data-name="Elipse 23" cx="9.139" cy="9.139" r="9.139" fill="#ffea99"/>
              </g>
            </g>
            <g id="Grupo_53396" data-name="Grupo 53396" transform="translate(0)">
              <path id="Trazado_98764" data-name="Trazado 98764" d="M314.716,125.139a9.141,9.141,0,0,1,6.7-8.807,9.139,9.139,0,1,0,0,17.613A9.141,9.141,0,0,1,314.716,125.139Z" transform="translate(-309.832 -116)" fill="#42e0e6"/>
            </g>
          </g>
        </g>
        <g id="Grupo_53399" data-name="Grupo 53399">
          <path id="Trazado_98765" data-name="Trazado 98765" d="M73.555,73.918H71.447V70.6a1.1,1.1,0,0,0-1.1-1.1H16.935a1.1,1.1,0,0,0,0,2.209H36.594v5.743H34.753a1.1,1.1,0,1,0,0,2.209h1.841v8H34.753a1.1,1.1,0,0,0,0,2.209h1.841v8H34.753a1.1,1.1,0,1,0,0,2.209h1.841v8H34.753a1.1,1.1,0,0,0,0,2.209h1.841v7.51H6.158V71.709h5.623a1.1,1.1,0,1,0,0-2.209H5.053a1.1,1.1,0,0,0-1.1,1.1v3.313H1.841A1.843,1.843,0,0,0,0,75.758v46.828a1.843,1.843,0,0,0,1.841,1.841H73.555a1.843,1.843,0,0,0,1.841-1.841V75.758A1.843,1.843,0,0,0,73.555,73.918Zm-.368,48.3H2.209V76.127h1.74V118.9a1.1,1.1,0,0,0,1.1,1.1H45.944a1.1,1.1,0,1,0,0-2.209H38.8v-7.51h1.841a1.1,1.1,0,0,0,0-2.209H38.8v-8h1.841a1.1,1.1,0,1,0,0-2.209H38.8v-8h1.841a1.1,1.1,0,1,0,0-2.209H38.8v-8h1.841a1.1,1.1,0,1,0,0-2.209H38.8V71.709H69.238V117.8H51.1a1.1,1.1,0,1,0,0,2.209H70.343a1.1,1.1,0,0,0,1.1-1.1V76.127h1.74Z" transform="translate(0 -69.5)" fill="#23147b"/>
          <path id="Trazado_98766" data-name="Trazado 98766" d="M80.786,112.5a10.244,10.244,0,1,0,10.244,10.244A10.255,10.255,0,0,0,80.786,112.5Zm0,18.278a8.035,8.035,0,1,1,8.035-8.035A8.044,8.044,0,0,1,80.786,130.778Z" transform="translate(-60.154 -106.168)" fill="#23147b"/>
          <path id="Trazado_98767" data-name="Trazado 98767" d="M116.978,161.075l-3.876,3.876-2.224-2.224a1.1,1.1,0,0,0-1.562,1.562l3,3a1.1,1.1,0,0,0,1.562,0l4.657-4.657a1.1,1.1,0,1,0-1.562-1.562Z" transform="translate(-92.942 -147.314)" fill="#23147b"/>
          <path id="Trazado_98768" data-name="Trazado 98768" d="M312.576,128.987a10.21,10.21,0,0,0,9.756-7.118,1.1,1.1,0,1,0-2.1-.674,8.036,8.036,0,1,1,.109-4.532,1.1,1.1,0,0,0,2.134-.57,10.244,10.244,0,1,0-9.9,12.894Z" transform="translate(-257.812 -102.757)" fill="#23147b"/>
          <path id="Trazado_98769" data-name="Trazado 98769" d="M356.106,151.4a1.1,1.1,0,0,0-1.562,0l-1.878,1.878-1.877-1.878a1.1,1.1,0,0,0-1.562,1.562l1.878,1.878-1.878,1.878a1.1,1.1,0,0,0,1.562,1.562l1.878-1.878,1.878,1.878a1.1,1.1,0,1,0,1.562-1.562l-1.878-1.878,1.878-1.878A1.1,1.1,0,0,0,356.106,151.4Z" transform="translate(-297.525 -139.06)" fill="#23147b"/>
          <path id="Trazado_98770" data-name="Trazado 98770" d="M100.9,271.5H87.209a1.1,1.1,0,0,0,0,2.209H100.9a1.1,1.1,0,0,0,0-2.209Z" transform="translate(-73.425 -241.754)" fill="#23147b"/>
          <path id="Trazado_98771" data-name="Trazado 98771" d="M100.9,298.5H87.209a1.1,1.1,0,0,0,0,2.209H100.9a1.1,1.1,0,0,0,0-2.209Z" transform="translate(-73.425 -264.778)" fill="#23147b"/>
          <path id="Trazado_98772" data-name="Trazado 98772" d="M100.9,325.5H87.209a1.1,1.1,0,0,0,0,2.209H100.9a1.1,1.1,0,0,0,0-2.209Z" transform="translate(-73.425 -287.802)" fill="#23147b"/>
          <path id="Trazado_98773" data-name="Trazado 98773" d="M100.9,352.5H87.209a1.1,1.1,0,1,0,0,2.209H100.9a1.1,1.1,0,1,0,0-2.209Z" transform="translate(-73.425 -310.826)" fill="#23147b"/>
          <path id="Trazado_98774" data-name="Trazado 98774" d="M332.694,271.5H319a1.1,1.1,0,0,0,0,2.209h13.7a1.1,1.1,0,0,0,0-2.209Z" transform="translate(-271.082 -241.754)" fill="#23147b"/>
          <path id="Trazado_98775" data-name="Trazado 98775" d="M332.694,298.5H319a1.1,1.1,0,0,0,0,2.209h13.7a1.1,1.1,0,0,0,0-2.209Z" transform="translate(-271.082 -264.778)" fill="#23147b"/>
          <path id="Trazado_98776" data-name="Trazado 98776" d="M332.694,325.5H319a1.1,1.1,0,0,0,0,2.209h13.7a1.1,1.1,0,0,0,0-2.209Z" transform="translate(-271.082 -287.802)" fill="#23147b"/>
          <path id="Trazado_98777" data-name="Trazado 98777" d="M333.8,353.6a1.1,1.1,0,0,0-1.1-1.1H319a1.1,1.1,0,1,0,0,2.209h13.7A1.1,1.1,0,0,0,333.8,353.6Z" transform="translate(-271.082 -310.826)" fill="#23147b"/>
        </g>
      </g>
    </g>
    <rect id="Rectángulo_5096" data-name="Rectángulo 5096" width="149" height="29" rx="7" transform="translate(9359 2037)" fill="#d3a7e6"/>
    <text id="_Paso_Nuevo_" data-name="¡ Paso Nuevo !" transform="translate(9382 2056)" fill="#12263f" font-size="16" font-family="Roboto-Medium, Roboto" font-weight="500"><tspan x="0" y="0">¡ Paso Nuevo !</tspan></text>
    <g id="cumplimiento" transform="translate(9990.804 2177.99)">
      <path id="Trazado_98722" data-name="Trazado 98722" d="M41.748,13a.24.24,0,0,1,.239-.239H77.564V7.859a.359.359,0,0,0-.359-.359H36.841a.359.359,0,0,0-.359.359V61.486a.359.359,0,0,0,.359.359h4.906Z" transform="translate(-6.603 -6.602)" fill="#d3a7e6"/>
      <path id="Trazado_98723" data-name="Trazado 98723" d="M41.748,13a.24.24,0,0,1,.239-.239h.542V7.859a.359.359,0,0,1,.359-.359H36.841a.359.359,0,0,0-.359.359V61.486a.359.359,0,0,0,.359.359h4.906Z" transform="translate(-6.603 -6.602)" fill="#f5deff"/>
      <path id="Trazado_98724" data-name="Trazado 98724" d="M111.2,98.553a.479.479,0,0,1-.479-.479V86.053a.479.479,0,0,1,.479-.479h9.351V81.71H111.2a.479.479,0,0,1-.479-.479V69.21a.479.479,0,0,1,.479-.479h9.351V50.848a.359.359,0,0,0-.359-.359H79.83a.359.359,0,0,0-.359.359v53.627a.359.359,0,0,0,.359.359h40.364a.359.359,0,0,0,.359-.359V98.553Z" transform="translate(-44.446 -44.445)" fill="#f3f9ff"/>
      <g id="Grupo_53366" data-name="Grupo 53366" transform="translate(35.025 6.044)">
        <path id="Trazado_98725" data-name="Trazado 98725" d="M84.537,104.475V50.848a.359.359,0,0,1,.359-.359H79.83a.359.359,0,0,0-.359.359v53.627a.359.359,0,0,0,.359.359H84.9A.359.359,0,0,1,84.537,104.475Z" transform="translate(-79.471 -50.489)" fill="#d2e1f1"/>
      </g>
      <g id="Grupo_53369" data-name="Grupo 53369" transform="translate(66.157 41.009)">
        <g id="Grupo_53367" data-name="Grupo 53367" transform="translate(0)">
          <path id="Trazado_98726" data-name="Trazado 98726" d="M352.178,355.815H340.156a.6.6,0,0,1-.6-.6V343.194a.6.6,0,0,1,.6-.6h12.022a.6.6,0,0,1,.6.6v12.022A.6.6,0,0,1,352.178,355.815Z" transform="translate(-339.558 -342.596)" fill="#ffea99"/>
        </g>
        <g id="Grupo_53368" data-name="Grupo 53368">
          <path id="Trazado_98727" data-name="Trazado 98727" d="M343.561,355.216V343.194a.6.6,0,0,1,.6-.6h-4a.6.6,0,0,0-.6.6v12.022a.6.6,0,0,0,.6.6h4A.6.6,0,0,1,343.561,355.216Z" transform="translate(-339.558 -342.596)" fill="#42e0e6"/>
        </g>
      </g>
      <g id="Grupo_53373" data-name="Grupo 53373" transform="translate(28.981 0)">
        <g id="Grupo_53370" data-name="Grupo 53370" transform="translate(37.176 24.166)">
          <path id="Trazado_98728" data-name="Trazado 98728" d="M352.178,215.1H340.156a.6.6,0,0,1-.6-.6V202.484a.6.6,0,0,1,.6-.6h12.022a.6.6,0,0,1,.6.6v12.022A.6.6,0,0,1,352.178,215.1Z" transform="translate(-339.558 -201.886)" fill="#d3a7e6"/>
        </g>
        <g id="Grupo_53371" data-name="Grupo 53371" transform="translate(37.176 24.166)">
          <path id="Trazado_98729" data-name="Trazado 98729" d="M343.561,214.506V202.484a.6.6,0,0,1,.6-.6h-4a.6.6,0,0,0-.6.6v12.022a.6.6,0,0,0,.6.6h4A.6.6,0,0,1,343.561,214.506Z" transform="translate(-339.558 -201.886)" fill="#f5deff"/>
        </g>
        <g id="Grupo_53372" data-name="Grupo 53372" transform="translate(0 0)">
          <path id="Trazado_98730" data-name="Trazado 98730" d="M146.792,167.09h23.385a.9.9,0,0,0,0-1.8H146.792a.9.9,0,1,0,0,1.8Z" transform="translate(-131.899 -145.508)" fill="#23147b"/>
          <path id="Trazado_98731" data-name="Trazado 98731" d="M146.793,211.215h8.332a.9.9,0,1,0,0-1.8h-8.332a.9.9,0,0,0,0,1.8Z" transform="translate(-131.9 -184.351)" fill="#23147b"/>
          <path id="Trazado_98732" data-name="Trazado 98732" d="M146.792,343.591h13.359a.9.9,0,1,0,0-1.8H146.792a.9.9,0,1,0,0,1.8Z" transform="translate(-131.899 -300.883)" fill="#23147b"/>
          <path id="Trazado_98733" data-name="Trazado 98733" d="M184.423,110.093H198.8a.9.9,0,1,0,0-1.8H184.423a.9.9,0,0,0,0,1.8Z" transform="translate(-165.026 -95.334)" fill="#23147b"/>
          <path id="Trazado_98734" data-name="Trazado 98734" d="M81.8,40.3l-1.523,1.523v-.219a1.5,1.5,0,0,0-1.5-1.5H77V38.282h1.773a1.5,1.5,0,0,0,1.5-1.5V35.312a.9.9,0,0,0-1.8,0v1.175H67.055V25.064H78.478v1.715l-4.93,4.93L70.32,28.48a.9.9,0,0,0-1.27,1.27l3.863,3.864a.9.9,0,0,0,1.27,0l4.295-4.295v1.8a.9.9,0,0,0,1.8,0v-3.6l2.793-2.793a.9.9,0,1,0-1.27-1.27l-1.523,1.523v-.219a1.5,1.5,0,0,0-1.5-1.5H77V6.4a1.258,1.258,0,0,0-1.257-1.257H71.859V1.257A1.258,1.258,0,0,0,70.6,0H30.238a1.258,1.258,0,0,0-1.257,1.257V54.884a1.258,1.258,0,0,0,1.257,1.257h3.889V60.03a1.258,1.258,0,0,0,1.257,1.257H75.748A1.258,1.258,0,0,0,77,60.03v-4.9h1.773a1.5,1.5,0,0,0,1.5-1.5V44.366l2.793-2.793A.9.9,0,1,0,81.8,40.3Zm-3.319,3.319-4.93,4.93L70.32,45.323a.9.9,0,0,0-1.27,1.27l3.864,3.864a.9.9,0,0,0,1.27,0l4.295-4.295V53.33h-3.65a.9.9,0,0,0,0,1.8h.38v4.366H35.922V6.941h8.263a.9.9,0,0,0,0-1.8h-8.8A1.258,1.258,0,0,0,34.127,6.4V54.345h-3.35V1.8H70.063v3.35H48.375a.9.9,0,0,0,0,1.8H75.209V23.268H66.756a1.5,1.5,0,0,0-1.5,1.5v.3h-9.7a.9.9,0,1,0,0,1.8h9.7v3.486H43.873a.9.9,0,0,0,0,1.8H65.259v3.486H43.873a.9.9,0,1,0,0,1.8H65.406a1.5,1.5,0,0,0,1.35.855h8.453v1.829H66.756a1.5,1.5,0,0,0-1.324.8H60.584a.9.9,0,1,0,0,1.8H65.26v3.486H43.873a.9.9,0,0,0,0,1.8H65.259v3.486H43.873a.9.9,0,0,0,0,1.8H65.259v.357a1.5,1.5,0,0,0,1.5,1.5h3.883a.9.9,0,0,0,0-1.8H67.055V41.907H78.478v1.716Z" transform="translate(-28.981 0)" fill="#23147b"/>
        </g>
      </g>
    </g>
    <g id="obediente_2_" data-name="obediente (2)" transform="translate(9388.976 2177.99)">
      <path id="Trazado_98658" data-name="Trazado 98658" d="M233.28,7.5H195.334a.4.4,0,0,0-.4.4v4.218H228.8a.264.264,0,0,1,.264.264V56.2h4.218a.4.4,0,0,0,.4-.4V7.9a.4.4,0,0,0-.4-.4Z" transform="translate(-155.62 -6.511)" fill="#fff3de"/>
      <path id="Trazado_98659" data-name="Trazado 98659" d="M199.165,11.982V7.9a.4.4,0,0,1,.4-.4h-4.226a.4.4,0,0,0-.4.4v4.086Z" transform="translate(-155.62 -6.511)" fill="#ffe5c2"/>
      <path id="Trazado_98660" data-name="Trazado 98660" d="M199.281,41.5H161.335a.4.4,0,0,0-.4.4V54.872l14.6,7.3a1.318,1.318,0,0,1,.729,1.179v7.608c0,9.111-3.965,14.573-10.285,19.24h33.294a.4.4,0,0,0,.4-.4V41.894a.4.4,0,0,0-.4-.4Z" transform="translate(-126.103 -36.029)" fill="#dff6fd"/>
      <path id="Trazado_98661" data-name="Trazado 98661" d="M165.314,57.058V41.894a.4.4,0,0,1,.4-.4h-4.375a.4.4,0,0,0-.4.4V54.872Z" transform="translate(-126.102 -36.029)" fill="#c8effe"/>
      <path id="Trazado_98662" data-name="Trazado 98662" d="M71.517,149.486l-14.834-7.414-14.834,7.414a1.318,1.318,0,0,0-.729,1.179v7.608a24.23,24.23,0,0,0,1.08,7.456,8.175,8.175,0,0,1,4.907-1.63,8.3,8.3,0,0,1,1.522.143l.273.051-.133-.244A9.008,9.008,0,1,1,61.737,167.2l-.058.039v10.478c6.484-4.714,10.568-10.2,10.568-19.447v-7.608A1.318,1.318,0,0,0,71.517,149.486Z" transform="translate(-22.077 -123.345)" fill="#d3a7e6"/>
      <g id="Grupo_53320" data-name="Grupo 53320" transform="translate(19.043 24.274)">
        <path id="Trazado_98663" data-name="Trazado 98663" d="M46.2,200.546a25.589,25.589,0,0,1-.611-5.744V184.147l-3.737,1.868a1.318,1.318,0,0,0-.729,1.179V194.8a24.331,24.331,0,0,0,1.037,7.32A8.3,8.3,0,0,1,46.2,200.546Z" transform="translate(-41.12 -184.147)" fill="#a397e3"/>
      </g>
      <path id="Trazado_98664" data-name="Trazado 98664" d="M125.416,335.119a9.163,9.163,0,0,1-2.076-.24,8.35,8.35,0,0,1-3.052,10.737v6.909a.5.5,0,0,0,.839.372l3.952-3.575a.5.5,0,0,1,.674,0L129.7,352.9a.5.5,0,0,0,.839-.372v-18.98A9.1,9.1,0,0,1,125.416,335.119Z" transform="translate(-90.809 -289.578)" fill="#ffea99"/>
      <g id="Grupo_53321" data-name="Grupo 53321" transform="translate(29.479 51.858)">
        <path id="Trazado_98665" data-name="Trazado 98665" d="M120.288,397.594V404.5a.5.5,0,0,0,.839.372l2.55-2.307v-9.154A8.375,8.375,0,0,1,120.288,397.594Z" transform="translate(-120.288 -393.415)" fill="#42e0e6"/>
      </g>
      <g id="Grupo_53322" data-name="Grupo 53322" transform="translate(25.467 27.262)">
        <path id="Trazado_98666" data-name="Trazado 98666" d="M98.995,206.819a9.141,9.141,0,0,0-8.03,13.505,8.361,8.361,0,0,1,5.954,4.533,9.139,9.139,0,1,0,2.076-18.038Z" transform="translate(-89.856 -206.819)" fill="#f3f9ff"/>
        <path id="Trazado_98667" data-name="Trazado 98667" d="M94.269,215.958a9.142,9.142,0,0,1,6.932-8.869,9.141,9.141,0,0,0-10.237,13.235,8.361,8.361,0,0,1,5.954,4.533,9.135,9.135,0,0,0,4.283-.03A9.142,9.142,0,0,1,94.269,215.958Z" transform="translate(-89.856 -206.819)" fill="#d2e1f1"/>
      </g>
      <g id="Grupo_53332" data-name="Grupo 53332" transform="translate(43.926 57.785)">
        <g id="Grupo_53323" data-name="Grupo 53323" transform="translate(0)">
          <path id="Trazado_98668" data-name="Trazado 98668" d="M234.9,438.655l1.019,2.065a.5.5,0,0,0,.378.275l2.279.331a.5.5,0,0,1,.278.856l-1.649,1.607a.5.5,0,0,0-.144.444l.389,2.269a.5.5,0,0,1-.728.529l-2.038-1.072a.5.5,0,0,0-.467,0l-2.038,1.072a.5.5,0,0,1-.728-.529l.389-2.269a.5.5,0,0,0-.144-.444l-1.649-1.607a.5.5,0,0,1,.278-.856l2.279-.331a.5.5,0,0,0,.378-.275L234,438.655a.5.5,0,0,1,.9,0Z" transform="translate(-229.894 -438.375)" fill="#42e0e6"/>
        </g>
        <g id="Grupo_53326" data-name="Grupo 53326" transform="translate(12.233)">
          <path id="Trazado_98670" data-name="Trazado 98670" d="M327.706,438.655l1.019,2.065a.5.5,0,0,0,.378.275l2.279.331a.5.5,0,0,1,.278.856l-1.649,1.607a.5.5,0,0,0-.144.444l.389,2.269a.5.5,0,0,1-.728.529l-2.038-1.072a.5.5,0,0,0-.467,0l-2.038,1.072a.5.5,0,0,1-.728-.529l.389-2.269a.5.5,0,0,0-.144-.444l-1.649-1.607a.5.5,0,0,1,.278-.856l2.279-.331a.5.5,0,0,0,.378-.275l1.019-2.065A.5.5,0,0,1,327.706,438.655Z" transform="translate(-322.7 -438.375)" fill="#42e0e6"/>
        </g>
        <g id="Grupo_53329" data-name="Grupo 53329" transform="translate(24.467)">
          <path id="Trazado_98672" data-name="Trazado 98672" d="M420.513,438.655l1.019,2.065a.5.5,0,0,0,.378.275l2.279.331a.5.5,0,0,1,.278.856l-1.649,1.607a.5.5,0,0,0-.144.444l.389,2.269a.5.5,0,0,1-.728.529L420.3,445.96a.5.5,0,0,0-.467,0l-2.038,1.072a.5.5,0,0,1-.728-.529l.389-2.269a.5.5,0,0,0-.144-.444l-1.649-1.607a.5.5,0,0,1,.278-.856l2.279-.331a.5.5,0,0,0,.378-.275l1.019-2.065A.5.5,0,0,1,420.513,438.655Z" transform="translate(-415.507 -438.375)" fill="#42e0e6"/>
        </g>
      </g>
      <g id="Grupo_53339" data-name="Grupo 53339" transform="translate(15.691 0)">
        <g id="Grupo_53333" data-name="Grupo 53333" transform="translate(0.988 40.622)">
          <circle id="Elipse_12" data-name="Elipse 12" cx="8.35" cy="8.35" r="8.35" fill="#d2e1f1"/>
        </g>
        <g id="Grupo_53334" data-name="Grupo 53334" transform="translate(0.988 40.622)">
          <path id="Trazado_98674" data-name="Trazado 98674" d="M27.251,316.523a8.353,8.353,0,0,1,6.32-8.1,8.35,8.35,0,1,0,0,16.2A8.353,8.353,0,0,1,27.251,316.523Z" transform="translate(-23.19 -308.173)" fill="#f3f9ff"/>
        </g>
        <g id="Grupo_53335" data-name="Grupo 53335" transform="translate(5.243 45.055)">
          <path id="Trazado_98675" data-name="Trazado 98675" d="M59.964,342.05l.916,1.856a.451.451,0,0,0,.34.247l2.049.3a.451.451,0,0,1,.25.77l-1.482,1.445a.452.452,0,0,0-.13.4l.35,2.04a.451.451,0,0,1-.655.476l-1.832-.963a.452.452,0,0,0-.42,0l-1.832.963a.451.451,0,0,1-.655-.476l.35-2.04a.451.451,0,0,0-.13-.4L55.6,345.221a.451.451,0,0,1,.25-.77l2.049-.3a.451.451,0,0,0,.34-.247l.916-1.856A.451.451,0,0,1,59.964,342.05Z" transform="translate(-55.462 -341.798)" fill="#42e0e6"/>
        </g>
        <g id="Grupo_53338" data-name="Grupo 53338" transform="translate(0 0)">
          <path id="Trazado_98677" data-name="Trazado 98677" d="M77.66,0H39.714A1.386,1.386,0,0,0,38.33,1.384v3.1h-3.1a1.386,1.386,0,0,0-1.384,1.384V18L19.33,25.257a2.294,2.294,0,0,0-1.276,2.063v7.608a25.848,25.848,0,0,0,.887,6.973A9.333,9.333,0,0,0,28.49,57.644v5.3a1.491,1.491,0,0,0,2.491,1.105l3.625-3.28,3.626,3.28a1.491,1.491,0,0,0,2.491-1.106v-7.79h7.436a.989.989,0,1,0,0-1.977H42.7a25.681,25.681,0,0,0,5.2-5.888H65.231a.989.989,0,0,0,0-1.977H48.991a20.466,20.466,0,0,0,1.017-2.541H53.3a.989.989,0,0,0,0-1.977H50.55a24.316,24.316,0,0,0,.424-2.541H65.23a.989.989,0,1,0,0-1.977h-14.1c.019-.442.032-.89.032-1.349V33.736H65.23a.989.989,0,1,0,0-1.977H51.158V29.218H56.2a.989.989,0,1,0,0-1.977H51.155a2.292,2.292,0,0,0-1.273-1.984L48.767,24.7H65.23a.989.989,0,1,0,0-1.977H44.811l-8.985-4.491V6.459h36.76v7.382a.989.989,0,0,0,1.977,0V5.866a1.386,1.386,0,0,0-1.384-1.384H40.307v-2.5h36.76V48.7h-2.5V18.454a.989.989,0,0,0-1.977,0V53.179H52.772a.989.989,0,0,0,0,1.977H73.179a1.386,1.386,0,0,0,1.384-1.384v-3.1h3.1a1.386,1.386,0,0,0,1.384-1.384V1.384A1.386,1.386,0,0,0,77.66,0ZM17.668,48.972a7.362,7.362,0,1,1,7.362,7.362A7.37,7.37,0,0,1,17.668,48.972ZM35.606,59.011a1.486,1.486,0,0,0-2,0l-3.139,2.84V56.558a9.32,9.32,0,0,0,3.57-10.048c.188.011.378.018.569.018a10.064,10.064,0,0,0,4.139-.888v16.21ZM49.181,27.32v7.608A20.179,20.179,0,0,1,45.1,47.876a26.057,26.057,0,0,1-4.374,4.4V44.467a10.117,10.117,0,0,0,2.863-12.749.989.989,0,0,0-1.752.916,8.056,8.056,0,0,1,.924,3.768,8.148,8.148,0,0,1-9.573,8.025A9.373,9.373,0,0,0,27.25,39.9,8.147,8.147,0,0,1,39.065,29.58a.989.989,0,0,0,1.083-1.654A10.125,10.125,0,0,0,25.01,39.634a9.277,9.277,0,0,0-4.333,1.08,24.405,24.405,0,0,1-.645-5.786V27.32a.328.328,0,0,1,.182-.295l14.392-7.193L49,27.026a.327.327,0,0,1,.182.295Z" transform="translate(-15.691 0)" fill="#23147b"/>
          <path id="Trazado_98678" data-name="Trazado 98678" d="M216.737,139.091a.989.989,0,0,0,.989.989h22.05a.989.989,0,1,0,0-1.977h-22.05A.988.988,0,0,0,216.737,139.091Z" transform="translate(-190.236 -119.898)" fill="#23147b"/>
          <path id="Trazado_98679" data-name="Trazado 98679" d="M349.829,206.657h-5.34a.989.989,0,1,0,0,1.977h5.34a.989.989,0,1,0,0-1.977Z" transform="translate(-300.289 -179.416)" fill="#23147b"/>
          <path id="Trazado_98680" data-name="Trazado 98680" d="M329.861,309.49h-8.372a.989.989,0,0,0,0,1.977h8.372a.989.989,0,1,0,0-1.977Z" transform="translate(-280.321 -268.694)" fill="#23147b"/>
          <path id="Trazado_98681" data-name="Trazado 98681" d="M263.5,90.566a.989.989,0,1,0,0-1.977H249.947a.989.989,0,1,0,0,1.977Z" transform="translate(-218.21 -76.912)" fill="#23147b"/>
          <path id="Trazado_98682" data-name="Trazado 98682" d="M132.826,256.807l-3.524,3.524L127,258.025a.989.989,0,0,0-1.4,1.4l3,3a.988.988,0,0,0,1.4,0l4.223-4.223a.989.989,0,0,0-1.4-1.4Z" transform="translate(-110.86 -222.704)" fill="#23147b"/>
          <path id="Trazado_98683" data-name="Trazado 98683" d="M232.2,433.835l-2.026-.294-.906-1.835h0a1.491,1.491,0,0,0-2.673,0l-.906,1.835-2.026.294a1.491,1.491,0,0,0-.826,2.543l1.466,1.429-.346,2.017a1.489,1.489,0,0,0,2.163,1.572l1.812-.953,1.812.953a1.491,1.491,0,0,0,2.163-1.572l-.346-2.017,1.466-1.429a1.491,1.491,0,0,0-.826-2.543Zm-2.2,2.734a1.49,1.49,0,0,0-.429,1.319l.223,1.3-1.165-.613a1.49,1.49,0,0,0-1.387,0l-1.165.613.222-1.3a1.49,1.49,0,0,0-.429-1.319l-.943-.919,1.3-.189a1.491,1.491,0,0,0,1.122-.816l.583-1.181.583,1.181a1.49,1.49,0,0,0,1.123.816l1.3.189Z" transform="translate(-195.141 -374.078)" fill="#23147b"/>
          <path id="Trazado_98684" data-name="Trazado 98684" d="M325.008,433.835l-2.025-.294-.906-1.835h0a1.491,1.491,0,0,0-2.673,0l-.906,1.835-2.026.294a1.491,1.491,0,0,0-.826,2.543l1.466,1.429-.346,2.017a1.491,1.491,0,0,0,2.163,1.572l1.812-.953,1.812.953a1.491,1.491,0,0,0,2.163-1.572l-.346-2.017,1.466-1.429a1.491,1.491,0,0,0-.826-2.543Zm-2.2,2.734a1.49,1.49,0,0,0-.429,1.319l.222,1.3-1.165-.613a1.49,1.49,0,0,0-1.387,0l-1.165.613.223-1.3a1.491,1.491,0,0,0-.429-1.319l-.943-.919,1.3-.189a1.491,1.491,0,0,0,1.122-.816l.583-1.181.583,1.181a1.491,1.491,0,0,0,1.123.816l1.3.189Z" transform="translate(-275.715 -374.078)" fill="#23147b"/>
          <path id="Trazado_98685" data-name="Trazado 98685" d="M417.815,433.835l-2.026-.294-.906-1.835h0a1.491,1.491,0,0,0-2.674,0l-.906,1.835-2.026.294a1.491,1.491,0,0,0-.826,2.543l1.466,1.429-.346,2.017a1.489,1.489,0,0,0,2.163,1.572l1.812-.953,1.812.953a1.491,1.491,0,0,0,2.163-1.572l-.346-2.017,1.466-1.429a1.491,1.491,0,0,0-.826-2.542Zm-2.2,2.734a1.49,1.49,0,0,0-.429,1.32l.222,1.3-1.165-.613a1.491,1.491,0,0,0-1.388,0l-1.165.613.223-1.3a1.491,1.491,0,0,0-.429-1.319l-.943-.919,1.3-.189a1.491,1.491,0,0,0,1.122-.816l.583-1.181.583,1.181a1.49,1.49,0,0,0,1.122.816l1.3.189Z" transform="translate(-356.288 -374.078)" fill="#23147b"/>
          <path id="Trazado_98686" data-name="Trazado 98686" d="M56.9,336.96l-1.769-.257-.791-1.6a1.44,1.44,0,0,0-2.583,0l-.791,1.6-1.769.257a1.44,1.44,0,0,0-.8,2.456l1.28,1.248-.3,1.762a1.438,1.438,0,0,0,2.089,1.518l1.582-.832,1.582.832a1.44,1.44,0,0,0,2.089-1.518l-.3-1.762,1.28-1.248a1.44,1.44,0,0,0-.8-2.456Zm-2.065,2.485a1.44,1.44,0,0,0-.414,1.275l.166.968-.869-.457a1.441,1.441,0,0,0-1.34,0l-.869.457.166-.968a1.439,1.439,0,0,0-.414-1.274l-.7-.685.971-.141a1.439,1.439,0,0,0,1.085-.788l.434-.88.434.88a1.439,1.439,0,0,0,1.084.788l.971.141Z" transform="translate(-43.706 -290.231)" fill="#23147b"/>
        </g>
      </g>
    </g>
    <path id="Rectángulo_5097" data-name="Rectángulo 5097" d="M0,0H966a0,0,0,0,1,0,0V322a16,16,0,0,1-16,16H16A16,16,0,0,1,0,322V0A0,0,0,0,1,0,0Z" transform="translate(9271 2350)" fill="#d3a7e6"/>
    <text id="El_otorgamiento_de_la_acreditación_a_través_de_su_máxima_instancia_en_acreditación" data-name="El otorgamiento de la acreditación a través de su máxima instancia en acreditación" transform="translate(9646 2421)" fill="#171a43" font-size="16" font-family="Roboto-Regular, Roboto"><tspan x="0" y="17">El otorgamiento de la </tspan><tspan x="0" y="41">acreditación a través de su </tspan><tspan x="0" y="65">máxima instancia en </tspan><tspan x="0" y="89">acreditación</tspan></text>
    <text id="La_evaluación_externa_de_cumplimiento_de_los_estándares_por_la_entidad_acreditadora_seleccionada" data-name="La evaluación externa de cumplimiento de los estándares por la entidad acreditadora seleccionada" transform="translate(9946 2421)" fill="#171a43" font-size="16" font-family="Roboto-Regular, Roboto"><tspan x="0" y="17">La evaluación externa de </tspan><tspan x="0" y="41">cumplimiento de los </tspan><tspan x="0" y="65">estándares por la entidad </tspan></text>
    <rect id="Rectángulo_5098" data-name="Rectángulo 5098" width="859" height="52" rx="6" transform="translate(9312 2602)" fill="#9c61b5"/>
    <g id="Rectángulo_5099" data-name="Rectángulo 5099" transform="translate(9312 2397)" fill="none" stroke="#9a4cbc" stroke-width="2" stroke-dasharray="6">
      <rect width="248" height="160" rx="11" stroke="none"/>
      <rect x="1" y="1" width="246" height="158" rx="10" fill="none"/>
    </g>
    <g id="Rectángulo_5100" data-name="Rectángulo 5100" transform="translate(9618 2397)" fill="none" stroke="#9a4cbc" stroke-width="2" stroke-dasharray="6">
      <rect width="248" height="160" rx="11" stroke="none"/>
      <rect x="1" y="1" width="246" height="158" rx="10" fill="none"/>
    </g>
    <g id="Rectángulo_5101" data-name="Rectángulo 5101" transform="translate(9923 2397)" fill="none" stroke="#9a4cbc" stroke-width="2" stroke-dasharray="6">
      <rect width="248" height="160" rx="11" stroke="none"/>
      <rect x="1" y="1" width="246" height="158" rx="10" fill="none"/>
    </g>
    <g id="flecha-correcta_1_3" data-name="flecha-correcta (1)" transform="translate(9569.606 2381.865)">
      <g id="Grupo_53403-3" data-name="Grupo 53403" transform="translate(0.57 92.221)">
        <path id="Trazado_98796-3" data-name="Trazado 98796" d="M31.117,122.98a3.291,3.291,0,0,1-3.291-3.291v-.907H10.93a3.43,3.43,0,0,1-3.43-3.43v-8.573a3.43,3.43,0,0,1,3.43-3.43h16.9v-.908a3.289,3.289,0,0,1,5.336-2.575l10.849,8.625a3.289,3.289,0,0,1,0,5.149l-10.849,8.625a3.3,3.3,0,0,1-2.045.715Z" transform="translate(-7.5 -99.151)" fill="#f5f5f5"/>
      </g>
      <g id="Grupo_53404-3" data-name="Grupo 53404" transform="translate(3.482 95.133)">
        <path id="Trazado_98797-3" data-name="Trazado 98797" d="M77.626,146.2l-10.849-8.625a.377.377,0,0,0-.612.3v3.443a.377.377,0,0,1-.377.377h-18.9a1.047,1.047,0,0,0-1.047,1.047v7.515a1.047,1.047,0,0,0,1.047,1.047h18.9a.377.377,0,0,1,.377.377v3.443a.377.377,0,0,0,.612.3l10.849-8.625A.377.377,0,0,0,77.626,146.2Z" transform="translate(-45.839 -137.488)" fill="#9a4cbc"/>
      </g>
      <g id="Grupo_53405-3" data-name="Grupo 53405" transform="translate(23.044 92.221)">
        <path id="Trazado_98798-3" data-name="Trazado 98798" d="M317.389,108.491l-10.849-8.625a3.284,3.284,0,0,0-3.188-.51,3.3,3.3,0,0,1,.909.51l10.848,8.625a3.289,3.289,0,0,1,0,5.149l-10.849,8.625a3.3,3.3,0,0,1-.91.511,3.284,3.284,0,0,0,1.144.2h0a3.3,3.3,0,0,0,2.045-.715l10.849-8.625a3.289,3.289,0,0,0,0-5.15Z" transform="translate(-303.352 -99.151)" fill="#ebe5ed"/>
      </g>
      <g id="Grupo_53406-3" data-name="Grupo 53406" transform="translate(23.808 95.133)">
        <path id="Trazado_98799-3" data-name="Trazado 98799" d="M324.881,146.2l-10.849-8.625a.377.377,0,0,0-.612.3v1.03l9.181,7.3a.377.377,0,0,1,0,.59l-9.181,7.3v1.03a.377.377,0,0,0,.612.3l10.849-8.625A.377.377,0,0,0,324.881,146.2Z" transform="translate(-313.421 -137.488)" fill="#e4e0ff"/>
      </g>
      <g id="Grupo_53407-3" data-name="Grupo 53407" transform="translate(0 91.651)">
        <path id="Trazado_98800-3" data-name="Trazado 98800" d="M24.187,116.62a3.865,3.865,0,0,1-3.861-3.861v-.337H15.8a.57.57,0,1,1,0-1.139H20.9a.57.57,0,0,1,.57.57v.907a2.719,2.719,0,0,0,4.412,2.13l10.849-8.625a2.72,2.72,0,0,0,0-4.258L25.878,93.382a2.719,2.719,0,0,0-4.412,2.129v.908a.57.57,0,0,1-.57.57H4a2.864,2.864,0,0,0-2.86,2.86v8.573A2.864,2.864,0,0,0,4,111.282h9.525a.57.57,0,1,1,0,1.139H4a4,4,0,0,1-4-4V99.849a4,4,0,0,1,4-4H20.326v-.338a3.858,3.858,0,0,1,6.261-3.021l10.848,8.625a3.859,3.859,0,0,1,0,6.041l-10.849,8.625a3.872,3.872,0,0,1-2.4.839Z" transform="translate(0 -91.651)" fill="#23147b"/>
      </g>
      <g id="Grupo_53408-3" data-name="Grupo 53408" transform="translate(2.912 94.563)">
        <path id="Trazado_98801-3" data-name="Trazado 98801" d="M59.613,149.127a.95.95,0,0,1-.413-.1.94.94,0,0,1-.535-.853v-3.251H39.955a1.619,1.619,0,0,1-1.617-1.617V135.8a1.619,1.619,0,0,1,1.617-1.617H43.88a.57.57,0,0,1,0,1.139H39.955a.478.478,0,0,0-.477.477v7.515a.478.478,0,0,0,.477.477h18.9a.948.948,0,0,1,.947.947v3.044l10.346-8.225L59.8,131.329v3.044a.948.948,0,0,1-.947.947h-12.7a.57.57,0,0,1,0-1.139H58.664V130.93a.947.947,0,0,1,1.536-.741l10.849,8.625a.947.947,0,0,1,0,1.482L60.2,148.92A.942.942,0,0,1,59.613,149.127Z" transform="translate(-38.338 -129.982)" fill="#23147b"/>
      </g>
    </g>
    <g id="flecha-correcta_1_4" data-name="flecha-correcta (1)" transform="translate(9875.606 2381.865)">
      <g id="Grupo_53403-4" data-name="Grupo 53403" transform="translate(0.57 92.221)">
        <path id="Trazado_98796-4" data-name="Trazado 98796" d="M31.117,122.98a3.291,3.291,0,0,1-3.291-3.291v-.907H10.93a3.43,3.43,0,0,1-3.43-3.43v-8.573a3.43,3.43,0,0,1,3.43-3.43h16.9v-.908a3.289,3.289,0,0,1,5.336-2.575l10.849,8.625a3.289,3.289,0,0,1,0,5.149l-10.849,8.625a3.3,3.3,0,0,1-2.045.715Z" transform="translate(-7.5 -99.151)" fill="#f5f5f5"/>
      </g>
      <g id="Grupo_53404-4" data-name="Grupo 53404" transform="translate(3.482 95.133)">
        <path id="Trazado_98797-4" data-name="Trazado 98797" d="M77.626,146.2l-10.849-8.625a.377.377,0,0,0-.612.3v3.443a.377.377,0,0,1-.377.377h-18.9a1.047,1.047,0,0,0-1.047,1.047v7.515a1.047,1.047,0,0,0,1.047,1.047h18.9a.377.377,0,0,1,.377.377v3.443a.377.377,0,0,0,.612.3l10.849-8.625A.377.377,0,0,0,77.626,146.2Z" transform="translate(-45.839 -137.488)" fill="#9a4cbc"/>
      </g>
      <g id="Grupo_53405-4" data-name="Grupo 53405" transform="translate(23.044 92.221)">
        <path id="Trazado_98798-4" data-name="Trazado 98798" d="M317.389,108.491l-10.849-8.625a3.284,3.284,0,0,0-3.188-.51,3.3,3.3,0,0,1,.909.51l10.848,8.625a3.289,3.289,0,0,1,0,5.149l-10.849,8.625a3.3,3.3,0,0,1-.91.511,3.284,3.284,0,0,0,1.144.2h0a3.3,3.3,0,0,0,2.045-.715l10.849-8.625a3.289,3.289,0,0,0,0-5.15Z" transform="translate(-303.352 -99.151)" fill="#ebe5ed"/>
      </g>
      <g id="Grupo_53406-4" data-name="Grupo 53406" transform="translate(23.808 95.133)">
        <path id="Trazado_98799-4" data-name="Trazado 98799" d="M324.881,146.2l-10.849-8.625a.377.377,0,0,0-.612.3v1.03l9.181,7.3a.377.377,0,0,1,0,.59l-9.181,7.3v1.03a.377.377,0,0,0,.612.3l10.849-8.625A.377.377,0,0,0,324.881,146.2Z" transform="translate(-313.421 -137.488)" fill="#e4e0ff"/>
      </g>
      <g id="Grupo_53407-4" data-name="Grupo 53407" transform="translate(0 91.651)">
        <path id="Trazado_98800-4" data-name="Trazado 98800" d="M24.187,116.62a3.865,3.865,0,0,1-3.861-3.861v-.337H15.8a.57.57,0,1,1,0-1.139H20.9a.57.57,0,0,1,.57.57v.907a2.719,2.719,0,0,0,4.412,2.13l10.849-8.625a2.72,2.72,0,0,0,0-4.258L25.878,93.382a2.719,2.719,0,0,0-4.412,2.129v.908a.57.57,0,0,1-.57.57H4a2.864,2.864,0,0,0-2.86,2.86v8.573A2.864,2.864,0,0,0,4,111.282h9.525a.57.57,0,1,1,0,1.139H4a4,4,0,0,1-4-4V99.849a4,4,0,0,1,4-4H20.326v-.338a3.858,3.858,0,0,1,6.261-3.021l10.848,8.625a3.859,3.859,0,0,1,0,6.041l-10.849,8.625a3.872,3.872,0,0,1-2.4.839Z" transform="translate(0 -91.651)" fill="#23147b"/>
      </g>
      <g id="Grupo_53408-4" data-name="Grupo 53408" transform="translate(2.912 94.563)">
        <path id="Trazado_98801-4" data-name="Trazado 98801" d="M59.613,149.127a.95.95,0,0,1-.413-.1.94.94,0,0,1-.535-.853v-3.251H39.955a1.619,1.619,0,0,1-1.617-1.617V135.8a1.619,1.619,0,0,1,1.617-1.617H43.88a.57.57,0,0,1,0,1.139H39.955a.478.478,0,0,0-.477.477v7.515a.478.478,0,0,0,.477.477h18.9a.948.948,0,0,1,.947.947v3.044l10.346-8.225L59.8,131.329v3.044a.948.948,0,0,1-.947.947h-12.7a.57.57,0,0,1,0-1.139H58.664V130.93a.947.947,0,0,1,1.536-.741l10.849,8.625a.947.947,0,0,1,0,1.482L60.2,148.92A.942.942,0,0,1,59.613,149.127Z" transform="translate(-38.338 -129.982)" fill="#23147b"/>
      </g>
    </g>
    <text id="Entidad_acreditadora_registrada_en_el_REAS" data-name="Entidad acreditadora registrada en el REAS" transform="translate(9580 2633)" fill="#fff" font-size="18" font-family="Roboto-Bold, Roboto" font-weight="700"><tspan x="0" y="0">Entidad acreditadora registrada en el REAS</tspan></text>
    <text id="Los_seguimientos_posteriores_a_la_acreditación" data-name="Los seguimientos posteriores a la acreditación" transform="translate(9329 2421)" fill="#171a43" font-size="16" font-family="Roboto-Regular, Roboto"><tspan x="0" y="17">Los seguimientos </tspan><tspan x="0" y="41">posteriores a la acreditación</tspan></text>
    <g id="archivos_1_" data-name="archivos (1)" transform="translate(9411 2527.517)">
      <path id="Trazado_98863" data-name="Trazado 98863" d="M16.432,58.744l-.029-.051q-.086-.148-.164-.3l-.016-.032a5.973,5.973,0,0,1-.3-.717l-.005-.015a5.961,5.961,0,0,1-.328-1.946V17.962a2.59,2.59,0,0,1,2.59-2.59H45.3V13.831A3.832,3.832,0,0,0,41.468,10H13.835A3.831,3.831,0,0,0,10,13.831V55.549a3.831,3.831,0,0,0,3.831,3.831h3.036l-.017-.023A5.952,5.952,0,0,1,16.432,58.744Zm0,0" transform="translate(-8.864 -8.861)" fill="#ffea99"/>
      <g id="Grupo_53455" data-name="Grupo 53455" transform="translate(6.721 6.512)">
        <path id="Trazado_98864" data-name="Trazado 98864" d="M127.146,495.922c-.1-.048-.208-.1-.31-.156C126.938,495.82,127.042,495.873,127.146,495.922Zm0,0" transform="translate(-119.108 -445.8)" fill="#dff6fd"/>
        <path id="Trazado_98865" data-name="Trazado 98865" d="M118.567,490.245q-.113-.084-.223-.174Q118.453,490.16,118.567,490.245Zm0,0" transform="translate(-111.583 -440.754)" fill="#dff6fd"/>
        <path id="Trazado_98866" data-name="Trazado 98866" d="M73.1,446.716c-.089-.085-.173-.173-.255-.263C72.922,446.543,73.007,446.631,73.1,446.716Zm0,0" transform="translate(-71.263 -402.105)" fill="#dff6fd"/>
        <path id="Trazado_98867" data-name="Trazado 98867" d="M121.154,492.224q-.15-.1-.294-.2Q121,492.128,121.154,492.224Zm0,0" transform="translate(-113.812 -442.484)" fill="#dff6fd"/>
        <path id="Trazado_98868" data-name="Trazado 98868" d="M70.819,444.109c-.063-.07-.123-.142-.182-.215C70.7,443.967,70.756,444.039,70.819,444.109Zm0,0" transform="translate(-69.311 -399.838)" fill="#dff6fd"/>
        <path id="Trazado_98869" data-name="Trazado 98869" d="M75.082,448.758l4.587,4.4c.086.083.175.162.266.239-.09-.077-.179-.156-.266-.239Zm0,0" transform="translate(-73.25 -404.148)" fill="#dff6fd"/>
        <path id="Trazado_98870" data-name="Trazado 98870" d="M124.138,494.205q-.133-.074-.263-.154Q124,494.131,124.138,494.205Zm0,0" transform="translate(-116.485 -444.281)" fill="#dff6fd"/>
        <path id="Trazado_98871" data-name="Trazado 98871" d="M133.414,498.72c-.1-.032-.2-.066-.3-.1Q133.264,498.673,133.414,498.72Zm0,0" transform="translate(-124.674 -448.327)" fill="#dff6fd"/>
        <path id="Trazado_98872" data-name="Trazado 98872" d="M129.955,497.307c-.114-.044-.227-.092-.338-.143C129.728,497.215,129.841,497.263,129.955,497.307Zm0,0" transform="translate(-121.573 -447.039)" fill="#dff6fd"/>
        <path id="Trazado_98873" data-name="Trazado 98873" d="M61.93,428.234a5.966,5.966,0,0,0,.3.717A5.966,5.966,0,0,1,61.93,428.234Zm0,0" transform="translate(-61.596 -385.962)" fill="#dff6fd"/>
        <path id="Trazado_98874" data-name="Trazado 98874" d="M84.081,97.113a23.833,23.833,0,0,1-17.374-7.764,2.542,2.542,0,0,1,0-3.4c7.615-8.064,18.519-9.846,27.588-5.346V59.75a2.59,2.59,0,0,0-2.59-2.59H61.59A2.59,2.59,0,0,0,59,59.75V97.472a5.947,5.947,0,0,0,.328,1.946q-.064-.184-.116-.372h7.11a1.832,1.832,0,0,1,1.832,1.832v6.794c-.121-.029-.24-.063-.359-.1a5.949,5.949,0,0,0,1.751.264H91.706a2.59,2.59,0,0,0,2.589-2.59V94.694A22.935,22.935,0,0,1,84.081,97.113Zm0,0" transform="translate(-59 -57.16)" fill="#dff6fd"/>
        <path id="Trazado_98875" data-name="Trazado 98875" d="M66.434,437.883a6.024,6.024,0,0,0,.421.614A6.024,6.024,0,0,1,66.434,437.883Zm0,0" transform="translate(-65.587 -394.511)" fill="#dff6fd"/>
        <path id="Trazado_98876" data-name="Trazado 98876" d="M64.738,434.809c.052.1.106.2.164.3Q64.816,434.96,64.738,434.809Zm0,0" transform="translate(-64.085 -391.787)" fill="#dff6fd"/>
      </g>
      <path id="Trazado_98877" data-name="Trazado 98877" d="M69.813,426.664a1.832,1.832,0,0,0-1.832-1.832h-7.11c.034.126.073.25.115.372l.005.015a5.975,5.975,0,0,0,.3.717l.016.032q.077.152.164.3l.029.051a5.969,5.969,0,0,0,.421.614l.017.023.04.048c.059.073.12.145.182.215.023.026.045.051.069.077.082.09.167.178.255.263l4.587,4.4c.086.083.175.162.266.239l.076.063q.109.09.223.175l.064.048c.1.07.194.137.294.2l.05.031c.086.054.174.1.262.154l.075.041c.1.055.205.108.31.156l.007,0c.111.052.224.1.338.143l.061.023q.147.055.3.1l.056.018c.118.036.238.07.359.1v-6.794Zm0,0" transform="translate(-53.937 -376.436)" fill="#9a4cbc"/>
      <path id="Trazado_98878" data-name="Trazado 98878" d="M156.342,249.5a25.362,25.362,0,0,0-7.159-5.346c-9.069-4.5-19.972-2.718-27.587,5.346a2.542,2.542,0,0,0,0,3.4,23.832,23.832,0,0,0,17.374,7.764,9.463,9.463,0,1,1,9.463-9.463,9.463,9.463,0,0,1-9.463,9.463,22.936,22.936,0,0,0,10.214-2.419,25.362,25.362,0,0,0,7.159-5.346A2.542,2.542,0,0,0,156.342,249.5Zm0,0" transform="translate(-107.167 -214.196)" fill="#d6effb"/>
      <path id="Trazado_98879" data-name="Trazado 98879" d="M215.027,251.2a9.463,9.463,0,1,0-9.463,9.463A9.463,9.463,0,0,0,215.027,251.2Zm-9.463,4.632A4.633,4.633,0,1,1,210.2,251.2,4.633,4.633,0,0,1,205.564,255.83Zm0,0" transform="translate(-173.762 -214.196)" fill="#f5deff"/>
      <path id="Trazado_98880" data-name="Trazado 98880" d="M247.769,288.773a4.632,4.632,0,1,1-4.632-4.632A4.633,4.633,0,0,1,247.769,288.773Zm0,0" transform="translate(-211.334 -251.772)" fill="#d6effb"/>
      <path id="Trazado_98881" data-name="Trazado 98881" d="M50,34.52a26.685,26.685,0,0,0-6.848-5.26V9.1a3.733,3.733,0,0,0-3.729-3.729H37.574v-.4A4.976,4.976,0,0,0,32.6,0H4.971A4.976,4.976,0,0,0,0,4.971V46.689a4.976,4.976,0,0,0,4.971,4.97H7.486c.1.107.188.2.276.283l0,0h0l4.585,4.4c.064.062.132.124.207.19l.107.092,0,0h0c.019.016.038.03.057.044s.021.021.033.031c.086.071.174.14.263.207h0c.013.01.028.019.041.028s.022.02.035.028c.115.084.233.164.35.239l.036.02.023.016c.1.062.205.125.312.184.016.008.032.015.048.023s.028.019.043.026c.132.071.253.132.369.186h0l0,0c.128.059.259.115.4.17l.042.014.029.013h0q.1.039.207.074l.146.048.032.009.033.012.006,0c.146.045.285.083.422.116l.036.008a7.1,7.1,0,0,0,1.622.189H39.427A3.733,3.733,0,0,0,43.156,54.6V44.743A26.688,26.688,0,0,0,50,39.483,3.662,3.662,0,0,0,50,34.52ZM14.737,55.328l-.022-.013-.028-.016-.012-.008c-.079-.05-.159-.105-.238-.162l-.022-.014-.028-.024c-.061-.046-.122-.093-.182-.142-.011-.009-.024-.017-.035-.026s-.016-.016-.026-.024l-.09-.078c-.046-.041-.088-.079-.126-.116h0L9.343,50.3h0c-.063-.06-.13-.129-.206-.212l-.025-.024c-.011-.013-.02-.026-.031-.039Q9,49.94,8.933,49.852l-.02-.023L8.887,49.8h0l0,0c-.065-.083-.125-.168-.184-.255h5.344a.693.693,0,0,1,.693.693Zm26.14-.73a1.452,1.452,0,0,1-1.45,1.45H17.268q-.126,0-.252-.007V50.228a2.974,2.974,0,0,0-2.971-2.971H7.881c0-.005,0-.011,0-.016,0-.047-.007-.093-.009-.139,0-.024,0-.047,0-.07,0-.069,0-.139,0-.209v-6.5a1.139,1.139,0,0,0-2.278,0v6.5c0,.091,0,.182.006.273,0,.029,0,.058,0,.087,0,.062.007.125.012.187,0,.033.006.066.009.1.005.06.012.119.019.178,0,.033.008.065.012.1.008.062.018.125.028.187,0,.028.008.057.013.085q.022.127.048.253c0,.005,0,.01,0,.016q.029.135.063.269c.006.025.014.051.02.076.012.046.024.093.037.139,0,.015.009.03.014.045.012.043.026.085.039.128s.02.066.031.1v0h0l.024.073c0,.007,0,.014.007.021h0s0,.015.006.017c.015.044.032.088.048.131s.021.061.033.091H4.971a2.7,2.7,0,0,1-2.692-2.692V4.971A2.7,2.7,0,0,1,4.971,2.278H32.6A2.7,2.7,0,0,1,35.3,4.971v.4H9.311A3.733,3.733,0,0,0,5.582,9.1V31.214a1.139,1.139,0,1,0,2.278,0V9.1A1.452,1.452,0,0,1,9.311,7.651H39.427A1.452,1.452,0,0,1,40.877,9.1V28.19q-.961-.392-1.949-.7l-.115-.036c-.105-.032-.21-.064-.316-.095l-.279-.08-.283-.078q-.218-.058-.437-.112l-.136-.033a23.659,23.659,0,0,0-7.423-.584l-.119.01q-.2.017-.4.038l-.227.023-.246.029q-.294.036-.587.078l-.061.009a24.094,24.094,0,0,0-5.984,1.706l-.087.037q-.192.083-.383.17l-.117.054q-.553.254-1.095.538l-.22.115-.262.142-.256.143-.236.134c-.109.064-.218.128-.327.193l-.164.1q-.239.146-.475.3l-.162.105q-.17.109-.337.222l-.171.116q-.174.119-.347.242l-.139.1q-.241.174-.48.352l-.03.024q-.223.168-.442.341l-.135.108q-.172.138-.342.278l-.14.116c-.126.105-.251.212-.375.32l-.085.073q-.228.2-.452.405l-.1.094q-.172.16-.343.322l-.142.137q-.157.152-.311.307l-.13.131q-.215.218-.426.44a3.661,3.661,0,0,0,0,4.962c.141.149.283.3.426.44l.13.131c.1.1.207.206.311.307l.142.137q.17.163.343.323l.1.094q.225.206.453.406l.084.072q.187.163.376.321l.139.115q.171.142.344.279l.133.106q.222.175.446.344l.026.02q.239.18.481.353l.135.1q.175.123.351.244l.167.113q.17.115.342.226l.158.1q.238.152.477.3l.157.093q.166.1.334.2l.231.132.262.146c.085.047.171.094.257.14s.153.081.229.12q.535.28,1.081.532l.125.058q.188.085.377.168l.093.04a24.057,24.057,0,0,0,5.981,1.7l.061.009q.29.042.581.077l.252.03.224.023q.2.021.407.038l.115.01a23.657,23.657,0,0,0,7.431-.586l.122-.029q.232-.057.464-.119l.236-.065.313-.089.3-.09.14-.044q.979-.306,1.933-.7V54.6ZM18.048,40.465c-.1-.077-.195-.154-.292-.233l-.131-.106c-.085-.07-.171-.141-.256-.212l-.178-.152c-.074-.064-.149-.127-.223-.192q-.185-.163-.367-.329l-.156-.146c-.085-.079-.17-.158-.254-.239l-.153-.147q-.134-.13-.267-.263l-.128-.129c-.13-.132-.259-.265-.387-.4a1.07,1.07,0,0,1-.079-.094,1.372,1.372,0,0,1-.26-.822,1.339,1.339,0,0,1,.34-.917q.194-.2.39-.4l.118-.118q.139-.139.278-.275l.144-.139c.088-.085.177-.168.266-.25.049-.045.1-.091.146-.136q.188-.172.377-.338c.068-.06.136-.118.2-.177l.191-.163c.082-.069.166-.138.248-.206l.14-.113c.095-.077.19-.153.285-.227l.045-.034a23.3,23.3,0,0,1,5.5-3.2,10.58,10.58,0,0,0,0,13.394,23.312,23.312,0,0,1-5.509-3.207ZM31.8,45.325A8.324,8.324,0,1,1,40.126,37,8.333,8.333,0,0,1,31.8,45.325Zm16.545-7.407a24.251,24.251,0,0,1-6.9,5.136q-.714.352-1.439.647a10.58,10.58,0,0,0,0-13.4c.358.147.714.3,1.068.469l.015.007c.116.055.232.111.348.168a24.258,24.258,0,0,1,6.9,5.14A1.405,1.405,0,0,1,48.347,37.918Zm0,0" fill="#23147b"/>
      <path id="Trazado_98882" data-name="Trazado 98882" d="M234.276,274.141a5.772,5.772,0,1,0,5.772,5.772A5.778,5.778,0,0,0,234.276,274.141Zm0,9.265a3.493,3.493,0,1,1,3.493-3.493A3.5,3.5,0,0,1,234.276,283.405Zm0,0" transform="translate(-202.473 -242.911)"/>
      <path id="Trazado_98883" data-name="Trazado 98883" d="M109.249,106.278H129.3a1.139,1.139,0,1,0,0-2.278h-20.05a1.139,1.139,0,1,0,0,2.278Zm0,0" transform="translate(-95.794 -92.152)" fill="#23147b"/>
      <path id="Trazado_98884" data-name="Trazado 98884" d="M109.249,161.278h14.5a1.139,1.139,0,0,0,0-2.278h-14.5a1.139,1.139,0,0,0,0,2.278Zm0,0" transform="translate(-95.794 -140.887)" fill="#23147b"/>
      <path id="Trazado_98885" data-name="Trazado 98885" d="M109.249,216.278h6.2a1.139,1.139,0,1,0,0-2.278h-6.2a1.139,1.139,0,0,0,0,2.278Zm0,0" transform="translate(-95.794 -189.621)" fill="#23147b"/>
      <path id="Trazado_98886" data-name="Trazado 98886" d="M51.188,304.709a1.152,1.152,0,0,0-.1-.2,1.112,1.112,0,0,0-.142-.173,1.172,1.172,0,0,0-.174-.142,1.212,1.212,0,0,0-.2-.1,1.08,1.08,0,0,0-.213-.065,1.149,1.149,0,0,0-1.028.311,1.082,1.082,0,0,0-.142.173,1.151,1.151,0,0,0-.1.2,1.179,1.179,0,0,0-.065.213,1.153,1.153,0,0,0-.023.223,1.132,1.132,0,0,0,.023.222,1.164,1.164,0,0,0,.17.41,1.1,1.1,0,0,0,.142.173,1.172,1.172,0,0,0,.173.142,1.22,1.22,0,0,0,.2.1,1.19,1.19,0,0,0,.213.065,1.107,1.107,0,0,0,.445,0,1.172,1.172,0,0,0,.213-.065,1.261,1.261,0,0,0,.2-.1,1.2,1.2,0,0,0,.174-.142,1.15,1.15,0,0,0,.335-.805,1.153,1.153,0,0,0-.023-.223A1.179,1.179,0,0,0,51.188,304.709Zm0,0" transform="translate(-43.415 -269.375)"/>
    </g>
    <g id="medalla" transform="translate(9728 2527.517)">
      <g id="Grupo_53435" data-name="Grupo 53435" transform="translate(0 0.906)">
        <path id="Trazado_98825" data-name="Trazado 98825" d="M142.243,33.635l3.438-7.673-7.391-18a.72.72,0,0,0-.667-.447h-6.553a.72.72,0,0,0-.667.993L140.69,33.635h1.554Z" transform="translate(-126.304 -7.516)" fill="#e4e0ff"/>
        <path id="Trazado_98826" data-name="Trazado 98826" d="M133.779,8.508a.72.72,0,0,1,.667-.993h-3.374a.72.72,0,0,0-.667.993L140.69,33.634h1.554l.951-2.123Z" transform="translate(-126.305 -7.515)" fill="#d3a7e6"/>
        <path id="Trazado_98827" data-name="Trazado 98827" d="M241.791,7.516h-6.553a.72.72,0,0,0-.667.447L223.447,35.136h8.109l10.9-26.627a.72.72,0,0,0-.667-.993Z" transform="translate(-208.182 -7.516)" fill="#f5deff"/>
        <path id="Trazado_98828" data-name="Trazado 98828" d="M238.612,7.516h-3.374a.72.72,0,0,0-.667.447L223.447,35.136h3.374L237.945,7.963a.72.72,0,0,1,.667-.447Z" transform="translate(-208.182 -7.516)" fill="#d3a7e6"/>
        <circle id="Elipse_30" data-name="Elipse 30" cx="13.564" cy="13.564" r="13.564" transform="translate(0 46.328) rotate(-45)" fill="#ffea99"/>
        <path id="Trazado_98829" data-name="Trazado 98829" d="M148.341,292.969a13.568,13.568,0,0,1,11.116-13.343,13.564,13.564,0,1,0,0,26.686A13.567,13.567,0,0,1,148.341,292.969Z" transform="translate(-137.821 -246.639)" fill="#f3f9ff"/>
        <circle id="Elipse_31" data-name="Elipse 31" cx="9.72" cy="9.72" r="9.72" transform="translate(5.436 46.328) rotate(-45)" fill="#ffea99"/>
        <path id="Trazado_98830" data-name="Trazado 98830" d="M180.239,321.025a9.723,9.723,0,0,1,7.272-9.408,9.72,9.72,0,1,0,0,18.816,9.723,9.723,0,0,1-7.272-9.408Z" transform="translate(-165.875 -274.695)" fill="#ffea99"/>
        <path id="Trazado_98831" data-name="Trazado 98831" d="M224.9,352.358a.864.864,0,0,0-.479-1.473l-1.887-.274a.864.864,0,0,1-.65-.472l-.844-1.71a.864.864,0,0,0-1.549,0l-.844,1.71a.863.863,0,0,1-.65.472l-1.887.274a.863.863,0,0,0-.479,1.473L217,353.689a.864.864,0,0,1,.248.764l-.322,1.88a.863.863,0,0,0,1.253.91l1.688-.887a.863.863,0,0,1,.8,0l1.688.887a.863.863,0,0,0,1.253-.91l-.322-1.88a.863.863,0,0,1,.248-.764Z" transform="translate(-201.079 -306.921)" fill="#ffe181"/>
      </g>
      <g id="Grupo_53436" data-name="Grupo 53436" transform="translate(3.141)">
        <path id="Trazado_98832" data-name="Trazado 98832" d="M212.081,341.416l-.835,1.691-1.866.271a1.768,1.768,0,0,0-.98,3.015l1.35,1.316-.319,1.859A1.768,1.768,0,0,0,212,351.431l1.669-.878,1.669.877a1.768,1.768,0,0,0,2.564-1.863l-.319-1.859,1.35-1.316a1.768,1.768,0,0,0-.979-3.015l-1.866-.271-.835-1.691A1.767,1.767,0,0,0,212.081,341.416Zm.777,2.51.808-1.637.808,1.637a1.767,1.767,0,0,0,1.331.967l1.806.263L216.3,346.43a1.768,1.768,0,0,0-.508,1.564l.308,1.8-1.616-.849a1.767,1.767,0,0,0-1.645,0l-1.616.849.309-1.8a1.768,1.768,0,0,0-.508-1.565l-1.307-1.274,1.806-.262A1.767,1.767,0,0,0,212.859,343.926Z" transform="translate(-197.62 -299.405)" fill="#23147b"/>
        <path id="Trazado_98833" data-name="Trazado 98833" d="M179.695,306.422a.9.9,0,0,0,.687,1.078,8.815,8.815,0,1,1-3.827,0,.9.9,0,1,0-.391-1.765,10.624,10.624,0,1,0,4.609,0A.9.9,0,0,0,179.695,306.422Z" transform="translate(-162.422 -268.871)" fill="#23147b"/>
        <path id="Trazado_98834" data-name="Trazado 98834" d="M148.69,14.818a.9.9,0,0,0,1.179-.494l4.947-12.084A1.625,1.625,0,0,0,153.313,0H146.76a1.619,1.619,0,0,0-1.5,1.009l-6.365,15.549L132.527,1.009h0A1.618,1.618,0,0,0,131.024,0h-6.553a1.625,1.625,0,0,0-1.5,2.239l10.444,25.515a2.7,2.7,0,0,0-1.868,2.567v4.454a14.468,14.468,0,1,0,14.7,0V30.321a2.7,2.7,0,0,0-1.868-2.567l3.89-9.5a.9.9,0,0,0-1.673-.685l-4.116,10.057h-6.156L146.883,1.808h6.156L148.2,13.639a.9.9,0,0,0,.494,1.179Zm2.862,32.416a12.66,12.66,0,1,1-12.66-12.66h0A12.674,12.674,0,0,1,151.552,47.233Zm-8.011-17.8a.892.892,0,0,1,.891.891v3.544a14.511,14.511,0,0,0-5.54-1.1h0a14.515,14.515,0,0,0-5.535,1.1V30.321a.892.892,0,0,1,.891-.891h9.3Zm-8.7-2.967L124.744,1.808H130.9l7.014,17.136Z" transform="translate(-122.845)" fill="#23147b"/>
      </g>
    </g>
    <g id="auditoria" transform="translate(10015.152 2473.276)">
      <g id="Grupo_53375" data-name="Grupo 53375" transform="translate(38.162 74.33)">
        <path id="Trazado_98735" data-name="Trazado 98735" d="M328.7,214.373H310.361a11.156,11.156,0,0,1-6.166,9.8v19.414l.125.378H328.7a.627.627,0,0,0,.627-.627V215A.627.627,0,0,0,328.7,214.373Z" transform="translate(-304.195 -214.373)" fill="#dff6fd"/>
        <path id="Trazado_98736" data-name="Trazado 98736" d="M304.2,266.613v19.414l.125.378h4.115V262.9a11.206,11.206,0,0,1-4.241,3.712Z" transform="translate(-304.195 -256.813)" fill="#c8effe"/>
      </g>
      <g id="Grupo_53376" data-name="Grupo 53376" transform="translate(38.162 61.512)">
        <path id="Trazado_98737" data-name="Trazado 98737" d="M324.9,112.2H304.2v2.656a11.156,11.156,0,0,1,6.168,9.981c0,.06,0,.121,0,.181h15.165V112.825A.627.627,0,0,0,324.9,112.2Z" transform="translate(-304.195 -112.198)" fill="#ffea99"/>
        <path id="Trazado_98738" data-name="Trazado 98738" d="M308.934,119.37V112.2H304.2v2.656A11.2,11.2,0,0,1,308.934,119.37Z" transform="translate(-304.195 -112.198)" fill="#ffea99"/>
      </g>
      <path id="Trazado_98739" data-name="Trazado 98739" d="M39.733,91.865a11.157,11.157,0,1,1,5.114-21.074V62.368a.627.627,0,0,0-.627-.627H8.127a.627.627,0,0,0-.627.627v47.486a.627.627,0,0,0,.627.627H44.847V90.626a11.108,11.108,0,0,1-5.114,1.239Z" transform="translate(-6.559 -6.559)" fill="#f3f9ff"/>
      <g id="Grupo_53377" data-name="Grupo 53377" transform="translate(0.941 55.182)">
        <path id="Trazado_98740" data-name="Trazado 98740" d="M11.741,109.854V62.368a.627.627,0,0,1,.627-.627H8.127a.627.627,0,0,0-.627.627v47.486a.627.627,0,0,0,.627.627h4.241A.627.627,0,0,1,11.741,109.854Z" transform="translate(-7.5 -61.741)" fill="#d2e1f1"/>
      </g>
      <g id="Grupo_53378" data-name="Grupo 53378" transform="translate(39.735 80.71)">
        <path id="Trazado_98741" data-name="Trazado 98741" d="M322.268,268.466l-3.238-3.238a11.124,11.124,0,0,1-2.3,2.3l3.237,3.238Z" transform="translate(-316.729 -265.228)" fill="#f5deff"/>
      </g>
      <g id="Grupo_53379" data-name="Grupo 53379" transform="translate(42.537 83.513)">
        <path id="Trazado_98742" data-name="Trazado 98742" d="M349.914,298.413a2.484,2.484,0,0,1-3.513,0l-7.146-7.146a.627.627,0,0,1,0-.887l2.626-2.626a.627.627,0,0,1,.887,0l7.146,7.146A2.484,2.484,0,0,1,349.914,298.413Z" transform="translate(-339.071 -287.57)" fill="#d3a7e6"/>
      </g>
      <g id="Grupo_53380" data-name="Grupo 53380" transform="translate(42.537 83.513)">
        <path id="Trazado_98743" data-name="Trazado 98743" d="M349.626,298.414l-7.146-7.146a.627.627,0,0,1,0-.887l1.457-1.457-1.169-1.169a.627.627,0,0,0-.887,0l-2.626,2.626a.627.627,0,0,0,0,.887l7.146,7.146a2.482,2.482,0,0,0,3.368.13C349.721,298.5,349.672,298.46,349.626,298.414Z" transform="translate(-339.071 -287.571)" fill="#e4e0ff"/>
      </g>
      <g id="Grupo_53381" data-name="Grupo 53381" transform="translate(22.017 62.992)">
        <circle id="Elipse_17" data-name="Elipse 17" cx="11.157" cy="11.157" r="11.157" fill="#d3a7e6"/>
      </g>
      <g id="Grupo_53384" data-name="Grupo 53384" transform="translate(25.153 66.129)">
        <g id="Grupo_53382" data-name="Grupo 53382" transform="translate(0 0)">
          <circle id="Elipse_18" data-name="Elipse 18" cx="8.02" cy="8.02" r="8.02" fill="#e4e0ff"/>
        </g>
        <g id="Grupo_53383" data-name="Grupo 53383">
          <path id="Trazado_98744" data-name="Trazado 98744" d="M204.72,157.02a8.033,8.033,0,0,1,5.91-7.737,8.02,8.02,0,1,0,0,15.473A8.033,8.033,0,0,1,204.72,157.02Z" transform="translate(-200.5 -149)" fill="#f3f9ff"/>
        </g>
      </g>
      <g id="Grupo_53385" data-name="Grupo 53385" transform="translate(0 54.241)">
        <path id="Trazado_98745" data-name="Trazado 98745" d="M62.664,73.389h-2.23V62.139a1.57,1.57,0,0,0-1.568-1.568H39.228V55.809a1.57,1.57,0,0,0-1.568-1.568H12.922a.941.941,0,0,0,0,1.882H37.347v6.671a12.085,12.085,0,0,0-12.691,2.774H7.8a.941.941,0,1,0,0,1.882H23.106a12.069,12.069,0,0,0-1.279,2.5H15.682a.941.941,0,1,0,0,1.882H21.3a12.112,12.112,0,0,0-.223,2.314c0,.063,0,.126,0,.189H7.8a.941.941,0,1,0,0,1.882H21.254a12,12,0,0,0,.721,2.5H7.8a.941.941,0,1,0,0,1.882H22.947a12.19,12.19,0,0,0,2.106,2.5H18.818a.941.941,0,1,0,0,1.882h8.993a12.077,12.077,0,0,0,9.41.557v17.434H1.882V56.123H8.531a.941.941,0,0,0,0-1.882H1.568A1.57,1.57,0,0,0,0,55.809V103.3a1.57,1.57,0,0,0,1.568,1.568H53.819a.941.941,0,1,0,0-1.882H39.228V84.617c.164-.1.327-.193.486-.3l1.961,1.96a1.569,1.569,0,0,0,.381,1.593L49.2,95.021A3.423,3.423,0,0,0,55,92.045H62.35v2.233H58.085a.941.941,0,1,0,0,1.882H62.35v2.233H50.056a.941.941,0,1,0,0,1.882H62.35v2.707H58.21a.941.941,0,1,0,0,1.882h4.454a1.57,1.57,0,0,0,1.568-1.568V74.957a1.57,1.57,0,0,0-1.568-1.568ZM58.552,62.453v2.233h-10.5a.941.941,0,0,0,0,1.882h10.5V68.8h-10.5a.941.941,0,1,0,0,1.882h10.5v2.707H45.246a12.111,12.111,0,0,0-6.018-9.71V62.453H58.552ZM33.173,84.365A10.216,10.216,0,1,1,43.389,74.149,10.227,10.227,0,0,1,33.173,84.365Zm8.051-1.194a12.22,12.22,0,0,0,.971-.971l1.659,1.659-.971.971ZM52.715,93.69a1.545,1.545,0,0,1-2.182,0l-6.925-6.925,2.182-2.182,6.925,6.925A1.545,1.545,0,0,1,52.715,93.69Zm1.316-3.527L46.9,83.031a1.569,1.569,0,0,0-1.593-.381l-1.961-1.96a12.019,12.019,0,0,0,1.871-5.419H62.35V77.82H53.067a.941.941,0,1,0,0,1.882H62.35v2.233H51.059a.941.941,0,1,0,0,1.882H62.35v2.233H56.077a.941.941,0,1,0,0,1.882H62.35v2.233H54.031Z" transform="translate(0 -54.241)" fill="#23147b"/>
        <path id="Trazado_98746" data-name="Trazado 98746" d="M109.887,103.382a.941.941,0,0,0,0-1.882H97.367a.941.941,0,0,0,0,1.882Z" transform="translate(-84.329 -95.571)" fill="#23147b"/>
        <path id="Trazado_98747" data-name="Trazado 98747" d="M55.591,181.363h4.874a.941.941,0,1,0,0-1.882H55.591a.941.941,0,1,0,0,1.882Z" transform="translate(-47.794 -163.769)" fill="#23147b"/>
        <path id="Trazado_98748" data-name="Trazado 98748" d="M63.476,284.352H55.591a.941.941,0,1,0,0,1.882h7.885a.941.941,0,0,0,0-1.882Z" transform="translate(-47.794 -255.484)" fill="#23147b"/>
        <path id="Trazado_98749" data-name="Trazado 98749" d="M78.593,319.309h-23a.941.941,0,1,0,0,1.882h23a.941.941,0,1,0,0-1.882Z" transform="translate(-47.794 -286.055)" fill="#23147b"/>
        <path id="Trazado_98750" data-name="Trazado 98750" d="M193.9,354.266h-6.461a.941.941,0,1,0,0,1.882H193.9a.941.941,0,1,0,0-1.882Z" transform="translate(-163.103 -316.627)" fill="#23147b"/>
        <path id="Trazado_98751" data-name="Trazado 98751" d="M55.591,356.148h13.53a.941.941,0,1,0,0-1.882H55.591a.941.941,0,1,0,0,1.882Z" transform="translate(-47.794 -316.627)" fill="#23147b"/>
        <path id="Trazado_98752" data-name="Trazado 98752" d="M55.591,391.1h23a.941.941,0,1,0,0-1.882h-23a.941.941,0,1,0,0,1.882Z" transform="translate(-47.794 -347.199)" fill="#23147b"/>
        <path id="Trazado_98753" data-name="Trazado 98753" d="M209.939,151.7a.941.941,0,0,0-1.158.655,7.079,7.079,0,1,1-.027-3.875.941.941,0,0,0,1.806-.529,8.961,8.961,0,1,0,.034,4.907A.941.941,0,0,0,209.939,151.7Z" transform="translate(-168.787 -130.553)" fill="#23147b"/>
        <path id="Trazado_98754" data-name="Trazado 98754" d="M242.865,182.229a.941.941,0,0,0,0-1.882h-5.026a.941.941,0,0,0,0,1.882Z" transform="translate(-207.178 -164.527)" fill="#23147b"/>
        <path id="Trazado_98755" data-name="Trazado 98755" d="M235.4,206.371a.941.941,0,0,0-.941-.941h-7.841a.941.941,0,1,0,0,1.882h7.841A.941.941,0,0,0,235.4,206.371Z" transform="translate(-197.368 -186.463)" fill="#23147b"/>
        <path id="Trazado_98756" data-name="Trazado 98756" d="M244.25,230.514a.941.941,0,1,0,0,1.882h3.418a.941.941,0,1,0,0-1.882Z" transform="translate(-212.785 -208.4)" fill="#23147b"/>
      </g>
    </g>
    <g id="flecha-correcta_1_5" data-name="flecha-correcta (1)" transform="translate(9855.327 2321.956) rotate(90)">
      <g id="Grupo_53403-5" data-name="Grupo 53403" transform="translate(0.739 92.39)">
        <path id="Trazado_98796-5" data-name="Trazado 98796" d="M38.13,130.056a4.268,4.268,0,0,1-4.268-4.268v-1.176H11.949A4.449,4.449,0,0,1,7.5,120.163V109.044a4.449,4.449,0,0,1,4.449-4.449H33.862v-1.178a4.265,4.265,0,0,1,6.921-3.339l14.07,11.186a4.266,4.266,0,0,1,0,6.678l-14.07,11.186a4.28,4.28,0,0,1-2.652.928Z" transform="translate(-7.5 -99.151)" fill="#f5f5f5"/>
      </g>
      <g id="Grupo_53404-5" data-name="Grupo 53404" transform="translate(4.516 96.167)">
        <path id="Trazado_98797-5" data-name="Trazado 98797" d="M87.064,148.781,72.994,137.6a.489.489,0,0,0-.793.383v4.466a.489.489,0,0,1-.489.489H47.2a1.358,1.358,0,0,0-1.358,1.358v9.746a1.358,1.358,0,0,0,1.358,1.358H71.712a.489.489,0,0,1,.489.489v4.466a.489.489,0,0,0,.793.383l14.07-11.186A.489.489,0,0,0,87.064,148.781Z" transform="translate(-45.839 -137.488)" fill="#ffea99"/>
      </g>
      <g id="Grupo_53405-5" data-name="Grupo 53405" transform="translate(29.886 92.39)">
        <path id="Trazado_98798-5" data-name="Trazado 98798" d="M321.557,111.264l-14.07-11.185a4.259,4.259,0,0,0-4.135-.662,4.274,4.274,0,0,1,1.179.662l14.07,11.186a4.266,4.266,0,0,1,0,6.678l-14.07,11.186a4.274,4.274,0,0,1-1.18.662,4.26,4.26,0,0,0,1.483.265h0a4.28,4.28,0,0,0,2.652-.928l14.07-11.186a4.266,4.266,0,0,0,0-6.679Z" transform="translate(-303.352 -99.151)" fill="#ebe5ed"/>
      </g>
      <g id="Grupo_53406-5" data-name="Grupo 53406" transform="translate(30.878 96.167)">
        <path id="Trazado_98799-5" data-name="Trazado 98799" d="M328.284,148.781,314.214,137.6a.489.489,0,0,0-.793.383v1.336l11.908,9.467a.489.489,0,0,1,0,.766l-11.908,9.467v1.336a.489.489,0,0,0,.793.383l14.07-11.186A.489.489,0,0,0,328.284,148.781Z" transform="translate(-313.421 -137.488)" fill="#e4e0ff"/>
      </g>
      <g id="Grupo_53407-5" data-name="Grupo 53407" transform="translate(0 91.651)">
        <path id="Trazado_98800-5" data-name="Trazado 98800" d="M31.369,124.034a5.013,5.013,0,0,1-5.007-5.007v-.438H20.5a.739.739,0,1,1,0-1.478h6.6a.739.739,0,0,1,.739.739v1.176a3.526,3.526,0,0,0,5.722,2.762L47.632,110.6a3.527,3.527,0,0,0,0-5.522L33.562,93.9a3.526,3.526,0,0,0-5.722,2.761v1.178a.739.739,0,0,1-.739.739H5.187a3.714,3.714,0,0,0-3.71,3.71V113.4a3.714,3.714,0,0,0,3.71,3.71H17.541a.739.739,0,0,1,0,1.478H5.187A5.193,5.193,0,0,1,0,113.4V102.283A5.193,5.193,0,0,1,5.187,97.1H26.362v-.439a5,5,0,0,1,8.12-3.918l14.07,11.186a5,5,0,0,1,0,7.835l-14.07,11.186a5.021,5.021,0,0,1-3.112,1.088Z" transform="translate(0 -91.651)" fill="#23147b"/>
      </g>
      <g id="Grupo_53408-5" data-name="Grupo 53408" transform="translate(3.777 95.427)">
        <path id="Trazado_98801-5" data-name="Trazado 98801" d="M65.93,154.812a1.232,1.232,0,0,1-.536-.124,1.219,1.219,0,0,1-.694-1.106v-4.216H40.435a2.1,2.1,0,0,1-2.1-2.1v-9.746a2.1,2.1,0,0,1,2.1-2.1h5.091a.739.739,0,0,1,0,1.478H40.435a.62.62,0,0,0-.619.619v9.746a.62.62,0,0,0,.619.619H64.95a1.229,1.229,0,0,1,1.228,1.228v3.948L79.6,142.4,66.178,131.729v3.948A1.229,1.229,0,0,1,64.95,136.9H48.481a.739.739,0,0,1,0-1.478H64.7v-4.216a1.228,1.228,0,0,1,1.992-.961l14.07,11.185a1.228,1.228,0,0,1,0,1.922l-14.07,11.186A1.222,1.222,0,0,1,65.93,154.812Z" transform="translate(-38.338 -129.982)" fill="#23147b"/>
      </g>
    </g>
    <text id="La_resolución_de_las_reclamaciones_que_se_presenten" data-name="La resolución de las
reclamaciones que se presenten" transform="translate(9748 2821)" fill="#23147b" font-size="20" font-family="Roboto-Medium, Roboto" font-weight="500"><tspan x="-89.316" y="0">La resolución de las</tspan><tspan x="-145.215" y="27">reclamaciones que se presenten</tspan></text>
    <rect id="Rectángulo_5102" data-name="Rectángulo 5102" width="521" height="52" rx="6" transform="translate(9484 2866)" fill="#7c319d"/>
    <text id="Ambas_entidades" data-name="Ambas entidades" transform="translate(9677 2897)" fill="#fff" font-size="18" font-family="Roboto-Bold, Roboto" font-weight="700"><tspan x="0" y="0">Ambas entidades</tspan></text>
    <g id="flecha-correcta_1_6" data-name="flecha-correcta (1)" transform="translate(9855.034 2664.325) rotate(90)">
      <g id="Grupo_53403-6" data-name="Grupo 53403" transform="translate(0.739 92.39)">
        <path id="Trazado_98796-6" data-name="Trazado 98796" d="M38.13,130.056a4.268,4.268,0,0,1-4.268-4.268v-1.176H11.949A4.449,4.449,0,0,1,7.5,120.163V109.044a4.449,4.449,0,0,1,4.449-4.449H33.862v-1.178a4.265,4.265,0,0,1,6.921-3.339l14.07,11.186a4.266,4.266,0,0,1,0,6.678l-14.07,11.186a4.28,4.28,0,0,1-2.652.928Z" transform="translate(-7.5 -99.151)" fill="#f5f5f5"/>
      </g>
      <g id="Grupo_53404-6" data-name="Grupo 53404" transform="translate(4.516 96.167)">
        <path id="Trazado_98797-6" data-name="Trazado 98797" d="M87.064,148.781,72.994,137.6a.489.489,0,0,0-.793.383v4.466a.489.489,0,0,1-.489.489H47.2a1.358,1.358,0,0,0-1.358,1.358v9.746a1.358,1.358,0,0,0,1.358,1.358H71.712a.489.489,0,0,1,.489.489v4.466a.489.489,0,0,0,.793.383l14.07-11.186A.489.489,0,0,0,87.064,148.781Z" transform="translate(-45.839 -137.488)" fill="#ffea99"/>
      </g>
      <g id="Grupo_53405-6" data-name="Grupo 53405" transform="translate(29.886 92.39)">
        <path id="Trazado_98798-6" data-name="Trazado 98798" d="M321.557,111.264l-14.07-11.185a4.259,4.259,0,0,0-4.135-.662,4.274,4.274,0,0,1,1.179.662l14.07,11.186a4.266,4.266,0,0,1,0,6.678l-14.07,11.186a4.274,4.274,0,0,1-1.18.662,4.26,4.26,0,0,0,1.483.265h0a4.28,4.28,0,0,0,2.652-.928l14.07-11.186a4.266,4.266,0,0,0,0-6.679Z" transform="translate(-303.352 -99.151)" fill="#ebe5ed"/>
      </g>
      <g id="Grupo_53406-6" data-name="Grupo 53406" transform="translate(30.878 96.167)">
        <path id="Trazado_98799-6" data-name="Trazado 98799" d="M328.284,148.781,314.214,137.6a.489.489,0,0,0-.793.383v1.336l11.908,9.467a.489.489,0,0,1,0,.766l-11.908,9.467v1.336a.489.489,0,0,0,.793.383l14.07-11.186A.489.489,0,0,0,328.284,148.781Z" transform="translate(-313.421 -137.488)" fill="#e4e0ff"/>
      </g>
      <g id="Grupo_53407-6" data-name="Grupo 53407" transform="translate(0 91.651)">
        <path id="Trazado_98800-6" data-name="Trazado 98800" d="M31.369,124.034a5.013,5.013,0,0,1-5.007-5.007v-.438H20.5a.739.739,0,1,1,0-1.478h6.6a.739.739,0,0,1,.739.739v1.176a3.526,3.526,0,0,0,5.722,2.762L47.632,110.6a3.527,3.527,0,0,0,0-5.522L33.562,93.9a3.526,3.526,0,0,0-5.722,2.761v1.178a.739.739,0,0,1-.739.739H5.187a3.714,3.714,0,0,0-3.71,3.71V113.4a3.714,3.714,0,0,0,3.71,3.71H17.541a.739.739,0,0,1,0,1.478H5.187A5.193,5.193,0,0,1,0,113.4V102.283A5.193,5.193,0,0,1,5.187,97.1H26.362v-.439a5,5,0,0,1,8.12-3.918l14.07,11.186a5,5,0,0,1,0,7.835l-14.07,11.186a5.021,5.021,0,0,1-3.112,1.088Z" transform="translate(0 -91.651)" fill="#23147b"/>
      </g>
      <g id="Grupo_53408-6" data-name="Grupo 53408" transform="translate(3.777 95.427)">
        <path id="Trazado_98801-6" data-name="Trazado 98801" d="M65.93,154.812a1.232,1.232,0,0,1-.536-.124,1.219,1.219,0,0,1-.694-1.106v-4.216H40.435a2.1,2.1,0,0,1-2.1-2.1v-9.746a2.1,2.1,0,0,1,2.1-2.1h5.091a.739.739,0,0,1,0,1.478H40.435a.62.62,0,0,0-.619.619v9.746a.62.62,0,0,0,.619.619H64.95a1.229,1.229,0,0,1,1.228,1.228v3.948L79.6,142.4,66.178,131.729v3.948A1.229,1.229,0,0,1,64.95,136.9H48.481a.739.739,0,0,1,0-1.478H64.7v-4.216a1.228,1.228,0,0,1,1.992-.961l14.07,11.185a1.228,1.228,0,0,1,0,1.922l-14.07,11.186A1.222,1.222,0,0,1,65.93,154.812Z" transform="translate(-38.338 -129.982)" fill="#23147b"/>
      </g>
    </g>
    <g id="charla" transform="translate(9715.467 2712.252)">
      <g id="Grupo_53456" data-name="Grupo 53456" transform="translate(27.322 35.582)">
        <path id="Trazado_98887" data-name="Trazado 98887" d="M236.814,174.526a17.833,17.833,0,0,1,8.215,33.588.705.705,0,0,0-.374.623v4.306a.708.708,0,0,1-1.166.539l-3.975-3.379a.712.712,0,0,0-.553-.162,17.832,17.832,0,1,1-2.147-35.517Z" transform="translate(-218.843 -174.526)" fill="#d9b1ee"/>
      </g>
      <g id="Grupo_53457" data-name="Grupo 53457" transform="translate(49.572 36.139)">
        <path id="Trazado_98888" data-name="Trazado 98888" d="M410.469,196.29a17.829,17.829,0,0,1-9.478,15.731.7.7,0,0,0-.373.623v4.307a.708.708,0,0,1-1.167.538l-1.919-1.63a.061.061,0,0,0,0-.015v-4.307a.706.706,0,0,1,.373-.623,17.826,17.826,0,0,0-.852-31.925A17.9,17.9,0,0,1,410.469,196.29Z" transform="translate(-397.055 -178.989)" fill="#cb97e7"/>
      </g>
      <g id="Grupo_53458" data-name="Grupo 53458" transform="translate(0.937 16.697)">
        <path id="Trazado_98889" data-name="Trazado 98889" d="M25.2,23.264a17.833,17.833,0,0,0-8.215,33.588.705.705,0,0,1,.374.623v4.306a.708.708,0,0,0,1.166.539L22.5,58.943a.712.712,0,0,1,.553-.162A17.832,17.832,0,1,0,25.2,23.264Z" transform="translate(-7.503 -23.264)" fill="#f3f9ff"/>
      </g>
      <g id="Grupo_53460" data-name="Grupo 53460" transform="translate(0 15.76)">
        <path id="Trazado_98891" data-name="Trazado 98891" d="M308.618,253.041H290.342a.937.937,0,1,0,0,1.874h18.276a.937.937,0,0,0,0-1.874Z" transform="translate(-253.273 -223.417)" fill="#23147b"/>
        <path id="Trazado_98892" data-name="Trazado 98892" d="M413.949,290.424H410.7a.937.937,0,0,0,0,1.873h3.25a.937.937,0,1,0,0-1.873Z" transform="translate(-358.604 -256.132)" fill="#23147b"/>
        <path id="Trazado_98893" data-name="Trazado 98893" d="M273.478,292.3h12.774a.937.937,0,1,0,0-1.874H273.478a.937.937,0,1,0,0,1.874Z" transform="translate(-238.514 -256.133)" fill="#23147b"/>
        <path id="Trazado_98894" data-name="Trazado 98894" d="M293.859,327.807H273.478a.937.937,0,1,0,0,1.873h20.382a.937.937,0,1,0,0-1.873Z" transform="translate(-238.514 -288.848)" fill="#23147b"/>
        <path id="Trazado_98895" data-name="Trazado 98895" d="M365.294,365.19H355.1a.937.937,0,1,0,0,1.873h10.191a.937.937,0,1,0,0-1.873Z" transform="translate(-309.949 -321.564)" fill="#23147b"/>
        <path id="Trazado_98896" data-name="Trazado 98896" d="M273.478,365.19a.937.937,0,1,0,0,1.873h5.839a.937.937,0,0,0,0-1.873Z" transform="translate(-238.514 -321.564)" fill="#23147b"/>
        <path id="Trazado_98897" data-name="Trazado 98897" d="M63.03,47.7a.937.937,0,0,0-1.784.574,16.885,16.885,0,0,1-8.178,20.066,1.639,1.639,0,0,0-.871,1.451v3.811l-3.6-3.058a1.655,1.655,0,0,0-1.279-.377,17.093,17.093,0,0,1-2.166.139A16.906,16.906,0,0,1,28.5,50.574a18.829,18.829,0,0,0,8.6-12.018,16.8,16.8,0,0,1,8.052-2.037h.133A16.845,16.845,0,0,1,59.49,44.5a.937.937,0,1,0,1.589-.993,18.774,18.774,0,0,0-23.625-7.221c.054-.579.083-1.165.083-1.759A18.769,18.769,0,0,0,18.77,15.76h-.147A18.749,18.749,0,0,0,4.384,22.5a.937.937,0,1,0,1.436,1.2,16.877,16.877,0,0,1,12.816-6.071h.132a16.895,16.895,0,0,1,0,33.79,17.08,17.08,0,0,1-2.167-.139,1.654,1.654,0,0,0-1.279.377l-3.6,3.058V50.909a1.639,1.639,0,0,0-.871-1.451,16.878,16.878,0,0,1-8.981-14.9A16.645,16.645,0,0,1,3.6,27.109a.937.937,0,1,0-1.681-.828A18.505,18.505,0,0,0,0,34.556a18.746,18.746,0,0,0,9.852,16.49v4.169a1.629,1.629,0,0,0,.954,1.493,1.654,1.654,0,0,0,.695.155,1.633,1.633,0,0,0,1.06-.394l3.9-3.313a18.987,18.987,0,0,0,2.309.142,18.661,18.661,0,0,0,7.7-1.653q-.081.877-.083,1.769A18.79,18.79,0,0,0,45.154,72.182a18.99,18.99,0,0,0,2.309-.142l3.9,3.313a1.632,1.632,0,0,0,1.06.394,1.654,1.654,0,0,0,.7-.155,1.629,1.629,0,0,0,.954-1.493V69.932A18.758,18.758,0,0,0,63.03,47.7Z" transform="translate(0 -15.76)" fill="#23147b"/>
        <path id="Trazado_98898" data-name="Trazado 98898" d="M137.92,222.475a1.549,1.549,0,1,0,1.549-1.549A1.549,1.549,0,0,0,137.92,222.475Z" transform="translate(-120.701 -195.311)" fill="#23147b"/>
        <path id="Trazado_98899" data-name="Trazado 98899" d="M112.524,87.084a5.725,5.725,0,1,0-7.993-6.03,5.813,5.813,0,0,0-.055.8.937.937,0,0,0,1.873,0,3.945,3.945,0,0,1,.037-.538,3.852,3.852,0,1,1,5.376,4.06,4.177,4.177,0,0,0-2.5,3.8v1.807a.937.937,0,0,0,1.874,0V89.172A2.3,2.3,0,0,1,112.524,87.084Z" transform="translate(-91.432 -68.59)" fill="#23147b"/>
      </g>
    </g>
  </g>
</svg>
