<svg xmlns="http://www.w3.org/2000/svg" width="78" height="78" viewBox="0 0 78 78">
  <g id="Grupo_53476" data-name="Grupo 53476" transform="translate(-273 -3975)">
    <circle id="Elipse_44" data-name="Elipse 44" cx="39" cy="39" r="39" transform="translate(273 3975)" fill="#e4e0ff"/>
    <g id="instrucciones" transform="translate(277 3989)">
      <path id="Trazado_98906" data-name="Trazado 98906" d="M104.032,139.813h3.825a1.894,1.894,0,0,0,1.894-1.889v-3.816a1.894,1.894,0,0,0-1.894-1.889h-3.825a1.893,1.893,0,0,0-1.891,1.889v3.816A1.893,1.893,0,0,0,104.032,139.813Zm.072-5.63h3.683v3.667H104.1Z" transform="translate(-82.191 -119.235)" fill="#5d4cbc"/>
      <path id="Trazado_98907" data-name="Trazado 98907" d="M55.946,27.444a3.288,3.288,0,0,0-1.373.3,3.028,3.028,0,0,0-2.021-2.006V4.633A4.643,4.643,0,0,0,47.91,0H15.642A4.643,4.643,0,0,0,11,4.633V7.247a2.23,2.23,0,0,0,2.229,2.226h.957V46.354a2.23,2.23,0,0,0,2.229,2.226H42.4a10.087,10.087,0,0,0,5.511,1.7,9.7,9.7,0,0,0,3.19-.547,11.364,11.364,0,0,0,5.739-4.659,15.226,15.226,0,0,0,2.273-8.345V30.734a3.126,3.126,0,0,0-3.171-3.291Zm-39.8,18.91V9.473h9a.982.982,0,1,0,0-1.964H13.229a.267.267,0,0,1-.265-.262V4.633a2.677,2.677,0,0,1,2.678-2.67H44.118a4.6,4.6,0,0,0-.85,2.67V7.247A.267.267,0,0,1,43,7.509H33.986a.982.982,0,1,0,0,1.964H43a2.23,2.23,0,0,0,2.229-2.226V4.633a2.678,2.678,0,0,1,5.357,0v21.1a3.218,3.218,0,0,0-.389.148,3.093,3.093,0,0,0-3-2.157,3.294,3.294,0,0,0-1.205.228V18.427a3.171,3.171,0,1,0-6.338,0V32.616c0,.447.008.854.015,1.214,0,.039,0,.078,0,.117L37.387,31.5a3.273,3.273,0,0,0-4.675-.355,3.98,3.98,0,0,0-.483,5.553l6.816,8.748q.486.624,1.009,1.17H16.415A.267.267,0,0,1,16.15,46.354Zm41-9.621c.031,5.348-2.6,9.722-6.692,11.143-3.466,1.2-7.154-.157-9.866-3.637l-6.816-8.748a2.042,2.042,0,0,1,.209-2.852,1.4,1.4,0,0,1,.881-.354,1.485,1.485,0,0,1,1.084.556L38.343,35.4c.675.723,1.514,1.623,2.445,1.245a1.555,1.555,0,0,0,.833-1.414c.031-.379.022-.849.01-1.444-.007-.35-.015-.747-.015-1.175V18.427a1.211,1.211,0,1,1,2.41,0V32.485a.982.982,0,0,0,1.964,0V27.019A1.179,1.179,0,0,1,47.2,25.692a1.221,1.221,0,0,1,.832.311,1.331,1.331,0,0,1,.374,1.016v5.466a.982.982,0,0,0,1.964,0V28.878a1.179,1.179,0,0,1,1.2-1.328,1.223,1.223,0,0,1,.832.312,1.332,1.332,0,0,1,.374,1.016v3.607a.982.982,0,0,0,1.964,0V30.734a1.18,1.18,0,0,1,1.207-1.327,1.223,1.223,0,0,1,.833.311,1.33,1.33,0,0,1,.374,1.015v6Z" fill="#5d4cbc"/>
      <path id="Trazado_98908" data-name="Trazado 98908" d="M201.721,133.2a.982.982,0,0,0,.982.982h7.859a.982.982,0,1,0,0-1.964H202.7A.982.982,0,0,0,201.721,133.2Z" transform="translate(-171.992 -119.235)" fill="#5d4cbc"/>
      <path id="Trazado_98909" data-name="Trazado 98909" d="M208.894,189.557H202.7a.982.982,0,1,0,0,1.964h6.191a.982.982,0,1,0,0-1.964Z" transform="translate(-171.993 -170.943)" fill="#5d4cbc"/>
      <path id="Trazado_98910" data-name="Trazado 98910" d="M103.123,248.886h15a.982.982,0,1,0,0-1.964h-15a.982.982,0,1,0,0,1.964Z" transform="translate(-82.191 -222.675)" fill="#5d4cbc"/>
      <path id="Trazado_98911" data-name="Trazado 98911" d="M103.123,306.224h8.091a.982.982,0,1,0,0-1.964h-8.091a.982.982,0,1,0,0,1.964Z" transform="translate(-82.191 -274.382)" fill="#5d4cbc"/>
      <path id="Trazado_98912" data-name="Trazado 98912" d="M103.123,363.59h7.125a.982.982,0,1,0,0-1.964h-7.125a.982.982,0,1,0,0,1.964Z" transform="translate(-82.191 -326.115)" fill="#5d4cbc"/>
      <path id="Trazado_98913" data-name="Trazado 98913" d="M113.577,418.964H103.123a.982.982,0,1,0,0,1.964h10.454a.982.982,0,1,0,0-1.964Z" transform="translate(-82.191 -377.822)" fill="#5d4cbc"/>
      <path id="Trazado_98914" data-name="Trazado 98914" d="M191.055,78.433h.006a.985.985,0,1,0-.006,0Z" transform="translate(-161.488 -68.96)" fill="#5d4cbc"/>
    </g>
  </g>
</svg>
