<svg xmlns="http://www.w3.org/2000/svg" width="78" height="78" viewBox="0 0 78 78">
  <g id="Grupo_53475" data-name="Grupo 53475" transform="translate(-1002 -3975)">
    <circle id="Elipse_46" data-name="Elipse 46" cx="39" cy="39" r="39" transform="translate(1002 3975)" fill="#e4e0ff"/>
    <g id="configuraciones_1_" data-name="configuraciones (1)" transform="translate(1020 3993)">
      <path id="Trazado_98927" data-name="Trazado 98927" d="M22.651,42.626H19.975A3.929,3.929,0,0,1,16.051,38.7V37.8a17.208,17.208,0,0,1-2.672-1.109l-.641.641a3.924,3.924,0,0,1-5.55,0L5.3,35.438a3.924,3.924,0,0,1,0-5.55l.641-.641a17.21,17.21,0,0,1-1.109-2.672h-.9A3.929,3.929,0,0,1,0,22.651V19.975a3.929,3.929,0,0,1,3.924-3.924h.9a17.213,17.213,0,0,1,1.109-2.672L5.3,12.738a3.924,3.924,0,0,1,0-5.55L7.188,5.3a3.924,3.924,0,0,1,5.55,0l.641.641a17.225,17.225,0,0,1,2.672-1.109v-.9A3.928,3.928,0,0,1,19.975,0h2.675a3.928,3.928,0,0,1,3.924,3.924v.905a17.208,17.208,0,0,1,2.672,1.109l.641-.641a3.924,3.924,0,0,1,5.55,0l1.891,1.891a3.924,3.924,0,0,1,0,5.55l-.641.641A17.209,17.209,0,0,1,37.8,16.051h.9a3.929,3.929,0,0,1,3.924,3.924v2.675A3.929,3.929,0,0,1,38.7,26.575h-.9a17.213,17.213,0,0,1-1.109,2.672l.641.641a3.924,3.924,0,0,1,0,5.55l-1.891,1.891a3.924,3.924,0,0,1-5.55,0l-.641-.641A17.224,17.224,0,0,1,26.575,37.8V38.7A3.928,3.928,0,0,1,22.651,42.626ZM13.8,34.065a14.72,14.72,0,0,0,3.816,1.584,1.249,1.249,0,0,1,.937,1.209V38.7a1.428,1.428,0,0,0,1.426,1.426h2.675A1.428,1.428,0,0,0,24.077,38.7V36.858a1.249,1.249,0,0,1,.937-1.209,14.72,14.72,0,0,0,3.816-1.584,1.249,1.249,0,0,1,1.519.192l1.306,1.306a1.426,1.426,0,0,0,2.017,0l1.892-1.892a1.426,1.426,0,0,0,0-2.017l-1.307-1.307a1.249,1.249,0,0,1-.192-1.519,14.718,14.718,0,0,0,1.584-3.816,1.249,1.249,0,0,1,1.209-.937H38.7a1.428,1.428,0,0,0,1.426-1.426V19.975A1.428,1.428,0,0,0,38.7,18.549H36.858a1.249,1.249,0,0,1-1.209-.937A14.72,14.72,0,0,0,34.065,13.8a1.249,1.249,0,0,1,.192-1.519l1.306-1.306a1.426,1.426,0,0,0,0-2.017L33.672,7.063a1.426,1.426,0,0,0-2.017,0L30.348,8.369a1.249,1.249,0,0,1-1.519.192,14.72,14.72,0,0,0-3.816-1.584,1.249,1.249,0,0,1-.937-1.209V3.924A1.428,1.428,0,0,0,22.651,2.5H19.976a1.428,1.428,0,0,0-1.426,1.426V5.768a1.249,1.249,0,0,1-.937,1.209A14.72,14.72,0,0,0,13.8,8.561a1.249,1.249,0,0,1-1.519-.192L10.972,7.063a1.426,1.426,0,0,0-2.017,0L7.063,8.954a1.426,1.426,0,0,0,0,2.017l1.307,1.307A1.249,1.249,0,0,1,8.561,13.8a14.718,14.718,0,0,0-1.584,3.816,1.249,1.249,0,0,1-1.209.937H3.924A1.428,1.428,0,0,0,2.5,19.975v2.675a1.428,1.428,0,0,0,1.426,1.426H5.768a1.249,1.249,0,0,1,1.209.937,14.721,14.721,0,0,0,1.584,3.816,1.249,1.249,0,0,1-.192,1.519L7.063,31.654a1.426,1.426,0,0,0,0,2.017l1.892,1.892a1.426,1.426,0,0,0,2.017,0l1.307-1.307a1.255,1.255,0,0,1,1.519-.192Z" fill="#5d4cbc"/>
      <path id="Trazado_98928" data-name="Trazado 98928" d="M153.874,163.149a9.274,9.274,0,1,1,9.274-9.274A9.285,9.285,0,0,1,153.874,163.149Zm0-16.051a6.777,6.777,0,1,0,6.777,6.777A6.784,6.784,0,0,0,153.874,147.1Z" transform="translate(-132.561 -132.561)" fill="#5d4cbc"/>
    </g>
  </g>
</svg>
