<svg xmlns="http://www.w3.org/2000/svg" xmlns:xlink="http://www.w3.org/1999/xlink" width="299.874" height="290.778" viewBox="0 0 299.874 290.778">
  <defs>
    <linearGradient id="linear-gradient" x1="1.056" y1="1.696" x2="0.086" y2="2.323" gradientUnits="objectBoundingBox">
      <stop offset="0.004" stop-color="#26264f"/>
      <stop offset="1" stop-color="#444b8c"/>
    </linearGradient>
    <linearGradient id="linear-gradient-2" x1="0.286" y1="2.308" x2="0.859" y2="1.814" gradientUnits="objectBoundingBox">
      <stop offset="0" stop-color="#444b8c"/>
      <stop offset="0.996" stop-color="#26264f"/>
    </linearGradient>
    <linearGradient id="linear-gradient-3" x1="0.252" y1="0.202" x2="0.8" y2="0.86" gradientUnits="objectBoundingBox">
      <stop offset="0" stop-color="#ff9085"/>
      <stop offset="1" stop-color="#fb6fbb"/>
    </linearGradient>
  </defs>
  <g id="Grupo_53508" data-name="Grupo 53508" transform="translate(-823.563 -5440.082)">
    <g id="Grupo_53500" data-name="Grupo 53500" transform="translate(0 1267.743)">
      <g id="Grupo_53485" data-name="Grupo 53485">
        <path id="Trazado_98930" data-name="Trazado 98930" d="M129.606,1.788c71.579,0,129.606-17.376,129.606,56.2S201.185,191.205,129.606,191.205,0,131.562,0,57.987,58.026,1.788,129.606,1.788Z" transform="matrix(0.105, 0.995, -0.995, 0.105, 1013.721, 4172.339)" fill="#f3f9ff"/>
        <ellipse id="Elipse_11" data-name="Elipse 11" cx="110.224" cy="110.224" rx="110.224" ry="110.224" transform="translate(850.651 4224.023)" fill="#d2e1f1"/>
        <g id="Grupo_53484" data-name="Grupo 53484" transform="translate(384.859 3743.269)">
          <g id="Grupo_53478" data-name="Grupo 53478" transform="translate(535.711 478.153)">
            <g id="Grupo_53477" data-name="Grupo 53477" transform="translate(0)">
              <path id="Trazado_98932" data-name="Trazado 98932" d="M1028.058,906.824c0,4.4-3.12,8.156-6.966,8.38L872.71,923.865c-4.407.257-8-3.38-8-8.109V702.9c0-4.729,3.6-8.43,8-8.252l148.382,6.013c3.847.156,6.966,3.859,6.966,8.256Z" transform="translate(-864.706 -694.645)" fill="url(#linear-gradient)"/>
              <path id="Trazado_98934" data-name="Trazado 98934" d="M948.44,740.271V952.783a4.143,4.143,0,0,0,4.271,4.334l117.354-6.648,31.028-1.758a4.311,4.311,0,0,0,3.729-4.479v-198.2a4.218,4.218,0,0,0-3.729-4.413l-32.148-1.248L952.712,735.86A4.232,4.232,0,0,0,948.44,740.271Z" transform="translate(-940.35 -731.876)" fill="url(#linear-gradient-2)"/>
              <path id="Trazado_98935" data-name="Trazado 98935" d="M1124.828,961.082a1.682,1.682,0,0,1-1.567,1.67l-148.607,7.6a1.647,1.647,0,0,1-1.792-1.61V766.29a1.674,1.674,0,0,1,1.792-1.634l148.607,5.589a1.655,1.655,0,0,1,1.567,1.649Z" transform="translate(-962.413 -757.89)" fill="#d8dee8"/>
              <path id="Trazado_98937" data-name="Trazado 98937" d="M1773.065,753.486a1.418,1.418,0,0,1-1.544,1.356,1.557,1.557,0,0,1-1.547-1.476,1.418,1.418,0,0,1,1.547-1.356A1.557,1.557,0,0,1,1773.065,753.486Z" transform="translate(-1682.515 -746.467)" fill="url(#linear-gradient-3)"/>
            </g>
          </g>
          <g id="Grupo_53480" data-name="Grupo 53480" transform="translate(553.988 471.358)">
            <path id="Trazado_98946" data-name="Trazado 98946" d="M1235.929,627.485V816.178l-53.312,3.935-80.14,5.911.68-201.711,49.5,1.183Z" transform="translate(-1097.783 -624.313)" fill="#ffea99"/>
            <path id="Trazado_98947" data-name="Trazado 98947" d="M1256.332,754.1l-60.464-.628.053-16.807,60.438,1.119Z" transform="translate(-1182.151 -725.807)" fill="#fde27a" opacity="0.6" style="mix-blend-mode: multiply;isolation: isolate"/>
            <path id="Trazado_98948" data-name="Trazado 98948" d="M1391.156,1175.963l-19.405.208.058-21.2,19.394,0Z" transform="translate(-1341.042 -1103.705)" fill="#fde27a" style="mix-blend-mode: multiply;isolation: isolate"/>
            <path id="Trazado_98949" data-name="Trazado 98949" d="M1705.234,1164.19l-68.244.415.022-10.464,68.225-.059Z" transform="translate(-1580.657 -1102.9)" fill="#f5d765"/>
            <path id="Trazado_98950" data-name="Trazado 98950" d="M1389.971,1614.041l-19.427.635.058-21.245,19.417-.423Z" transform="translate(-1339.952 -1499.422)" fill="#fde27a" style="mix-blend-mode: multiply;isolation: isolate"/>
            <path id="Trazado_98951" data-name="Trazado 98951" d="M1704.4,1586.22l-68.317,1.853.022-10.487,68.3-1.5Z" transform="translate(-1579.837 -1484.138)" fill="#f5d765"/>
            <path id="Trazado_98952" data-name="Trazado 98952" d="M1388.783,2053.038l-19.449,1.063.058-21.291,19.438-.85Z" transform="translate(-1338.858 -1895.965)" fill="#fde27a" style="mix-blend-mode: multiply;isolation: isolate"/>
            <path id="Trazado_98953" data-name="Trazado 98953" d="M1703.564,2009.124l-68.391,3.3.022-10.509,68.373-2.939Z" transform="translate(-1579.015 -1866.166)" fill="#f5d765"/>
          </g>
          <g id="Grupo_53483" data-name="Grupo 53483" transform="translate(650.572 603.373)">
            <path id="Trazado_98954" data-name="Trazado 98954" d="M2101.788,2009.633v106.348l74.774-4.842a2.973,2.973,0,0,0,3.015-2.717v-94.915a3,3,0,0,0-3.149-2.723Z" transform="translate(-2097.134 -2007.811)" fill="#d3a7e6"/>
            <path id="Rectángulo_5090" data-name="Rectángulo 5090" d="M0,0H5.421A3.135,3.135,0,0,1,8.556,3.135V16.991a3.135,3.135,0,0,1-3.135,3.135H0a0,0,0,0,1,0,0V0A0,0,0,0,1,0,0Z" transform="translate(79.449 8.801)" fill="#d3a7e6"/>
            <path id="Trazado_98956" data-name="Trazado 98956" d="M2053.617,1995.613v100.658a3.344,3.344,0,0,0,3.143,3.083l60.4,7.874c1.895.206,3.573-1.035,3.573-2.641v-111.15a2.964,2.964,0,0,0-3.25-2.662l-60.279,1.719A3.431,3.431,0,0,0,2053.617,1995.613Z" transform="translate(-2053.617 -1990.775)" fill="#23147b"/>
            <g id="Grupo_53482" data-name="Grupo 53482" transform="translate(17.718 19.276)">
              <g id="Grupo_53481" data-name="Grupo 53481">
                <path id="Trazado_98957" data-name="Trazado 98957" d="M2237.016,2213.5l23.344.835v43.187l5.574.558v1.711l-28.549-2.929v-1.639l5.1.511V2215.35l-5.472-.21Zm14.191-5.91c-3.377-.088-5.76-.98-7.172-2.671a9.328,9.328,0,0,1-2.108-6.191,8.338,8.338,0,0,1,2.3-6.044c1.539-1.593,3.893-2.393,7.081-2.393q4.826,0,7.383,2.21a7.947,7.947,0,0,1,2.563,6.335,8.67,8.67,0,0,1-2.465,6.507C2257.15,2206.935,2254.618,2207.681,2251.207,2207.592Z" transform="translate(-2237.016 -2190.292)" fill="#fff"/>
              </g>
            </g>
          </g>
        </g>
      </g>
    </g>
    <g id="Grupo_53503" data-name="Grupo 53503" transform="translate(506.335 5427.77)">
      <g id="Grupo_53503-2" data-name="Grupo 53503" transform="translate(357.735 114.941)">
        <path id="Trazado_99011" data-name="Trazado 99011" d="M423.37,146.532l-3.525-1.52a2.171,2.171,0,0,1-.527-3.664l2.954-2.452a.1.1,0,0,0,.026-.112l-4.473-9.8a.094.094,0,0,0-.1-.054l-3.787.627a2.182,2.182,0,0,1-2.108-.862,2.146,2.146,0,0,1-.316-1.935l1.159-3.659a.1.1,0,0,0-.039-.108l-9.059-5.822a.1.1,0,0,0-.115.009l-2.847,2.574a2.129,2.129,0,0,1-1.448.562,2.154,2.154,0,0,1-2.1-1.6l-1-3.705a.094.094,0,0,0-.091-.07H385.2a.094.094,0,0,0-.091.07l-1,3.705a2.154,2.154,0,0,1-2.1,1.6,2.129,2.129,0,0,1-1.448-.562l-2.847-2.574a.094.094,0,0,0-.114-.009L368.53,123a.1.1,0,0,0-.039.108l1.159,3.659a2.145,2.145,0,0,1-.316,1.935,2.179,2.179,0,0,1-2.108.862l-3.787-.627a.1.1,0,0,0-.1.054l-4.473,9.8a.1.1,0,0,0,.026.112l2.953,2.452a2.171,2.171,0,0,1-.527,3.664l-3.525,1.52a.1.1,0,0,0-.056.1l1.533,10.659a.1.1,0,0,0,.082.08l3.81.466A2.171,2.171,0,0,1,364.7,161.2l-2.143,3.184a.1.1,0,0,0,.007.115l7.052,8.138a.1.1,0,0,0,.113.023L373.184,171a2.154,2.154,0,0,1,.943-.219,2.195,2.195,0,0,1,1.557.66A2.145,2.145,0,0,1,376.3,173l-.081,3.838a.1.1,0,0,0,.068.093l10.333,3.034a.094.094,0,0,0,.107-.041l2.006-3.272a2.171,2.171,0,0,1,3.7,0l2.007,3.272a.094.094,0,0,0,.081.045.089.089,0,0,0,.027,0l10.333-3.034a.1.1,0,0,0,.068-.093L404.864,173a2.146,2.146,0,0,1,.613-1.56,2.195,2.195,0,0,1,1.557-.66,2.156,2.156,0,0,1,.943.219l3.457,1.668a.1.1,0,0,0,.113-.023L418.6,164.5a.1.1,0,0,0,.007-.115l-2.143-3.184A2.171,2.171,0,0,1,418,157.837l3.81-.466a.1.1,0,0,0,.082-.08l1.533-10.659A.1.1,0,0,0,423.37,146.532ZM390.581,162.98a15.526,15.526,0,1,1,15.526-15.526A15.526,15.526,0,0,1,390.581,162.98Z" transform="translate(-357.735 -114.941)" fill="#feda69"/>
      </g>
      <g id="Grupo_53505" data-name="Grupo 53505" transform="translate(401.294 169.311)">
        <g id="Grupo_53504" data-name="Grupo 53504" transform="translate(0 0)">
          <path id="Trazado_99012" data-name="Trazado 99012" d="M601.306,392.466l-2.084-2.274a1.744,1.744,0,0,1,.819-2.859l2.971-.826a.076.076,0,0,0,.056-.074l-.057-8.652a.076.076,0,0,0-.057-.073l-2.982-.786a1.753,1.753,0,0,1-1.262-1.325,1.724,1.724,0,0,1,.405-1.522l2.053-2.3a.076.076,0,0,0,.007-.092l-4.726-7.247a.076.076,0,0,0-.087-.031l-2.934.951a1.71,1.71,0,0,1-1.246-.064,1.731,1.731,0,0,1-1.014-1.869l.483-3.046a.076.076,0,0,0-.044-.081l-7.894-3.542a.076.076,0,0,0-.09.021l-1.954,2.386a1.731,1.731,0,0,1-2.07.485,1.711,1.711,0,0,1-.877-.888l-1.24-2.824a.076.076,0,0,0-.081-.045l-8.556,1.288a.076.076,0,0,0-.064.067l-.354,3.064a1.725,1.725,0,0,1-.868,1.315,1.75,1.75,0,0,1-1.829-.062l-2.57-1.7a.077.077,0,0,0-.092.006l-6.5,5.709a.076.076,0,0,0-.018.091l1.359,2.769a1.744,1.744,0,0,1-1.591,2.512l-3.084-.045a.076.076,0,0,0-.074.055l-2.382,8.318a.076.076,0,0,0,.034.086l2.64,1.594a1.744,1.744,0,0,1,.02,2.974l-2.618,1.63a.076.076,0,0,0-.033.086l2.493,8.285a.077.077,0,0,0,.075.054l3.083-.086a1.731,1.731,0,0,1,.763.15,1.764,1.764,0,0,1,.925,1,1.725,1.725,0,0,1-.064,1.345l-1.322,2.787a.076.076,0,0,0,.019.09l6.577,5.622a.076.076,0,0,0,.092.005l2.547-1.739a1.744,1.744,0,0,1,2.713,1.217l.395,3.059a.076.076,0,0,0,.044.06.081.081,0,0,0,.021.006l8.572,1.174a.076.076,0,0,0,.08-.046l1.2-2.84a1.724,1.724,0,0,1,.963-.942,1.763,1.763,0,0,1,1.359.028,1.733,1.733,0,0,1,.619.471l1.986,2.36a.076.076,0,0,0,.09.02l7.846-3.647a.076.076,0,0,0,.043-.082l-.524-3.039a1.744,1.744,0,0,1,2.234-1.963l2.946.912a.076.076,0,0,0,.087-.032l4.629-7.309A.076.076,0,0,0,601.306,392.466Zm-29.446,1.273a12.475,12.475,0,1,1,16.488-6.275A12.475,12.475,0,0,1,571.86,393.739Z" transform="translate(-550.774 -355.887)" fill="#9a4cbc"/>
        </g>
      </g>
      <g id="Grupo_53507" data-name="Grupo 53507" transform="translate(365.687 181.11)">
        <g id="Grupo_53506" data-name="Grupo 53506" transform="translate(0 0)">
          <path id="Trazado_99013" data-name="Trazado 99013" d="M425.311,431.584l-1.333-1.455a1.116,1.116,0,0,1,.524-1.83l1.9-.529a.049.049,0,0,0,.036-.047l-.037-5.536a.049.049,0,0,0-.036-.047l-1.908-.5a1.122,1.122,0,0,1-.808-.848,1.1,1.1,0,0,1,.259-.974l1.314-1.472a.049.049,0,0,0,0-.059l-3.024-4.638a.049.049,0,0,0-.056-.02l-1.877.609a1.1,1.1,0,0,1-.8-.041,1.108,1.108,0,0,1-.649-1.2l.309-1.949A.049.049,0,0,0,419.1,411l-5.051-2.266a.049.049,0,0,0-.058.014l-1.25,1.527a1.108,1.108,0,0,1-1.325.31,1.1,1.1,0,0,1-.561-.569l-.794-1.807a.048.048,0,0,0-.052-.028l-5.475.824a.049.049,0,0,0-.041.043l-.226,1.96a1.1,1.1,0,0,1-.555.841,1.121,1.121,0,0,1-1.17-.039l-1.645-1.091a.049.049,0,0,0-.059,0l-4.16,3.653a.049.049,0,0,0-.012.058l.869,1.772a1.116,1.116,0,0,1-1.018,1.608l-1.973-.029a.048.048,0,0,0-.047.035l-1.524,5.323a.048.048,0,0,0,.022.055l1.689,1.02a1.116,1.116,0,0,1,.013,1.9l-1.675,1.043a.049.049,0,0,0-.021.056l1.6,5.3a.049.049,0,0,0,.048.035l1.973-.055a1.107,1.107,0,0,1,.489.1,1.128,1.128,0,0,1,.592.637,1.1,1.1,0,0,1-.041.861l-.846,1.783a.048.048,0,0,0,.012.058l4.208,3.6a.049.049,0,0,0,.059,0l1.63-1.113a1.116,1.116,0,0,1,1.736.779l.253,1.957a.049.049,0,0,0,.028.038l.013,0,5.485.751a.049.049,0,0,0,.051-.029l.77-1.817a1.1,1.1,0,0,1,.616-.6,1.129,1.129,0,0,1,.869.018,1.11,1.11,0,0,1,.4.3l1.271,1.51a.049.049,0,0,0,.058.013l5.021-2.333a.048.048,0,0,0,.027-.052l-.335-1.945a1.116,1.116,0,0,1,1.43-1.256l1.885.583a.049.049,0,0,0,.056-.02l2.962-4.678A.048.048,0,0,0,425.311,431.584Zm-18.842.815a7.982,7.982,0,1,1,10.551-4.016A7.982,7.982,0,0,1,406.469,432.4Z" transform="translate(-392.976 -408.177)" fill="#5d4cbc"/>
        </g>
      </g>
    </g>
    <circle id="Elipse_48" data-name="Elipse 48" cx="13.5" cy="13.5" r="13.5" transform="translate(921 5610)" fill="#fff"/>
    <circle id="Elipse_49" data-name="Elipse 49" cx="16" cy="16" r="16" transform="translate(881 5559)" fill="#fff"/>
  </g>
</svg>
