<svg xmlns="http://www.w3.org/2000/svg" width="133" height="133" viewBox="0 0 133 133">
  <g id="Grupo_53454" data-name="Grupo 53454" transform="translate(-691 -983)">
    <g id="Grupo_53402" data-name="Grupo 53402" transform="translate(691 983)">
      <g id="Elipse_16" data-name="Elipse 16" fill="#d2e1f1" stroke="#9a4cbc" stroke-width="2">
        <circle cx="66.5" cy="66.5" r="66.5" stroke="none"/>
        <circle cx="66.5" cy="66.5" r="65.5" fill="none"/>
      </g>
    </g>
    <g id="metrica" transform="translate(720.838 1012.384)">
      <path id="Trazado_98778" data-name="Trazado 98778" d="M35.322,58.082a2.263,2.263,0,0,1-1.373-4.062L53.725,38.938a2.263,2.263,0,0,1,2.314-.258l18.476,8.455L93.2,31.462A2.263,2.263,0,1,1,96.1,34.929L76.328,51.52a2.262,2.262,0,0,1-2.4.324L55.39,43.359l-18.7,14.26A2.252,2.252,0,0,1,35.322,58.082Zm0,0" transform="translate(-28.324 -26.503)" fill="#f3f9ff"/>
      <path id="Trazado_98779" data-name="Trazado 98779" d="M17.127,304.766H9.718A2.218,2.218,0,0,0,7.5,306.984v19.244a2.218,2.218,0,0,0,2.218,2.218h7.409a2.218,2.218,0,0,0,2.219-2.218V306.984A2.219,2.219,0,0,0,17.127,304.766Zm0,0" transform="translate(-6.426 -261.121)" fill="#a397e3"/>
      <path id="Trazado_98780" data-name="Trazado 98780" d="M155.225,199.445h-7.409a2.218,2.218,0,0,0-2.218,2.219V235.99a2.218,2.218,0,0,0,2.218,2.218h7.409a2.218,2.218,0,0,0,2.218-2.218V201.664A2.218,2.218,0,0,0,155.225,199.445Zm0,0" transform="translate(-124.747 -170.883)" fill="#d3a7e6"/>
      <path id="Trazado_98781" data-name="Trazado 98781" d="M293.318,262.641h-7.409a2.218,2.218,0,0,0-2.218,2.218v25.277a2.218,2.218,0,0,0,2.218,2.218h7.409a2.218,2.218,0,0,0,2.219-2.218V264.859A2.218,2.218,0,0,0,293.318,262.641Zm0,0" transform="translate(-243.064 -225.028)" fill="#ffea99"/>
      <path id="Trazado_98782" data-name="Trazado 98782" d="M431.413,146.785H424A2.219,2.219,0,0,0,421.785,149v41.868A2.218,2.218,0,0,0,424,193.09h7.409a2.218,2.218,0,0,0,2.218-2.218V149A2.218,2.218,0,0,0,431.413,146.785Zm0,0" transform="translate(-361.382 -125.764)" fill="#a397e3"/>
      <path id="Trazado_98783" data-name="Trazado 98783" d="M20.862,171.1a5.618,5.618,0,1,1-5.619-5.618A5.619,5.619,0,0,1,20.862,171.1Zm0,0" transform="translate(-8.247 -141.782)" fill="#f5deff"/>
      <path id="Trazado_98784" data-name="Trazado 98784" d="M18.107,176.728a5.619,5.619,0,0,1-5.138-7.892,5.618,5.618,0,1,0,7.412,7.412A5.6,5.6,0,0,1,18.107,176.728Zm0,0" transform="translate(-8.247 -144.657)" fill="#d3a7e6"/>
      <path id="Trazado_98785" data-name="Trazado 98785" d="M158.959,65.778a5.618,5.618,0,1,1-5.618-5.618A5.618,5.618,0,0,1,158.959,65.778Zm0,0" transform="translate(-126.568 -51.545)" fill="#f5deff"/>
      <path id="Trazado_98786" data-name="Trazado 98786" d="M156.2,71.407a5.618,5.618,0,0,1-5.138-7.892,5.618,5.618,0,1,0,7.411,7.411A5.6,5.6,0,0,1,156.2,71.407Zm0,0" transform="translate(-126.568 -54.42)" fill="#d3a7e6"/>
      <path id="Trazado_98787" data-name="Trazado 98787" d="M297.053,128.97a5.618,5.618,0,1,1-5.619-5.619A5.619,5.619,0,0,1,297.053,128.97Zm0,0" transform="translate(-244.885 -105.687)" fill="#f5deff"/>
      <path id="Trazado_98788" data-name="Trazado 98788" d="M294.3,134.6a5.618,5.618,0,0,1-5.138-7.892,5.618,5.618,0,1,0,7.412,7.411A5.606,5.606,0,0,1,294.3,134.6Zm0,0" transform="translate(-244.885 -108.565)" fill="#d3a7e6"/>
      <path id="Trazado_98789" data-name="Trazado 98789" d="M435.147,13.118A5.618,5.618,0,1,1,429.529,7.5,5.618,5.618,0,0,1,435.147,13.118Zm0,0" transform="translate(-363.203 -6.426)" fill="#e4e0ff"/>
      <path id="Trazado_98790" data-name="Trazado 98790" d="M432.393,18.748a5.618,5.618,0,0,1-5.138-7.892,5.618,5.618,0,1,0,7.411,7.411A5.6,5.6,0,0,1,432.393,18.748Zm0,0" transform="translate(-363.203 -9.301)" fill="#d3a7e6"/>
      <path id="Trazado_98791" data-name="Trazado 98791" d="M10.7,297.266H3.292A3.3,3.3,0,0,0,0,300.558V319.8a3.3,3.3,0,0,0,3.292,3.292H10.7a3.3,3.3,0,0,0,3.293-3.292V300.558A3.3,3.3,0,0,0,10.7,297.266ZM11.845,319.8a1.146,1.146,0,0,1-1.145,1.144H3.292A1.146,1.146,0,0,1,2.148,319.8V300.558a1.146,1.146,0,0,1,1.144-1.145H10.7a1.146,1.146,0,0,1,1.145,1.145Zm0,0" transform="translate(0 -254.695)" fill="#23147b"/>
      <path id="Trazado_98792" data-name="Trazado 98792" d="M148.8,191.945H141.39a3.3,3.3,0,0,0-3.292,3.292v6.107a1.074,1.074,0,1,0,2.148,0v-6.107a1.145,1.145,0,0,1,1.144-1.144H148.8a1.145,1.145,0,0,1,1.144,1.144v34.327a1.145,1.145,0,0,1-1.144,1.144H141.39a1.145,1.145,0,0,1-1.144-1.144V205.641a1.074,1.074,0,0,0-2.148,0v23.924a3.3,3.3,0,0,0,3.292,3.292H148.8a3.3,3.3,0,0,0,3.292-3.292V195.238A3.3,3.3,0,0,0,148.8,191.945Zm0,0" transform="translate(-118.321 -164.457)" fill="#23147b"/>
      <path id="Trazado_98793" data-name="Trazado 98793" d="M286.892,255.141h-7.409a3.3,3.3,0,0,0-3.292,3.292V283.71A3.3,3.3,0,0,0,279.484,287h7.409a3.3,3.3,0,0,0,3.293-3.292V258.433A3.3,3.3,0,0,0,286.892,255.141Zm1.145,28.569a1.146,1.146,0,0,1-1.145,1.144h-7.409a1.145,1.145,0,0,1-1.144-1.144V258.433a1.145,1.145,0,0,1,1.144-1.144h7.409a1.145,1.145,0,0,1,1.145,1.144Zm0,0" transform="translate(-236.639 -218.602)" fill="#23147b"/>
      <path id="Trazado_98794" data-name="Trazado 98794" d="M424.987,139.285h-7.409a3.3,3.3,0,0,0-3.293,3.292v30.69a1.074,1.074,0,1,0,2.148,0v-30.69a1.145,1.145,0,0,1,1.145-1.144h7.409a1.145,1.145,0,0,1,1.144,1.144v41.868a1.146,1.146,0,0,1-1.144,1.144h-7.409a1.146,1.146,0,0,1-1.145-1.144v-6.882a1.074,1.074,0,1,0-2.148,0v6.882a3.3,3.3,0,0,0,3.293,3.292h7.409a3.3,3.3,0,0,0,3.292-3.292V142.577A3.3,3.3,0,0,0,424.987,139.285Zm0,0" transform="translate(-354.956 -119.338)"/>
      <path id="Trazado_98795" data-name="Trazado 98795" d="M8.817,22.624a6.706,6.706,0,1,0,6.635,5.828L26,20.4a6.675,6.675,0,0,0,6.472-.724L41.708,23.9a6.692,6.692,0,1,0,13.251-1.792l10.888-9.135a6.692,6.692,0,1,0-4.392-6.285,6.732,6.732,0,0,0,.1,1.171L50.67,17a6.676,6.676,0,0,0-6.183.839l-9.231-4.225a6.691,6.691,0,1,0-13.3,1.485L11.407,23.145A6.655,6.655,0,0,0,8.817,22.624ZM68.147,2.148a4.544,4.544,0,0,1,0,9.089A4.6,4.6,0,0,1,63.6,6.692,4.549,4.549,0,0,1,68.147,2.148Zm-5.809,7.866c.018.031.037.062.056.092a6.729,6.729,0,0,0,1.472,1.729l-9.687,8.127c-.018-.031-.312-.5-.455-.69a6.752,6.752,0,0,0-1.072-1.131Zm-18.511,13.2a4.544,4.544,0,0,1,9.088.067,4.544,4.544,0,1,1-9.088,0C43.826,23.261,43.826,23.239,43.827,23.217Zm-9.714-5.2a6.746,6.746,0,0,0,.965-2.12l7.8,3.569a6.746,6.746,0,0,0-.911,1.875q-.044.142-.081.285l-7.8-3.569ZM28.594,9.689a4.549,4.549,0,0,1,4.544,4.544,4.544,4.544,0,1,1-9.089,0A4.549,4.549,0,0,1,28.594,9.689Zm-5.957,7.593c.013.025.027.049.04.074a6.732,6.732,0,0,0,1.4,1.815l-9.3,7.1a6.8,6.8,0,0,0-1.442-1.89ZM11.525,25.706a4.505,4.505,0,1,1-2.708-.934A4.475,4.475,0,0,1,11.525,25.706Zm0,0" transform="translate(-1.821)" fill="#23147b"/>
    </g>
  </g>
</svg>
