<svg xmlns="http://www.w3.org/2000/svg" width="144.072" height="153.089" viewBox="0 0 144.072 153.089">
  <g id="Grupo_53444" data-name="Grupo 53444" transform="translate(-280.731 -484.456)">
    <g id="obediente" transform="translate(265.653 484.456)">
      <g id="Grupo_53286" data-name="Grupo 53286" transform="translate(45.348 2.243)">
        <path id="Trazado_98607" data-name="Trazado 98607" d="M213.028,7.5H117.81A1.5,1.5,0,0,0,116.315,9v41.45h9.805a7.327,7.327,0,0,1,.511,14.636v9.09h0a2.988,2.988,0,0,1,2.535,2.952v18.56a2.988,2.988,0,0,1-2.535,2.952h0v9.09a7.327,7.327,0,0,1-.511,14.636h-9.805v12.27h20.634a2.99,2.99,0,0,1,2.99,2.99v5.949s0,.005,0,.008h2.278a2.99,2.99,0,0,1,2.99,2.99V156.1h69.316V9A1.5,1.5,0,0,0,213.028,7.5Z" transform="translate(-116.315 -7.5)" fill="#fff3de"/>
      </g>
      <g id="Grupo_53287" data-name="Grupo 53287" transform="translate(45.348 2.243)">
        <path id="Trazado_98608" data-name="Trazado 98608" d="M126.12,50.445c.089,0,.178,0,.267.007V9a1.5,1.5,0,0,1,1.5-1.5H117.81A1.5,1.5,0,0,0,116.315,9v41.45Z" transform="translate(-116.315 -7.5)" fill="#ffe5c2"/>
        <path id="Trazado_98609" data-name="Trazado 98609" d="M126.12,391.634h-9.805V403.9h10.072V391.627C126.3,391.63,126.21,391.634,126.12,391.634Z" transform="translate(-116.315 -276.773)" fill="#ffe5c2"/>
      </g>
      <g id="Grupo_53305" data-name="Grupo 53305" transform="translate(17.321 45.187)">
        <g id="Grupo_53288" data-name="Grupo 53288" transform="translate(40.879 30.846)">
          <path id="Trazado_98610" data-name="Trazado 98610" d="M159.3,254.29h13.84v10.225H159.3Z" transform="translate(-159.296 -254.29)" fill="#fff"/>
          <path id="Trazado_98611" data-name="Trazado 98611" d="M237.5,254.29H257.27v10.225H237.5Z" transform="translate(-214.118 -254.29)" fill="#fff"/>
        </g>
        <g id="Grupo_53289" data-name="Grupo 53289" transform="translate(40.879 36.141)">
          <path id="Trazado_98612" data-name="Trazado 98612" d="M159.3,272h13.84v4.93H159.3Z" transform="translate(-159.296 -272)" fill="#d5d5d5"/>
          <path id="Trazado_98613" data-name="Trazado 98613" d="M237.5,272H257.27v4.93H237.5Z" transform="translate(-214.118 -272)" fill="#d5d5d5"/>
        </g>
        <g id="Grupo_53290" data-name="Grupo 53290" transform="translate(84.031 28.46)">
          <path id="Trazado_98614" data-name="Trazado 98614" d="M359.172,253.809a7.5,7.5,0,0,1-7.5,7.5H305.32a1.7,1.7,0,0,1-1.7-1.7V248.014a1.7,1.7,0,0,1,1.7-1.7h46.354A7.5,7.5,0,0,1,359.172,253.809Z" transform="translate(-303.616 -246.31)" fill="#fff"/>
        </g>
        <g id="Grupo_53291" data-name="Grupo 53291" transform="translate(84.031 28.46)">
          <path id="Trazado_98615" data-name="Trazado 98615" d="M313.807,254.888a1.7,1.7,0,0,1-1.7-1.7V246.31H305.32a1.7,1.7,0,0,0-1.7,1.7V259.6a1.7,1.7,0,0,0,1.7,1.7h46.354a7.5,7.5,0,0,0,7.42-6.419Z" transform="translate(-303.616 -246.31)" fill="#d5d5d5"/>
        </g>
        <g id="Grupo_53292" data-name="Grupo 53292" transform="translate(54.719 28.46)">
          <path id="Trazado_98616" data-name="Trazado 98616" d="M215.128,247.806v12.007a1.5,1.5,0,0,1-1.495,1.5H207.08a1.5,1.5,0,0,1-1.5-1.5V247.806a1.5,1.5,0,0,1,1.5-1.5h6.553a1.5,1.5,0,0,1,1.495,1.5Z" transform="translate(-205.585 -246.311)" fill="#fff"/>
        </g>
        <g id="Grupo_53293" data-name="Grupo 53293" transform="translate(54.719 28.46)">
          <path id="Trazado_98617" data-name="Trazado 98617" d="M209.92,259.813V247.806a1.5,1.5,0,0,1,1.5-1.5H207.08a1.5,1.5,0,0,0-1.5,1.5v12.007a1.5,1.5,0,0,0,1.5,1.5h4.335A1.5,1.5,0,0,1,209.92,259.813Z" transform="translate(-205.585 -246.311)" fill="#d5d5d5"/>
        </g>
        <g id="Grupo_53294" data-name="Grupo 53294" transform="translate(18.575 14.636)">
          <path id="Trazado_98618" data-name="Trazado 98618" d="M104.016,312.335H85.158a3,3,0,0,1-.455-.038v9.09c.169-.012.339-.02.511-.02H103.96c.172,0,.342.008.511.02V312.3A2.961,2.961,0,0,1,104.016,312.335Z" transform="translate(-84.703 -278.743)" fill="#fff"/>
          <path id="Trazado_98619" data-name="Trazado 98619" d="M85.158,312.335a3,3,0,0,1-.455-.038v9.09c.169-.012.339-.02.511-.02h7.018v-9.032H85.158Z" transform="translate(-84.703 -278.743)" fill="#d5d5d5"/>
          <path id="Trazado_98620" data-name="Trazado 98620" d="M85.158,209.131h18.858a3,3,0,0,1,.455.038v-9.09c-.169.012-.339.02-.511.02H85.214c-.172,0-.342-.008-.511-.02v9.09A3,3,0,0,1,85.158,209.131Z" transform="translate(-84.703 -200.079)" fill="#fff"/>
          <path id="Trazado_98621" data-name="Trazado 98621" d="M85.158,209.13h7.074V200.1H85.214c-.172,0-.342-.008-.511-.02v9.09A3.043,3.043,0,0,1,85.158,209.13Z" transform="translate(-84.703 -200.078)" fill="#d5d5d5"/>
        </g>
        <g id="Grupo_53295" data-name="Grupo 53295" transform="translate(16.041 23.688)">
          <path id="Trazado_98622" data-name="Trazado 98622" d="M101.063,233.342V251.9a2.99,2.99,0,0,1-2.99,2.99H79.215a2.99,2.99,0,0,1-2.99-2.99v-18.56a2.99,2.99,0,0,1,2.99-2.99H98.073A2.99,2.99,0,0,1,101.063,233.342Z" transform="translate(-76.225 -230.352)" fill="#fff"/>
        </g>
        <g id="Grupo_53296" data-name="Grupo 53296" transform="translate(16.041 23.688)">
          <path id="Trazado_98623" data-name="Trazado 98623" d="M86.324,251.9v-18.56a2.99,2.99,0,0,1,2.99-2.99h-10.1a2.99,2.99,0,0,0-2.99,2.99V251.9a2.99,2.99,0,0,0,2.99,2.99h10.1A2.99,2.99,0,0,1,86.324,251.9Z" transform="translate(-76.225 -230.352)" fill="#d5d5d5"/>
        </g>
        <g id="Grupo_53299" data-name="Grupo 53299" transform="translate(0 84.186)">
          <path id="Trazado_98624" data-name="Trazado 98624" d="M86.563,441.931a3.058,3.058,0,0,0,.016-.307v-5.949a2.99,2.99,0,0,0-2.99-2.99h-40.4a2.99,2.99,0,0,0-2.99,2.99v5.949a3.06,3.06,0,0,0,.016.307Z" transform="translate(-34.927 -432.685)" fill="#fff"/>
          <path id="Trazado_98625" data-name="Trazado 98625" d="M50.318,441.931a3.06,3.06,0,0,1-.016-.307v-5.949a2.99,2.99,0,0,1,2.99-2.99H43.185a2.99,2.99,0,0,0-2.99,2.99v5.949a3.06,3.06,0,0,0,.016.307Z" transform="translate(-34.927 -432.685)" fill="#d5d5d5"/>
          <g id="Grupo_53297" data-name="Grupo 53297" transform="translate(0 8.947)">
            <path id="Trazado_98626" data-name="Trazado 98626" d="M79.5,475.134H24.073a1.5,1.5,0,0,1-1.5-1.5V465.6a2.99,2.99,0,0,1,2.99-2.99H76.507a2.99,2.99,0,0,1,2.99,2.99Z" transform="translate(-22.578 -462.608)" fill="#b7b7b7"/>
          </g>
          <g id="Grupo_53298" data-name="Grupo 53298" transform="translate(0 8.947)">
            <path id="Trazado_98627" data-name="Trazado 98627" d="M32.571,473.639V465.6a2.99,2.99,0,0,1,2.99-2.99H25.568a2.99,2.99,0,0,0-2.99,2.99v8.041a1.5,1.5,0,0,0,1.5,1.5h9.993A1.5,1.5,0,0,1,32.571,473.639Z" transform="translate(-22.578 -462.608)" fill="#d5d5d5"/>
          </g>
        </g>
        <g id="Grupo_53304" data-name="Grupo 53304" transform="translate(11.759)">
          <g id="Grupo_53300" data-name="Grupo 53300" transform="translate(0 57.26)">
            <path id="Trazado_98628" data-name="Trazado 98628" d="M95.307,349.961a7.328,7.328,0,0,1-7.328,7.328H69.233a7.328,7.328,0,1,1,0-14.656H87.979A7.328,7.328,0,0,1,95.307,349.961Z" transform="translate(-61.905 -342.633)" fill="#fff"/>
          </g>
          <g id="Grupo_53301" data-name="Grupo 53301" transform="translate(0 57.26)">
            <path id="Trazado_98629" data-name="Trazado 98629" d="M71.887,349.961a7.328,7.328,0,0,1,7.328-7.328H69.233a7.328,7.328,0,1,0,0,14.656h9.982A7.328,7.328,0,0,1,71.887,349.961Z" transform="translate(-61.905 -342.633)" fill="#d5d5d5"/>
          </g>
          <g id="Grupo_53302" data-name="Grupo 53302" transform="translate(0)">
            <path id="Trazado_98630" data-name="Trazado 98630" d="M95.307,158.456a7.328,7.328,0,0,1-7.328,7.328H69.233a7.328,7.328,0,0,1,0-14.656H87.979A7.328,7.328,0,0,1,95.307,158.456Z" transform="translate(-61.905 -151.128)" fill="#fff"/>
          </g>
          <g id="Grupo_53303" data-name="Grupo 53303">
            <path id="Trazado_98631" data-name="Trazado 98631" d="M71.887,158.456a7.328,7.328,0,0,1,7.328-7.328H69.233a7.328,7.328,0,0,0,0,14.656h9.982A7.328,7.328,0,0,1,71.887,158.456Z" transform="translate(-61.905 -151.128)" fill="#d5d5d5"/>
          </g>
        </g>
      </g>
      <g id="Grupo_53308" data-name="Grupo 53308" transform="translate(73.471 16.178)">
        <g id="Grupo_53306" data-name="Grupo 53306">
          <circle id="Elipse_9" data-name="Elipse 9" cx="20.981" cy="20.981" r="20.981" fill="#bd81d8"/>
        </g>
        <g id="Grupo_53307" data-name="Grupo 53307" transform="translate(0)">
          <path id="Trazado_98632" data-name="Trazado 98632" d="M220.427,75.088a20.986,20.986,0,0,1,15.953-20.37,20.981,20.981,0,1,0,0,40.74A20.986,20.986,0,0,1,220.427,75.088Z" transform="translate(-210.372 -54.107)" fill="#f3d9ff"/>
        </g>
      </g>
      <g id="Grupo_53309" data-name="Grupo 53309" transform="translate(15.078 0)">
        <path id="Trazado_98633" data-name="Trazado 98633" d="M149.409,71.4H145.8V32.591a2.243,2.243,0,0,0-2.311-2.242,2.3,2.3,0,0,0-2.174,2.336V71.4h-15.03a2.243,2.243,0,0,0,0,4.485h23.126a5.256,5.256,0,0,1,0,10.512H103.594V75.889h12.224a2.243,2.243,0,0,0,0-4.485H103.055a3.951,3.951,0,0,0-3.623,2.386H83.569A3.741,3.741,0,0,0,80.088,71.4H73.535a3.741,3.741,0,0,0-3.481,2.386H60.442V71.865a5.229,5.229,0,0,0-2.535-4.475V61.68a9.57,9.57,0,0,0-2.753-18.735H47.59V4.485h93.723V22.126a2.243,2.243,0,0,0,2.311,2.242,2.3,2.3,0,0,0,2.174-2.335V3.738A3.737,3.737,0,0,0,142.06,0H46.843a3.737,3.737,0,0,0-3.738,3.738V42.945h-6.7A9.57,9.57,0,0,0,33.653,61.68v5.71a5.229,5.229,0,0,0-2.535,4.475v18.56A5.229,5.229,0,0,0,33.653,94.9v5.71a9.57,9.57,0,0,0,2.754,18.735h6.7v7.785H25.578a5.239,5.239,0,0,0-5.233,5.233v3.714h-.035a5.239,5.239,0,0,0-5.233,5.233v8.041a3.742,3.742,0,0,0,3.738,3.738H142.06a3.737,3.737,0,0,0,3.738-3.738V90.886h3.611a9.741,9.741,0,0,0,0-19.482ZM83.826,78.276H99.109v5.74H83.826ZM74.282,75.89h5.058V86.4H74.282Zm-13.84,2.386H69.8v5.74H60.442Zm-29.12-25.76a5.091,5.091,0,0,1,5.085-5.085H55.153a5.085,5.085,0,1,1,0,10.171H36.407A5.091,5.091,0,0,1,31.322,52.515Zm5.029,38.658a.748.748,0,0,1-.748-.748V71.866a.748.748,0,0,1,.748-.747H55.209a.748.748,0,0,1,.748.747v18.56a.748.748,0,0,1-.748.748Zm17.071,4.485v4.547H38.138V95.658ZM38.138,66.633V62.086H53.422v4.547Zm-1.731,48.228a5.085,5.085,0,0,1,0-10.171H55.153a5.085,5.085,0,0,1,0,10.171ZM72,148.6H19.563V141.31a.748.748,0,0,1,.747-.747h13.88a2.243,2.243,0,1,0,0-4.485h-9.36v-3.714a.748.748,0,0,1,.748-.747h40.4a.748.748,0,0,1,.748.747v3.714H44.656a2.243,2.243,0,1,0,0,4.485H71.25a.748.748,0,0,1,.748.747Zm69.316,0H76.482V141.31a5.239,5.239,0,0,0-5.233-5.233h-.035v-3.714a5.239,5.239,0,0,0-5.233-5.233H47.59v-7.785h7.563a9.57,9.57,0,0,0,2.753-18.735V94.9a5.229,5.229,0,0,0,2.535-4.475V88.5h9.612a3.741,3.741,0,0,0,3.481,2.386h6.553A3.741,3.741,0,0,0,83.569,88.5H99.432a3.951,3.951,0,0,0,3.623,2.386h38.257V148.6Z" transform="translate(-15.078 0)" fill="#171a43"/>
        <path id="Trazado_98634" data-name="Trazado 98634" d="M202.872,69.83A23.223,23.223,0,1,0,226.1,46.607,23.249,23.249,0,0,0,202.872,69.83Zm41.961,0A18.738,18.738,0,1,1,226.1,51.092,18.759,18.759,0,0,1,244.833,69.83Z" transform="translate(-146.721 -32.671)" fill="#171a43"/>
        <path id="Trazado_98635" data-name="Trazado 98635" d="M250.172,105.61A2.242,2.242,0,1,0,247,108.781l6.9,6.9a2.243,2.243,0,0,0,3.172,0l10.692-10.692a2.242,2.242,0,0,0-3.171-3.171l-9.106,9.106Z" transform="translate(-177.195 -70.913)" fill="#171a43"/>
        <path id="Trazado_98636" data-name="Trazado 98636" d="M243.681,329.312a2.242,2.242,0,0,0,2.243,2.243h41.241a2.243,2.243,0,1,0,0-4.485H245.924A2.242,2.242,0,0,0,243.681,329.312Z" transform="translate(-175.328 -229.275)" fill="#171a43"/>
        <path id="Trazado_98637" data-name="Trazado 98637" d="M334,363.546H312.742a2.243,2.243,0,0,0,0,4.485H334a2.243,2.243,0,1,0,0-4.485Z" transform="translate(-222.169 -254.845)" fill="#171a43"/>
        <path id="Trazado_98638" data-name="Trazado 98638" d="M245.924,368.031h12.2a2.243,2.243,0,1,0,0-4.485h-12.2a2.243,2.243,0,1,0,0,4.485Z" transform="translate(-175.328 -254.845)" fill="#171a43"/>
        <path id="Trazado_98639" data-name="Trazado 98639" d="M287.164,400.023H245.923a2.243,2.243,0,1,0,0,4.485h41.241a2.243,2.243,0,0,0,0-4.485Z" transform="translate(-175.328 -280.416)" fill="#171a43"/>
        <path id="Trazado_98640" data-name="Trazado 98640" d="M358.539,436.5h-10.8a2.243,2.243,0,0,0,0,4.485h10.8a2.243,2.243,0,0,0,0-4.485Z" transform="translate(-246.703 -305.986)" fill="#171a43"/>
        <path id="Trazado_98641" data-name="Trazado 98641" d="M269.49,436.5H245.924a2.243,2.243,0,1,0,0,4.485H269.49a2.243,2.243,0,1,0,0-4.485Z" transform="translate(-175.328 -305.986)" fill="#171a43"/>
      </g>
    </g>
  </g>
</svg>
