<svg xmlns="http://www.w3.org/2000/svg" width="133" height="133" viewBox="0 0 133 133">
  <g id="Grupo_53437" data-name="Grupo 53437" transform="translate(-966 -3552)">
    <g id="Elipse_32" data-name="Elipse 32" transform="translate(966 3552)" fill="#f3f9ff" stroke="#9a4cbc" stroke-width="2">
      <circle cx="66.5" cy="66.5" r="66.5" stroke="none"/>
      <circle cx="66.5" cy="66.5" r="65.5" fill="none"/>
    </g>
    <g id="contrato" transform="translate(1000.706 3582.8)">
      <path id="Trazado_98835" data-name="Trazado 98835" d="M59.444,24.369V71.136a4.677,4.677,0,0,1-4.677,4.677H12.677A4.678,4.678,0,0,1,8.035,71.7,4.606,4.606,0,0,1,8,71.136V12.677A4.677,4.677,0,0,1,12.677,8h30.4Zm0,0" transform="translate(-6.831 -6.831)" fill="#f3f9ff"/>
      <path id="Trazado_98836" data-name="Trazado 98836" d="M59.647,129.359v45.4a4.677,4.677,0,0,1-4.677,4.677H12.88a4.678,4.678,0,0,1-4.642-4.116C23.847,169.813,46.81,157.256,59.647,129.359Zm0,0" transform="translate(-7.034 -110.454)" fill="#d2e1f1"/>
      <path id="Trazado_98837" data-name="Trazado 98837" d="M252.677,24.369h11.692L248,8V19.692A4.677,4.677,0,0,0,252.677,24.369Zm0,0" transform="translate(-211.755 -6.831)" fill="#f5deff"/>
      <path id="Trazado_98838" data-name="Trazado 98838" d="M432,185.722l5.846,2.338V160H432Zm0,0" transform="translate(-366.446 -136.616)" fill="#e4e0ff"/>
      <path id="Trazado_98839" data-name="Trazado 98839" d="M397.846,160H392v28.06l5.846-2.338Zm0,0" transform="translate(-332.292 -136.616)" fill="#d3a7e6"/>
      <path id="Trazado_98840" data-name="Trazado 98840" d="M397.846,336,392,338.338l3.508,7.015h4.677l3.508-7.015Zm0,0" transform="translate(-334.71 -286.894)" fill="#f3f9ff"/>
      <path id="Trazado_98841" data-name="Trazado 98841" d="M416,404.677a2.338,2.338,0,0,0,4.677,0V400H416Zm0,0" transform="translate(-352.784 -341.541)" fill="#f5deff"/>
      <path id="Trazado_98842" data-name="Trazado 98842" d="M403.692,132.677V128H392v4.677Zm0,0" transform="translate(-334.71 -109.293)" fill="#f3f9ff"/>
      <path id="Trazado_98843" data-name="Trazado 98843" d="M403.692,68.677A4.677,4.677,0,0,0,399.015,64h-2.338A4.677,4.677,0,0,0,392,68.677v4.677h11.692Zm0,0" transform="translate(-332.292 -54.647)" fill="#e6e7e8"/>
      <path id="Trazado_98844" data-name="Trazado 98844" d="M77.045,66.523a10.5,10.5,0,1,1-3.076-7.447A10.522,10.522,0,0,1,77.045,66.523Zm0,0" transform="translate(-47.816 -47.816)" fill="#ffea99"/>
      <path id="Trazado_98845" data-name="Trazado 98845" d="M111.015,91.508A3.508,3.508,0,1,1,107.508,88,3.508,3.508,0,0,1,111.015,91.508Zm0,0" transform="translate(-88.801 -75.139)" fill="#ffea99"/>
      <path id="Trazado_98846" data-name="Trazado 98846" d="M97.985,137.7A5.853,5.853,0,0,0,88,141.843v1.73a10.5,10.5,0,0,0,11.692,0v-1.73A5.871,5.871,0,0,0,97.985,137.7Zm0,0" transform="translate(-75.139 -116.121)" fill="#ffea99"/>
      <path id="Trazado_98847" data-name="Trazado 98847" d="M53.707,17.164c-.013-.038-.022-.074-.039-.11a1.161,1.161,0,0,0-.233-.343L37.067.343a1.145,1.145,0,0,0-.344-.233c-.035-.015-.069-.025-.106-.038A2.652,2.652,0,0,0,36.245,0H5.846A5.853,5.853,0,0,0,0,5.846V64.3a5.853,5.853,0,0,0,5.846,5.846h42.09A5.853,5.853,0,0,0,53.782,64.3V17.538A2.52,2.52,0,0,0,53.707,17.164Zm-3.917-.8H40.921a3.508,3.508,0,0,1-3.508-3.508V3.992ZM47.936,67.812H5.846A3.508,3.508,0,0,1,2.338,64.3V5.846A3.508,3.508,0,0,1,5.846,2.338h29.23V12.861a5.853,5.853,0,0,0,5.846,5.846H51.444V64.3A3.508,3.508,0,0,1,47.936,67.812Zm0,0" transform="translate(0 0)" fill="#23147b"/>
      <path id="Trazado_98848" data-name="Trazado 98848" d="M59.692,71.384A11.692,11.692,0,1,0,48,59.692,11.692,11.692,0,0,0,59.692,71.384Zm-4.677-3.6V66.707a4.677,4.677,0,1,1,9.353,0V67.78A9.276,9.276,0,0,1,55.015,67.78Zm2.338-10.427a2.338,2.338,0,1,1,2.338,2.338A2.338,2.338,0,0,1,57.353,57.353Zm2.338-7.015a9.337,9.337,0,0,1,6.966,15.573,6.931,6.931,0,0,0-3.575-5.349,4.677,4.677,0,1,0-6.767,0,7.026,7.026,0,0,0-3.585,5.345,9.338,9.338,0,0,1,6.961-15.57Zm0,0" transform="translate(-40.985 -40.985)" fill="#23147b"/>
      <path id="Trazado_98849" data-name="Trazado 98849" d="M240,152h2.338v2.338H240Zm0,0" transform="translate(-204.925 -129.786)" fill="#23147b"/>
      <path id="Trazado_98850" data-name="Trazado 98850" d="M272,152h7.015v2.338H272Zm0,0" transform="translate(-232.248 -129.786)" fill="#23147b"/>
      <path id="Trazado_98851" data-name="Trazado 98851" d="M240,184h11.692v2.338H240Zm0,0" transform="translate(-204.925 -157.109)" fill="#23147b"/>
      <path id="Trazado_98852" data-name="Trazado 98852" d="M48,240h9.353v2.338H48Zm0,0" transform="translate(-40.985 -204.925)" fill="#23147b"/>
      <path id="Trazado_98853" data-name="Trazado 98853" d="M128,240h28.06v2.338H128Zm0,0" transform="translate(-109.293 -204.925)" fill="#23147b"/>
      <path id="Trazado_98854" data-name="Trazado 98854" d="M48,280H87.752v2.338H48Zm0,0" transform="translate(-40.985 -239.079)" fill="#23147b"/>
      <path id="Trazado_98855" data-name="Trazado 98855" d="M48,320H64.369v2.338H48Zm0,0" transform="translate(-40.985 -273.233)" fill="#23147b"/>
      <path id="Trazado_98856" data-name="Trazado 98856" d="M176,320h4.677v2.338H176Zm0,0" transform="translate(-150.278 -273.233)" fill="#23147b"/>
      <path id="Trazado_98857" data-name="Trazado 98857" d="M224,320h14.03v2.338H224Zm0,0" transform="translate(-191.263 -273.233)" fill="#23147b"/>
      <path id="Trazado_98858" data-name="Trazado 98858" d="M240.184,367.977a4.667,4.667,0,0,0-3.1,1.451c-.642.549-1.062.887-1.577.887a1.357,1.357,0,0,1-1.052-.351,3.592,3.592,0,0,0-2.455-.819v2.338a1.359,1.359,0,0,1,1.052.351,3.593,3.593,0,0,0,2.455.819,4.665,4.665,0,0,0,3.1-1.451c.642-.549,1.062-.887,1.577-.887a1.358,1.358,0,0,1,1.052.35,3.592,3.592,0,0,0,2.455.819v-2.338a1.357,1.357,0,0,1-1.052-.351A3.592,3.592,0,0,0,240.184,367.977Zm0,0" transform="translate(-198.094 -314.195)" fill="#23147b"/>
      <path id="Trazado_98859" data-name="Trazado 98859" d="M232,416h11.692v2.338H232Zm0,0" transform="translate(-198.094 -355.203)" fill="#23147b"/>
      <path id="Trazado_98860" data-name="Trazado 98860" d="M392.184,56h-2.338A5.853,5.853,0,0,0,384,61.846V99.26a1.178,1.178,0,0,0,.117.523l3.39,6.768v4.4a3.508,3.508,0,0,0,7.015,0v-4.4l3.39-6.768a1.178,1.178,0,0,0,.117-.523V61.846A5.853,5.853,0,0,0,392.184,56Zm.446,49.106H389.4l-2.617-5.232,4.233-1.693,4.232,1.693Zm3.061-35.075h-9.353V67.692h9.353Zm-9.353,2.338h3.508V96.13l-3.508,1.4Zm5.846,23.762V72.369h3.507V97.533Zm-5.846-34.284a3.508,3.508,0,0,1,3.508-3.508h2.338a3.508,3.508,0,0,1,3.507,3.508v3.508h-9.353Zm5.846,49.106a1.169,1.169,0,0,1-2.338,0v-3.508h2.338Zm0,0" transform="translate(-325.461 -47.816)" fill="#23147b"/>
    </g>
  </g>
</svg>
