<svg xmlns="http://www.w3.org/2000/svg" width="133" height="133" viewBox="0 0 133 133">
  <g id="Grupo_53451" data-name="Grupo 53451" transform="translate(-666 -3552)">
    <g id="Elipse_29" data-name="Elipse 29" transform="translate(666 3552)" fill="#f3f9ff" stroke="#9a4cbc" stroke-width="2">
      <circle cx="66.5" cy="66.5" r="66.5" stroke="none"/>
      <circle cx="66.5" cy="66.5" r="65.5" fill="none"/>
    </g>
    <g id="medalla" transform="translate(704.211 3574.099)">
      <g id="Grupo_53435" data-name="Grupo 53435" transform="translate(0 1.336)">
        <path id="Trazado_98825" data-name="Trazado 98825" d="M147.893,46.042l5.071-11.317-10.9-26.549a1.062,1.062,0,0,0-.983-.66h-9.666a1.062,1.062,0,0,0-.983,1.465L145.6,46.042h2.292Z" transform="translate(-124.383 -7.516)" fill="#e4e0ff"/>
        <path id="Trazado_98826" data-name="Trazado 98826" d="M135.408,8.98a1.062,1.062,0,0,1,.983-1.465h-4.977a1.062,1.062,0,0,0-.983,1.465L145.6,46.041h2.292l1.4-3.132Z" transform="translate(-124.383 -7.515)" fill="#d3a7e6"/>
        <path id="Trazado_98827" data-name="Trazado 98827" d="M250.5,7.516h-9.666a1.062,1.062,0,0,0-.983.66l-16.408,40.08h11.962L251.487,8.98a1.062,1.062,0,0,0-.983-1.465Z" transform="translate(-200.931 -7.516)" fill="#f5deff"/>
        <path id="Trazado_98828" data-name="Trazado 98828" d="M245.815,7.516h-4.977a1.062,1.062,0,0,0-.983.66l-16.408,40.08h4.977l16.408-40.08a1.063,1.063,0,0,1,.983-.66Z" transform="translate(-200.931 -7.516)" fill="#d3a7e6"/>
        <circle id="Elipse_30" data-name="Elipse 30" cx="20.007" cy="20.007" r="20.007" transform="translate(0 68.334) rotate(-45)" fill="#ffea99"/>
        <path id="Trazado_98829" data-name="Trazado 98829" d="M150.666,299.412a20.012,20.012,0,0,1,16.4-19.681,20.007,20.007,0,1,0,0,39.362A20.012,20.012,0,0,1,150.666,299.412Z" transform="translate(-135.15 -231.076)" fill="#f3f9ff"/>
        <circle id="Elipse_31" data-name="Elipse 31" cx="14.337" cy="14.337" r="14.337" transform="translate(8.018 68.334) rotate(-45)" fill="#ffea99"/>
        <path id="Trazado_98830" data-name="Trazado 98830" d="M182.565,325.641a14.342,14.342,0,0,1,10.726-13.877,14.337,14.337,0,1,0,0,27.754,14.342,14.342,0,0,1-10.726-13.877Z" transform="translate(-161.378 -257.305)" fill="#ffea99"/>
        <path id="Trazado_98831" data-name="Trazado 98831" d="M229.428,354.453a1.274,1.274,0,0,0-.706-2.173l-2.783-.4a1.274,1.274,0,0,1-.959-.7l-1.245-2.522a1.274,1.274,0,0,0-2.284,0l-1.245,2.522a1.273,1.273,0,0,1-.959.7l-2.783.4a1.274,1.274,0,0,0-.706,2.173l2.014,1.963a1.274,1.274,0,0,1,.366,1.127l-.475,2.772a1.274,1.274,0,0,0,1.848,1.343L222,360.35a1.273,1.273,0,0,1,1.185,0l2.49,1.309a1.274,1.274,0,0,0,1.848-1.343l-.475-2.772a1.274,1.274,0,0,1,.366-1.127Z" transform="translate(-194.29 -287.434)" fill="#ffe181"/>
      </g>
      <g id="Grupo_53436" data-name="Grupo 53436" transform="translate(4.633)">
        <path id="Trazado_98832" data-name="Trazado 98832" d="M214.084,341.884l-1.231,2.494-2.753.4a2.608,2.608,0,0,0-1.445,4.447l1.992,1.941-.47,2.742a2.608,2.608,0,0,0,3.783,2.748l2.462-1.294,2.462,1.294a2.607,2.607,0,0,0,3.782-2.748l-.47-2.742,1.992-1.941a2.608,2.608,0,0,0-1.445-4.447l-2.753-.4-1.231-2.494A2.607,2.607,0,0,0,214.084,341.884Zm1.146,3.7,1.191-2.414,1.191,2.414a2.606,2.606,0,0,0,1.963,1.426l2.664.387-1.928,1.879a2.607,2.607,0,0,0-.749,2.307l.455,2.654-2.383-1.253a2.607,2.607,0,0,0-2.426,0l-2.383,1.253.455-2.653a2.607,2.607,0,0,0-.75-2.308L210.6,347.4l2.664-.387A2.607,2.607,0,0,0,215.23,345.586Z" transform="translate(-192.753 -279.918)" fill="#23147b"/>
        <path id="Trazado_98833" data-name="Trazado 98833" d="M185.323,306.758a1.333,1.333,0,0,0,1.014,1.59,13,13,0,1,1-5.645,0,1.333,1.333,0,1,0-.576-2.6,15.67,15.67,0,1,0,6.8,0A1.334,1.334,0,0,0,185.323,306.758Z" transform="translate(-159.846 -251.371)" fill="#23147b"/>
        <path id="Trazado_98834" data-name="Trazado 98834" d="M160.966,21.856a1.333,1.333,0,0,0,1.739-.729L170,3.3A2.4,2.4,0,0,0,167.785,0h-9.666A2.387,2.387,0,0,0,155.9,1.488l-9.388,22.935L137.126,1.488h0A2.387,2.387,0,0,0,134.909,0h-9.666a2.4,2.4,0,0,0-2.217,3.3l15.405,37.635a3.987,3.987,0,0,0-2.755,3.786v6.569a21.34,21.34,0,1,0,21.675,0V44.724a3.987,3.987,0,0,0-2.755-3.786l5.738-14.017a1.333,1.333,0,0,0-2.468-1.01l-6.072,14.834h-9.08L158.3,2.666h9.081l-7.144,17.451a1.333,1.333,0,0,0,.729,1.739Zm4.221,47.813A18.674,18.674,0,1,1,146.514,51h0A18.694,18.694,0,0,1,165.187,69.669ZM153.371,43.41a1.315,1.315,0,0,1,1.314,1.314v5.228a21.4,21.4,0,0,0-8.171-1.623h-.007a21.41,21.41,0,0,0-8.165,1.623V44.724a1.315,1.315,0,0,1,1.314-1.314h13.714Zm-12.838-4.376L125.646,2.666h9.081l10.346,25.276Z" transform="translate(-122.845)" fill="#23147b"/>
      </g>
    </g>
  </g>
</svg>
