<svg xmlns="http://www.w3.org/2000/svg" width="133" height="133" viewBox="0 0 133 133">
  <g id="Grupo_53439" data-name="Grupo 53439" transform="translate(-359 -3552)">
    <g id="Elipse_26" data-name="Elipse 26" transform="translate(359 3552)" fill="#f3f9ff" stroke="#9a4cbc" stroke-width="2">
      <circle cx="66.5" cy="66.5" r="66.5" stroke="none"/>
      <circle cx="66.5" cy="66.5" r="65.5" fill="none"/>
    </g>
    <g id="expediente" transform="translate(392.854 3581.018)">
      <g id="Grupo_53416" data-name="Grupo 53416" transform="translate(1.495 1.495)">
        <g id="Grupo_53412" data-name="Grupo 53412" transform="translate(10.183 27.093)">
          <path id="Trazado_98814" data-name="Trazado 98814" d="M146.452,192.58a14.2,14.2,0,0,1-4.187-.627v33.766a3.945,3.945,0,0,1-3.945,3.945H105.476v4.1a3.945,3.945,0,0,0,3.945,3.945H148.5a3.945,3.945,0,0,0,3.945-3.945v-42.5A14.151,14.151,0,0,1,146.452,192.58Z" transform="translate(-105.476 -191.256)" fill="#e4e0ff"/>
        </g>
        <g id="Grupo_53413" data-name="Grupo 53413" transform="translate(0 3.236)">
          <path id="Trazado_98815" data-name="Trazado 98815" d="M79.187,31.646H41.3a3.945,3.945,0,0,0-3.945,3.945V89.966A3.945,3.945,0,0,0,41.3,93.911H80.379a3.945,3.945,0,0,0,3.945-3.945V56.5" transform="translate(-37.352 -31.646)" fill="#faf7f5"/>
        </g>
        <g id="Grupo_53414" data-name="Grupo 53414" transform="translate(36.953)">
          <path id="Trazado_98824" data-name="Trazado 98824" d="M14.206,0A14.209,14.209,0,1,1,0,14.209,14.207,14.207,0,0,1,14.206,0Z" fill="#ffea99"/>
        </g>
        <g id="Grupo_53415" data-name="Grupo 53415" transform="translate(10.018 15.04)">
          <path id="Trazado_98816" data-name="Trazado 98816" d="M104.377,110.62h26.935v6.313H104.377Z" transform="translate(-104.377 -110.62)" fill="#d3a7e6"/>
        </g>
      </g>
      <g id="Grupo_53434" data-name="Grupo 53434">
        <g id="Grupo_53418" data-name="Grupo 53418" transform="translate(51.165 12.25)">
          <g id="Grupo_53417" data-name="Grupo 53417">
            <path id="Trazado_98817" data-name="Trazado 98817" d="M371.15,95.166a1.5,1.5,0,0,1-1.495-1.495V83.451a1.495,1.495,0,0,1,2.99,0V93.672A1.5,1.5,0,0,1,371.15,95.166Z" transform="translate(-369.655 -81.956)" fill="#23147b"/>
          </g>
        </g>
        <g id="Grupo_53420" data-name="Grupo 53420" transform="translate(51.159 7.441)">
          <g id="Grupo_53419" data-name="Grupo 53419">
            <circle id="Elipse_28" data-name="Elipse 28" cx="1.495" cy="1.495" r="1.495" fill="#23147b"/>
          </g>
        </g>
        <g id="Grupo_53423" data-name="Grupo 53423">
          <path id="Trazado_98818" data-name="Trazado 98818" d="M95.706,15.7A15.692,15.692,0,0,0,70.47,3.236H32.792a5.446,5.446,0,0,0-5.44,5.44V63.05a5.446,5.446,0,0,0,5.44,5.44h4.743v2.6a5.446,5.446,0,0,0,5.44,5.44H82.056a5.446,5.446,0,0,0,5.44-5.44V50.358a1.495,1.495,0,1,0-2.989,0V71.091a2.453,2.453,0,0,1-2.45,2.45H42.975a2.453,2.453,0,0,1-2.45-2.45v-2.6H71.874a5.446,5.446,0,0,0,5.44-5.44V31.175a15.757,15.757,0,0,0,7.193-.426v6.1a1.495,1.495,0,1,0,2.989,0V29.5a15.717,15.717,0,0,0,8.21-13.8ZM74.324,63.05a2.453,2.453,0,0,1-2.45,2.45H32.792a2.453,2.453,0,0,1-2.45-2.45V8.675a2.453,2.453,0,0,1,2.45-2.45H67.5a15.621,15.621,0,0,0-3.176,8.815H38.865a1.5,1.5,0,0,0-1.495,1.495v6.313a1.5,1.5,0,0,0,1.495,1.495H65.8a1.488,1.488,0,0,0,.9-.3,15.792,15.792,0,0,0,7.62,6.3ZM64.305,18.03v3.323H40.36V18.03Zm15.7,10.387A12.714,12.714,0,1,1,92.716,15.7,12.727,12.727,0,0,1,80.006,28.417Z" transform="translate(-27.352)" fill="#23147b"/>
          <g id="Grupo_53422" data-name="Grupo 53422" transform="translate(57.157 42.083)">
            <g id="Grupo_53421" data-name="Grupo 53421">
              <path id="Trazado_98819" data-name="Trazado 98819" d="M411.233,284.527a1.495,1.495,0,1,1,1.456-1.155A1.509,1.509,0,0,1,411.233,284.527Z" transform="translate(-409.742 -281.541)"/>
            </g>
          </g>
        </g>
        <g id="Grupo_53433" data-name="Grupo 53433" transform="translate(10.018 29.541)">
          <g id="Grupo_53432" data-name="Grupo 53432">
            <g id="Grupo_53425" data-name="Grupo 53425">
              <g id="Grupo_53424" data-name="Grupo 53424">
                <path id="Trazado_98820" data-name="Trazado 98820" d="M122.807,200.622H95.872a1.495,1.495,0,0,1,0-2.99h26.935a1.495,1.495,0,0,1,0,2.99Z" transform="translate(-94.377 -197.633)" fill="#23147b"/>
              </g>
            </g>
            <g id="Grupo_53427" data-name="Grupo 53427" transform="translate(0 7.09)">
              <g id="Grupo_53426" data-name="Grupo 53426">
                <path id="Trazado_98821" data-name="Trazado 98821" d="M122.807,248.052H95.872a1.495,1.495,0,0,1,0-2.99h26.935a1.495,1.495,0,0,1,0,2.99Z" transform="translate(-94.377 -245.063)" fill="#23147b"/>
              </g>
            </g>
            <g id="Grupo_53429" data-name="Grupo 53429" transform="translate(0 14.179)">
              <g id="Grupo_53428" data-name="Grupo 53428">
                <path id="Trazado_98822" data-name="Trazado 98822" d="M122.807,295.482H95.872a1.495,1.495,0,1,1,0-2.989h26.935a1.495,1.495,0,1,1,0,2.989Z" transform="translate(-94.377 -292.493)" fill="#23147b"/>
              </g>
            </g>
            <g id="Grupo_53431" data-name="Grupo 53431" transform="translate(0 21.269)">
              <g id="Grupo_53430" data-name="Grupo 53430">
                <path id="Trazado_98823" data-name="Trazado 98823" d="M122.807,342.912H95.872a1.495,1.495,0,1,1,0-2.989h26.935a1.495,1.495,0,1,1,0,2.989Z" transform="translate(-94.377 -339.923)" fill="#23147b"/>
              </g>
            </g>
          </g>
        </g>
      </g>
    </g>
  </g>
</svg>
