<svg xmlns="http://www.w3.org/2000/svg" width="260" height="196" viewBox="0 0 260 196">
  <g id="Grupo_53445" data-name="Grupo 53445" transform="translate(-783 -849)">
    <g id="obediente_1_" data-name="obediente (1)" transform="translate(799.723 892.973)">
      <g id="Grupo_53311" data-name="Grupo 53311" transform="translate(52.237 2.225)">
        <path id="Trazado_98642" data-name="Trazado 98642" d="M210.12,7.5H127.043a.89.89,0,0,0-.89.89v9.293l.372.3h73.412a.594.594,0,0,1,.593.593V77.022l.3.237,10.183,6.307V8.39a.89.89,0,0,0-.89-.89Z" transform="translate(-105.787 -7.5)" fill="#f3d9ff"/>
        <path id="Trazado_98643" data-name="Trazado 98643" d="M136.2,17.98V8.39a.89.89,0,0,1,.89-.89H127.043a.89.89,0,0,0-.89.89V17.98Z" transform="translate(-105.787 -7.5)" fill="#e1b2f5"/>
        <path id="Trazado_98644" data-name="Trazado 98644" d="M166.506,52.894V96.4l.167-.1a1.7,1.7,0,0,1,1.787,0l8.229,5.1V42.711a.89.89,0,0,0-.89-.89H92.722a.89.89,0,0,0-.89.89V52h73.784a.89.89,0,0,1,.89.89Z" transform="translate(-81.649 -31.638)" fill="#fff3de"/>
        <path id="Trazado_98645" data-name="Trazado 98645" d="M101.673,52V42.711a.89.89,0,0,1,.89-.89H92.722a.89.89,0,0,0-.89.89V52Z" transform="translate(-81.649 -31.638)" fill="#ffe5c2"/>
        <path id="Trazado_98646" data-name="Trazado 98646" d="M120.276,184.031a24.791,24.791,0,0,1-8.711-18.869v-24.6a1.7,1.7,0,0,1,.8-1.443l30-18.581V77.032a.89.89,0,0,0-.89-.89H58.4a.89.89,0,0,0-.89.89V190.657a.89.89,0,0,0,.89.89H129.1Z" transform="translate(-57.511 -55.776)" fill="#fff3de"/>
        <g id="Grupo_53310" data-name="Grupo 53310" transform="translate(0 20.366)">
          <path id="Trazado_98647" data-name="Trazado 98647" d="M67.447,190.657V77.032a.89.89,0,0,1,.89-.89H58.4a.89.89,0,0,0-.89.89V190.657a.89.89,0,0,0,.89.89h9.936A.89.89,0,0,1,67.447,190.657Z" transform="translate(-57.511 -76.142)" fill="#ffe5c2"/>
        </g>
      </g>
      <g id="Grupo_53315" data-name="Grupo 53315" transform="translate(106.291 66.633)">
        <g id="Grupo_53312" data-name="Grupo 53312">
          <path id="Trazado_98648" data-name="Trazado 98648" d="M239.7,244.965v24.6a24.792,24.792,0,0,0,8.711,18.869l22.052,18.792a1.7,1.7,0,0,0,2.2,0l22.052-18.792a24.792,24.792,0,0,0,8.711-18.869v-24.6a1.7,1.7,0,0,0-.8-1.443l-30.167-18.684a1.7,1.7,0,0,0-1.787,0L240.5,243.522A1.7,1.7,0,0,0,239.7,244.965Z" transform="translate(-239.698 -224.584)" fill="#fff"/>
        </g>
        <g id="Grupo_53314" data-name="Grupo 53314" transform="translate(0 13.858)">
          <g id="Grupo_53313" data-name="Grupo 53313">
            <path id="Trazado_98649" data-name="Trazado 98649" d="M257.415,317.261a24.791,24.791,0,0,1-8.711-18.869v-27.1l-8.2,5.08a1.7,1.7,0,0,0-.8,1.443v24.6a24.792,24.792,0,0,0,8.711,18.869l22.052,18.792a1.7,1.7,0,0,0,2.2,0l5.761-4.909Z" transform="translate(-239.698 -271.293)" fill="#d5d5d5"/>
          </g>
        </g>
      </g>
      <g id="Grupo_53316" data-name="Grupo 53316" transform="translate(119.997 85.902)">
        <circle id="Elipse_10" data-name="Elipse 10" cx="18.158" cy="18.158" r="18.158" fill="#bd81d8"/>
      </g>
      <g id="Grupo_53317" data-name="Grupo 53317" transform="translate(119.997 85.903)">
        <path id="Trazado_98650" data-name="Trazado 98650" d="M295.894,307.689a18.161,18.161,0,0,1,13.157-17.455,18.158,18.158,0,1,0,0,34.91A18.163,18.163,0,0,1,295.894,307.689Z" transform="translate(-285.893 -289.531)" fill="#f3d9ff"/>
      </g>
      <g id="Grupo_53318" data-name="Grupo 53318" transform="translate(50.012 0)">
        <path id="Trazado_98651" data-name="Trazado 98651" d="M175.118,121.95a2.225,2.225,0,0,0,0-4.45H145.754a2.225,2.225,0,0,0,0,4.45Z" transform="translate(-115.783 -82.638)" fill="#171a43"/>
        <path id="Trazado_98652" data-name="Trazado 98652" d="M109.529,170.725a2.225,2.225,0,0,0,2.225,2.225h49.54a2.225,2.225,0,0,0,0-4.45h-49.54A2.225,2.225,0,0,0,109.529,170.725Z" transform="translate(-91.871 -118.507)" fill="#171a43"/>
        <path id="Trazado_98653" data-name="Trazado 98653" d="M111.754,207.95h49.54a2.225,2.225,0,0,0,0-4.45h-49.54a2.225,2.225,0,1,0,0,4.45Z" transform="translate(-91.871 -143.122)" fill="#171a43"/>
        <path id="Trazado_98654" data-name="Trazado 98654" d="M111.754,277.95h16.9a2.225,2.225,0,1,0,0-4.45h-16.9a2.225,2.225,0,1,0,0,4.45Z" transform="translate(-91.871 -192.354)" fill="#171a43"/>
        <path id="Trazado_98655" data-name="Trazado 98655" d="M170.018,99.239a2.225,2.225,0,0,0,2.225-2.225v-10a3.9,3.9,0,0,0-1.857-3.335l-10.7-6.628V3.115A3.119,3.119,0,0,0,156.569,0H73.493a3.119,3.119,0,0,0-3.115,3.115v7.068H63.31A3.119,3.119,0,0,0,60.195,13.3v7.068H53.127a3.119,3.119,0,0,0-3.115,3.115V137.106a3.119,3.119,0,0,0,3.115,3.115H69.59a2.225,2.225,0,1,0,0-4.45H54.462V24.816h80.406V65.752l-13.526,8.378a2.222,2.222,0,0,0-1.907-3.368H69.9a2.225,2.225,0,0,0,0,4.45h49.54c.058,0,.115,0,.173-.009l-9.595,5.943H93.919a2.225,2.225,0,1,0,0,4.45h10.411a3.929,3.929,0,0,0-.265,1.418v4.516H69.9a2.225,2.225,0,0,0,0,4.45h34.17v5.934H69.9a2.225,2.225,0,1,0,0,4.45h34.17v5.246c0,.23,0,.459.009.688H69.9a2.225,2.225,0,0,0,0,4.45h34.661a26.972,26.972,0,0,0,9,15.424l4.221,3.6H79.975a2.225,2.225,0,0,0,0,4.45H123l12.608,10.745a3.906,3.906,0,0,0,5.088,0l22.052-18.793a26.977,26.977,0,0,0,9.493-20.562V107.4a2.225,2.225,0,0,0-4.45,0v4.212a22.532,22.532,0,0,1-7.929,17.175l-21.71,18.5-21.709-18.5a22.532,22.532,0,0,1-7.929-17.175v-24.3l29.638-18.357,29.639,18.357v9.705a2.225,2.225,0,0,0,2.225,2.226Zm-30.7-34.655v-41.1a3.119,3.119,0,0,0-3.115-3.115H64.645V14.633h80.407v15.63a2.225,2.225,0,1,0,4.45,0V13.3a3.119,3.119,0,0,0-3.115-3.115H74.828V4.45h80.406V74.295L149.5,70.744v-30.1a2.225,2.225,0,1,0-4.45,0V67.988L140.22,65A3.956,3.956,0,0,0,139.319,64.585Z" transform="translate(-50.012 0)" fill="#171a43"/>
        <path id="Trazado_98656" data-name="Trazado 98656" d="M278.394,302.413a20.383,20.383,0,1,0,20.383-20.383A20.406,20.406,0,0,0,278.394,302.413Zm36.315,0a15.932,15.932,0,1,1-15.932-15.933A15.951,15.951,0,0,1,314.709,302.413Z" transform="translate(-210.634 -198.353)"/>
        <path id="Trazado_98657" data-name="Trazado 98657" d="M322.686,334.783a2.225,2.225,0,1,0-3.147,3.147l5.37,5.369a2.225,2.225,0,0,0,3.147,0l8.323-8.323a2.225,2.225,0,0,0-3.147-3.147l-6.749,6.749Z" transform="translate(-239.113 -232.919)"/>
      </g>
    </g>
    <rect id="Rectángulo_5055" data-name="Rectángulo 5055" width="260" height="196" transform="translate(783 849)" fill="none"/>
  </g>
</svg>
