<svg xmlns="http://www.w3.org/2000/svg" width="78" height="78" viewBox="0 0 78 78">
  <g id="Grupo_53474" data-name="Grupo 53474" transform="translate(-644 -3975)">
    <circle id="Elipse_45" data-name="Elipse 45" cx="39" cy="39" r="39" transform="translate(644 3975)" fill="#e4e0ff"/>
    <g id="procedimiento" transform="translate(656 3957.795)">
      <g id="Grupo_53469" data-name="Grupo 53469" transform="translate(0 32.205)">
        <path id="Trazado_98915" data-name="Trazado 98915" d="M431.881,393.682a3.2,3.2,0,1,0,3.2,3.2A3.2,3.2,0,0,0,431.881,393.682Zm0,4.8a1.6,1.6,0,1,1,1.6-1.6A1.606,1.606,0,0,1,431.881,398.485Z" transform="translate(-383.143 -355.282)" fill="#5d4cbc"/>
        <path id="Trazado_98916" data-name="Trazado 98916" d="M49.534,68.208V57.9L52,54.481a.8.8,0,0,0-.647-1.262H49.534V43.577a5.652,5.652,0,1,0-6.33-6.753H40.567V33.493A1.289,1.289,0,0,0,39.28,32.2H14.915a1.289,1.289,0,0,0-1.288,1.288v3.332H8.1a3.255,3.255,0,0,0-3.251,3.251V51.1a5.652,5.652,0,0,0,0,11.19v2.919L2.391,68.631a.8.8,0,0,0,.647,1.262H4.852v1.99A3.255,3.255,0,0,0,8.1,75.134h5.524v3.331a1.289,1.289,0,0,0,1.288,1.288h3.356a.8.8,0,0,0,0-1.593H15.221V69.8H38.974V78.16H21.99a.8.8,0,0,0,0,1.593H39.28a1.289,1.289,0,0,0,1.288-1.288V75.134h2.677a5.652,5.652,0,1,0,6.29-6.926Zm.261-13.4-1.058,1.471L47.68,54.812Zm-1.058-20.89a4.059,4.059,0,1,1-4.059,4.059A4.064,4.064,0,0,1,48.738,33.922ZM4.592,68.3,5.65,66.828,6.708,68.3ZM26.3,68.211H14.915A1.289,1.289,0,0,0,13.628,69.5V73.54H8.1a1.66,1.66,0,0,1-1.658-1.658v-1.99H8.262a.8.8,0,0,0,.647-1.262L6.446,65.206V62.291a5.613,5.613,0,0,0,4.286-3.117.8.8,0,1,0-1.431-.7,4.06,4.06,0,1,1,.188-3.108A.8.8,0,0,0,11,54.846,5.656,5.656,0,0,0,6.446,51.1V40.075A1.66,1.66,0,0,1,8.1,38.418h5.524V42.46a1.289,1.289,0,0,0,1.288,1.288H26.3V48.7H14.915a1.289,1.289,0,0,0-1.288,1.288V62.268a1.289,1.289,0,0,0,1.288,1.288H26.3ZM38.974,50.29V61.962H15.221V50.29Zm4.118,23.25H40.567V69.5a1.289,1.289,0,0,0-1.288-1.288H27.894V63.556H39.28a1.289,1.289,0,0,0,1.288-1.288V49.985A1.289,1.289,0,0,0,39.28,48.7H27.894v-4.95h4.931a.8.8,0,1,0,0-1.593h-17.6V33.8H38.974v8.355h-2.43a.8.8,0,1,0,0,1.593H39.28a1.289,1.289,0,0,0,1.288-1.288V38.418H43.1a5.661,5.661,0,0,0,4.838,5.159v9.642H46.126a.8.8,0,0,0-.647,1.262L47.941,57.9v10.3A5.661,5.661,0,0,0,43.092,73.54Zm5.646,4.322A4.059,4.059,0,1,1,52.8,73.8,4.064,4.064,0,0,1,48.738,77.863Z" transform="translate(0 -32.205)" fill="#5d4cbc"/>
        <path id="Trazado_98917" data-name="Trazado 98917" d="M431.881,62.87a3.2,3.2,0,1,0-3.2-3.2A3.2,3.2,0,0,0,431.881,62.87Zm0-4.8a1.6,1.6,0,1,1-1.6,1.6A1.607,1.607,0,0,1,431.881,58.067Z" transform="translate(-383.143 -53.896)" fill="#5d4cbc"/>
        <path id="Trazado_98918" data-name="Trazado 98918" d="M26.3,232.618a3.2,3.2,0,1,0,3.2,3.2A3.2,3.2,0,0,0,26.3,232.618Zm0,4.8a1.6,1.6,0,1,1,1.6-1.6A1.606,1.606,0,0,1,26.3,237.421Z" transform="translate(-20.651 -211.328)" fill="#5d4cbc"/>
        <path id="Trazado_98919" data-name="Trazado 98919" d="M164.5,223.339h17.82a.8.8,0,0,0,0-1.593H164.5a.8.8,0,1,0,0,1.593Z" transform="translate(-146.315 -201.611)" fill="#5d4cbc"/>
        <path id="Trazado_98920" data-name="Trazado 98920" d="M164.5,251.479h17.82a.8.8,0,0,0,0-1.593H164.5a.8.8,0,1,0,0,1.593Z" transform="translate(-146.315 -226.761)" fill="#5d4cbc"/>
        <path id="Trazado_98921" data-name="Trazado 98921" d="M210.71,278.026H200.548a.8.8,0,0,0,0,1.593H210.71a.8.8,0,0,0,0-1.593Z" transform="translate(-178.531 -251.912)" fill="#5d4cbc"/>
        <path id="Trazado_98922" data-name="Trazado 98922" d="M183.119,64.919a.8.8,0,0,0-.8-.8H164.5a.8.8,0,1,0,0,1.593h17.82A.8.8,0,0,0,183.119,64.919Z" transform="translate(-146.314 -60.731)" fill="#5d4cbc"/>
        <path id="Trazado_98923" data-name="Trazado 98923" d="M212.592,92.262h-9.654a.8.8,0,0,0,0,1.593h9.654a.8.8,0,0,0,0-1.593Z" transform="translate(-180.667 -85.882)" fill="#5d4cbc"/>
        <path id="Trazado_98924" data-name="Trazado 98924" d="M167.735,402.249V398.4a1.117,1.117,0,0,0-1.115-1.115h-3.844a1.117,1.117,0,0,0-1.115,1.115v3.844a1.117,1.117,0,0,0,1.115,1.115h3.844A1.117,1.117,0,0,0,167.735,402.249Zm-1.593-.478h-2.888v-2.888h2.888Z" transform="translate(-144.487 -358.506)" fill="#5d4cbc"/>
        <path id="Trazado_98925" data-name="Trazado 98925" d="M234.486,406.084h10.6a.8.8,0,0,0,0-1.593h-10.6a.8.8,0,1,0,0,1.593Z" transform="translate(-208.864 -364.943)" fill="#5d4cbc"/>
        <path id="Trazado_98926" data-name="Trazado 98926" d="M234.486,431.81h10.6a.8.8,0,0,0,0-1.594h-10.6a.8.8,0,0,0,0,1.594Z" transform="translate(-208.864 -387.935)" fill="#5d4cbc"/>
      </g>
    </g>
  </g>
</svg>
