<svg xmlns="http://www.w3.org/2000/svg" width="133" height="133" viewBox="0 0 133 133">
  <g id="Grupo_53440" data-name="Grupo 53440" transform="translate(-158 -3551.844)">
    <g id="Elipse_25" data-name="Elipse 25" transform="translate(158 3551.844)" fill="#f3f9ff" stroke="#9a4cbc" stroke-width="2">
      <circle cx="66.5" cy="66.5" r="66.5" stroke="none"/>
      <circle cx="66.5" cy="66.5" r="65.5" fill="none"/>
    </g>
    <g id="auditor" transform="translate(193.423 3576.153)">
      <g id="Grupo_53410" data-name="Grupo 53410" transform="translate(1.203 1.203)">
        <path id="Trazado_98803" data-name="Trazado 98803" d="M279.774,245.15h7.082v16.406h-7.082Z" transform="translate(-247.617 -207.023)" fill="#407093"/>
        <path id="Trazado_98804" data-name="Trazado 98804" d="M279.774,245.15h3.541v16.406h-3.541Z" transform="translate(-247.617 -207.023)" fill="#365e7d"/>
        <g id="Grupo_53409" data-name="Grupo 53409" transform="translate(0 27.32)">
          <path id="Trazado_98805" data-name="Trazado 98805" d="M84.572,328.122a5.235,5.235,0,0,0,5.235-5.235l3.162-10.471L89.807,302.04a5.235,5.235,0,1,0-10.47,0v20.846A5.235,5.235,0,0,0,84.572,328.122Z" transform="translate(-79.337 -277.71)" fill="#d3a7e6"/>
          <path id="Trazado_98806" data-name="Trazado 98806" d="M89.807,394.106l6.877,4-6.877,6.47a5.235,5.235,0,1,1-10.471,0V394.106a5.235,5.235,0,1,0,10.471,0Z" transform="translate(-79.336 -359.4)" fill="#e4e0ff"/>
          <path id="Trazado_98807" data-name="Trazado 98807" d="M177.431,196.77h-14.8a2.958,2.958,0,0,1-2.958-2.958V183.748a5.928,5.928,0,0,0-5.765-5.961,5.865,5.865,0,0,0-5.965,5.864v6.855a7.53,7.53,0,0,0-3.345,6.264v23.377A10.055,10.055,0,0,0,154.654,230.2h17.2a3.747,3.747,0,0,0,3.772-3.593,3.7,3.7,0,0,0-3.7-3.8h2a4.408,4.408,0,0,0,4.425-4.424,4.34,4.34,0,0,0-4.339-4.255h1.621a4.408,4.408,0,0,0,4.425-4.425,4.34,4.34,0,0,0-4.339-4.255h1.707a4.34,4.34,0,1,0,0-8.679Z" transform="translate(-134.129 -177.786)" fill="#e4e0ff"/>
          <path id="Trazado_98808" data-name="Trazado 98808" d="M159.888,230.206h-5.232A10.053,10.053,0,0,1,144.6,220.152V196.775a7.529,7.529,0,0,1,3.345-6.265v-6.854a5.865,5.865,0,0,1,5.965-5.865,5.721,5.721,0,0,1,2.5.62,5.864,5.864,0,0,0-3.236,5.245v6.854a7.53,7.53,0,0,0-3.346,6.265v23.377A10.054,10.054,0,0,0,159.888,230.206Z" transform="translate(-134.131 -177.79)" fill="#d3a7e6"/>
        </g>
        <circle id="Elipse_24" data-name="Elipse 24" cx="20.988" cy="20.988" r="20.988" transform="translate(14.71 0)" fill="#ffea99"/>
        <path id="Trazado_98809" data-name="Trazado 98809" d="M193.783,49.4q-.876.075-1.771.075a20.989,20.989,0,0,1,0-41.977q.894,0,1.771.075a20.989,20.989,0,0,0,0,41.828Z" transform="translate(-156.314 -7.5)" fill="#ffd064"/>
        <path id="Trazado_98813" data-name="Trazado 98813" d="M14.837,0A14.837,14.837,0,1,1,0,14.837,14.837,14.837,0,0,1,14.837,0Z" transform="translate(20.861 6.151)" fill="#f3f9ff"/>
        <path id="Trazado_98810" data-name="Trazado 98810" d="M227.155,75.216a14.837,14.837,0,1,1,0-29.085,14.841,14.841,0,0,0,0,29.085Z" transform="translate(-188.5 -39.686)" fill="#d2e1f1"/>
      </g>
      <g id="Grupo_53411" data-name="Grupo 53411" transform="translate(0 0)">
        <path id="Trazado_98811" data-name="Trazado 98811" d="M130.931,22.191a22.208,22.208,0,0,0-2.707-10.627,1.2,1.2,0,0,0-2.112,1.155,19.824,19.824,0,1,1-2.6-3.681,1.2,1.2,0,1,0,1.8-1.6A22.191,22.191,0,0,0,87.742,29.374a7.012,7.012,0,0,0-2.087,5.015v6.241a8.732,8.732,0,0,0-3.345,6.877v.331a6.435,6.435,0,0,0-10.47,5.015V68.121a1.2,1.2,0,0,0,2.407,0V52.854a4.032,4.032,0,1,1,8.064,0V73.7a4.032,4.032,0,0,1-8.063,0v-.781a1.2,1.2,0,1,0-2.407,0V73.7a6.437,6.437,0,0,0,12.114,3.036,11.262,11.262,0,0,0,9.615,5.407h17.2a4.972,4.972,0,0,0,4.974-4.763,4.855,4.855,0,0,0-.915-2.993,5.7,5.7,0,0,0,2.059-1.338,5.456,5.456,0,0,0,1.585-3.949,5.517,5.517,0,0,0-1.442-3.606,5.688,5.688,0,0,0,1.564-1.125,5.456,5.456,0,0,0,1.585-3.949,5.516,5.516,0,0,0-1.421-3.583A5.543,5.543,0,0,0,116.345,46.3h-2.861V43.87a22.229,22.229,0,0,0,17.447-21.679ZM101.546,46.3a1.756,1.756,0,0,1-1.755-1.753V42.5a22.013,22.013,0,0,0,4.2,1.374V46.3h-2.449Zm17.015,3.324a3.137,3.137,0,0,1-2.217,5.356h-1.707a1.2,1.2,0,0,0,0,2.407,3.153,3.153,0,0,1,3.136,3.075,3.067,3.067,0,0,1-.9,2.217,3.278,3.278,0,0,1-2.324.981h-1.622a1.2,1.2,0,1,0,0,2.407,3.153,3.153,0,0,1,3.136,3.075,3.068,3.068,0,0,1-.9,2.218,3.278,3.278,0,0,1-2.324.981h-2a1.2,1.2,0,1,0,0,2.407,2.492,2.492,0,0,1,2.492,2.563,2.55,2.55,0,0,1-2.568,2.423h-17.2a8.862,8.862,0,0,1-8.852-8.852V47.507a6.332,6.332,0,0,1,2.812-5.265,1.2,1.2,0,0,0,.533-1V34.389a4.639,4.639,0,0,1,.722-2.5,22.343,22.343,0,0,0,8.6,9.359v3.3a4.165,4.165,0,0,0,4.161,4.16h14.8a3.119,3.119,0,0,1,2.217.917ZM111.078,46.3H106.4V44.26a22.257,22.257,0,0,0,4.676,0V46.3Z" transform="translate(-71.839 0)" fill="#23147b"/>
        <path id="Trazado_98812" data-name="Trazado 98812" d="M217.9,38.34a16.041,16.041,0,1,0,16.041,16.041A16.059,16.059,0,0,0,217.9,38.34Zm0,29.675a13.634,13.634,0,1,1,13.634-13.634A13.65,13.65,0,0,1,217.9,68.015Z" transform="translate(-181.002 -32.189)" fill="#23147b"/>
      </g>
    </g>
  </g>
</svg>
