<svg xmlns="http://www.w3.org/2000/svg" xmlns:xlink="http://www.w3.org/1999/xlink" width="299.874" height="290.778" viewBox="0 0 299.874 290.778">
  <defs>
    <linearGradient id="linear-gradient" x1="1.056" y1="1.696" x2="0.086" y2="2.323" gradientUnits="objectBoundingBox">
      <stop offset="0.004" stop-color="#26264f"/>
      <stop offset="1" stop-color="#444b8c"/>
    </linearGradient>
    <linearGradient id="linear-gradient-2" x1="0.286" y1="2.308" x2="0.859" y2="1.814" gradientUnits="objectBoundingBox">
      <stop offset="0" stop-color="#444b8c"/>
      <stop offset="0.996" stop-color="#26264f"/>
    </linearGradient>
    <linearGradient id="linear-gradient-3" x1="0.252" y1="0.202" x2="0.8" y2="0.86" gradientUnits="objectBoundingBox">
      <stop offset="0" stop-color="#ff9085"/>
      <stop offset="1" stop-color="#fb6fbb"/>
    </linearGradient>
  </defs>
  <g id="Grupo_53487" data-name="Grupo 53487" transform="translate(-823.563 -4172.339)">
    <g id="Grupo_53485" data-name="Grupo 53485">
      <path id="Trazado_98930" data-name="Trazado 98930" d="M129.606,1.788c71.579,0,129.606-17.376,129.606,56.2S201.185,191.205,129.606,191.205,0,131.562,0,57.987,58.026,1.788,129.606,1.788Z" transform="matrix(0.105, 0.995, -0.995, 0.105, 1013.721, 4172.339)" fill="#f3f9ff"/>
      <ellipse id="Elipse_11" data-name="Elipse 11" cx="110.224" cy="110.224" rx="110.224" ry="110.224" transform="translate(850.651 4224.023)" fill="#d2e1f1"/>
      <g id="Grupo_53484" data-name="Grupo 53484" transform="translate(384.859 3743.269)">
        <g id="Grupo_53478" data-name="Grupo 53478" transform="translate(535.711 478.153)">
          <g id="Grupo_53477" data-name="Grupo 53477" transform="translate(0)">
            <path id="Trazado_98932" data-name="Trazado 98932" d="M1028.058,906.824c0,4.4-3.12,8.156-6.966,8.38L872.71,923.865c-4.407.257-8-3.38-8-8.109V702.9c0-4.729,3.6-8.43,8-8.252l148.382,6.013c3.847.156,6.966,3.859,6.966,8.256Z" transform="translate(-864.706 -694.645)" fill="url(#linear-gradient)"/>
            <path id="Trazado_98934" data-name="Trazado 98934" d="M948.44,740.271V952.783a4.143,4.143,0,0,0,4.271,4.334l117.354-6.648,31.028-1.758a4.311,4.311,0,0,0,3.729-4.479v-198.2a4.218,4.218,0,0,0-3.729-4.413l-32.148-1.248L952.712,735.86A4.232,4.232,0,0,0,948.44,740.271Z" transform="translate(-940.35 -731.876)" fill="url(#linear-gradient-2)"/>
            <path id="Trazado_98935" data-name="Trazado 98935" d="M1124.828,961.082a1.682,1.682,0,0,1-1.567,1.67l-148.607,7.6a1.647,1.647,0,0,1-1.792-1.61V766.29a1.674,1.674,0,0,1,1.792-1.634l148.607,5.589a1.655,1.655,0,0,1,1.567,1.649Z" transform="translate(-962.413 -757.89)" fill="#d8dee8"/>
            <path id="Trazado_98937" data-name="Trazado 98937" d="M1773.065,753.486a1.418,1.418,0,0,1-1.544,1.356,1.557,1.557,0,0,1-1.547-1.476,1.418,1.418,0,0,1,1.547-1.356A1.557,1.557,0,0,1,1773.065,753.486Z" transform="translate(-1682.515 -746.467)" fill="url(#linear-gradient-3)"/>
          </g>
        </g>
        <g id="Grupo_53480" data-name="Grupo 53480" transform="translate(553.988 471.358)">
          <path id="Trazado_98946" data-name="Trazado 98946" d="M1235.929,627.485V816.178l-53.312,3.935-80.14,5.911.68-201.711,49.5,1.183Z" transform="translate(-1097.783 -624.313)" fill="#ffea99"/>
          <path id="Trazado_98947" data-name="Trazado 98947" d="M1256.332,754.1l-60.464-.628.053-16.807,60.438,1.119Z" transform="translate(-1182.151 -725.807)" fill="#fde27a" opacity="0.6" style="mix-blend-mode: multiply;isolation: isolate"/>
          <path id="Trazado_98948" data-name="Trazado 98948" d="M1391.156,1175.963l-19.405.208.058-21.2,19.394,0Z" transform="translate(-1341.042 -1103.705)" fill="#fde27a" style="mix-blend-mode: multiply;isolation: isolate"/>
          <path id="Trazado_98949" data-name="Trazado 98949" d="M1705.234,1164.19l-68.244.415.022-10.464,68.225-.059Z" transform="translate(-1580.657 -1102.9)" fill="#f5d765"/>
          <path id="Trazado_98950" data-name="Trazado 98950" d="M1389.971,1614.041l-19.427.635.058-21.245,19.417-.423Z" transform="translate(-1339.952 -1499.422)" fill="#fde27a" style="mix-blend-mode: multiply;isolation: isolate"/>
          <path id="Trazado_98951" data-name="Trazado 98951" d="M1704.4,1586.22l-68.317,1.853.022-10.487,68.3-1.5Z" transform="translate(-1579.837 -1484.138)" fill="#f5d765"/>
          <path id="Trazado_98952" data-name="Trazado 98952" d="M1388.783,2053.038l-19.449,1.063.058-21.291,19.438-.85Z" transform="translate(-1338.858 -1895.965)" fill="#fde27a" style="mix-blend-mode: multiply;isolation: isolate"/>
          <path id="Trazado_98953" data-name="Trazado 98953" d="M1703.564,2009.124l-68.391,3.3.022-10.509,68.373-2.939Z" transform="translate(-1579.015 -1866.166)" fill="#f5d765"/>
        </g>
        <g id="Grupo_53483" data-name="Grupo 53483" transform="translate(650.572 603.373)">
          <path id="Trazado_98954" data-name="Trazado 98954" d="M2101.788,2009.633v106.348l74.774-4.842a2.973,2.973,0,0,0,3.015-2.717v-94.915a3,3,0,0,0-3.149-2.723Z" transform="translate(-2097.134 -2007.811)" fill="#d3a7e6"/>
          <path id="Rectángulo_5090" data-name="Rectángulo 5090" d="M0,0H5.421A3.135,3.135,0,0,1,8.556,3.135V16.991a3.135,3.135,0,0,1-3.135,3.135H0a0,0,0,0,1,0,0V0A0,0,0,0,1,0,0Z" transform="translate(79.449 8.801)" fill="#d3a7e6"/>
          <path id="Trazado_98956" data-name="Trazado 98956" d="M2053.617,1995.613v100.658a3.344,3.344,0,0,0,3.143,3.083l60.4,7.874c1.895.206,3.573-1.035,3.573-2.641v-111.15a2.964,2.964,0,0,0-3.25-2.662l-60.279,1.719A3.431,3.431,0,0,0,2053.617,1995.613Z" transform="translate(-2053.617 -1990.775)" fill="#23147b"/>
          <g id="Grupo_53482" data-name="Grupo 53482" transform="translate(17.718 19.276)">
            <g id="Grupo_53481" data-name="Grupo 53481">
              <path id="Trazado_98957" data-name="Trazado 98957" d="M2237.016,2213.5l23.344.835v43.187l5.574.558v1.711l-28.549-2.929v-1.639l5.1.511V2215.35l-5.472-.21Zm14.191-5.91c-3.377-.088-5.76-.98-7.172-2.671a9.328,9.328,0,0,1-2.108-6.191,8.338,8.338,0,0,1,2.3-6.044c1.539-1.593,3.893-2.393,7.081-2.393q4.826,0,7.383,2.21a7.947,7.947,0,0,1,2.563,6.335,8.67,8.67,0,0,1-2.465,6.507C2257.15,2206.935,2254.618,2207.681,2251.207,2207.592Z" transform="translate(-2237.016 -2190.292)" fill="#fff"/>
            </g>
          </g>
        </g>
      </g>
    </g>
    <g id="tap" transform="translate(964.824 4356.563)">
      <path id="Trazado_98958" data-name="Trazado 98958" d="M38.8,63.61a3.4,3.4,0,0,1,3.281-3.515h.073A3.4,3.4,0,0,1,45.431,63.6c.015,6.341.006,6.963,0,16.433-.006,5.318-4.031,9.624-8.994,9.624H25.776a8.919,8.919,0,0,1-7.857-4.943l-9.5-18.255.993-.823a4.721,4.721,0,0,1,6.936.52l2.659,3.237.015-22.271A3.4,3.4,0,0,1,22.3,43.609h0a3.4,3.4,0,0,1,3.281,3.516V60.6a3.4,3.4,0,0,1,3.279-3.424h.077A3.4,3.4,0,0,1,32.224,60.7v1.132a3.4,3.4,0,0,1,3.282-3.515h.008A3.4,3.4,0,0,1,38.8,61.827Zm0,0" transform="translate(-7.132 -38.874)" fill="#f3f9ff"/>
      <g id="Grupo_53486" data-name="Grupo 53486" transform="translate(0.417)">
        <path id="Trazado_98959" data-name="Trazado 98959" d="M35.018,52.139h-.073a3.985,3.985,0,0,0-2.684,1.022,4.186,4.186,0,0,0-3.887-2.839,4.033,4.033,0,0,0-2.882,1.241,4.125,4.125,0,0,0-3.682-2.357h-.077a3.808,3.808,0,0,0-2.37.777v-9.99a4.294,4.294,0,0,0-4.171-4.385,4.285,4.285,0,0,0-4.16,4.381l-.019,19.848L9.888,58.474a5.666,5.666,0,0,0-4-2.1A5.575,5.575,0,0,0,1.708,57.85l-.976.81a.869.869,0,0,0-.216,1.07l9.5,18.265a9.8,9.8,0,0,0,8.627,5.42H29.3c5.433,0,9.858-4.716,9.864-10.5,0-2.623,0-4.572.007-6.146.006-4.154.007-5.688,0-10.274A4.259,4.259,0,0,0,35.018,52.139Zm2.417,14.62c0,1.575,0,3.528-.007,6.151-.005,4.828-3.65,8.766-8.126,8.766H18.644a8.067,8.067,0,0,1-7.086-4.484L2.38,59.554l.453-.378.034-.03a3.854,3.854,0,0,1,2.9-1.04,3.942,3.942,0,0,1,2.78,1.471L11.2,62.814a.869.869,0,0,0,1.54-.551l.015-22.271a2.557,2.557,0,0,1,2.434-2.645,2.557,2.557,0,0,1,2.433,2.647V53.465c0,.033,0,.065,0,.1,0,.014,0,.028,0,.042v5.761a.869.869,0,0,0,1.737,0V53.488a2.462,2.462,0,0,1,2.37-2.543h.077a2.537,2.537,0,0,1,2.439,2.619v5.254a.869.869,0,1,0,1.737,0V54.7a2.4,2.4,0,1,1,4.778,0v3.889a.869.869,0,0,0,1.737,0V56.478a2.524,2.524,0,0,1,2.443-2.6h.073a2.52,2.52,0,0,1,2.413,2.617C37.442,61.076,37.44,62.607,37.435,66.759Zm0,0" transform="translate(-0.417 -31.743)" fill="#23147b"/>
        <path id="Trazado_98960" data-name="Trazado 98960" d="M65.607,8.627a.869.869,0,0,0,.869-.869,6.02,6.02,0,1,1,12.04,0,.869.869,0,0,0,1.737,0,7.758,7.758,0,1,0-15.515,0A.869.869,0,0,0,65.607,8.627Zm0,0" transform="translate(-57.754)" fill="#23147b"/>
      </g>
    </g>
  </g>
</svg>
