<svg xmlns="http://www.w3.org/2000/svg" width="86" height="86" viewBox="0 0 86 86">
  <g id="Grupo_53364" data-name="Grupo 53364" transform="translate(-691 -561)">
    <g id="Elipse_16" data-name="Elipse 16" transform="translate(691 561)" fill="#d2e1f1" stroke="#9a4cbc" stroke-width="2">
      <circle cx="43" cy="43" r="43" stroke="none"/>
      <circle cx="43" cy="43" r="42" fill="none"/>
    </g>
    <g id="obediente" transform="translate(693.922 577)">
      <g id="Grupo_53340" data-name="Grupo 53340" transform="translate(25.569 0.777)">
        <path id="Trazado_98687" data-name="Trazado 98687" d="M149.833,7.5h-33a.518.518,0,0,0-.518.518V22.384h3.4a2.539,2.539,0,0,1,.177,5.072v3.15h0a1.036,1.036,0,0,1,.879,1.023v6.432a1.036,1.036,0,0,1-.879,1.023h0v3.15a2.539,2.539,0,0,1-.177,5.072h-3.4V51.56h7.151A1.036,1.036,0,0,1,124.5,52.6v2.065h.79a1.036,1.036,0,0,1,1.036,1.036V59h24.023V8.018A.518.518,0,0,0,149.833,7.5Z" transform="translate(-116.315 -7.5)" fill="#dff6fd"/>
      </g>
      <g id="Grupo_53341" data-name="Grupo 53341" transform="translate(25.569 0.777)">
        <path id="Trazado_98688" data-name="Trazado 98688" d="M119.713,22.384l.092,0V8.018a.518.518,0,0,1,.518-.518h-3.491a.518.518,0,0,0-.518.518V22.384Z" transform="translate(-116.315 -7.5)" fill="#d2e1f1"/>
        <path id="Trazado_98689" data-name="Trazado 98689" d="M119.713,391.629h-3.4v4.253h3.491v-4.255Z" transform="translate(-116.315 -351.822)" fill="#d2e1f1"/>
      </g>
      <g id="Grupo_53359" data-name="Grupo 53359" transform="translate(15.855 15.661)">
        <g id="Grupo_53342" data-name="Grupo 53342" transform="translate(14.167 10.69)">
          <path id="Trazado_98690" data-name="Trazado 98690" d="M159.3,254.29h4.8v3.544h-4.8Z" transform="translate(-159.296 -254.29)" fill="#d3a7e6"/>
          <path id="Trazado_98691" data-name="Trazado 98691" d="M237.5,254.29h6.851v3.544H237.5Z" transform="translate(-229.398 -254.29)" fill="#d3a7e6"/>
        </g>
        <g id="Grupo_53343" data-name="Grupo 53343" transform="translate(14.167 12.525)">
          <path id="Trazado_98692" data-name="Trazado 98692" d="M159.3,272h4.8v1.708h-4.8Z" transform="translate(-159.296 -272)" fill="#f5deff"/>
          <path id="Trazado_98693" data-name="Trazado 98693" d="M237.5,272h6.851v1.708H237.5Z" transform="translate(-229.398 -272)" fill="#f5deff"/>
        </g>
        <g id="Grupo_53344" data-name="Grupo 53344" transform="translate(29.123 9.863)">
          <path id="Trazado_98694" data-name="Trazado 98694" d="M322.87,248.909a2.6,2.6,0,0,1-2.6,2.6H304.207a.591.591,0,0,1-.591-.591V246.9a.591.591,0,0,1,.591-.591h16.065A2.6,2.6,0,0,1,322.87,248.909Z" transform="translate(-303.616 -246.31)" fill="#d3a7e6"/>
        </g>
        <g id="Grupo_53345" data-name="Grupo 53345" transform="translate(29.123 9.863)">
          <path id="Trazado_98695" data-name="Trazado 98695" d="M307.148,249.283a.591.591,0,0,1-.591-.591V246.31h-2.351a.591.591,0,0,0-.591.591v4.016a.591.591,0,0,0,.591.591h16.065a2.6,2.6,0,0,0,2.571-2.225Z" transform="translate(-303.616 -246.31)" fill="#f5deff"/>
        </g>
        <g id="Grupo_53346" data-name="Grupo 53346" transform="translate(18.964 9.863)">
          <path id="Trazado_98696" data-name="Trazado 98696" d="M208.892,246.829v4.161a.518.518,0,0,1-.518.518H206.1a.518.518,0,0,1-.518-.518v-4.161a.518.518,0,0,1,.518-.518h2.271a.518.518,0,0,1,.518.518Z" transform="translate(-205.585 -246.311)" fill="#d3a7e6"/>
        </g>
        <g id="Grupo_53347" data-name="Grupo 53347" transform="translate(18.964 9.863)">
          <path id="Trazado_98697" data-name="Trazado 98697" d="M207.087,250.99v-4.161a.518.518,0,0,1,.518-.518h-1.5a.518.518,0,0,0-.518.518v4.161a.518.518,0,0,0,.518.518h1.5A.518.518,0,0,1,207.087,250.99Z" transform="translate(-205.585 -246.311)" fill="#f5deff"/>
        </g>
        <g id="Grupo_53348" data-name="Grupo 53348" transform="translate(6.438 5.072)">
          <path id="Trazado_98698" data-name="Trazado 98698" d="M91.4,312.31H84.861a1.042,1.042,0,0,1-.158-.013v3.15c.059,0,.118-.007.177-.007h6.5c.06,0,.119,0,.177.007V312.3A1.03,1.03,0,0,1,91.4,312.31Z" transform="translate(-84.703 -300.668)" fill="#d3a7e6"/>
          <path id="Trazado_98699" data-name="Trazado 98699" d="M84.861,312.31a1.042,1.042,0,0,1-.158-.013v3.15c.059,0,.118-.007.177-.007h2.432v-3.13H84.861Z" transform="translate(-84.703 -300.668)" fill="#f5deff"/>
          <path id="Trazado_98700" data-name="Trazado 98700" d="M84.861,203.216H91.4a1.04,1.04,0,0,1,.158.013v-3.15c-.059,0-.118.007-.177.007h-6.5c-.06,0-.119,0-.177-.007v3.15A1.04,1.04,0,0,1,84.861,203.216Z" transform="translate(-84.703 -200.079)" fill="#d3a7e6"/>
          <path id="Trazado_98701" data-name="Trazado 98701" d="M84.861,203.215h2.452v-3.13H84.88c-.06,0-.119,0-.177-.007v3.15a1.056,1.056,0,0,1,.158-.013Z" transform="translate(-84.703 -200.078)" fill="#f5deff"/>
        </g>
        <g id="Grupo_53349" data-name="Grupo 53349" transform="translate(5.559 8.21)">
          <path id="Trazado_98702" data-name="Trazado 98702" d="M84.833,231.388v6.432a1.036,1.036,0,0,1-1.036,1.036H77.261a1.036,1.036,0,0,1-1.036-1.036v-6.432a1.036,1.036,0,0,1,1.036-1.036H83.8A1.036,1.036,0,0,1,84.833,231.388Z" transform="translate(-76.225 -230.352)" fill="#d3a7e6"/>
        </g>
        <g id="Grupo_53350" data-name="Grupo 53350" transform="translate(5.559 8.21)">
          <path id="Trazado_98703" data-name="Trazado 98703" d="M79.725,237.821v-6.432a1.036,1.036,0,0,1,1.036-1.036h-3.5a1.036,1.036,0,0,0-1.036,1.036v6.432a1.036,1.036,0,0,0,1.036,1.036h3.5A1.036,1.036,0,0,1,79.725,237.821Z" transform="translate(-76.225 -230.352)" fill="#f5deff"/>
        </g>
        <g id="Grupo_53353" data-name="Grupo 53353" transform="translate(0 29.177)">
          <path id="Trazado_98704" data-name="Trazado 98704" d="M56.265,435.889a1.059,1.059,0,0,0,.005-.106v-2.062a1.036,1.036,0,0,0-1.036-1.036h-14a1.036,1.036,0,0,0-1.036,1.036v2.062a1.06,1.06,0,0,0,.005.106Z" transform="translate(-38.369 -432.685)" fill="#d3a7e6"/>
          <path id="Trazado_98705" data-name="Trazado 98705" d="M43.7,435.889a1.059,1.059,0,0,1-.005-.106v-2.062a1.036,1.036,0,0,1,1.036-1.036h-3.5a1.036,1.036,0,0,0-1.036,1.036v2.062a1.059,1.059,0,0,0,.005.106Z" transform="translate(-38.369 -432.685)" fill="#f5deff"/>
          <g id="Grupo_53351" data-name="Grupo 53351" transform="translate(0 3.101)">
            <path id="Trazado_98706" data-name="Trazado 98706" d="M42.3,466.949H23.1a.518.518,0,0,1-.518-.518v-2.787a1.036,1.036,0,0,1,1.036-1.036H41.268a1.036,1.036,0,0,1,1.036,1.036Z" transform="translate(-22.578 -462.608)" fill="#d3a7e6"/>
          </g>
          <g id="Grupo_53352" data-name="Grupo 53352" transform="translate(0 3.101)">
            <path id="Trazado_98707" data-name="Trazado 98707" d="M26.041,466.431v-2.787a1.036,1.036,0,0,1,1.036-1.036H23.614a1.036,1.036,0,0,0-1.036,1.036v2.787a.518.518,0,0,0,.518.518H26.56A.518.518,0,0,1,26.041,466.431Z" transform="translate(-22.578 -462.608)" fill="#f5deff"/>
          </g>
        </g>
        <g id="Grupo_53358" data-name="Grupo 53358" transform="translate(4.075)">
          <g id="Grupo_53354" data-name="Grupo 53354" transform="translate(0 19.845)">
            <path id="Trazado_98708" data-name="Trazado 98708" d="M73.481,345.173a2.54,2.54,0,0,1-2.54,2.54h-6.5a2.54,2.54,0,0,1,0-5.079h6.5A2.54,2.54,0,0,1,73.481,345.173Z" transform="translate(-61.905 -342.633)" fill="#d3a7e6"/>
          </g>
          <g id="Grupo_53355" data-name="Grupo 53355" transform="translate(0 19.845)">
            <path id="Trazado_98709" data-name="Trazado 98709" d="M65.364,345.173a2.54,2.54,0,0,1,2.54-2.54H64.445a2.54,2.54,0,0,0,0,5.079H67.9A2.54,2.54,0,0,1,65.364,345.173Z" transform="translate(-61.905 -342.633)" fill="#f5deff"/>
          </g>
          <g id="Grupo_53356" data-name="Grupo 53356" transform="translate(0)">
            <path id="Trazado_98710" data-name="Trazado 98710" d="M73.481,153.668a2.54,2.54,0,0,1-2.54,2.54h-6.5a2.54,2.54,0,1,1,0-5.079h6.5A2.54,2.54,0,0,1,73.481,153.668Z" transform="translate(-61.905 -151.128)" fill="#d3a7e6"/>
          </g>
          <g id="Grupo_53357" data-name="Grupo 53357">
            <path id="Trazado_98711" data-name="Trazado 98711" d="M65.364,153.668a2.54,2.54,0,0,1,2.54-2.54H64.445a2.54,2.54,0,1,0,0,5.079H67.9A2.54,2.54,0,0,1,65.364,153.668Z" transform="translate(-61.905 -151.128)" fill="#f5deff"/>
          </g>
        </g>
      </g>
      <g id="Grupo_53362" data-name="Grupo 53362" transform="translate(35.315 5.607)">
        <g id="Grupo_53360" data-name="Grupo 53360" transform="translate(0)">
          <circle id="Elipse_15" data-name="Elipse 15" cx="7.271" cy="7.271" r="7.271" fill="#f3f9ff"/>
        </g>
        <g id="Grupo_53361" data-name="Grupo 53361" transform="translate(0)">
          <path id="Trazado_98712" data-name="Trazado 98712" d="M213.857,61.378a7.273,7.273,0,0,1,5.529-7.06,7.271,7.271,0,1,0,0,14.119A7.273,7.273,0,0,1,213.857,61.378Z" transform="translate(-210.372 -54.107)" fill="#d2e1f1"/>
        </g>
      </g>
      <g id="Grupo_53363" data-name="Grupo 53363" transform="translate(15.078 0)">
        <path id="Trazado_98713" data-name="Trazado 98713" d="M61.633,24.747H60.382V11.3a.777.777,0,0,0-.8-.777.8.8,0,0,0-.753.809V24.747H53.619a.777.777,0,0,0,0,1.554h8.015a1.822,1.822,0,1,1,0,3.643H45.755V26.3h4.237a.777.777,0,1,0,0-1.554H45.569a1.369,1.369,0,0,0-1.256.827h-5.5a1.3,1.3,0,0,0-1.206-.827H35.338a1.3,1.3,0,0,0-1.206.827H30.8v-.667a1.812,1.812,0,0,0-.879-1.551V21.377a3.317,3.317,0,0,0-.954-6.493H26.346V1.554H58.828V7.668a.777.777,0,0,0,.8.777.8.8,0,0,0,.753-.809V1.3a1.3,1.3,0,0,0-1.3-1.3h-33a1.3,1.3,0,0,0-1.3,1.3V14.884H22.47a3.317,3.317,0,0,0-.954,6.493v1.979a1.812,1.812,0,0,0-.879,1.551v6.432a1.812,1.812,0,0,0,.879,1.551v1.979a3.317,3.317,0,0,0,.954,6.493h2.321v2.7H18.717A1.816,1.816,0,0,0,16.9,45.874v1.287h-.012a1.816,1.816,0,0,0-1.813,1.813v2.787a1.3,1.3,0,0,0,1.3,1.3H59.087a1.3,1.3,0,0,0,1.3-1.3V31.5h1.251a3.376,3.376,0,0,0,0-6.752ZM38.9,27.128h5.3v1.989H38.9ZM35.6,26.3H37.35v3.643H35.6Zm-4.8.827h3.242v1.989H30.8ZM20.708,18.2a1.764,1.764,0,0,1,1.762-1.762h6.5a1.762,1.762,0,0,1,0,3.525h-6.5A1.764,1.764,0,0,1,20.708,18.2Zm1.743,13.4a.259.259,0,0,1-.259-.259V24.907a.259.259,0,0,1,.259-.259h6.536a.259.259,0,0,1,.259.259v6.432a.259.259,0,0,1-.259.259Zm5.916,1.554v1.576h-5.3V33.152Zm-5.3-10.059V21.517h5.3v1.576Zm-.6,16.714a1.762,1.762,0,0,1,0-3.525h6.5a1.762,1.762,0,0,1,0,3.525ZM34.8,51.5H16.632V48.974a.259.259,0,0,1,.259-.259H21.7a.777.777,0,1,0,0-1.554H18.458V45.874a.259.259,0,0,1,.259-.259h14a.259.259,0,0,1,.259.259v1.287h-7.65a.777.777,0,0,0,0,1.554h9.217a.259.259,0,0,1,.259.259Zm24.023,0H36.359V48.974a1.816,1.816,0,0,0-1.813-1.813h-.012V45.874A1.816,1.816,0,0,0,32.72,44.06H26.346v-2.7h2.621a3.317,3.317,0,0,0,.954-6.493V32.89a1.812,1.812,0,0,0,.879-1.551v-.667h3.331a1.3,1.3,0,0,0,1.206.827h2.271a1.3,1.3,0,0,0,1.206-.827h5.5a1.369,1.369,0,0,0,1.256.827H58.828v20Z" transform="translate(-15.078 0)" fill="#23147b"/>
        <path id="Trazado_98714" data-name="Trazado 98714" d="M202.872,54.656a8.049,8.049,0,1,0,8.048-8.048A8.058,8.058,0,0,0,202.872,54.656Zm14.543,0a6.494,6.494,0,1,1-6.494-6.494A6.5,6.5,0,0,1,217.415,54.656Z" transform="translate(-183.412 -41.777)" fill="#23147b"/>
        <path id="Trazado_98715" data-name="Trazado 98715" d="M247.67,102.7a.777.777,0,1,0-1.1,1.1l2.391,2.391a.777.777,0,0,0,1.1,0l3.705-3.705a.777.777,0,0,0-1.1-1.1l-3.156,3.156Z" transform="translate(-222.378 -90.677)" fill="#23147b"/>
        <path id="Trazado_98716" data-name="Trazado 98716" d="M243.681,327.846a.777.777,0,0,0,.777.777h14.293a.777.777,0,1,0,0-1.554H244.458A.777.777,0,0,0,243.681,327.846Z" transform="translate(-219.992 -293.176)" fill="#23147b"/>
        <path id="Trazado_98717" data-name="Trazado 98717" d="M318.646,363.546h-7.369a.777.777,0,1,0,0,1.554h7.369a.777.777,0,1,0,0-1.554Z" transform="translate(-279.887 -325.873)" fill="#23147b"/>
        <path id="Trazado_98718" data-name="Trazado 98718" d="M244.458,365.1h4.23a.777.777,0,0,0,0-1.554h-4.23a.777.777,0,0,0,0,1.554Z" transform="translate(-219.992 -325.873)" fill="#23147b"/>
        <path id="Trazado_98719" data-name="Trazado 98719" d="M258.75,400.023H244.457a.777.777,0,1,0,0,1.554H258.75a.777.777,0,0,0,0-1.554Z" transform="translate(-219.991 -358.57)" fill="#23147b"/>
        <path id="Trazado_98720" data-name="Trazado 98720" d="M350.019,436.5h-3.742a.777.777,0,0,0,0,1.554h3.742a.777.777,0,0,0,0-1.554Z" transform="translate(-311.26 -391.267)" fill="#23147b"/>
        <path id="Trazado_98721" data-name="Trazado 98721" d="M252.626,436.5h-8.168a.777.777,0,1,0,0,1.554h8.168a.777.777,0,1,0,0-1.554Z" transform="translate(-219.992 -391.267)" fill="#23147b"/>
      </g>
    </g>
  </g>
</svg>
