<svg xmlns="http://www.w3.org/2000/svg" width="1086" height="434" viewBox="0 0 1086 434">
  <g id="Grupo_53510" data-name="Grupo 53510" transform="translate(-9279 -4345)">
    <rect id="Rectángulo_5103" data-name="Rectángulo 5103" width="212" height="136" transform="translate(9279 4345)" fill="#f5deff"/>
    <text id="Evaluación_orientada_a_resultados_centrados_en_el_paciente_" data-name="Evaluación orientada a 
resultados centrados en el paciente 
" transform="translate(9297 4380)" fill="#12263f" font-size="16" font-family="Roboto-Medium, Roboto" font-weight="500"><tspan x="0" y="17">Evaluación orientada a </tspan><tspan x="0" y="41">resultados centrados en </tspan><tspan x="0" y="65">el paciente </tspan></text>
    <rect id="Rectángulo_5104" data-name="Rectángulo 5104" width="212" height="136" transform="translate(9570 4345)" fill="#f5deff"/>
    <text id="Evidencia_del_comportamiento_de_elementos_medibles_" data-name="Evidencia del comportamiento de elementos medibles " transform="translate(9589 4366)" fill="#12263f" font-size="16" font-family="Roboto-Medium, Roboto" font-weight="500"><tspan x="0" y="17">Evidencia del </tspan><tspan x="0" y="41">comportamiento de </tspan><tspan x="0" y="65">elementos medibles </tspan></text>
    <rect id="Rectángulo_5105" data-name="Rectángulo 5105" width="212" height="136" transform="translate(9862 4345)" fill="#f5deff"/>
    <g id="Grupo_53513" data-name="Grupo 53513">
      <text id="El_evaluador_se_concentra_en_el_qué_dejando_el_cómo_a_la_Institución_" data-name="El evaluador se concentra en el “qué” dejando el “cómo” a la Institución  
" transform="translate(9885 4366)" fill="#12263f" font-size="16" font-family="Roboto-Medium, Roboto" font-weight="500"><tspan x="0" y="17">El evaluador se </tspan><tspan x="0" y="41">concentra en el “qué” </tspan><tspan x="0" y="65">dejando el “cómo” a la </tspan><tspan x="0" y="89" xml:space="preserve">Institución  </tspan></text>
    </g>
    <rect id="Rectángulo_5106" data-name="Rectángulo 5106" width="212" height="136" transform="translate(10153 4345)" fill="#f5deff"/>
    <text id="Seguimiento_a_pacientes_trazadores_" data-name="Seguimiento a pacientes trazadores   
" transform="translate(10184 4366)" fill="#12263f" font-size="16" font-family="Roboto-Medium, Roboto" font-weight="500"><tspan x="0" y="17">Seguimiento a </tspan><tspan x="0" y="41" xml:space="preserve">pacientes trazadores   </tspan><tspan x="0" y="65"></tspan></text>
    <rect id="Rectángulo_5107" data-name="Rectángulo 5107" width="212" height="189" transform="translate(9279 4533)" fill="#e4e0ff"/>
    <text id="Es_obtenido_a_través_del_desempeño_concentrándose_en_el_proceso_para_llegar_al_resultado._" data-name="Es obtenido a través del desempeño, concentrándose en el proceso para llegar al resultado. 
" transform="translate(9302 4554)" fill="#12263f" font-size="16" font-family="Roboto-Medium, Roboto" font-weight="500"><tspan x="0" y="17">Es obtenido a través </tspan><tspan x="0" y="41">del desempeño, </tspan><tspan x="0" y="65">concentrándose en el </tspan><tspan x="0" y="89">proceso para llegar al </tspan><tspan x="0" y="113">resultado. </tspan><tspan x="0" y="137"></tspan></text>
    <rect id="Rectángulo_5108" data-name="Rectángulo 5108" width="212" height="189" transform="translate(9570 4533)" fill="#e4e0ff"/>
    <text id="Buscar_y_calificar_el_cumplimiento_de_los_estándares_mediante_la_evidencia_de_comportamientos_medibles._" data-name="Buscar y calificar el cumplimiento de los estándares, mediante la evidencia de comportamientos medibles.  
" transform="translate(9592 4554)" fill="#12263f" font-size="16" font-family="Roboto-Medium, Roboto" font-weight="500"><tspan x="0" y="17">Buscar y calificar el </tspan><tspan x="0" y="41">cumplimiento de los </tspan><tspan x="0" y="65">estándares, mediante </tspan><tspan x="0" y="89">la evidencia de </tspan><tspan x="0" y="113">comportamientos </tspan><tspan x="0" y="137" xml:space="preserve">medibles.  </tspan></text>
    <rect id="Rectángulo_5109" data-name="Rectángulo 5109" width="212" height="246" transform="translate(9862 4533)" fill="#e4e0ff"/>
    <text id="Evalúa_la_manera_como_se_han_implementado_los_procesos_para_el_cumplimiento_de_los_estándares_respecto_a_su_autonomía_según_sus_condiciones._" data-name="Evalúa la manera como se han implementado los procesos para el cumplimiento de los estándares, respecto a su autonomía según sus condiciones.   
" transform="translate(9885 4554)" fill="#12263f" font-size="16" font-family="Roboto-Medium, Roboto" font-weight="500"><tspan x="0" y="17">Evalúa la manera </tspan><tspan x="0" y="41">como se han </tspan><tspan x="0" y="65">implementado los </tspan><tspan x="0" y="89">procesos para el </tspan><tspan x="0" y="113">cumplimiento de los </tspan><tspan x="0" y="137">estándares, respecto a </tspan><tspan x="0" y="161">su autonomía según </tspan><tspan x="0" y="185" xml:space="preserve">sus condiciones.   </tspan><tspan x="0" y="209"></tspan></text>
    <rect id="Rectángulo_5110" data-name="Rectángulo 5110" width="212" height="189" transform="translate(10153 4533)" fill="#e4e0ff"/>
    <text id="Se_evalúa_el_ciclo_de_atención_de_un_paciente_en_los_servicios_de_salud_y_el_desempeño_organizacional._" data-name="Se evalúa el ciclo de atención de un paciente en los servicios de salud y el desempeño organizacional. " transform="translate(10176 4554)" fill="#12263f" font-size="16" font-family="Roboto-Medium, Roboto" font-weight="500"><tspan x="0" y="17">Se evalúa el ciclo de </tspan><tspan x="0" y="41">atención de un paciente </tspan><tspan x="0" y="65">en los servicios de </tspan><tspan x="0" y="89">salud y el desempeño </tspan><tspan x="0" y="113">organizacional. </tspan></text>
    <g id="flecha-correcta_1_" data-name="flecha-correcta (1)" transform="translate(9489.62 4487.069) rotate(90)">
      <g id="Grupo_53403" data-name="Grupo 53403" transform="translate(0.57 92.221)">
        <path id="Trazado_98796" data-name="Trazado 98796" d="M31.117,122.98a3.291,3.291,0,0,1-3.291-3.291v-.907H10.93a3.43,3.43,0,0,1-3.43-3.43v-8.573a3.43,3.43,0,0,1,3.43-3.43h16.9v-.908a3.289,3.289,0,0,1,5.336-2.575l10.849,8.625a3.289,3.289,0,0,1,0,5.149l-10.849,8.625a3.3,3.3,0,0,1-2.045.715Z" transform="translate(-7.5 -99.151)" fill="#f5f5f5"/>
      </g>
      <g id="Grupo_53404" data-name="Grupo 53404" transform="translate(3.482 95.133)">
        <path id="Trazado_98797" data-name="Trazado 98797" d="M77.626,146.2l-10.849-8.625a.377.377,0,0,0-.612.3v3.443a.377.377,0,0,1-.377.377h-18.9a1.047,1.047,0,0,0-1.047,1.047v7.515a1.047,1.047,0,0,0,1.047,1.047h18.9a.377.377,0,0,1,.377.377v3.443a.377.377,0,0,0,.612.3l10.849-8.625A.377.377,0,0,0,77.626,146.2Z" transform="translate(-45.839 -137.488)" fill="#a397e3"/>
      </g>
      <g id="Grupo_53405" data-name="Grupo 53405" transform="translate(23.044 92.221)">
        <path id="Trazado_98798" data-name="Trazado 98798" d="M317.389,108.491l-10.849-8.625a3.284,3.284,0,0,0-3.188-.51,3.3,3.3,0,0,1,.909.51l10.848,8.625a3.289,3.289,0,0,1,0,5.149l-10.849,8.625a3.3,3.3,0,0,1-.91.511,3.284,3.284,0,0,0,1.144.2h0a3.3,3.3,0,0,0,2.045-.715l10.849-8.625a3.289,3.289,0,0,0,0-5.15Z" transform="translate(-303.352 -99.151)" fill="#ebe5ed"/>
      </g>
      <g id="Grupo_53406" data-name="Grupo 53406" transform="translate(23.808 95.133)">
        <path id="Trazado_98799" data-name="Trazado 98799" d="M324.881,146.2l-10.849-8.625a.377.377,0,0,0-.612.3v1.03l9.181,7.3a.377.377,0,0,1,0,.59l-9.181,7.3v1.03a.377.377,0,0,0,.612.3l10.849-8.625A.377.377,0,0,0,324.881,146.2Z" transform="translate(-313.421 -137.488)" fill="#e4e0ff"/>
      </g>
      <g id="Grupo_53407" data-name="Grupo 53407" transform="translate(0 91.651)">
        <path id="Trazado_98800" data-name="Trazado 98800" d="M24.187,116.62a3.865,3.865,0,0,1-3.861-3.861v-.337H15.8a.57.57,0,1,1,0-1.139H20.9a.57.57,0,0,1,.57.57v.907a2.719,2.719,0,0,0,4.412,2.13l10.849-8.625a2.72,2.72,0,0,0,0-4.258L25.878,93.382a2.719,2.719,0,0,0-4.412,2.129v.908a.57.57,0,0,1-.57.57H4a2.864,2.864,0,0,0-2.86,2.86v8.573A2.864,2.864,0,0,0,4,111.282h9.525a.57.57,0,1,1,0,1.139H4a4,4,0,0,1-4-4V99.849a4,4,0,0,1,4-4H20.326v-.338a3.858,3.858,0,0,1,6.261-3.021l10.848,8.625a3.859,3.859,0,0,1,0,6.041l-10.849,8.625a3.872,3.872,0,0,1-2.4.839Z" transform="translate(0 -91.651)" fill="#23147b"/>
      </g>
      <g id="Grupo_53408" data-name="Grupo 53408" transform="translate(2.912 94.563)">
        <path id="Trazado_98801" data-name="Trazado 98801" d="M59.613,149.127a.95.95,0,0,1-.413-.1.94.94,0,0,1-.535-.853v-3.251H39.955a1.619,1.619,0,0,1-1.617-1.617V135.8a1.619,1.619,0,0,1,1.617-1.617H43.88a.57.57,0,0,1,0,1.139H39.955a.478.478,0,0,0-.477.477v7.515a.478.478,0,0,0,.477.477h18.9a.948.948,0,0,1,.947.947v3.044l10.346-8.225L59.8,131.329v3.044a.948.948,0,0,1-.947.947h-12.7a.57.57,0,0,1,0-1.139H58.664V130.93a.947.947,0,0,1,1.536-.741l10.849,8.625a.947.947,0,0,1,0,1.482L60.2,148.92A.942.942,0,0,1,59.613,149.127Z" transform="translate(-38.338 -129.982)" fill="#23147b"/>
      </g>
    </g>
    <g id="flecha-correcta_1_2" data-name="flecha-correcta (1)" transform="translate(9780.62 4487.069) rotate(90)">
      <g id="Grupo_53403-2" data-name="Grupo 53403" transform="translate(0.57 92.221)">
        <path id="Trazado_98796-2" data-name="Trazado 98796" d="M31.117,122.98a3.291,3.291,0,0,1-3.291-3.291v-.907H10.93a3.43,3.43,0,0,1-3.43-3.43v-8.573a3.43,3.43,0,0,1,3.43-3.43h16.9v-.908a3.289,3.289,0,0,1,5.336-2.575l10.849,8.625a3.289,3.289,0,0,1,0,5.149l-10.849,8.625a3.3,3.3,0,0,1-2.045.715Z" transform="translate(-7.5 -99.151)" fill="#f5f5f5"/>
      </g>
      <g id="Grupo_53404-2" data-name="Grupo 53404" transform="translate(3.482 95.133)">
        <path id="Trazado_98797-2" data-name="Trazado 98797" d="M77.626,146.2l-10.849-8.625a.377.377,0,0,0-.612.3v3.443a.377.377,0,0,1-.377.377h-18.9a1.047,1.047,0,0,0-1.047,1.047v7.515a1.047,1.047,0,0,0,1.047,1.047h18.9a.377.377,0,0,1,.377.377v3.443a.377.377,0,0,0,.612.3l10.849-8.625A.377.377,0,0,0,77.626,146.2Z" transform="translate(-45.839 -137.488)" fill="#a397e3"/>
      </g>
      <g id="Grupo_53405-2" data-name="Grupo 53405" transform="translate(23.044 92.221)">
        <path id="Trazado_98798-2" data-name="Trazado 98798" d="M317.389,108.491l-10.849-8.625a3.284,3.284,0,0,0-3.188-.51,3.3,3.3,0,0,1,.909.51l10.848,8.625a3.289,3.289,0,0,1,0,5.149l-10.849,8.625a3.3,3.3,0,0,1-.91.511,3.284,3.284,0,0,0,1.144.2h0a3.3,3.3,0,0,0,2.045-.715l10.849-8.625a3.289,3.289,0,0,0,0-5.15Z" transform="translate(-303.352 -99.151)" fill="#ebe5ed"/>
      </g>
      <g id="Grupo_53406-2" data-name="Grupo 53406" transform="translate(23.808 95.133)">
        <path id="Trazado_98799-2" data-name="Trazado 98799" d="M324.881,146.2l-10.849-8.625a.377.377,0,0,0-.612.3v1.03l9.181,7.3a.377.377,0,0,1,0,.59l-9.181,7.3v1.03a.377.377,0,0,0,.612.3l10.849-8.625A.377.377,0,0,0,324.881,146.2Z" transform="translate(-313.421 -137.488)" fill="#e4e0ff"/>
      </g>
      <g id="Grupo_53407-2" data-name="Grupo 53407" transform="translate(0 91.651)">
        <path id="Trazado_98800-2" data-name="Trazado 98800" d="M24.187,116.62a3.865,3.865,0,0,1-3.861-3.861v-.337H15.8a.57.57,0,1,1,0-1.139H20.9a.57.57,0,0,1,.57.57v.907a2.719,2.719,0,0,0,4.412,2.13l10.849-8.625a2.72,2.72,0,0,0,0-4.258L25.878,93.382a2.719,2.719,0,0,0-4.412,2.129v.908a.57.57,0,0,1-.57.57H4a2.864,2.864,0,0,0-2.86,2.86v8.573A2.864,2.864,0,0,0,4,111.282h9.525a.57.57,0,1,1,0,1.139H4a4,4,0,0,1-4-4V99.849a4,4,0,0,1,4-4H20.326v-.338a3.858,3.858,0,0,1,6.261-3.021l10.848,8.625a3.859,3.859,0,0,1,0,6.041l-10.849,8.625a3.872,3.872,0,0,1-2.4.839Z" transform="translate(0 -91.651)" fill="#23147b"/>
      </g>
      <g id="Grupo_53408-2" data-name="Grupo 53408" transform="translate(2.912 94.563)">
        <path id="Trazado_98801-2" data-name="Trazado 98801" d="M59.613,149.127a.95.95,0,0,1-.413-.1.94.94,0,0,1-.535-.853v-3.251H39.955a1.619,1.619,0,0,1-1.617-1.617V135.8a1.619,1.619,0,0,1,1.617-1.617H43.88a.57.57,0,0,1,0,1.139H39.955a.478.478,0,0,0-.477.477v7.515a.478.478,0,0,0,.477.477h18.9a.948.948,0,0,1,.947.947v3.044l10.346-8.225L59.8,131.329v3.044a.948.948,0,0,1-.947.947h-12.7a.57.57,0,0,1,0-1.139H58.664V130.93a.947.947,0,0,1,1.536-.741l10.849,8.625a.947.947,0,0,1,0,1.482L60.2,148.92A.942.942,0,0,1,59.613,149.127Z" transform="translate(-38.338 -129.982)" fill="#23147b"/>
      </g>
    </g>
    <g id="flecha-correcta_1_3" data-name="flecha-correcta (1)" transform="translate(10072.62 4487.069) rotate(90)">
      <g id="Grupo_53403-3" data-name="Grupo 53403" transform="translate(0.57 92.221)">
        <path id="Trazado_98796-3" data-name="Trazado 98796" d="M31.117,122.98a3.291,3.291,0,0,1-3.291-3.291v-.907H10.93a3.43,3.43,0,0,1-3.43-3.43v-8.573a3.43,3.43,0,0,1,3.43-3.43h16.9v-.908a3.289,3.289,0,0,1,5.336-2.575l10.849,8.625a3.289,3.289,0,0,1,0,5.149l-10.849,8.625a3.3,3.3,0,0,1-2.045.715Z" transform="translate(-7.5 -99.151)" fill="#f5f5f5"/>
      </g>
      <g id="Grupo_53404-3" data-name="Grupo 53404" transform="translate(3.482 95.133)">
        <path id="Trazado_98797-3" data-name="Trazado 98797" d="M77.626,146.2l-10.849-8.625a.377.377,0,0,0-.612.3v3.443a.377.377,0,0,1-.377.377h-18.9a1.047,1.047,0,0,0-1.047,1.047v7.515a1.047,1.047,0,0,0,1.047,1.047h18.9a.377.377,0,0,1,.377.377v3.443a.377.377,0,0,0,.612.3l10.849-8.625A.377.377,0,0,0,77.626,146.2Z" transform="translate(-45.839 -137.488)" fill="#a397e3"/>
      </g>
      <g id="Grupo_53405-3" data-name="Grupo 53405" transform="translate(23.044 92.221)">
        <path id="Trazado_98798-3" data-name="Trazado 98798" d="M317.389,108.491l-10.849-8.625a3.284,3.284,0,0,0-3.188-.51,3.3,3.3,0,0,1,.909.51l10.848,8.625a3.289,3.289,0,0,1,0,5.149l-10.849,8.625a3.3,3.3,0,0,1-.91.511,3.284,3.284,0,0,0,1.144.2h0a3.3,3.3,0,0,0,2.045-.715l10.849-8.625a3.289,3.289,0,0,0,0-5.15Z" transform="translate(-303.352 -99.151)" fill="#ebe5ed"/>
      </g>
      <g id="Grupo_53406-3" data-name="Grupo 53406" transform="translate(23.808 95.133)">
        <path id="Trazado_98799-3" data-name="Trazado 98799" d="M324.881,146.2l-10.849-8.625a.377.377,0,0,0-.612.3v1.03l9.181,7.3a.377.377,0,0,1,0,.59l-9.181,7.3v1.03a.377.377,0,0,0,.612.3l10.849-8.625A.377.377,0,0,0,324.881,146.2Z" transform="translate(-313.421 -137.488)" fill="#e4e0ff"/>
      </g>
      <g id="Grupo_53407-3" data-name="Grupo 53407" transform="translate(0 91.651)">
        <path id="Trazado_98800-3" data-name="Trazado 98800" d="M24.187,116.62a3.865,3.865,0,0,1-3.861-3.861v-.337H15.8a.57.57,0,1,1,0-1.139H20.9a.57.57,0,0,1,.57.57v.907a2.719,2.719,0,0,0,4.412,2.13l10.849-8.625a2.72,2.72,0,0,0,0-4.258L25.878,93.382a2.719,2.719,0,0,0-4.412,2.129v.908a.57.57,0,0,1-.57.57H4a2.864,2.864,0,0,0-2.86,2.86v8.573A2.864,2.864,0,0,0,4,111.282h9.525a.57.57,0,1,1,0,1.139H4a4,4,0,0,1-4-4V99.849a4,4,0,0,1,4-4H20.326v-.338a3.858,3.858,0,0,1,6.261-3.021l10.848,8.625a3.859,3.859,0,0,1,0,6.041l-10.849,8.625a3.872,3.872,0,0,1-2.4.839Z" transform="translate(0 -91.651)" fill="#23147b"/>
      </g>
      <g id="Grupo_53408-3" data-name="Grupo 53408" transform="translate(2.912 94.563)">
        <path id="Trazado_98801-3" data-name="Trazado 98801" d="M59.613,149.127a.95.95,0,0,1-.413-.1.94.94,0,0,1-.535-.853v-3.251H39.955a1.619,1.619,0,0,1-1.617-1.617V135.8a1.619,1.619,0,0,1,1.617-1.617H43.88a.57.57,0,0,1,0,1.139H39.955a.478.478,0,0,0-.477.477v7.515a.478.478,0,0,0,.477.477h18.9a.948.948,0,0,1,.947.947v3.044l10.346-8.225L59.8,131.329v3.044a.948.948,0,0,1-.947.947h-12.7a.57.57,0,0,1,0-1.139H58.664V130.93a.947.947,0,0,1,1.536-.741l10.849,8.625a.947.947,0,0,1,0,1.482L60.2,148.92A.942.942,0,0,1,59.613,149.127Z" transform="translate(-38.338 -129.982)" fill="#23147b"/>
      </g>
    </g>
    <g id="flecha-correcta_1_4" data-name="flecha-correcta (1)" transform="translate(10363.136 4487.069) rotate(90)">
      <g id="Grupo_53403-4" data-name="Grupo 53403" transform="translate(0.57 92.221)">
        <path id="Trazado_98796-4" data-name="Trazado 98796" d="M31.117,122.98a3.291,3.291,0,0,1-3.291-3.291v-.907H10.93a3.43,3.43,0,0,1-3.43-3.43v-8.573a3.43,3.43,0,0,1,3.43-3.43h16.9v-.908a3.289,3.289,0,0,1,5.336-2.575l10.849,8.625a3.289,3.289,0,0,1,0,5.149l-10.849,8.625a3.3,3.3,0,0,1-2.045.715Z" transform="translate(-7.5 -99.151)" fill="#f5f5f5"/>
      </g>
      <g id="Grupo_53404-4" data-name="Grupo 53404" transform="translate(3.482 95.133)">
        <path id="Trazado_98797-4" data-name="Trazado 98797" d="M77.626,146.2l-10.849-8.625a.377.377,0,0,0-.612.3v3.443a.377.377,0,0,1-.377.377h-18.9a1.047,1.047,0,0,0-1.047,1.047v7.515a1.047,1.047,0,0,0,1.047,1.047h18.9a.377.377,0,0,1,.377.377v3.443a.377.377,0,0,0,.612.3l10.849-8.625A.377.377,0,0,0,77.626,146.2Z" transform="translate(-45.839 -137.488)" fill="#a397e3"/>
      </g>
      <g id="Grupo_53405-4" data-name="Grupo 53405" transform="translate(23.044 92.221)">
        <path id="Trazado_98798-4" data-name="Trazado 98798" d="M317.389,108.491l-10.849-8.625a3.284,3.284,0,0,0-3.188-.51,3.3,3.3,0,0,1,.909.51l10.848,8.625a3.289,3.289,0,0,1,0,5.149l-10.849,8.625a3.3,3.3,0,0,1-.91.511,3.284,3.284,0,0,0,1.144.2h0a3.3,3.3,0,0,0,2.045-.715l10.849-8.625a3.289,3.289,0,0,0,0-5.15Z" transform="translate(-303.352 -99.151)" fill="#ebe5ed"/>
      </g>
      <g id="Grupo_53406-4" data-name="Grupo 53406" transform="translate(23.808 95.133)">
        <path id="Trazado_98799-4" data-name="Trazado 98799" d="M324.881,146.2l-10.849-8.625a.377.377,0,0,0-.612.3v1.03l9.181,7.3a.377.377,0,0,1,0,.59l-9.181,7.3v1.03a.377.377,0,0,0,.612.3l10.849-8.625A.377.377,0,0,0,324.881,146.2Z" transform="translate(-313.421 -137.488)" fill="#e4e0ff"/>
      </g>
      <g id="Grupo_53407-4" data-name="Grupo 53407" transform="translate(0 91.651)">
        <path id="Trazado_98800-4" data-name="Trazado 98800" d="M24.187,116.62a3.865,3.865,0,0,1-3.861-3.861v-.337H15.8a.57.57,0,1,1,0-1.139H20.9a.57.57,0,0,1,.57.57v.907a2.719,2.719,0,0,0,4.412,2.13l10.849-8.625a2.72,2.72,0,0,0,0-4.258L25.878,93.382a2.719,2.719,0,0,0-4.412,2.129v.908a.57.57,0,0,1-.57.57H4a2.864,2.864,0,0,0-2.86,2.86v8.573A2.864,2.864,0,0,0,4,111.282h9.525a.57.57,0,1,1,0,1.139H4a4,4,0,0,1-4-4V99.849a4,4,0,0,1,4-4H20.326v-.338a3.858,3.858,0,0,1,6.261-3.021l10.848,8.625a3.859,3.859,0,0,1,0,6.041l-10.849,8.625a3.872,3.872,0,0,1-2.4.839Z" transform="translate(0 -91.651)" fill="#23147b"/>
      </g>
      <g id="Grupo_53408-4" data-name="Grupo 53408" transform="translate(2.912 94.563)">
        <path id="Trazado_98801-4" data-name="Trazado 98801" d="M59.613,149.127a.95.95,0,0,1-.413-.1.94.94,0,0,1-.535-.853v-3.251H39.955a1.619,1.619,0,0,1-1.617-1.617V135.8a1.619,1.619,0,0,1,1.617-1.617H43.88a.57.57,0,0,1,0,1.139H39.955a.478.478,0,0,0-.477.477v7.515a.478.478,0,0,0,.477.477h18.9a.948.948,0,0,1,.947.947v3.044l10.346-8.225L59.8,131.329v3.044a.948.948,0,0,1-.947.947h-12.7a.57.57,0,0,1,0-1.139H58.664V130.93a.947.947,0,0,1,1.536-.741l10.849,8.625a.947.947,0,0,1,0,1.482L60.2,148.92A.942.942,0,0,1,59.613,149.127Z" transform="translate(-38.338 -129.982)" fill="#23147b"/>
      </g>
    </g>
  </g>
</svg>
